<?xml version="1.0" encoding="UTF-8"?>
<svg enable-background="new 0 0 1727.982 1756.913" version="1.1" viewBox="0 0 1727.982 1756.913" xmlns="http://www.w3.org/2000/svg">
 <path d="m833.11 79.858c11.419-0.459 74.223-8.073 114.78 21.438 4.658 3.015 10.02 4.608 15.128 6.688 12.179 4.948 30.614 26.137 34.396 36.82 4.127 12.258 13.412 21.802 18.664 33.502 1.712 3.646 2.492 7.627 4.045 11.337 5.443 13.612 15.291 26.189 14.805 40.934 0.254 5.995-4.842 19.6 4.758 34.977 8.34 13.686 16.808 14.467 22.873 23.881 3.5 5.489 6.038 11.514 9.067 17.266 1.367 2.443 1.693 5.566 0.577 8.163-1.471 1.421-3.351 2.352-4.758 3.85-9.714 8.763-9.11 22.846-11.795 34.591-9.977 40.808-8.282 33.511-8.236 80.378-67.61 11.186-67.048 10.076-72.297 12.508-11.531 5.479-20.4 18.174-15.65 27.159 10.254 19.291 36.718 24.713 101.36 44.434 28.006 7.526 106.14-15.001 151.84 50.577 27.748 39.418 23.408 56.797 23.386 292.85 0.517 75.699 0.02 59.057 12.653 110.09 1.017 6.079 5.938 11.278 11.9 12.762 22.834 7.551 45.661 27.713 53.692 37.42 16.101 16.137 11.14 15.155 32.934 24.344 19.573 7.75 22.163 14.632 84.469 38.273 10.245-29.336 40.151-30.396 56.715-34.723 24.151-6.539 18.887-30.828 39.458-45.024 6.279-4.427 19.829-9.452 27.036-6.878 6.3 2.143 8.474 11.946 10.17 20.222 5.526 25.912 18.736 56.31 20.344 67.348 3.247 19.751 0.651 10.881 8.426 25.693 8.697-13.496 26.516-37.048 36.48-47.49 5.13-3.88 15.125 2.45 18.515 9.221 1.027 1.958 4.54 17.17-1.339 25.229-1.571 2.461-3.909 4.24-6.084 6.116-13.084 13.6-11.313 37.512-40.412 48.048-8.912 3.623-15.495 10.91-23.15 16.463-8.178 6.454-11.242 4.037-22.442 8.004-31.764 10.634-23.577 10.025-78.412 4.708-3.074-0.29-3.727-4.585-6.869-4.713-6.452-0.177-12.899 0.063-19.336 0.454-0.16 12.847-1 17.724 2.075 22.991 8.356 14.564 7.696 27.598 1.022 41.574-4.637 9.1-2.64 19.962-4.74 28.467-3.517 16.074-16.193 27.749-28.526 42.7-125.18 150.29-156.4 153.97-231.15 181.74 40.051 51.652 42.795 49.303 47.412 79.584 6.279 50.357-29.805 28.92-65.587 20.19-16.331-4.127-181.78-2.409-195.62-4.331-10.934-1.358-19.16-8.859-25.347-10.352-20.516-5.33-33.376 7.186-35.726 8.118-22.701 9.355-23.605 2.989-91.561 36.893-46.312 16.991-172.42 29.082-203.11 26.991-14.98-1.431-31.511-3.245-57.696 15.868-13.386 9.401-9.597 12.703-46.636 10.411-8.288-2.375-12.51-16.14-13.203-18.024-9.382-26.629-12.788-43.835-6.797-58.899 6.529-17.062 18.43-22.775 20.444-29.647 14.772-54.103 27.483-45.875 141.33-43.122 7.927 0.245 15.468-2.561 23.136-4.091-0.104-1.253-0.218-2.506-0.39-3.732-15.448-8.455-16.498-12.636-36.008-17.262-12.779-3.011-105-18.756-129.73-35.99-27.152-17.823-27.571-8.795-93.776-51.916-46.545-30.466-77.276-33.17-106.16-78.244-10.366-16.962-23.515-22.123-23.436-30.083-1.113-10.362-0.076-50.779-3.478-75.266-5.13 1.648-10.138 3.646-15.282 5.239-14.652 4.042-26.322-7.499-25.711 11.818-6.834 6.358-11.513 1.875-17.234 3.727-14.291 3.949-6.786 20.572-50.849 23.291-13.099 0.791-28.041-3.043-65.432-13.384-9.262-2.739-7.936-4.688-22.256-44.87-3.155-10.029-8.74-19.119-11.505-29.284-1.346-4.984-5.11-30.683 2.579-52.379 3.187-9.03 8.104-17.393 14.093-24.844 84.822 17.304 110.43 17.699 136.17 26.006 6.234 2.011 12.222 4.731 18.524 6.547 42.651 13.374 65.573 0.569 72.642-1.484 15.417 23.915 42.586-34.458 82.158-12.113-0.023-4.236 0-8.472-0.014-12.703 40.427-17.979 28.49-14.94 49.088-9.348 3.95-6.088 7.786-12.249 11.718-18.347 4.55 2.304 10.583 5.664 16.59 1.062 9.614-6.81 4.64-14.704 26.996-24.349 3.9-1.78 8.109-2.828 11.85-4.967 5.285-3.019 10.065-6.987 15.831-9.103 8.9-3.375 15.773 1.389 17.139 1.716 4.375-1.002 20.334-15.759 23.872-23.677 3.006-7.044-3.491-19.683-7.11-26.351-5.518-10.428-3.568-39.284-3.205-68.347 0.107-11.706-3.597-31.129-2.279-48.116-0.166-33.247 5.455-46.439-8.985-79.384-29.363-116.16-25.763-99.219-20.544-138.55 0.499-4.231 3.441-7.582 4.613-11.591 0.947-4.056-1.606-14.179 10.683-28.23 6.202-7.101 13.62-13.089 19.345-20.617 34.553-48.132 75.847-25.208 150.86-62.136 10.565-4.957 66.679-16.496 73.623-52.121 3.154-17.834 16.528-10.543-2.256-70.39-1.769-5.709-15.563-5.671-21.493-5.448-20.804 1.622-20.158 8.828-28.957 11.173-4.061 1.292-11.143-2.309-12.326-6.22-13.181-37.043-21.306-23.46-24.235-37.81-5.93-45.838-29.177-38.193-32.78-42.772-5.711-6.671-7.623-30.954-6.229-39.667 4.138-28.657-22.011-49.855-45.964-70.231-20.411-17.851 11.916-36.397 30.069-49.524 0.86 1.119 13.102 30.534 17.42 41.982 2.927 8.064 11.021 9.269 17.897 2.011 9.328-8.394 2.411-16.815 14.133-39.004 4.336-8.227 9.811-15.772 15.35-23.214 11.474-15.821 1.747-13.134 26.237-37.27 30.332-28.079 45.713-33.428 69.228-44.234 6.685-3.194 14.185-4.03 21.508-3.98m-123.93 892.96c0.135 16.914 1.149 31.286-3.183 93.617-7.096 109.83-70.679 98.39-107.02 108.57-18.515 4.963-36.675 11.11-54.972 16.789-0.268 1.489-0.486 2.987-0.785 4.477 48.066 20.971 97.168 39.513 146.78 56.474 2.633-9.475 3.21-19.672 8.077-28.403 6.038-12.49 13.847-24.072 19.146-36.925 9.927-24.062 41.192-139.28 15.972-184.89-7.734-14.629-20.583-27.023-24.017-29.714m422.63 90.316c-30.248 13.757 35.782 155.84 58.99 144.45 43.859-19.262 50.502-38.174 72.106-45.506 4.082-1.521 8.513-1.952 12.454-3.9 8.317-3.846 15.241-9.993 23.023-14.733 0.259-1.616 0.568-3.219 0.84-4.826-66.563 0.627-120.74-21.311-156.57-76.383-3.61-0.607-7.437-0.543-10.843 0.9m-1001.3 89.445c-1.973 12.318-8.669 23.807 6.647 35.98 8.116 6.254 17.264 10.2 20.095 20.757 34.114-27.323 20.139-30.05-26.742-56.737z"/>
</svg>
