<?xml version="1.0" encoding="UTF-8"?>
<svg enable-background="new 0 0 733.767 1735.598" version="1.1" viewBox="0 0 733.767 1735.598" xmlns="http://www.w3.org/2000/svg">
 <path d="m278.19 67.799c2.755 6.212 6.981 11.722 9.089 18.225 3.746 10.705-17.719 64.784 51.869 112.61 40.807 27.562 77.679 60.396 113.86 93.66 8.194 7.21 14.285 16.632 18.267 26.757 8.542 22.547 0.064 140.78-43.651 239.58-22.034 50.983-39.42 103.96-51.976 158.06-2.697 11.949-5.973 22.137-1.701 50.627 25.597 165.51 81.372 147.95 185.76 226.04 41.28 30.987 122.29 84.522 91.233 128.26-24.266 33.455-131.03 52.988-272.03 116.37-40.646 20.4-54.735 97.707-54.178 128.96-0.579 32.974 6.839 28.726 6.789 78.269 1.324 53.534 30.082 87.3 7.028 184.86-8.546 32.956-29.224 47.257-60.222 31.109 13.177-46.341 25.701-75.344 19.542-125.88-6.941-58.798-31.02-99.641-50.21-183.71-72.039-318.46-123.27-384.65-64.359-545.94 60.937-167.44-96.865-281.67-107.12-478.27 0.432-14.204 9.443-31.21 20.586-40.147 112.26-93.309 151.47-73.694 170.04-197.48 1.749-8.233 7.592-14.656 11.382-21.965m-72.989 182.19c-63.095 57.111-70.903 66.599-68.688 79.216 23.962 121.73 23.996 152.68 92.39 188.73-14.298-82.603-30.811-122.97-10.101-183.06 14.693-42.535 35.427-45.979 62.911-45.136 31.469 1.151 45.704 7.072 58.011 34.253 27.172 62.21 9.451 110.94-5.172 186.91 2.666 0.932 5.266 2.043 7.932 2.984 69.172-47.705 75.591-104.19 85.522-189.81 0.495-10.05-0.234-7.679-149.66-136.42-24.475 20.665-49.395 40.825-73.144 62.33m107.34 736.19c9e-3 65.933 5e-3 131.87 5e-3 197.8 77.781 5.37 119.17-62.684 184.12-83.081-61.389-38.216-122.75-76.48-184.12-114.72z"/>
</svg>
