<?xml version='1.0' encoding='utf-8'?>
<svg xmlns="http://www.w3.org/2000/svg" version="1.1" width="600px" height="976px" viewBox="0 0 600 976"> <g id="layer1"> <g style="fill:rgb(0,0,0); fill-opacity:1.0; stroke-linejoin: miter"> <path d="M168.11293,386.41217C168.64014,386.41217,169.2988,386.80405,169.56421,387.28534C169.87556,387.85712,169.8652,388.1432,169.61064,388.1432C169.35713,388.1432,168.86148,387.85953,168.2002,387.2918L167.14026,386.46063L168.10803,386.41217 Z M507.47028,609.8461C509.25452,609.8461,509.9142,609.8865,508.8532,609.97003C508.2352,610.0205,507.41156,610.04626,506.59744,610.04626C505.90494,610.04626,505.21936,610.0276,504.67313,609.9897C503.52872,609.90704,504.4965,609.8586,506.7845,609.84784C507.0284,609.8467,507.25735,609.8461,507.47028,609.8461 Z M436.41074,602.5356C437.52625,602.5356,438.55804,602.698,438.90146,603.0382C439.29935,603.4324,441.54446,603.64185,445.945,603.7091C450.96167,603.8176,452.59058,603.986,453.1651,604.5113C453.73938,604.9926,455.2804,605.2054,459.6809,605.27277C464.21365,605.3835,465.62247,605.5528,466.241,606.07794C466.82516,606.6153,467.9172,606.758,471.0734,606.758C471.26038,606.758,471.45462,606.7575,471.6564,606.75653C471.872,606.7555,472.0784,606.755,472.27594,606.755C475.5057,606.755,476.37796,606.8969,476.5876,607.3935C476.7509,607.8759,477.83368,608.0224,482.56717,608.0224C483.00687,608.0224,483.47806,608.0211,483.98297,608.01874C489.35114,608.03754,491.4199,608.15985,492.25815,608.63995C492.96408,609.03265,494.63718,609.2447,496.74936,609.2789C496.79663,609.2786,496.84366,609.27856,496.89047,609.27856C498.7174,609.27856,500.1823,609.4443,500.18338,609.6589C500.1846,609.9228,488.34906,610.15424,469.91287,610.285C453.28082,610.40704,431.9413,610.7272,422.52618,610.9916C410.8661,611.3372,406.12482,611.4767,403.5183,611.4767C401.39423,611.4767,400.68787,611.38403,398.8102,611.2348C397.9884,611.1778,397.28772,611.14655,396.6936,611.14655C395.56937,611.14655,394.82675,611.2585,394.36734,611.5197C393.94156,611.74774,393.4436,611.8614,392.74258,611.8614C392.21518,611.8614,391.57285,611.79706,390.7599,611.66864C388.51416,611.3272,388.29376,611.2403,389.12775,610.7963C389.6543,610.4858,393.30496,610.1607,398.54062,610.04803C405.7117,609.79425,407.11917,609.65576,407.42453,609.0823C407.73007,608.55286,408.4772,608.3734,410.3693,608.3645C412.1293,608.3562,413.1403,608.1315,413.4902,607.6898C413.88394,607.20386,414.89514,607.0231,417.0512,607.01294C418.98724,607.0039,420.21826,606.7782,420.61237,606.38025C420.96295,606.0707,422.4569,605.62354,423.95215,605.44055C425.40332,605.2577,426.85352,604.85486,427.15985,604.50146C427.46594,604.104,428.52094,603.879,429.929,603.8723C431.24905,603.8662,432.56784,603.59607,433.09402,603.1975C433.64154,602.7649,435.08524,602.5356,436.41074,602.5356 Z M211.48004,588.65485C211.5597,588.65485,211.64615,588.6569,211.73996,588.6602L211.7488,588.6602C212.45174,588.6602,213.37169,589.05054,213.8121,589.53046C214.29623,589.96643,215.21664,590.35675,215.87616,590.35675L215.89403,590.35675C216.50864,590.35675,217.2948,590.6161,217.55907,590.9649C217.82451,591.2718,219.23436,591.6612,220.64323,591.8306C222.09612,591.9997,223.32982,592.3459,223.46318,592.65326C223.53949,592.9526,224.41185,593.0886,226.13452,593.0886C226.436,593.0886,226.76353,593.0845,227.11739,593.0763C227.42609,593.0695,227.71355,593.06604,227.98141,593.06604C229.9279,593.06604,230.83958,593.24927,231.34439,593.67236C231.87466,594.15393,233.45993,594.4105,236.8486,594.5265C239.44528,594.6465,241.86705,594.98694,242.22026,595.2494C242.61772,595.55554,245.96281,595.75977,251.46332,595.8219C256.21582,595.8876,260.30914,596.13245,260.53003,596.3075C260.79504,596.5261,261.89655,596.829,262.95337,597.0C264.0542,597.1709,265.2885,597.6492,265.7306,598.08704C266.17114,598.56726,266.96045,598.91455,267.53195,598.91455L267.54605,598.91455C268.11557,598.91455,268.6848,599.2187,268.86166,599.5685C268.9947,599.91815,269.607,600.2221,270.2201,600.2221L270.23752,600.2221C270.85062,600.2221,271.46292,600.52606,271.59604,600.87585C271.7732,601.2259,272.2125,601.531,272.60757,601.531L272.61407,601.531C273.0126,601.531,274.11145,601.92126,275.0793,602.39954C276.04642,602.87744,277.2317,603.26685,277.7623,603.26685L277.7738,603.26685C278.30075,603.26685,278.95816,603.5708,279.26663,603.92C279.57486,604.2688,280.275,604.5722,280.88892,604.5722L280.90656,604.5722C281.47922,604.5722,282.39777,604.83105,282.9247,605.1788C283.4544,605.52826,284.77625,605.918,285.83313,606.0892C286.93396,606.25995,288.08002,606.69464,288.43347,607.00104C288.78314,607.3474,289.9065,607.60406,291.16504,607.60406C291.1795,607.60406,291.19394,607.604,291.20844,607.60394C291.22595,607.6039,291.24344,607.6038,291.26083,607.6038C292.64267,607.6038,293.6787,607.86127,294.0716,608.25055C294.54227,608.7168,295.6711,608.8915,298.0173,608.8915C298.0951,608.8915,298.17426,608.8913,298.25476,608.8909C298.322,608.8906,298.38834,608.89044,298.4538,608.89044C300.87378,608.89044,302.10483,609.10675,302.87845,609.61725C303.93753,610.2723,306.314,610.34906,326.33505,610.3872C338.56775,610.4177,349.305,610.5873,350.14188,610.7594C353.70926,611.44666,334.83423,611.84326,272.92593,612.35406L207.7614,612.83594L207.9287,610.98706C208.05597,609.9745,208.40283,608.8728,208.70917,608.5194C209.1911,608.077,209.31427,606.18445,209.28656,600.2883C209.25674,593.9521,209.33853,592.63165,209.90952,592.409C210.34885,592.27496,210.56558,591.56976,210.56003,590.3818C210.55305,588.8926,210.62553,588.65485,211.48004,588.65485 Z M163.755,296.7184C161.50858,296.7184,158.86424,296.99484,156.60208,297.53836C154.66812,297.98734,152.25058,298.52676,151.23933,298.70743C150.18416,298.88846,149.26161,299.2007,149.08656,299.42166C148.95558,299.64224,148.38448,299.82095,147.85646,299.82352C147.28444,299.8262,146.31825,300.2267,145.70454,300.71365C145.09077,301.20047,144.2126,301.60062,143.7726,301.6027C143.28859,301.605,142.14644,302.00638,141.1805,302.45096C140.21474,302.93948,138.19356,303.56497,136.69905,303.88004C133.92963,304.46503,133.88586,304.50934,132.84056,306.80225C132.23058,308.08105,131.57549,309.14026,131.35551,309.14124C131.13548,309.14233,130.82939,309.5398,130.69963,310.02454C130.56987,310.50916,129.95634,311.03995,129.34099,311.17484C128.63774,311.35416,128.28764,311.75186,128.29094,312.45596C128.29509,313.33597,128.03166,313.46915,125.436874,313.7454C123.85368,313.92886,122.051125,314.24527,121.39231,314.51248C121.01204,314.6546,120.65881,314.72348,120.29936,314.72348C119.86997,314.72348,119.431694,314.62518,118.92783,314.43594C118.477005,314.25058,118.13843,314.15256,117.810036,314.15256C117.36769,314.15256,116.943825,314.3304,116.28898,314.7123C113.5242,316.2654,112.91232,317.14822,112.92264,319.3483C112.927826,320.4484,113.242035,321.767,113.596344,322.2493C114.26047,323.12625,114.44511,324.97342,113.92081,325.76797C113.746124,326.03275,113.17618,326.4755,112.64938,326.74197C112.12283,327.05252,111.5983,327.803,111.425446,328.46378C111.29672,329.1685,110.50943,330.1841,109.544525,330.8488C108.53604,331.60147,107.44284,333.05875,106.65805,334.60245C105.35026,337.2048,104.30021,338.4858,102.93845,338.97617C102.54331,339.15402,101.62321,339.99435,100.92332,340.87766C99.69809,342.33554,99.611725,342.68796,99.7128,345.4597C99.8132,348.0992,99.94766,348.62668,101.05308,349.76547C101.71567,350.5093,102.59682,351.07663,102.9498,351.07663L102.95749,351.07663C103.352325,351.07663,103.83328,351.24963,104.0532,351.4675C104.75988,352.16748,108.67925,354.12656,109.3881,354.12656L109.39244,354.12656C109.69958,354.12656,110.007195,354.38852,110.00859,354.69565C110.01024,355.04758,110.67418,355.88058,111.425705,356.6251C113.41423,358.4199,114.29961,359.55966,114.656784,360.65805C114.791115,361.18466,115.14414,361.5787,115.36424,361.5787L115.36638,361.5787C115.585785,361.5787,115.762375,361.8414,115.76366,362.10495C115.76506,362.41293,116.07702,363.24753,116.476555,363.99362C116.87591,364.6959,117.41131,366.2773,117.59307,367.5085C117.81872,368.69556,118.17565,369.74988,118.44012,369.83667C118.70452,369.92346,118.890434,372.03467,118.9049,375.11475C118.918144,377.9308,119.15276,381.05383,119.37737,382.02075C119.64587,382.98755,120.01098,385.75806,120.2423,388.177C120.47393,390.64,120.96972,393.14575,121.369194,393.89197C122.34588,395.73547,122.51678,413.37943,121.55041,413.736C121.11126,413.91397,120.808586,415.05948,120.59936,417.34866C120.476006,419.1973,120.0451,421.1354,119.73937,421.62088C119.38964,422.10648,119.131035,423.25174,119.13537,424.1757C119.1397,425.09976,118.8366,426.15726,118.48632,426.51102C118.13616,426.9086,117.83141,427.61404,117.83367,428.09805C117.83599,428.58206,117.444084,429.4639,116.963005,430.08218C116.481865,430.7006,116.09002,431.58243,116.092094,432.0224C116.09435,432.5064,115.91997,432.8593,115.7,432.8603C115.479965,432.8614,115.17467,433.43475,115.00194,434.1396C114.87334,434.8443,114.43718,435.6823,114.086655,435.992C113.735886,436.25763,113.47575,437.0949,113.47911,437.7989C113.48241,438.50287,113.22398,439.69232,112.87572,440.4859C112.571396,441.27936,112.18388,443.08527,111.97075,444.5384C111.8015,445.99115,111.412766,447.53314,111.06297,448.01874C110.71324,448.50446,110.45384,449.4737,110.45714,450.17767C110.460434,450.88165,110.069626,451.98358,109.54448,452.6021C108.80101,453.57355,108.71568,454.14606,108.94646,456.43304C109.17491,458.23602,109.00951,460.48102,108.45152,463.47577C107.50915,468.9364,107.37408,487.02176,108.30248,487.94156C108.61187,488.24808,108.880424,489.21487,108.88476,490.13895C108.89342,491.986,109.696396,494.48856,110.268364,494.48856L110.26995,494.48856C110.48962,494.48856,110.6676,494.9713,110.67029,495.54276C110.67316,496.15872,110.940674,496.90555,111.25012,497.21207C111.55957,497.5186,112.04712,498.26434,112.35797,498.87897C113.37909,500.81024,113.99945,501.73138,114.97266,502.82684C115.54736,503.39618,115.99127,504.23016,115.99335,504.6701C115.99601,505.23666,116.34234,505.4563,117.246704,505.4563C117.25544,505.4563,117.26423,505.45627,117.27307,505.45624C117.28189,505.4562,117.2907,505.45618,117.29951,505.45618C117.99358,505.45618,118.63888,505.58392,118.72657,505.7574C118.94889,506.28387,121.637886,508.0733,122.16848,508.0733L122.17094,508.0733C122.39052,508.0733,122.61079,508.3359,122.61225,508.64325C122.613716,508.95123,123.18922,509.6966,123.89619,510.30927C124.64729,510.96576,125.356094,511.97443,125.49098,512.5899C125.669815,513.205,126.06874,513.8193,126.4214,513.9495C126.774,514.0799,127.03987,514.47455,127.041275,514.78265C127.04292,515.1346,127.35347,515.6613,127.706924,515.9676C128.06032,516.274,128.37105,516.84454,128.37294,517.24054C128.41878,517.6363,128.77596,518.7347,129.26454,519.7005C129.75307,520.6662,130.11,521.72064,130.15547,522.0284C130.15694,522.33636,130.46657,522.68695,130.81923,522.8173C131.21608,522.9914,131.48311,523.6502,131.48647,524.3542C131.48976,525.05743,131.66809,525.6281,131.93161,525.6281L131.93312,525.6281C132.15292,525.6281,132.37477,526.1106,132.37746,526.68207C132.38033,527.29803,132.73586,528.0445,133.17732,528.3504C133.61873,528.6563,135.25554,530.4968,136.76067,532.4259C138.30974,534.3546,139.72545,535.9761,139.94585,536.063C140.1663,536.1499,140.34392,536.5012,140.34557,536.8533C140.34721,537.20404,140.65448,537.46606,141.00505,537.46606L141.01118,537.46606C141.36205,537.46606,141.66997,537.772,141.67162,538.1231C141.67345,538.5191,141.93932,538.9139,142.29192,539.0441C142.64458,539.1745,143.08788,539.8765,143.22319,540.5798C143.40227,541.28217,143.80008,541.8516,144.15178,541.8516L144.15617,541.8516C144.5067,541.8516,144.77061,542.15765,144.77232,542.5086C144.77641,543.3883,147.96162,547.5068,148.62323,547.5068L148.62396,547.5068C148.93219,547.5494,149.1972,547.7681,149.19843,548.03217C149.20154,548.692,155.56436,554.9954,156.227,554.9954L156.22905,554.9954C156.49232,554.9954,156.71289,555.30176,156.7146,555.65314C156.71643,556.04913,157.24628,556.4427,158.03894,556.571C159.09601,556.7861,159.36145,557.0927,159.36542,557.9288C159.36871,558.63275,159.67896,559.1154,160.2516,559.2447C160.73622,559.37445,161.13387,559.72455,161.13515,559.9886C161.13863,560.7355,163.55927,562.4361,164.66168,562.4361L164.67194,562.4361C165.15361,562.4361,165.54823,562.7412,165.54988,563.09186C165.55153,563.44275,165.9026,563.7482,166.34055,563.7482L166.34926,563.7482C166.83315,563.7482,167.53622,564.14,167.97719,564.62054C168.4187,565.1017,169.03526,565.4943,169.29999,565.4943L169.30336,565.4943C169.61093,565.4943,169.96317,565.8002,170.14046,566.15045C170.2737,566.5009,170.66931,566.80634,171.02065,566.80634L171.02559,566.80634C171.3333,566.80634,171.7294,567.1118,171.9067,567.46234C172.03975,567.8121,172.60855,568.11615,173.22139,568.11615L173.23997,568.11615C173.8944,568.11615,174.33218,568.4218,174.50998,568.9902C174.6439,569.55853,175.12492,569.86395,175.82289,569.86395L175.83414,569.86395C175.83849,569.86395,175.8428,569.8639,175.84714,569.8639C176.98187,569.8639,177.46552,570.5668,177.47354,572.2763C177.47604,572.8044,177.78732,573.5069,178.14078,573.8133C178.49423,574.11957,178.80637,574.9981,178.8099,575.74615C178.81345,576.4942,179.08212,577.50494,179.4365,577.98737C179.74673,578.4699,180.1068,580.1843,180.24626,581.7677C180.34355,583.7475,180.65717,584.934,181.18744,585.4156C181.76215,585.9849,181.94275,586.9521,181.95386,589.3282C181.96442,591.5722,182.19037,592.8471,182.67767,593.5489C183.25342,594.3383,183.38959,595.2177,183.18176,597.81476C182.97462,600.54395,183.06569,601.2035,183.81807,602.1239C184.26076,602.694,184.66005,603.3961,184.66109,603.6161C184.66212,603.83606,183.16756,604.1511,181.3199,604.2478C179.51628,604.3442,177.88951,604.6159,177.7147,604.8808C177.53996,605.14557,176.04558,605.5046,174.41814,605.6442C172.79094,605.8278,171.03276,606.2321,170.46263,606.6308C169.93626,606.9854,169.18974,607.2968,168.79375,607.29877C168.39767,607.3006,167.82712,607.61127,167.52072,607.9648C167.08322,608.4948,165.71982,608.63324,160.52774,608.65765C155.77559,608.68,153.84041,608.86505,153.22652,609.3079C152.65633,609.7066,150.67757,609.9799,147.46584,610.08307C144.3424,610.2297,142.31964,610.50323,141.88129,610.85736C141.55008,611.1545,140.69063,611.33,139.66771,611.33C139.47269,611.33,139.27171,611.3236,139.06732,611.3105C138.6904,611.28534,138.37756,611.2709,138.115,611.2709C137.08977,611.2709,136.83131,611.49146,136.51917,612.1585L136.08392,613.17255L70.03853,613.4827C11.825329,613.7561,3.9056435,613.88135,3.4243197,614.45557C3.1179228,614.8091,2.5474267,615.11975,2.1513693,615.1216C1.7113664,615.12366,1.00879,615.43494,0.5264287,615.7893C0.08807381,616.1433,-0.87847984,616.45593,-1.5385145,616.459C-2.41852,616.46313,-2.8573022,616.729,-3.0303981,617.34595C-3.1597316,617.9186,-3.642276,618.2289,-4.258243,618.2318C-4.830265,618.2345,-5.576909,618.5459,-5.971257,618.8999C-6.3215995,619.2534,-6.8921566,619.5642,-7.2001405,619.5657C-7.508185,619.56714,-8.386298,619.9673,-9.088081,620.4546C-9.83381,620.94214,-10.931955,621.34326,-11.547983,621.3462C-12.207957,621.34924,-12.9546,621.66077,-13.260937,622.01434C-13.567211,622.36774,-14.137829,622.6784,-14.577832,622.6805C-14.973828,622.6823,-15.76399,623.0821,-16.333754,623.5688C-16.903517,624.0555,-17.605606,624.4548,-17.957596,624.4565C-18.26564,624.45795,-18.528824,624.6351,-18.527786,624.85516C-18.526749,625.07513,-19.097305,625.3858,-19.800554,625.5651C-20.503862,625.7004,-21.205889,626.14374,-21.336199,626.4964C-21.466509,626.84894,-21.905293,627.11505,-22.345295,627.1171C-23.57735,627.123,-29.898401,630.3647,-29.939478,630.981C-29.93783,631.33295,-30.55276,631.55585,-31.432827,631.56C-32.268826,631.5639,-33.235622,631.83246,-33.54214,632.1419C-33.848537,632.4954,-34.550262,632.9827,-35.12082,633.2934C-36.174164,633.8704,-36.47165,636.1158,-35.58914,636.63983C-35.460285,636.7419,-23.645267,636.7891,-5.503318,636.7891C7.44512,636.7891,23.616554,636.7651,41.062477,636.7197C57.66187,636.65643,72.25023,636.62695,84.70442,636.62695C109.68712,636.62695,126.082115,636.74567,132.89548,636.9485C137.84149,637.0925,146.20506,637.1557,155.88756,637.1557C181.87164,637.1557,217.3543,636.701,221.7754,636.1352C224.37001,635.815,305.94717,635.3,484.0633,634.50757C626.2749,633.8838,742.83295,633.20447,743.0961,633.0272C744.41125,632.22974,742.5913,627.9329,740.9645,627.9329L740.95856,627.9329C740.694,627.9329,740.16583,627.62805,739.81305,627.2784C739.41534,626.92816,738.62115,626.4919,737.96063,626.363C737.3,626.2342,736.1541,625.84357,735.36035,625.4952C734.61456,625.14844,733.5208,624.89056,732.94635,624.89056L732.93085,624.89056C732.40204,624.89056,731.5261,624.5876,731.0863,624.2392C730.603,623.8911,729.72766,623.58856,729.112,623.58856L729.09467,623.58856C728.4787,623.58856,727.55963,623.2862,727.1201,622.9378C726.6374,622.5901,725.63336,622.28845,724.84357,622.28845C724.8387,622.28845,724.83374,622.2885,724.82886,622.2885C724.8238,622.2885,724.8188,622.2886,724.8137,622.2886C724.069,622.2886,723.1977,622.0297,722.9337,621.6814C722.62415,621.3308,721.3904,620.94055,720.1134,620.7705C718.83655,620.6006,717.4265,620.1671,716.94104,619.86145C716.4584,619.51385,715.58484,619.2549,714.92615,619.2549L714.90436,619.2549C714.24805,619.2549,713.63574,618.9511,713.459,618.6018C713.32605,618.2091,712.6733,617.94916,711.8888,617.94916C711.8832,617.94916,711.8775,617.9492,711.8718,617.9492L711.8629,617.9492C711.1564,617.9492,709.7983,617.56085,708.9197,617.083C707.9953,616.60443,706.94,616.214,706.5858,616.214L706.5807,616.214C706.1824,616.214,705.08344,615.8237,704.1593,615.3452C703.2498,614.8778,702.34143,614.6199,701.607,614.6199C701.45087,614.6199,701.3026,614.6315,701.1639,614.6553C700.9481,614.69946,700.7464,614.7201,700.57263,614.7201C700.21515,614.7201,699.97565,614.63293,699.9749,614.48486C699.97394,614.2649,699.4443,613.9153,698.7397,613.7866C698.0789,613.6138,696.84454,613.1355,696.0063,612.6554C695.16974,612.2202,694.2023,611.8732,693.89233,611.8732L693.88837,611.8732C693.57983,611.8732,693.00824,611.56854,692.65533,611.21906C692.2613,610.8286,691.17706,610.5709,690.1304,610.5709C690.12036,610.5709,690.1103,610.5709,690.1003,610.571C690.08765,610.57104,690.0751,610.57104,690.06256,610.57104C688.8926,610.57104,687.9832,610.31274,687.6331,609.92267C687.32513,609.57404,686.4518,609.27167,685.7064,609.27167L685.6825,609.27167C684.93335,609.27167,683.70874,608.927,683.0063,608.5363C681.9797,607.9483,676.74664,607.5946,671.98584,607.5946C668.9721,607.5946,666.1476,607.7363,664.69916,608.0502C660.3915,608.9945,654.9812,609.4159,645.0814,609.5504C642.23145,609.60284,640.2129,609.63983,638.7592,609.63983C635.29803,609.63983,635.03906,609.43024,634.3851,608.7206C633.89996,608.1964,633.0218,607.76154,632.4496,607.76154L632.4368,607.76154C631.8673,607.76154,631.29816,607.4574,631.1212,607.10785C630.94653,606.6346,630.26685,606.45917,628.75055,606.45917C628.7188,606.45917,628.68665,606.4592,628.6542,606.4594C628.6196,606.4596,628.5855,606.45966,628.5518,606.45966C626.7828,606.45966,626.1667,606.2306,624.99585,605.15643C621.46643,601.87885,620.0082,600.78375,619.1715,600.78375L619.164,600.78375C618.6792,600.78375,617.7551,600.2608,617.13715,599.5612C615.0179,597.28674,610.52905,594.6729,608.63135,594.6729L608.6142,594.6729C608.0447,594.6729,607.4755,594.3688,607.2986,594.019C607.1656,593.66895,606.63983,593.36456,606.11383,593.36456L606.1056,593.36456C605.2225,593.36456,601.73804,590.52454,601.7345,589.77704C601.7295,588.7213,595.75867,581.53656,594.92004,581.53656L594.9192,581.53656C594.7865,581.53656,593.72687,580.66174,592.57806,579.56757C591.4289,578.47284,590.01605,577.46747,589.44354,577.3381C588.91486,577.2087,588.47345,576.9028,588.4726,576.72675C588.46954,576.0677,584.556,574.1109,583.2739,574.1109L583.2563,574.1109C582.55475,574.1109,581.72485,573.8083,581.4169,573.45966C581.10834,573.1101,580.4939,572.80597,580.05426,572.80597L580.0403,572.80597C579.56116,572.80597,579.2128,572.63214,579.2116,572.36993C579.2083,571.6659,576.5536,571.16156,573.5088,571.16156C572.93787,571.16156,572.3533,571.17926,571.76984,571.21674C567.67926,571.544,566.84503,571.94403,563.7358,575.0827C560.8892,578.0002,558.5191,579.24347,554.3858,579.8789C552.97797,580.099,552.0356,580.2134,551.24725,580.2134C550.4106,580.2134,549.7474,580.0846,548.88525,579.8168C547.78357,579.47,545.71265,578.86346,544.25854,578.43036C542.8047,578.0411,540.8212,577.3463,539.85126,576.911C538.8813,576.51953,537.7791,576.04065,537.42645,575.9103C537.0738,575.7799,536.45636,575.47485,536.1032,575.2565C534.38513,574.25415,531.3066,573.0388,530.46466,573.0388L530.45294,573.0388C529.9706,573.0388,529.4028,572.8227,529.27057,572.6045C529.13727,572.34106,528.1235,571.9498,527.02216,571.6909C525.96484,571.4319,525.083,571.04004,525.08215,570.864C525.0812,570.64404,524.46387,570.38293,523.71497,570.21045C522.9662,570.03796,521.86426,569.6471,521.2025,569.2982C520.54315,568.9504,519.7092,568.6909,519.35516,568.6909L519.34875,568.6909C518.99585,568.6909,518.29297,568.38684,517.85254,568.03796C517.4109,567.68787,515.6915,566.99207,514.105,566.4713C512.51855,565.9508,509.9619,564.9949,508.46252,564.29785C506.96326,563.6008,503.61313,562.34045,500.9692,561.51685C498.369,560.64905,495.7244,559.6934,495.1066,559.3443C494.4893,559.0391,493.07925,558.6497,491.93448,558.4792C490.7897,558.30853,489.7758,557.9173,489.64212,557.56586C489.50937,557.21716,488.7709,556.95807,487.89987,556.95807C487.89297,556.95807,487.88608,556.95807,487.87915,556.9581C487.86548,556.9582,487.8519,556.95825,487.83844,556.95825C486.7246,556.95825,486.2914,556.7376,486.07092,556.08655C485.89105,555.55524,485.71268,555.34174,485.01474,555.34174C484.67395,555.34174,484.2093,555.39264,483.56006,555.4823C482.9114,555.57806,482.43085,555.62964,482.0611,555.62964C481.3781,555.62964,481.0733,555.4537,480.7859,555.0554C480.4319,554.61694,479.32996,554.2261,477.9651,554.0565C476.73242,553.9303,475.49866,553.54016,475.23315,553.2333C474.96896,552.8846,474.18335,552.62537,473.52563,552.62537L473.50284,552.62537C472.80356,552.62537,472.19177,552.3217,472.0151,551.9723C471.88196,551.62274,471.26974,551.3187,470.6567,551.3187L470.63904,551.3187C470.02213,551.3187,469.01566,551.01654,468.44455,550.6251C467.8707,550.2318,466.10886,549.844,464.61215,549.7191C463.0715,549.59424,461.30966,549.20654,460.64816,548.9016C459.8136,548.478,455.80426,548.2649,451.83286,548.2649C448.03802,548.2649,444.2778,548.4595,443.3551,548.8509C442.60852,549.1624,440.76215,549.523,439.1791,549.75055C437.59592,549.9339,433.85812,550.4355,430.82394,550.84576C427.5133,551.31757,420.73145,551.53735,413.92584,551.53735C405.63577,551.53735,397.31052,551.21124,395.18124,550.61707C393.86978,550.23035,391.9956,549.9328,390.9779,549.9328C390.96985,549.9328,390.96182,549.9328,390.9539,549.93286C390.94598,549.9329,390.93808,549.9329,390.9301,549.9329C389.91992,549.9329,388.52722,549.6336,387.8707,549.28735C387.16943,548.94086,385.9468,548.6402,385.15433,548.6402C385.14938,548.6402,385.14447,548.64026,385.13956,548.64026C385.13483,548.64026,385.1301,548.6403,385.12534,548.6403C384.33594,548.6403,383.37595,548.3384,383.0244,547.9901C382.62814,547.6412,381.97,547.3373,381.48648,547.3373L381.4774,547.3373C380.9907,547.3373,379.7605,546.9039,378.74866,546.3821C375.121,544.52423,374.56854,544.29376,373.70258,544.29376C373.6946,544.29376,373.68665,544.29376,373.67865,544.2938L373.67316,544.2938C373.18997,544.2938,372.576,543.9896,372.26752,543.6404C371.9591,543.2913,371.30164,542.9874,370.7747,542.9874L370.76837,542.9874C370.28418,542.9458,369.05054,542.5995,368.0802,542.12C367.10992,541.6405,366.0082,541.2938,365.61203,541.2516L365.6085,541.2516C365.21255,541.2516,364.64163,540.9471,364.33286,540.59753C364.02545,540.2496,363.0676,539.9478,362.14957,539.9478C362.14294,539.9478,362.13635,539.9478,362.12973,539.9479C362.1233,539.9479,362.11685,539.94794,362.1104,539.94794C361.19226,539.94794,360.23404,539.6463,359.9265,539.29816C359.61893,538.9499,358.66013,538.6482,357.78476,538.6482C357.77896,538.6482,357.77316,538.64825,357.7674,538.64825C356.88715,538.60834,355.3895,538.2635,354.41922,537.784C353.44888,537.3045,351.73117,536.9605,350.63095,536.9218C350.61655,536.9219,350.60217,536.92194,350.58783,536.92194C349.33313,536.92194,348.3817,536.6638,348.03183,536.274C347.68362,535.84283,346.69833,535.62756,345.15964,535.62756C345.13348,535.62756,345.10715,535.6276,345.08066,535.62775C345.06607,535.6278,345.05148,535.62787,345.03683,535.62787C343.76953,535.62787,342.2573,535.3729,341.73367,535.0275C341.20425,534.72186,339.61838,534.3333,338.20972,534.20795C336.80103,534.0826,335.34735,533.73737,335.0381,533.4748C334.68463,533.1685,333.1432,532.86774,331.64655,532.7426C330.10608,532.6619,328.12415,532.2752,327.1985,531.92755C326.3222,531.5818,325.0117,531.325,324.34772,531.325L324.33557,531.325C322.9713,531.2874,318.2122,529.8136,317.41702,529.15735C317.10806,528.9387,315.9183,528.5924,314.72968,528.4659C313.54083,528.29535,312.39496,527.9047,312.2173,527.55365C312.04083,527.2483,311.29926,526.9891,310.64206,526.9891L310.63055,526.9891C310.6254,526.9891,310.62024,526.98914,310.61508,526.98914C309.74332,526.98914,309.13,526.63947,308.64514,525.8543C308.17413,525.1937,307.67026,524.8788,307.13333,524.8788C307.0643,524.8788,306.99475,524.884,306.92462,524.89435C306.82828,524.9096,306.73187,524.9171,306.6359,524.9171C305.59308,524.9171,304.599,524.03485,304.23013,522.707C304.05173,522.17975,303.4766,521.5224,302.9471,521.217C302.41788,520.9554,301.49014,520.1678,300.87082,519.4665C300.29642,518.8101,299.54694,518.24225,299.23816,518.24225L299.23526,518.24225C298.928,518.24225,298.66312,517.848,298.66086,517.3649C298.6586,516.8816,298.4373,516.487,298.21762,516.487L298.2159,516.487C297.95065,516.487,296.93677,515.8762,295.92245,515.1777C294.95224,514.4352,293.85126,513.86896,293.49765,513.86896L293.494,513.86896C293.1863,513.86896,292.79044,513.5634,292.65707,513.2128C292.48,512.8629,291.99725,512.55817,291.55844,512.55817L291.54993,512.55817C291.06604,512.55817,290.363,512.1662,289.9658,511.6855C289.5243,511.20425,288.95157,510.81146,288.68698,510.81146L288.68094,510.81146C288.3745,510.81146,288.06854,510.68118,287.97995,510.46283C287.75748,509.93573,282.37512,506.925,281.09766,506.623C280.43677,506.45,279.6433,506.1458,279.33405,505.88324C279.02484,505.62054,277.65918,505.27496,276.38226,505.10504C275.06146,504.93524,273.65137,504.50177,273.25354,504.1076C272.7869,503.62338,269.79932,503.3843,266.7752,503.3843C263.7812,503.3843,260.75134,503.61865,260.0968,504.08142C259.61426,504.3916,258.07648,504.8828,256.6695,505.10962C255.79977,505.2684,255.19328,505.34946,254.75284,505.34946C254.19139,505.34946,253.89975,505.21777,253.67657,504.94763C253.3485,504.58203,252.88893,504.40616,252.44247,504.40616C251.92581,504.40616,251.42668,504.6417,251.16913,505.0913C250.9754,505.45877,250.76712,505.62274,250.16028,505.62274C249.67427,505.62274,248.93262,505.51758,247.73808,505.3275C246.57925,505.12775,245.39165,505.03552,244.32317,505.03552C242.18391,505.03552,240.52219,505.40518,240.52507,506.02136C240.52672,506.3734,240.3079,506.63843,240.04393,506.63977C239.73587,506.6411,239.25357,506.99536,238.94742,507.39294C238.68413,507.75552,238.51227,507.933,238.3525,507.933C238.22044,507.933,238.09662,507.8118,237.93625,507.5736C237.71451,507.22266,236.48087,506.87646,235.02823,506.75134C233.48758,506.62646,232.43008,506.3235,232.29648,505.97205C232.16315,505.6216,231.85512,505.3595,231.54791,505.3595L231.54422,505.3595C231.27994,505.3595,230.79523,504.96622,230.52939,504.48425C230.1338,503.89685,229.63484,503.6957,228.46803,503.6957C228.32785,503.6957,228.17804,503.6986,228.0176,503.7041C227.84418,503.70795,227.68086,503.71008,227.52707,503.71008C225.45668,503.71008,225.11172,503.32596,225.10365,501.6057C225.09373,499.49915,224.38802,498.35876,223.11824,498.35876C223.11491,498.35876,223.11159,498.35876,223.10826,498.3588C223.10461,498.35883,223.10098,498.35883,223.09735,498.35883C222.3118,498.35883,221.82797,497.96393,221.29741,496.9152C220.40959,495.24734,218.5537,493.584,217.45341,493.5452L217.4489,493.5452C216.96776,493.5452,216.7037,493.19437,216.70024,492.44864C216.69614,491.57675,216.47914,491.35373,215.61925,491.35373C215.61124,491.35373,215.6032,491.35376,215.59508,491.3538C215.58698,491.35382,215.57893,491.35385,215.57095,491.35385C214.71095,491.35385,214.49394,491.13004,214.48947,490.17093C214.48575,489.37894,213.95401,488.5894,212.71701,487.5392C211.56845,486.57657,210.94809,485.6553,210.94498,484.99527C210.94229,484.42325,210.7634,483.80814,210.49881,483.6774C210.2781,483.54642,209.70139,482.53714,209.21243,481.4833C208.67862,480.2538,207.92624,479.3334,207.26523,479.11636C206.03091,478.6381,205.44754,476.2207,205.87411,473.35864C206.21518,471.07062,205.72011,468.52295,204.92905,468.52295L204.92392,468.52295C204.57335,468.52295,204.26614,468.26096,204.26465,467.95392C204.26318,467.6458,203.86487,467.16376,203.3794,466.85797C202.89398,466.5523,202.49487,465.8941,202.49219,465.32208C202.48969,464.79413,202.17761,463.9156,201.82294,463.34528C201.2472,462.55597,201.20087,462.07208,201.59009,460.61823C202.19522,458.37238,201.4279,454.02338,200.4167,454.02338L200.4128,454.02338C200.0182,454.02338,199.79674,453.54047,199.79224,452.57428C199.78851,451.7823,199.51953,450.72748,199.16522,450.24506C198.72235,449.63116,198.49237,447.52017,198.33788,442.72464C198.22838,438.14896,197.9976,435.86197,197.59978,435.4678C197.33452,435.205,197.06511,434.0623,197.06017,433.00626C197.0529,431.46622,196.8748,431.027,196.17003,430.85428C195.55315,430.68118,195.28716,430.24246,195.28343,429.45047C195.27531,427.7344,193.48943,422.24255,192.78276,421.67383C192.42949,421.41138,192.16258,420.79675,192.16032,420.31274C192.15807,419.82874,191.84697,419.17004,191.49345,418.86377C191.14006,418.5575,190.82915,417.94275,190.82707,417.5028C190.82481,417.0188,190.4251,416.22876,189.93834,415.65894C189.40794,415.13342,188.74437,414.38843,188.39049,413.99414C188.0366,413.59973,187.72575,412.98523,187.72386,412.58923C187.72179,412.1504,187.45787,411.84412,187.10728,411.84412L187.10335,411.84412C186.7955,411.84412,186.39725,411.23062,186.21794,410.48413C186.08238,409.73682,185.37302,408.59607,184.6221,407.98352C183.91501,407.3269,183.29544,406.58167,183.29398,406.27368C183.29257,405.9657,182.58255,404.693,181.74094,403.50903C180.89938,402.32483,180.18973,401.14014,180.1885,400.8761C180.18729,400.61206,179.87784,400.30554,179.52524,400.17517C179.17233,400.00085,178.86147,399.3863,178.85817,398.6822C178.85506,398.02228,178.54335,397.2315,178.18983,396.92523C177.83638,396.61896,177.52466,395.8283,177.52136,395.12433C177.51747,394.29022,177.29639,393.85138,176.85844,393.85138L176.85344,393.85138C176.50143,393.85138,175.97278,393.41464,175.70679,392.88873C175.39612,392.31818,174.24603,391.04755,173.1413,390.0407L171.10858,388.2022L172.51392,387.6236C173.3045,387.3117,173.96283,386.95673,173.96204,386.7807C173.96118,386.60468,175.27997,386.3344,176.86316,386.15106C178.7104,385.96637,179.8088,385.60922,179.98294,385.21237C180.11325,384.8597,180.42007,384.59433,180.64005,384.59323C181.30008,384.59018,183.1832,382.68918,183.18015,382.02914C183.17886,381.76523,183.39767,381.5002,183.61765,381.4991C184.36569,381.4957,186.24718,379.24277,186.24303,378.36276C186.24077,377.87863,186.63329,377.12875,187.11497,376.64255C187.54417,376.2093,187.7754,375.9994,188.10449,375.9994C188.4134,375.9994,188.80856,376.18436,189.53465,376.54318C190.37248,376.93527,191.07982,377.63583,191.08171,378.03183C191.08379,378.47092,191.34822,378.82114,191.69908,378.82114L191.70439,378.82114C192.05542,378.82114,192.40733,379.1268,192.58452,379.4769C192.71782,379.82736,193.11343,380.13278,193.4647,380.13278L193.47021,380.13278C193.77783,380.13278,194.17326,380.39438,194.30632,380.7009C194.53822,381.32425,197.16129,381.6213,199.90727,381.6213C202.96616,381.6213,206.17758,381.25272,206.40619,380.556C206.49292,380.2916,207.4599,380.0671,208.51593,380.0621C209.92395,380.0555,210.45117,379.87692,210.44885,379.3929C210.4472,379.041,210.70984,378.73178,211.06183,378.7302C211.89784,378.7263,213.95638,376.69247,213.95247,375.8564C213.95076,375.50436,214.3437,374.8425,214.82582,374.44418C215.30775,374.00204,215.70149,373.51608,215.7007,373.34006C215.69759,372.68002,217.45082,371.21982,218.1988,371.21628C219.07863,371.16815,221.40181,369.26508,221.3987,368.60504C221.39748,368.341,221.6598,367.98785,221.96693,367.81036C222.27419,367.63287,222.9734,366.6176,223.49641,365.55914C224.71739,363.17725,224.86339,356.79636,223.76149,356.40546C223.40865,356.23114,222.9645,355.3532,222.82814,354.42987C222.64761,353.41965,222.29292,352.71783,221.94127,352.71783L221.93666,352.71783C221.58638,352.71783,221.32283,352.45572,221.32143,352.14874C221.27614,351.88495,220.8766,351.13873,220.38966,350.5251C219.67174,349.6643,219.30994,349.47552,217.21971,349.47552C216.86209,349.47552,216.45389,349.48105,215.98463,349.4897L212.50905,349.59406L212.50343,348.40607C212.50038,347.74603,212.27681,346.99896,211.96736,346.69244C211.7021,346.42963,211.03693,345.3328,210.50415,344.32315C209.97119,343.26956,209.1748,342.3494,208.73438,342.26346C208.29395,342.17752,207.63257,341.8726,207.27887,341.52225C206.97054,341.17313,206.31345,340.913,205.83,340.913L205.82391,340.913C205.81981,340.91302,205.81572,340.91302,205.81165,340.91302C205.03145,340.91302,204.98616,340.54327,204.96661,336.38492C204.95193,333.26086,204.72366,331.5017,204.27951,330.62378C203.92441,329.96545,203.60983,328.55884,203.60483,327.5028C203.59946,326.35873,203.33109,325.43613,202.93344,325.0859C202.57999,324.7795,202.26865,324.07687,202.26596,323.50497C202.26352,322.9769,202.08487,322.40573,201.86417,322.27475C201.68759,322.14352,201.5969,321.572,201.68246,321.04355C201.8107,320.25095,201.58908,319.9,200.53098,319.46494C199.78128,319.11642,199.163,318.63535,199.16159,318.32736C199.16031,318.06332,198.58481,317.31796,197.83408,316.74948C197.12717,316.1368,196.55124,315.30344,196.50516,314.86362C196.5029,314.3796,196.10483,313.9415,195.62021,313.81174C195.13559,313.68198,194.73831,313.4199,194.73727,313.1998C194.73624,312.98083,194.43018,312.80685,194.08017,312.80685L194.07248,312.80685C193.72171,312.80685,193.41391,312.50107,193.41226,312.15012C193.41061,311.79938,193.01614,311.49423,192.5346,311.49423L192.52914,311.49423C192.52673,311.49423,192.5243,311.49426,192.5219,311.49426C192.04118,311.49426,191.64809,311.27698,191.64687,311.01437C191.64375,310.3549,189.78981,308.43027,189.0844,308.43027L189.08102,308.43027C188.81757,308.43027,188.55318,308.12402,188.55147,307.77267C188.54982,307.42062,188.06398,307.02695,187.44716,306.85373C186.74232,306.68124,186.34444,306.28708,186.34175,305.71506C186.3393,305.18805,186.14497,304.95178,185.62093,304.95178C185.53233,304.95178,185.43434,304.95853,185.32625,304.97177C185.25748,304.98035,185.18388,304.98447,185.10617,304.98447C183.94156,304.98447,181.85677,304.0585,181.35829,303.31833C181.18184,303.01285,180.44028,302.75372,179.78307,302.75372C179.77924,302.75372,179.77539,302.75372,179.77156,302.75375C179.76717,302.75378,179.76276,302.75378,179.75836,302.75378C179.05934,302.75378,178.40546,302.49393,178.27263,302.14468C178.13896,301.79337,177.43309,301.40067,176.7282,301.22794C175.9796,301.0994,175.27348,300.66275,175.13988,300.3113C175.00664,299.961,174.61157,299.6995,174.26044,299.6995L174.25443,299.6995C173.94675,299.6995,173.55138,299.43777,173.41808,299.0873C173.28441,298.736,172.22636,298.30093,171.03746,298.1304C169.8928,298.0038,168.70335,297.70145,168.48253,297.52652C167.78241,296.98486,165.96048,296.7184,163.755,296.7184 Z"/> </g> </g> </svg>