<?xml version='1.0' encoding='utf-8'?>
<svg xmlns="http://www.w3.org/2000/svg" version="1.1" width="600px" height="976px" viewBox="0 0 600 976"> <g id="layer1"> <g style="fill:rgb(0,0,0); fill-opacity:1.0; stroke-linejoin: miter"> <path d="M-51.346954,335.66858C-51.35679,335.66858,-51.362514,335.67285,-51.37072,335.6815C-51.37758,335.68893,-51.383007,335.69608,-51.383007,335.69778C-51.383007,335.6995,-51.385292,335.70322,-51.387863,335.70636C-51.39272,335.7118,-51.392433,335.71234,-51.37758,335.72577C-51.369293,335.73322,-51.35815,335.7415,-51.353294,335.74408C-51.348434,335.74634,-51.335293,335.75436,-51.324436,335.7612C-51.313293,335.76834,-51.297867,335.7775,-51.290154,335.7815C-51.217014,335.81863,-51.206444,335.82635,-51.17159,335.86606C-51.149303,335.89178,-51.14159,335.90662,-51.124733,335.95636C-51.119877,335.97064,-51.11445,335.98035,-51.108162,335.98663C-51.09927,335.9952,-51.086956,335.99927,-51.07346,335.99927C-51.05141,335.99927,-51.026203,335.98837,-51.007595,335.96835C-51.000362,335.96063,-50.99659,335.9578,-50.992664,335.9578C-50.99194,335.9578,-50.99121,335.9579,-50.99045,335.95807C-50.98731,335.9592,-50.977024,335.9612,-50.96817,335.96292C-50.939312,335.96777,-50.931313,335.97406,-50.85417,336.05035C-50.810177,336.09378,-50.80189,336.1035,-50.78875,336.12634C-50.780746,336.1409,-50.77075,336.15692,-50.767036,336.16232C-50.76332,336.16776,-50.760178,336.1732,-50.760178,336.17462C-50.760178,336.17563,-50.76213,336.17612,-50.76567,336.17612C-50.774097,336.17612,-50.79151,336.17337,-50.813034,336.16833C-50.833603,336.16348,-50.85417,336.1595,-50.902744,336.15118C-50.911316,336.14948,-50.930454,336.14835,-50.945313,336.14835C-50.980167,336.14835,-51.087593,336.15863,-51.111877,336.16406L-51.12184,336.16644L-51.12184,336.16644Q-51.269955,336.0735,-51.375187,336.04434Q-51.432564,336.02728,-51.50627,336.01538Q-51.539368,336.01,-51.578053,336.00516L-51.73386,335.98685Q-51.763165,335.98352,-51.85475,335.9633Q-51.87605,335.95975,-51.89413,335.95975Q-51.894287,335.95975,-51.89444,335.95975L-51.896446,335.95975Q-51.89723,335.95975,-51.89803,335.95975Q-51.916424,335.95975,-51.9445,335.96243L-52.025063,335.97244L-52.025063,335.97244C-52.03074,335.97134,-52.037174,335.97034,-52.042976,335.9698C-52.066402,335.9675,-52.072117,335.96576,-52.118687,335.94833C-52.151257,335.93634,-52.220684,335.9132,-52.262966,335.90063C-52.276394,335.89664,-52.29611,335.89063,-52.30725,335.88693C-52.318108,335.8832,-52.334965,335.8789,-52.34439,335.87692C-52.35382,335.8752,-52.36725,335.87207,-52.37439,335.86978C-52.38153,335.8675,-52.397533,335.86377,-52.410103,335.86093C-52.4441,335.8538,-52.50867,335.82492,-52.550095,335.79865C-52.600094,335.76663,-52.62438,335.75607,-52.657234,335.7515C-52.712944,335.74377,-52.72266,335.74207,-52.74723,335.73636C-52.76237,335.7329,-52.79494,335.72922,-52.82637,335.7272C-52.870937,335.72437,-52.88094,335.72266,-52.885796,335.71835C-52.88835,335.71597,-52.89001,335.7148,-52.891632,335.7148C-52.892906,335.7148,-52.894157,335.71555,-52.895794,335.71692C-52.898254,335.719,-52.90329,335.72006,-52.912235,335.72006C-52.92304,335.72006,-52.93954,335.7185,-52.964077,335.7152C-52.98661,335.71243,-53.002125,335.71097,-53.012882,335.71097C-53.0219,335.71097,-53.02757,335.712,-53.031216,335.71408C-53.038074,335.7175,-53.052643,335.74548,-53.0555,335.76065C-53.058643,335.77722,-53.053787,335.7809,-52.990074,335.8135C-52.950077,335.8335,-52.931507,335.8409,-52.89865,335.8498C-52.859226,335.86008,-52.85551,335.8618,-52.83437,335.87976C-52.813225,335.89807,-52.784657,335.92035,-52.7658,335.9332C-52.75866,335.93805,-52.74723,335.94748,-52.74009,335.95407C-52.732944,335.96063,-52.720375,335.97092,-52.711803,335.97662C-52.69911,335.98517,-52.695103,335.98666,-52.681683,335.98666C-52.680305,335.98666,-52.67883,335.98666,-52.677235,335.98663C-52.656376,335.98633,-52.634094,335.97748,-52.614666,335.9609C-52.602943,335.9509,-52.594975,335.94675,-52.58257,335.94675C-52.57622,335.94675,-52.568714,335.94785,-52.558952,335.94977C-52.544952,335.95233,-52.525238,335.95834,-52.514954,335.9632C-52.472385,335.98233,-52.4201,336.0092,-52.396103,336.02405C-52.382103,336.0329,-52.366676,336.04205,-52.36182,336.04407C-52.356964,336.04633,-52.350964,336.04947,-52.34868,336.0512C-52.34639,336.05292,-52.338676,336.05692,-52.331535,336.06006C-52.324394,336.06348,-52.310963,336.07034,-52.301537,336.07578C-52.292107,336.0809,-52.279823,336.0875,-52.274395,336.09006C-52.26468,336.09464,-52.235825,336.1149,-52.23011,336.1212C-52.224396,336.12778,-52.19754,336.1452,-52.182114,336.15262C-52.173256,336.15662,-52.15354,336.16318,-52.138115,336.1669C-52.081833,336.1809,-52.06383,336.18262,-51.981834,336.18262C-51.92984,336.1829,-51.89784,336.18405,-51.88441,336.1866C-51.83156,336.19662,-51.815273,336.20032,-51.807274,336.2032C-51.80013,336.20605,-51.786415,336.21405,-51.73299,336.24634C-51.658707,336.29147,-51.629852,336.30347,-51.545856,336.32404C-51.489574,336.33804,-51.462147,336.35004,-51.45386,336.36404C-51.452717,336.36603,-51.449574,336.38004,-51.44729,336.39548C-51.442432,336.42548,-51.43129,336.4526,-51.415577,336.47318C-51.39786,336.4963,-51.371292,336.51917,-51.34758,336.5312C-51.334724,336.53775,-51.322437,336.5449,-51.320152,336.54688C-51.312725,336.55316,-51.27844,336.57117,-51.273582,336.57117C-51.27101,336.57117,-51.26387,336.57547,-51.258156,336.5806C-51.23987,336.5966,-51.2253,336.6066,-51.208443,336.61432C-51.193302,336.62146,-51.19187,336.62317,-51.186157,336.6383C-51.177586,336.6609,-51.177303,336.69745,-51.185585,336.71146C-51.18873,336.7169,-51.19273,336.72803,-51.19473,336.7363C-51.19644,336.7446,-51.20273,336.7606,-51.209015,336.77203C-51.215015,336.78345,-51.2273,336.80743,-51.236156,336.82544C-51.244728,336.84344,-51.253296,336.86087,-51.255013,336.864C-51.256725,336.86716,-51.265583,336.89087,-51.274727,336.91687C-51.29158,336.96515,-51.30558,337.00116,-51.309868,337.00772C-51.31101,337.01,-51.317867,337.02258,-51.324436,337.03574C-51.331295,337.04886,-51.343292,337.06686,-51.35101,337.07544C-51.369007,337.09515,-51.382435,337.11945,-51.396435,337.158C-51.402435,337.17456,-51.40872,337.1883,-51.41072,337.1883C-51.414433,337.1883,-51.428146,337.17285,-51.43186,337.16428C-51.43329,337.16086,-51.435577,337.15628,-51.43729,337.154C-51.438717,337.1517,-51.44129,337.1463,-51.44272,337.1423C-51.44396,337.1392,-51.4482,337.13443,-51.453487,337.12997L-51.454002,337.12997Q-51.438198,337.10184,-51.432713,337.08365Q-51.4271,337.06363,-51.43571,337.0473Q-51.44713,337.02625,-51.47998,337.00812Q-51.511604,336.99142,-51.541817,336.99063L-51.542156,336.9906Q-51.542606,336.9906,-51.543053,336.9906Q-51.584766,336.9906,-51.608185,337.01874Q-51.61906,337.032,-51.626743,337.0543L-51.62726,337.0543C-51.630722,337.0559,-51.63461,337.05786,-51.639282,337.0603C-51.652424,337.06714,-51.666992,337.0763,-51.671566,337.08115C-51.68985,337.10028,-51.70385,337.116,-51.710705,337.12457C-51.714706,337.12973,-51.720135,337.13458,-51.723278,337.13544C-51.726418,337.13657,-51.734703,337.14658,-51.741848,337.1577C-51.749275,337.16916,-51.758133,337.18286,-51.76185,337.1883C-51.772987,337.20514,-51.777275,337.21857,-51.780704,337.24887C-51.787273,337.3037,-51.784416,337.34198,-51.771847,337.36798C-51.76756,337.37686,-51.76099,337.3857,-51.756134,337.38855C-51.751846,337.39114,-51.74299,337.40057,-51.73699,337.40942C-51.73099,337.418,-51.723564,337.4277,-51.720993,337.43085C-51.71042,337.44226,-51.703564,337.4503,-51.68899,337.4674C-51.675564,337.4837,-51.67328,337.4854,-51.66328,337.4854C-51.656994,337.4854,-51.650707,337.48712,-51.64871,337.48972C-51.64671,337.49197,-51.643566,337.494,-51.641567,337.494C-51.635567,337.494,-51.631565,337.50113,-51.62557,337.52255C-51.616703,337.55487,-51.608772,337.56815,-51.595325,337.56815C-51.590572,337.56815,-51.58513,337.56647,-51.578712,337.56342C-51.574123,337.56125,-51.57151,337.56012,-51.568794,337.56012C-51.565765,337.56012,-51.562607,337.56152,-51.556427,337.56454C-51.542336,337.5716,-51.526894,337.57538,-51.512794,337.57538C-51.509743,337.57538,-51.506756,337.5752,-51.503857,337.57483C-51.50112,337.57452,-51.498642,337.57437,-51.49635,337.57437C-51.49026,337.57437,-51.48549,337.5755,-51.480717,337.57797C-51.474026,337.58142,-51.46789,337.58316,-51.462334,337.58316C-51.44677,337.58316,-51.435757,337.56967,-51.429863,337.54312C-51.423004,337.51083,-51.413864,337.4934,-51.396435,337.47885C-51.378624,337.4641,-51.367744,337.45697,-51.35976,337.45697C-51.35289,337.45697,-51.348164,337.46225,-51.34301,337.47256C-51.335865,337.48657,-51.335865,337.48798,-51.335007,337.57114C-51.33358,337.67856,-51.33701,337.72342,-51.350723,337.7757C-51.369865,337.8511,-51.36958,337.8471,-51.365864,337.90396C-51.36415,337.93225,-51.36158,337.96396,-51.36015,337.97424C-51.355293,338.0077,-51.348152,338.08853,-51.34672,338.1228C-51.344723,338.16937,-51.348434,338.1891,-51.362152,338.20767C-51.375862,338.22653,-51.38815,338.2325,-51.424435,338.23825C-51.440147,338.2408,-51.463573,338.2454,-51.476147,338.24854C-51.489002,338.25168,-51.514145,338.25595,-51.531857,338.25824C-51.54986,338.26025,-51.573856,338.26538,-51.585567,338.26938C-51.596996,338.27338,-51.61328,338.27795,-51.621567,338.27908C-51.63785,338.28168,-51.651566,338.28882,-51.651566,338.2948C-51.651566,338.2971,-51.648422,338.30167,-51.644424,338.3054C-51.63853,338.311,-51.629166,338.31378,-51.615456,338.31378C-51.601917,338.31378,-51.584137,338.31107,-51.561283,338.30566C-51.540714,338.3008,-51.52243,338.2968,-51.520714,338.2968C-51.518143,338.2968,-51.51043,338.31396,-51.51243,338.31567C-51.513,338.31622,-51.52243,338.3185,-51.53357,338.3208C-51.553284,338.3251,-51.619854,338.34766,-51.634422,338.3551C-51.642708,338.3591,-51.642994,338.3688,-51.634995,338.37766C-51.63239,338.38055,-51.629486,338.382,-51.620823,338.382C-51.612396,338.382,-51.598515,338.3806,-51.574142,338.37796C-51.56951,338.3774,-51.566216,338.37708,-51.56373,338.37708C-51.55824,338.37708,-51.556717,338.37875,-51.55357,338.38367C-51.54957,338.38965,-51.546143,338.39108,-51.53757,338.39108C-51.53157,338.39108,-51.523,338.38995,-51.51843,338.38852C-51.51386,338.3871,-51.499573,338.38367,-51.486717,338.3808C-51.47522,338.37842,-51.468185,338.37726,-51.460674,338.37726C-51.454746,338.37726,-51.448524,338.378,-51.439575,338.37936C-51.426434,338.3811,-51.38958,338.3831,-51.357006,338.3831C-51.34531,338.3832,-51.335934,338.3833,-51.32833,338.3833C-51.298965,338.3833,-51.29598,338.38208,-51.287582,338.37708C-51.273296,338.36823,-51.24644,338.33508,-51.24301,338.3225C-51.241585,338.31708,-51.239014,338.29395,-51.237297,338.2714C-51.2333,338.21854,-51.222157,338.11996,-51.213013,338.05826C-51.20273,337.9891,-51.200157,337.9517,-51.200157,337.86398C-51.200157,337.81598,-51.197872,337.7594,-51.194443,337.714C-51.191586,337.67398,-51.187016,337.61484,-51.18473,337.58255C-51.18216,337.55026,-51.17959,337.51883,-51.17873,337.51257C-51.17787,337.5063,-51.177017,337.47485,-51.177017,337.44257C-51.17673,337.41028,-51.1753,337.3817,-51.173874,337.37885C-51.172443,337.37628,-51.165302,337.37085,-51.157875,337.36685C-51.150444,337.36285,-51.137875,337.3557,-51.13016,337.35114C-51.104733,337.33627,-51.073593,337.32,-51.041595,337.30484C-51.024166,337.29657,-51.005596,337.28687,-51.000168,337.28314C-50.98417,337.27228,-50.958454,337.24628,-50.953312,337.2354C-50.95074,337.23,-50.94731,337.22485,-50.945885,337.224C-50.938454,337.21942,-50.92817,337.17456,-50.925884,337.13687C-50.924458,337.11572,-50.921314,337.08545,-50.91903,337.06973C-50.91674,337.05402,-50.91474,337.03574,-50.914455,337.02887C-50.914455,337.02087,-50.911026,337.01,-50.90417,336.9963C-50.8936,336.97543,-50.89303,336.97202,-50.881317,336.88974C-50.87503,336.84402,-50.872173,336.79944,-50.87446,336.78516C-50.875603,336.77832,-50.880745,336.75574,-50.8856,336.73544C-50.895027,336.69717,-50.902172,336.66373,-50.909885,336.62402C-50.91217,336.61145,-50.918743,336.5826,-50.924458,336.55975C-50.93017,336.5369,-50.935314,336.51318,-50.936455,336.5066C-50.937885,336.49576,-50.937313,336.4949,-50.929886,336.49176C-50.915886,336.48633,-50.895885,336.4826,-50.853603,336.47833C-50.762177,336.4689,-50.705894,336.46262,-50.69818,336.46118C-50.67818,336.45688,-50.62304,336.44174,-50.610184,336.4369C-50.602184,336.43402,-50.59276,336.4306,-50.588757,336.42975C-50.580757,336.42746,-50.519047,336.40375,-50.51019,336.39948C-50.503616,336.39633,-50.46105,336.38205,-50.43448,336.37402C-50.406193,336.36548,-50.37734,336.35004,-50.36248,336.33517C-50.346767,336.32004,-50.33934,336.3006,-50.33477,336.2626C-50.33134,336.23633,-50.332767,336.22662,-50.342197,336.2075C-50.349625,336.1929,-50.398766,336.14148,-50.41305,336.13376C-50.41762,336.1312,-50.43105,336.1229,-50.44248,336.11575C-50.454193,336.1086,-50.46419,336.10263,-50.464764,336.10263C-50.465336,336.10263,-50.472763,336.09833,-50.48105,336.0929C-50.5279,336.0629,-50.53733,336.0572,-50.550186,336.05005C-50.5579,336.04547,-50.565617,336.04092,-50.56733,336.03976C-50.571045,336.0372,-50.6419,335.99664,-50.65161,335.99176C-50.65561,335.98978,-50.661324,335.98663,-50.664467,335.98462C-50.67475,335.97833,-50.738464,335.94348,-50.75018,335.93777C-50.77275,335.92664,-50.793034,335.9155,-50.794464,335.9138C-50.79532,335.9129,-50.799034,335.91034,-50.803032,335.90836C-50.817604,335.9009,-50.856174,335.87405,-50.866745,335.86435C-50.87246,335.85864,-50.879314,335.85406,-50.8816,335.85406C-50.88389,335.85406,-50.895027,335.84607,-50.906456,335.83606C-50.953598,335.79578,-50.994167,335.7695,-51.024452,335.75977C-51.03074,335.75778,-51.037308,335.75522,-51.03874,335.75378C-51.04045,335.75262,-51.05302,335.74835,-51.066734,335.74435C-51.08045,335.74036,-51.093876,335.73578,-51.096733,335.73434C-51.10159,335.73178,-51.17787,335.71323,-51.19816,335.70978C-51.20587,335.70865,-51.209587,335.70605,-51.211586,335.7015C-51.21387,335.6955,-51.216156,335.69492,-51.240726,335.6932C-51.2613,335.69208,-51.27501,335.6892,-51.302155,335.68008C-51.324562,335.67242,-51.337612,335.66858,-51.346954,335.66858 Z"/> </g> </g> </svg>