<?xml version="1.0" encoding="UTF-8"?>
<!DOCTYPE svg  PUBLIC '-//W3C//DTD SVG 1.1//EN'  'http://www.w3.org/Graphics/SVG/1.1/DTD/svg11.dtd'>
<svg enable-background="new 688.4389 -16.4464 1183.1219 1632.8929" version="1.1" viewBox="688.4389 -16.4464 1183.1219 1632.8929" xml:space="preserve" xmlns="http://www.w3.org/2000/svg">
<path d="m1850.7 472.11c-26.303-0.983-50.709-0.3704-73.71 1.4238-4.4302 0.3455-8.8875-0.0966-13.156-1.3308-47.658-13.78-93.906-23.416-137.53-25.361-33.505-4.0811-66.004-3.7587-97.565 0.6729-63.249 1.6821-109.51 31.624-155.09 32.297-43.496-1.251-80.148-13.73-109.74-37.791-5.8911-4.7897-9.9546-11.515-11.246-18.997-2.9779-17.25 2.2295-31.637 15.918-43.056 3.1018-2.5876 6.959-4.1139 10.98-4.4911 14.896-1.3971 26.001-5.6373 33.665-12.458 2.1927-1.9517 3.1014-4.9652 2.3505-7.8031-2.174-8.2156-2.7522-15.697-2.1023-22.614 0.139-1.4796-0.2899-2.9813-1.3463-4.0265-3.8894-3.8475-6.9045-8.5128-9.2024-13.85-0.3987-0.926-0.4392-1.9802-0.1438-2.9441 2.6885-8.7732 5.5924-16.612 9.3494-20.755 0.4196-0.4625 0.177-1.1941-0.4171-1.3866-14.784-4.7916-24.847-15.366-32.264-29.18-2.9718-14.491-6.7983-28.063-12.55-39.563-4.9531-9.9028-13.532-17.488-23.767-21.712-15.312-6.3204-31.685-10.132-49.136-11.394-30.034-50.972-101.35-83.424-188.74-108.67-14.158-8.228-30.566-26.619-47.436-47.1-0.2421-0.0547-0.4812-0.0981-0.7221-0.1484h0.0406c-1.4473-10.487-3.1253-19.933-5.4037-30.734-0.2737-1.2976-2.0291-1.5626-2.6698-0.4014-4.9313 9.9781-9.9888 19.975-15.736 31.106-0.8293 0.0917-1.6623 0.1838-2.5046 0.2748-4.2245 0.4563-7.9897 3.1766-9.3591 7.199-0.4037 1.1858-0.7286 2.4136-0.9715 3.6851-0.5212 2.7283-1.9023 5.2367-4.1445 6.8761-0.7796 0.5701-1.5732 1.1185-2.3805 1.6459-4.4045 2.8761-6.9422 7.9917-6.2777 13.21 0.4446 3.4915 1.3349 7.1726 2.5381 10.987l-0.0046-2e-3c-41.583 77.668-96.002 173.32-153.08 272.88-35.905 34.869-56.563 78.397-56.207 133.86 0.0323 5.0406 1.2496 10.014 3.5422 14.504 14.393 56.408 49.27 128.4 111.66 221.32 2.8733 4.2795 2.7889 9.8663-0.1425 14.106-24.135 34.909 11.134 158.76 8.7704 226.82-10.188 45.27-8.6002 96.261 1.5139 151.39 9.0077 31.387 4.8433 67.966-13.995 110.33-1.4778 3.3232-2.4101 6.8705-2.7632 10.49-6.0692 62.212 4.2007 127.5 29.125 195.56 1.479 4.0383 2.3133 8.2902 2.4493 12.589 1.6126 50.957 7.5337 98.528 20.605 140.48 1.8083 5.8032 6.6121 10.182 12.545 11.503 21.967 4.8914 43.094 3.1366 63.102-7.4547 1.9805-1.0483 4.1437-1.7462 6.3823-1.8456 33.418-1.4834 60.633 10.871 86.152 17.284 3.3502 0.8419 6.8833 0.5177 10.012-0.9454l13.645-6.3794c2.9961-1.4008 3.0586-5.6584 0.0887-7.1139-40.89-20.038-79.06-46.672-115.32-77.94-4.3271-3.7316-7.6736-8.4641-9.8058-13.765-24.602-61.17-20.77-170.35-16.452-280.36 0.2307-5.8763 1.6281-11.644 4.0416-17.007 45.184-100.4 70.649-200.82 61.07-301.28-0.6977-7.3172 1.8429-14.634 7.1079-19.763 26.578-25.892 65.864-43.392 101.51-70.231 6.0513-4.5561 12.557-8.454 19.426-11.647 34.552-16.063 63.366-37.562 89.151-61.93 4.7384-4.4783 9.921-8.457 15.405-11.984 51.302-32.991 85.357-77.412 83.452-145.67-0.1012-3.6313 2.7321-6.7109 6.3639-6.7938 29.835-0.6808 61.531-17.529 94.268-16.779 2.8173 0.0645 5.6289-0.2864 8.3781-0.9055 50.83-11.448 101.93-19.747 153.34-24.523 2.3044-0.2142 4.6255-0.3008 6.9397-0.3125 34.071-0.1716 65.378-6.4644 93.825-19.092 4.4077-1.9564 9.0251-3.4316 13.74-4.444 30.179-6.4792 57.576-4.9109 81.556 6.5387 5.323 2.5415 11.478 2.6205 16.962 0.4481 29.093-11.524 56.082-16.691 80.672-14.614 3.9084 0.3301 7.5703-2.0574 8.8396-5.7687 0.7432-2.1732 1.0576-4.4506 1.0139-6.8154-0.0843-4.5458-3.8626-8.1965-8.4061-8.3664zm-675.64-70.746c-8.8096 3.3673-14.8 9.9675-18.756 18.9-26.638 76.746-73.036 144.25-131.96 205.89-33.532-12.833-67.09-16.219-100.68-9.0836-37.991-65.257-80.969-125.7-131.71-178.64 46.522 0.1877 80.271-119.39 120.86-224.06 1.1273-2.9071 3.7097-4.9902 6.7857-5.5004 6.9665-1.1555 14.23-1.6621 21.811-1.4719 4.3361 0.1088 8.1759-2.827 9.0233-7.0809 5.87-29.465 9.751-58.742 10.719-90.059l153.78 99.734-20.859 72.669-0.8247 0.8646c-46.975-6.2207-73.238 9.196-61.415 64.403 4.3154 18.414 9.8101 34.835 16.422 49.37 2.8868 6.3464 4.6643 13.159 4.905 20.127 0.5654 16.38-1.4401 31.919-7.1965 46.235 23.497 1.1318 39.299-38.316 35.683-180.17-0.0028-0.1064 0.1415-0.1318 0.166-0.0281 9.1752 38.819 34.25 71.014 90.144 90.369 3.2793 2.8184 6.1171 7.989 7.688 19.911 0.4328 3.2852-1.4805 6.433-4.5757 7.6161z"/>
</svg>
