<?xml version='1.0' encoding='utf-8'?>
<svg xmlns="http://www.w3.org/2000/svg" version="1.1" width="600px" height="976px" viewBox="0 0 600 976"> <g id="layer1"> <g style="fill:rgb(0,0,0); fill-opacity:1.0; stroke-linejoin: miter"> <path d="M209.71132,878.2792L209.71132,878.2792L199.85757,876.6551C199.7896,876.6439,199.72311,876.6252,199.6593,876.59924L199.6593,876.59924C198.11108,875.9691,194.51283,874.7479,195.63036,872.00183L195.63037,872.0018C195.69041,871.8543,195.7629,871.70874,195.8464,871.5651L195.84639,871.5651C197.12106,869.37274,201.83344,866.39575,205.93019,864.7885L205.9302,864.7885C206.45923,864.58105,206.98274,864.3943,207.48483,864.2241L207.48483,864.2241C207.99495,864.0512,208.49316,863.89185,208.95726,863.7434L208.95728,863.7434C209.38551,863.6064,209.78215,863.47955,210.1562,863.3528L210.1562,863.3528C212.49911,862.55853,212.7018,862.12537,212.56117,861.59436L212.56117,861.59436C212.3435,860.7724,211.37291,859.49994,209.73938,857.4149L209.73938,857.4149C207.79938,854.93866,205.17804,851.59467,202.78824,847.1813L202.78824,847.1813C198.49467,839.2521,194.97173,827.9043,191.48587,816.6892L191.49998,816.7311L191.49867,816.7274L191.49825,816.72626C191.29176,816.15674,191.08899,815.582,189.78053,810.66437L189.78053,810.66437C188.46648,805.7256,186.02951,796.3757,183.59387,787.031C183.465,786.53656,183.76134,786.03125,184.25575,785.9024C184.75017,785.77356,185.25542,786.0699,185.3843,786.56433L185.3843,786.56433C187.82076,795.91223,190.2559,805.25507,191.56856,810.1886L191.56856,810.1886C192.8808,815.12054,193.06369,815.61566,193.2377,816.0957L193.23727,816.0945L193.2386,816.0981C193.2439,816.1128,193.24847,816.12634,193.25272,816.14L193.25272,816.14C196.75854,827.4194,200.22726,838.56604,204.41525,846.30023L204.41525,846.30023C206.72382,850.56366,209.2582,853.8006,211.19586,856.27386L211.19586,856.27386C212.68457,858.174,214.00786,859.8296,214.34976,861.1207L214.34976,861.1207C214.99954,863.57446,212.53296,864.5007,210.75021,865.10504L210.75021,865.10504C210.35773,865.2381,209.94632,865.36957,209.52089,865.5057L209.5209,865.5057C209.05542,865.65454,208.57095,865.8096,208.07884,865.9764L208.07884,865.9764C207.5955,866.1402,207.10045,866.317,206.6059,866.511L206.6059,866.511C202.53543,868.10785,198.3754,870.8964,197.44592,872.4951L197.44592,872.4951C197.40149,872.5715,197.36835,872.6397,197.3441,872.6993L197.34412,872.6993C197.09378,873.3144,197.70021,873.8043,200.35675,874.88544L200.15846,874.8295L210.0122,876.45355C210.51633,876.5367,210.85765,877.01276,210.77457,877.51685C210.69147,878.02094,210.21544,878.36224,209.71132,878.2792 Z"/> </g> <g style="fill:rgb(0,0,0); fill-opacity:1.0; stroke-linejoin: miter"> <path d="M183.33372,787.3834L183.33372,787.3834C181.0746,781.8126,178.82808,776.2717,173.31448,767.00085L173.31448,767.00085C169.78061,761.0588,164.9061,753.5869,160.52397,746.87006L160.52397,746.87006C158.0529,743.0824,155.73804,739.5343,153.91719,736.64813L153.91719,736.64813C149.4586,729.5812,147.95378,726.4697,145.40866,721.20557L145.40866,721.20557C145.06224,720.48895,144.70657,719.75336,144.3125,718.94354L144.3125,718.94354C141.03018,712.1989,135.69942,701.5908,130.36388,690.97314C130.13446,690.51666,130.31857,689.9606,130.7751,689.7312C131.23161,689.5018,131.78769,689.68585,132.01709,690.1424L132.01709,690.1424C137.35036,700.75543,142.68712,711.3755,145.97618,718.1339L145.97618,718.1339C146.37137,718.9459,146.72821,719.6841,147.07443,720.40015L147.07443,720.40015C149.60323,725.6307,151.07428,728.6745,155.48201,735.6609L155.48201,735.6609C157.29367,738.5324,159.59991,742.06744,162.07358,745.8591L162.07358,745.8591C166.4488,752.56537,171.34705,760.07306,174.90472,766.05505L174.90472,766.05505C180.48701,775.4414,182.77397,781.0797,185.04832,786.6882C185.24033,787.1616,185.01216,787.70105,184.53868,787.89307C184.06522,788.0851,183.52573,787.8569,183.33372,787.3834 Z"/> </g> <g style="fill:rgb(0,0,0); fill-opacity:1.0; stroke-linejoin: miter"> <path d="M131.02362,691.8689L131.02362,691.8689C128.42868,687.74506,125.85483,683.65546,123.140396,679.95605L123.140396,679.95605C122.36881,678.9045,121.58455,677.8827,120.80605,676.8684L120.80605,676.8684C120.05405,675.8887,119.30712,674.9156,118.59317,673.94257L118.59317,673.94257C117.45195,672.38727,116.3822,670.81494,115.489685,669.17914L115.489685,669.17914C113.462326,665.4634,112.3974,661.50696,111.591034,657.8444L111.591034,657.8444C110.78351,654.17664,110.22001,650.72656,109.6607,647.3034C109.578316,646.79913,109.920296,646.3236,110.42454,646.2413C110.92878,646.1588,111.404335,646.50085,111.486725,647.00507L111.486725,647.00507C112.04697,650.43396,112.60297,653.8356,113.397995,657.4466L113.397995,657.4466C114.19419,661.0629,115.21478,664.81226,117.11389,668.29297L117.11389,668.29297C117.95009,669.8255,118.96581,671.3228,120.08491,672.848L120.08491,672.848C120.78516,673.8023,121.51936,674.7589,122.27379,675.7419L122.27379,675.7419C123.05034,676.7536,123.8469,677.7914,124.63213,678.8615L124.63213,678.8615C127.39267,682.6238,130.00186,686.771,132.58961,690.8835C132.86171,691.3159,132.73175,691.8871,132.29932,692.15924C131.86687,692.43134,131.29573,692.30133,131.02362,691.8689 Z"/> </g> <g style="fill:rgb(0,0,0); fill-opacity:1.0; stroke-linejoin: miter"> <path d="M110.03778,647.84753L110.037796,647.8476L110.029785,647.80347L110.02978,647.80347C109.128395,642.8368,108.215515,637.806,107.90091,633.85583L107.90091,633.85583C107.58206,629.85223,107.86925,626.86786,109.369514,623.5834L109.369514,623.5834C110.834366,620.37646,113.449234,616.9112,115.97244,613.55994C116.279755,613.1518,116.85978,613.07,117.267944,613.3773C117.67612,613.6847,117.75787,614.2647,117.45056,614.67285L117.45056,614.67285C114.887344,618.0773,112.41571,621.36774,111.05249,624.3522L111.05249,624.3522C109.724655,627.25903,109.442085,629.9017,109.74531,633.7089L109.74531,633.7089C110.050934,637.5465,110.94309,642.4745,111.85028,647.4731L111.850266,647.47296L111.85826,647.5171C111.94952,648.01984,111.615944,648.50134,111.113235,648.5926C110.61051,648.68384,110.12902,648.3502,110.03778,647.84753 Z"/> </g> <g style="fill:rgb(0,0,0); fill-opacity:1.0; stroke-linejoin: miter"> <path d="M116.13446,613.87463L116.13446,613.87463C128.0546,600.39764,140.02579,586.8625,164.3674,571.2128L164.3674,571.2128C188.65822,555.5959,225.28006,537.8677,261.82117,520.17676C262.28104,519.9541,262.83432,520.1464,263.05695,520.6063C263.2796,521.06616,263.08728,521.61945,262.6274,521.8421L262.6274,521.8421C226.04463,539.55316,189.54294,557.22675,165.368,572.76917L165.368,572.76917C141.24396,588.27893,129.40768,601.66064,117.52037,615.10046C117.18187,615.48315,116.59721,615.519,116.21451,615.1805C115.83179,614.842,115.79595,614.2573,116.13446,613.87463 Z"/> </g> <g style="fill:rgb(0,0,0); fill-opacity:1.0; stroke-linejoin: miter"> <path d="M261.14258,521.2725L261.14258,521.2725C261.80313,514.9074,262.4693,508.4779,263.75656,502.57138L263.75656,502.57138C265.0452,496.65854,266.95212,491.2876,268.83655,485.97678C269.00742,485.4953,269.53625,485.24344,270.01776,485.4143C270.49927,485.58514,270.75113,486.114,270.58026,486.5955L270.58026,486.5955C268.69098,491.92,266.82428,497.1842,265.56433,502.9654L265.56433,502.9654C264.30304,508.7529,263.6458,515.0759,262.9829,521.4635C262.93018,521.97174,262.47543,522.34094,261.96722,522.2882C261.45905,522.2354,261.08984,521.78076,261.14258,521.2725 Z"/> </g> <g style="fill:rgb(0,0,0); fill-opacity:1.0; stroke-linejoin: miter"> <path d="M269.0927,486.62582L269.0927,486.62582C268.03976,472.59338,266.9818,458.5057,268.08832,440.6439L268.08832,440.6439C269.19357,422.8024,272.45834,401.2046,275.71368,379.6643C275.79004,379.15912,276.26147,378.8115,276.76666,378.88785C277.27185,378.9642,277.61948,379.4356,277.54315,379.9408L277.54315,379.9408C274.28397,401.5064,271.03415,423.01538,269.935,440.75827L269.935,440.75827C268.8371,458.4811,269.88495,472.45663,270.93774,486.4874C270.97598,486.99686,270.59393,487.44092,270.08444,487.47916C269.57495,487.51736,269.13095,487.13535,269.0927,486.62582 Z"/> </g> <g style="fill:rgb(0,0,0); fill-opacity:1.0; stroke-linejoin: miter"> <path d="M276.0134,381.01776L276.0134,381.01776L269.58652,359.54443C269.5164,359.3101,269.5419,359.05756,269.6575,358.84195L269.6575,358.84195L271.16675,356.02747C271.4082,355.57718,271.96896,355.4079,272.41925,355.64935C272.8695,355.89084,273.0388,356.4516,272.79733,356.90186L272.79733,356.90186L271.2881,359.71634L271.35904,359.01392L277.78595,380.48724C277.93243,380.97675,277.65442,381.49228,277.16495,381.63876C276.67548,381.78525,276.1599,381.50726,276.0134,381.01776 Z"/> </g> <g style="fill:rgb(0,0,0); fill-opacity:1.0; stroke-linejoin: miter"> <path d="M271.23422,356.3264L271.23422,356.3264C264.6048,342.1166,257.88934,327.7429,257.04758,309.13333L257.04758,309.13333C256.20844,290.58157,261.214,267.861,266.17438,245.31375C266.28412,244.81476,266.77765,244.49927,267.27664,244.60904C267.77563,244.7188,268.0912,245.21231,267.98138,245.71133L267.98138,245.71133C263.0032,268.3394,258.07016,290.79395,258.89594,309.04974L258.89594,309.04974C259.71906,327.2478,266.272,341.3139,272.91095,355.54413C273.12698,356.00714,272.92673,356.5576,272.4637,356.77362C272.0007,356.98962,271.45023,356.7894,271.23422,356.3264 Z"/> </g> <g style="fill:rgb(0,0,0); fill-opacity:1.0; stroke-linejoin: miter"> <path d="M266.22678,244.87962L266.22678,244.87962C268.4538,232.399,270.57013,220.3413,266.20508,210.9527L266.20508,210.9527C263.87152,205.93356,259.6611,201.62137,255.81564,197.6952L255.81564,197.6952C252.84737,194.66463,250.00604,191.78171,248.7377,189.05368L248.73769,189.05368C248.60226,188.76236,248.483,188.46977,248.38223,188.17531L248.38223,188.1753C246.06125,181.39272,254.22423,176.05714,261.0363,171.43332C261.459,171.14636,262.03433,171.25645,262.3213,171.6792C262.60822,172.10194,262.49814,172.67726,262.07538,172.9642L262.07538,172.9642C254.55383,178.06964,248.38318,182.46333,250.13283,187.57626L250.13283,187.57626C250.2104,187.80296,250.3046,188.0352,250.41547,188.27365L250.41547,188.27364C251.51807,190.64516,254.07326,193.27202,257.13745,196.40054L257.13745,196.40054C260.9364,200.27922,265.39175,204.8147,267.88284,210.17264L267.88284,210.17264C272.5451,220.2005,270.24133,232.91408,268.04825,245.20464C267.9585,245.70761,267.478,246.04262,266.975,245.95287C266.47202,245.8631,266.13702,245.38261,266.22678,244.87962 Z"/> </g> <g style="fill:rgb(0,0,0); fill-opacity:1.0; stroke-linejoin: miter"> <path d="M260.48315,171.56683L260.48315,171.56683C268.42838,165.75856,276.1431,160.09767,280.47525,150.17484L280.47525,150.17484C284.84186,140.17305,285.809,125.788506,286.78033,111.154564C286.81418,110.64475,287.25488,110.25892,287.7647,110.29275C288.2745,110.326584,288.66034,110.7673,288.6265,111.277115L288.6265,111.277115C287.66324,125.78937,286.69574,140.55098,282.17093,150.91515L282.17093,150.91515C277.61166,161.3582,269.47815,167.28304,261.57507,173.0605C261.16263,173.36203,260.58383,173.27211,260.2823,172.85963C259.98077,172.44716,260.07068,171.86836,260.48315,171.56683 Z"/> </g> <g style="fill:rgb(0,0,0); fill-opacity:1.0; stroke-linejoin: miter"> <path d="M286.77332,111.1703L286.77325,111.170395L286.79312,111.14189L286.7932,111.14179C287.7748,109.73491,288.95264,108.01158,290.17227,107.32414L290.17224,107.32414C291.19308,106.748764,292.32056,106.845535,293.21414,107.92148L293.21414,107.92148C294.206,109.115814,295.03015,111.751076,295.90335,114.47775L295.90335,114.47775C296.60168,116.65845,297.36957,119.054184,298.3137,121.28717L298.31372,121.28717C298.85272,122.562,299.45187,123.7901,300.08365,125.08455L300.08365,125.08455C300.75488,126.45984,301.46036,127.904816,302.14023,129.51279L302.14023,129.51279C303.39807,132.4877,304.56442,136.01022,305.32822,140.77887L305.32822,140.77887C306.8859,150.50412,306.76523,165.4069,305.4575,178.90157L305.4575,178.90157C304.14774,192.41696,301.64252,204.56657,299.1485,216.66571C299.04535,217.16609,298.5561,217.48814,298.05566,217.385C297.55527,217.28186,297.23322,216.79257,297.33636,216.29216L297.33636,216.29216C299.8324,204.18333,302.31702,192.12617,303.6159,178.72311L303.6159,178.72311C304.91675,165.29968,305.0233,150.57413,303.50128,141.07149L303.50128,141.07149C302.7637,136.4665,301.64276,133.08731,300.43607,130.23334L300.43607,130.23334C299.77856,128.67827,299.09412,127.27548,298.4209,125.89607L298.4209,125.89607C297.7926,124.608795,297.17133,123.3364,296.60953,122.00772L296.60953,122.00774C295.62756,119.68526,294.83536,117.20947,294.14127,115.04204L294.14127,115.04204C293.1973,112.09433,292.48904,109.94441,291.79077,109.10357L291.79077,109.10356C291.5008,108.754425,291.36743,108.7744,291.08075,108.93599L291.08075,108.93599C290.3219,109.36367,289.41492,110.61777,288.3106,112.20051L288.31067,112.20039L288.29077,112.22891C287.99838,112.64802,287.4217,112.75072,287.0027,112.45837C286.58365,112.166016,286.48096,111.589325,286.77332,111.1703 Z"/> </g> <g style="fill:rgb(0,0,0); fill-opacity:1.0; stroke-linejoin: miter"> <path d="M299.3353,216.20142L299.3353,216.20142C299.1639,220.66467,298.98874,225.12906,300.55283,238.86746L300.55283,238.86746C302.12015,252.63438,305.42926,275.67374,308.742,298.73727L308.74054,298.7275C310.0185,306.9961,311.29382,315.24716,312.86,323.59546L312.86,323.59546C314.42612,331.94336,316.28427,340.3946,318.14572,348.86044C318.25543,349.35947,317.93985,349.8529,317.44086,349.96265C316.94183,350.0724,316.44836,349.7568,316.33862,349.25778L316.33862,349.25778C314.4784,340.7975,312.61368,332.31702,311.0415,323.93665L311.0415,323.93665C309.46896,315.55444,308.18927,307.2741,306.91202,299.01013L306.91055,299.00034C303.59988,275.95105,300.2856,252.87741,298.71448,239.07677L298.71448,239.07677C297.14005,225.24757,297.31137,220.68947,297.48645,216.13042C297.50604,215.61987,297.93582,215.22186,298.44635,215.24147C298.9569,215.26108,299.35492,215.69086,299.3353,216.20142 Z"/> </g> <g style="fill:rgb(0,0,0); fill-opacity:1.0; stroke-linejoin: miter"> <path d="M317.67566,347.85352L317.67566,347.85352L319.9715,349.67352L318.47528,350.47995C318.46857,350.4042,318.45584,350.26913,318.45563,350.15118L318.4556,350.15115C318.45602,350.34213,318.35617,349.5766,318.93262,349.2325L318.93262,349.2325C319.85272,348.68335,320.47906,349.88464,320.27145,349.58594L320.27145,349.58597C320.30273,349.63092,320.33224,349.67767,320.35983,349.72388L320.35983,349.72388C320.5897,350.109,320.98593,350.97678,321.68466,352.6549L321.68466,352.6549C323.21246,356.324,326.34338,364.25522,327.71487,370.55563L327.71487,370.55563C329.0987,376.91284,328.6883,381.59128,328.2902,386.16077C328.24588,386.66974,327.7973,387.04642,327.28827,387.00208C326.77927,386.95776,326.40262,386.5092,326.44693,386.00015L326.44693,386.00015C326.84314,381.45258,327.22705,377.01376,325.90698,370.9492L325.90698,370.9492C324.5745,364.8278,321.50323,357.03247,319.97662,353.36612L319.97662,353.36612C319.2615,351.6487,318.91827,350.9188,318.7711,350.67215L318.7711,350.67215C318.75903,350.65195,318.75284,350.64288,318.75214,350.64188L318.75214,350.6419C318.43967,350.1923,319.00024,351.3469,319.8809,350.82126L319.8809,350.82126C320.4182,350.50058,320.30515,349.82767,320.30582,350.14716L320.30585,350.14716C320.30588,350.16766,320.30908,350.21265,320.3183,350.317C320.35086,350.68518,320.16113,351.03745,319.83572,351.21283C319.51035,351.3882,319.11176,351.3531,318.8221,351.1234L318.8221,351.1234L316.52625,349.30344C316.12585,348.98602,316.0586,348.40417,316.37598,348.00378C316.6934,347.6034,317.27527,347.5361,317.67566,347.85352 Z"/> </g> <g style="fill:rgb(0,0,0); fill-opacity:1.0; stroke-linejoin: miter"> <path d="M328.13782,385.80634L328.13782,385.80634C329.72925,399.30313,331.30887,412.65527,336.15503,424.94757L336.15503,424.94757C337.9872,429.59488,340.29028,434.101,342.66315,438.74182L342.66315,438.74182C345.1224,443.5518,347.6535,448.50055,349.7509,453.8206L349.7509,453.8206C350.9751,456.92587,352.05402,460.16336,352.8883,463.5837L352.8883,463.58374C356.51852,478.46677,355.4764,496.68985,354.45364,514.7187C354.42474,515.22876,353.98773,515.61884,353.47763,515.58984C352.9675,515.5609,352.57745,515.12396,352.60638,514.61383L352.60638,514.61383C353.6339,496.50052,354.6421,478.58182,351.09076,464.0222L351.09076,464.0222C350.27988,460.69772,349.22888,457.5413,348.02957,454.4992L348.02957,454.4992C345.9703,449.27588,343.48093,444.40564,341.01572,439.58414L341.01572,439.58414C338.65036,434.9579,336.30447,430.37137,334.43375,425.6262L334.43375,425.6262C329.4844,413.07227,327.88647,399.4753,326.3003,386.02295C326.24048,385.51556,326.6033,385.05573,327.11072,384.99588C327.6181,384.93607,328.07797,385.29892,328.13782,385.80634 Z"/> </g> <g style="fill:rgb(0,0,0); fill-opacity:1.0; stroke-linejoin: miter"> <path d="M353.88092,513.95123L353.88092,513.95123C369.6353,519.1634,385.50665,524.41034,399.45703,532.6759L399.45703,532.6759C413.40872,540.94226,425.40714,552.20886,437.3191,563.3891C437.69165,563.7388,437.7102,564.32416,437.36057,564.6968C437.01086,565.0693,436.4254,565.0878,436.0529,564.73816L436.0529,564.73816C424.11356,553.5323,412.26086,542.4128,398.5139,534.26776L398.5139,534.26776C384.7656,526.1219,369.0914,520.9323,353.29974,515.7078C352.8147,515.54736,352.55154,515.024,352.71207,514.53894C352.8725,514.05383,353.39584,513.7907,353.88092,513.95123 Z"/> </g> <g style="fill:rgb(0,0,0); fill-opacity:1.0; stroke-linejoin: miter"> <path d="M437.24652,563.2673L437.24652,563.2673C446.1892,570.8319,455.31024,578.5339,460.19852,586.52875L460.19852,586.52875C465.12405,594.5846,465.72958,602.8832,466.33096,610.9414C466.369,611.45087,465.98676,611.8947,465.47726,611.93274C464.96774,611.97076,464.52386,611.58856,464.48584,611.07904L464.48584,611.07904C463.88126,602.9777,463.28094,595.11707,458.61996,587.4939L458.61996,587.4939C453.92178,579.80994,445.07578,572.3135,436.05157,564.67993C435.6615,564.3499,435.61273,563.76624,435.94272,563.37616C436.2727,562.986,436.8564,562.9373,437.24652,563.2673 Z"/> </g> <g style="fill:rgb(0,0,0); fill-opacity:1.0; stroke-linejoin: miter"> <path d="M466.4532,610.2378L466.4532,610.2378C469.8433,627.25665,473.25824,644.3867,473.73184,657.45667L473.73184,657.45667C474.20767,670.5864,471.7179,679.61365,469.25964,688.5365C469.12396,689.0291,468.61462,689.3184,468.122,689.1827C467.62946,689.047,467.34018,688.5377,467.4759,688.0451L467.4759,688.0451C469.92758,679.146,472.34766,670.3515,471.8828,657.5237L471.8828,657.5237C471.4158,644.63617,468.0397,627.67334,464.6386,610.59924C464.53882,610.09814,464.86407,609.611,465.3652,609.5112C465.86624,609.41144,466.35336,609.7367,466.4532,610.2378 Z"/> </g> <g style="fill:rgb(0,0,0); fill-opacity:1.0; stroke-linejoin: miter"> <path d="M469.1313,688.2651L469.1313,688.2651C463.88028,700.5983,458.59506,713.0169,452.5301,722.957L452.5301,722.957C446.45416,732.9151,439.60785,740.3676,432.82452,747.7549C432.47897,748.1313,431.89374,748.1562,431.51736,747.81067C431.14105,747.4651,431.11612,746.8798,431.4617,746.5035L431.4617,746.5035C438.25275,739.10785,444.98108,731.77716,450.95068,721.9933L450.95068,721.9933C456.93124,712.1915,462.1633,699.9079,467.42896,687.5403C467.62912,687.0701,468.1725,686.8513,468.64255,687.0515C469.11267,687.25165,469.33148,687.795,469.1313,688.2651 Z"/> </g> <g style="fill:rgb(0,0,0); fill-opacity:1.0; stroke-linejoin: miter"> <path d="M433.06952,746.35645L433.06952,746.35645C432.4625,749.9098,431.8385,753.58374,430.55893,756.8259L430.55893,756.8259C429.2758,760.0771,427.34747,762.8601,425.49176,765.545C425.20123,765.96533,424.625,766.0705,424.2047,765.78C423.78442,765.4895,423.67917,764.91327,423.96967,764.49304L423.96967,764.49304C425.84378,761.7816,427.64536,759.16833,428.8379,756.14667L428.8379,756.14667C430.03403,753.11597,430.6314,749.64087,431.24573,746.0449C431.33176,745.54126,431.8098,745.2027,432.31342,745.28876C432.81708,745.3748,433.1556,745.8528,433.06952,746.35645 Z"/> </g> <g style="fill:rgb(0,0,0); fill-opacity:1.0; stroke-linejoin: miter"> <path d="M426.01413,765.33093L426.01413,765.33093C428.13437,782.8159,430.26813,800.39343,429.4203,817.8312L429.4203,817.8312C428.57245,835.2689,424.74435,852.5389,420.93875,869.7179C420.82825,870.2167,420.3343,870.53156,419.83545,870.421C419.3366,870.31055,419.02182,869.8166,419.13232,869.3177L419.13232,869.3177C422.94403,852.1111,426.7333,834.99536,427.57224,817.74133L427.57224,817.74133C428.41116,800.48724,426.301,783.0668,424.17734,765.5537C424.11584,765.0465,424.47717,764.5854,424.98438,764.5239C425.4916,764.46246,425.9526,764.8237,426.01413,765.33093 Z"/> </g> <g style="fill:rgb(0,0,0); fill-opacity:1.0; stroke-linejoin: miter"> <path d="M420.65143,869.94904L420.65143,869.94904C418.32562,874.75665,415.8509,879.94507,411.2824,882.5301L411.2824,882.5301C406.75122,885.09406,400.28473,885.0132,394.2005,884.9625C393.6896,884.95825,393.27887,884.5407,393.2831,884.0298C393.28738,883.5188,393.705,883.1081,394.2159,883.11237L394.2159,883.11237C400.48193,883.1645,406.36557,883.18634,410.37125,880.9198L410.37125,880.9198C414.3396,878.6743,416.58826,874.0993,418.9859,869.14325C419.2084,868.68335,419.7616,868.4909,420.22156,868.7134C420.6815,868.93585,420.87396,869.4891,420.65143,869.94904 Z"/> </g> <g style="fill:rgb(0,0,0); fill-opacity:1.0; stroke-linejoin: miter"> <path d="M394.47336,884.5612L394.47336,884.5612L296.77982,878.363C296.26993,878.3307,295.88278,877.8911,295.91513,877.3812C295.94748,876.8713,296.38705,876.4842,296.89694,876.51654L296.89694,876.51654L394.59048,882.7147C395.10037,882.747,395.48752,883.18665,395.4552,883.69653C395.42282,884.2064,394.98325,884.59357,394.47336,884.5612 Z"/> </g> <g style="fill:rgb(0,0,0); fill-opacity:1.0; stroke-linejoin: miter"> <path d="M296.842,878.24603L296.84204,878.24603L296.65863,878.257L296.6586,878.257C278.29382,879.3502,259.89566,880.44324,247.56313,880.30023L247.56313,880.30023C235.14206,880.1561,228.8487,878.7586,222.59215,877.3677L222.8413,877.3885L208.73459,878.12695C208.22435,878.1537,207.78908,877.7617,207.76237,877.25146C207.73566,876.7413,208.12764,876.30597,208.63786,876.27924L208.63786,876.27924L222.74457,875.5407C222.82817,875.5364,222.91197,875.54333,222.99368,875.5615L222.99368,875.5615C229.1856,876.9381,235.34108,878.3081,247.58458,878.45013L247.58458,878.45013C259.8353,878.59216,278.15463,877.50507,296.54865,876.41003L296.54865,876.41003L296.73206,876.3991C297.2421,876.3687,297.68015,876.75757,297.7105,877.26764C297.74088,877.77765,297.35205,878.2157,296.842,878.24603 Z"/> </g> <g style="fill:rgb(0,0,0); fill-opacity:1.0; stroke-linejoin: miter"> <path d="M238.72903,845.9895L238.72859,845.9889L238.72476,845.9837L238.7252,845.9844C235.77396,842.0559,232.7423,837.94824,235.33118,828.1858L235.33118,828.1858C236.11772,825.2197,237.42496,821.72284,238.77634,818.10504L238.77634,818.10504C240.28802,814.05804,241.86304,809.8392,242.91037,805.8897L242.91037,805.8897C243.96092,801.9282,244.4425,798.36847,243.87694,795.5974L243.87694,795.5974C242.25555,787.65356,231.75067,785.295,220.05113,782.8186C219.55128,782.7129,219.23184,782.22186,219.33763,781.722C219.44344,781.22217,219.93442,780.90265,220.43427,781.0085L220.43427,781.0085C231.50388,783.35156,243.76813,785.8123,245.68979,795.2274L245.68979,795.2274C246.34436,798.43445,245.76591,802.33997,244.69879,806.36395L244.69879,806.36395C243.62389,810.41736,242.01407,814.7248,240.50961,818.75244L240.50961,818.75244C239.14775,822.3983,237.8779,825.80054,237.11958,828.6601L237.11958,828.6601C234.73479,837.653,237.42708,841.17596,240.2045,844.873L240.20496,844.87366L240.20879,844.8787C240.51523,845.2866,240.43285,845.8666,240.02435,846.17346C239.61586,846.48035,239.03592,846.398,238.72903,845.9895 Z"/> </g> <g style="fill:rgb(0,0,0); fill-opacity:1.0; stroke-linejoin: miter"> <path d="M219.5182,782.30743L219.5182,782.30743L192.52374,702.02203C192.49057,701.9234,192.47427,701.81976,192.47557,701.71576L192.47556,701.71594L192.47598,701.681L192.476,701.6808C192.54578,696.05994,192.60812,690.562,187.87587,682.0441L187.87587,682.0441C183.07056,673.3947,173.35544,661.68164,163.5439,649.85846C163.21762,649.46533,163.27185,648.8821,163.66502,648.5558C164.0582,648.2295,164.64145,648.2837,164.96771,648.67694L164.96771,648.67694C174.72766,660.4379,184.58351,672.30817,189.49326,681.1455L189.49326,681.1455C194.4561,690.0784,194.3974,695.9587,194.32608,701.7038L194.3261,701.7035L194.32567,701.73846L194.2775,701.4324L221.27194,781.7178C221.43478,782.202,221.1742,782.7266,220.6899,782.88947C220.20563,783.05225,219.68103,782.7917,219.5182,782.30743 Z"/> </g> <g style="fill:rgb(0,0,0); fill-opacity:1.0; stroke-linejoin: miter"> <path d="M163.26416,649.784L163.26416,649.784C163.36853,647.3142,163.45767,644.3704,166.34459,642.1694L166.34459,642.1694C167.70885,641.1292,169.65558,640.2905,171.79996,639.5574L171.79996,639.5574C174.00291,638.8042,176.51186,638.1312,178.98116,637.4685C179.47462,637.33606,179.98201,637.6287,180.11446,638.1222C180.24689,638.61566,179.95422,639.12305,179.46075,639.2555L179.46075,639.2555C176.97612,639.92236,174.53152,640.57886,172.39854,641.3081L172.39854,641.3081C170.29254,642.0282,168.58255,642.7898,167.46638,643.64075L167.46638,643.64075C165.34247,645.2601,165.21999,647.3241,165.11276,649.8621C165.09119,650.3726,164.65988,650.76886,164.14941,650.7474C163.63895,650.72577,163.2426,650.29443,163.26416,649.784 Z"/> </g> <g style="fill:rgb(0,0,0); fill-opacity:1.0; stroke-linejoin: miter"> <path d="M179.0326,637.755L179.0326,637.755C192.83205,632.80725,206.57892,627.87756,220.92303,620.80634L220.92303,620.80634C230.31406,616.17694,239.9697,610.62537,247.75914,606.1465L247.75912,606.1465C251.8662,603.785,255.46312,601.7166,258.21707,600.2476L258.21707,600.2476C264.31506,596.99493,266.6517,596.43506,268.0803,597.158L268.0803,597.158C268.4584,597.34937,268.7249,597.61084,268.8905,597.76855C269.2605,598.1209,269.27472,598.7064,268.92236,599.0764C268.57,599.4464,267.98444,599.4607,267.61444,599.1083L267.61444,599.1083C267.42963,598.93225,267.34576,598.86,267.2448,598.8089L267.2448,598.8089C266.85654,598.6124,265.52588,598.4461,259.08786,601.8802L259.08786,601.8802C256.36584,603.3321,252.79895,605.38293,248.68143,607.7505L248.68143,607.7505C240.90009,612.22473,231.19406,617.80597,221.74112,622.4659L221.74112,622.4659C207.28915,629.5903,193.4466,634.55255,179.65704,639.49664C179.1761,639.66907,178.64642,639.419,178.474,638.93805C178.30154,638.4571,178.55165,637.9274,179.0326,637.755 Z"/> </g> <g style="fill:rgb(0,0,0); fill-opacity:1.0; stroke-linejoin: miter"> <path d="M268.60785,597.8127L268.60785,597.8127C282.9411,603.7334,297.02487,609.53436,309.1608,609.49963L309.1608,609.49963C321.23807,609.46515,331.47568,603.64087,341.96124,597.65247C342.4049,597.3991,342.96997,597.55334,343.22336,597.9971C343.47675,598.4407,343.3225,599.0058,342.8788,599.25916L342.8788,599.25916C332.46866,605.20447,321.81073,611.3137,309.1661,611.34985L309.1661,611.34985C296.5802,611.38586,282.11612,605.3944,267.90146,599.5227C267.4292,599.32764,267.20453,598.78674,267.3996,598.3145C267.59467,597.8423,268.13562,597.6176,268.60785,597.8127 Z"/> </g> <g style="fill:rgb(0,0,0); fill-opacity:1.0; stroke-linejoin: miter"> <path d="M342.01355,597.73175L342.01355,597.73175C345.15677,596.3097,348.77515,594.6301,353.09146,597.3084L353.09146,597.3084C357.14233,599.8221,361.80515,606.2463,366.28564,612.3903C366.5867,612.80316,366.49612,613.38184,366.08328,613.68286C365.67047,613.98395,365.09177,613.8933,364.7907,613.48047L364.7907,613.48047C360.19394,607.177,355.77954,601.15393,352.11594,598.8806L352.11594,598.8806C348.7178,596.77203,345.98462,597.966,342.77618,599.41754C342.3107,599.6281,341.7626,599.42145,341.552,598.956C341.3414,598.4905,341.54807,597.9423,342.01355,597.73175 Z"/> </g> <g style="fill:rgb(0,0,0); fill-opacity:1.0; stroke-linejoin: miter"> <path d="M366.92352,613.97375L366.92352,613.97375C367.27866,617.7089,367.628,621.3806,369.51614,627.0095L369.51614,627.0095C370.2566,629.217,371.2345,631.7279,372.2755,634.40027L372.2755,634.40027C373.42874,637.3607,374.65643,640.51184,375.69357,643.60376L375.69357,643.60376C376.1184,644.8703,376.5125,646.1304,376.85754,647.36755L376.85754,647.36755C378.80515,654.35126,379.15567,660.49023,379.5032,666.53217C379.53253,667.04224,379.14282,667.4795,378.63275,667.50885C378.12265,667.5382,377.68536,667.14844,377.65604,666.63837L377.65604,666.63837C377.30798,660.5873,376.96292,654.63306,375.07532,647.8646L375.07532,647.8646C374.74066,646.6647,374.35654,645.43567,373.93942,644.19214L373.93942,644.19214C372.9188,641.1495,371.70758,638.0397,370.55145,635.0718L370.55145,635.0718C369.5149,632.4109,368.5195,629.8562,367.76196,627.59796L367.76196,627.59796C365.80554,621.7653,365.44067,617.9254,365.0816,614.14886C365.03323,613.6402,365.40637,613.1887,365.915,613.1404C366.42365,613.092,366.87512,613.46515,366.92352,613.97375 Z"/> </g> <g style="fill:rgb(0,0,0); fill-opacity:1.0; stroke-linejoin: miter"> <path d="M379.2017,666.1609L379.2017,666.1609L378.9236,668.6093C378.91418,668.6921,378.89362,668.77325,378.8625,668.8505L378.8625,668.8505C375.40402,677.43524,371.9709,685.95996,369.71497,694.03796L369.71497,694.03796C367.4596,702.114,366.3842,709.73535,366.29337,714.8123L366.29337,714.8123C366.2036,719.82837,367.07275,722.35156,367.96234,724.94415C368.12817,725.4274,367.87085,725.9537,367.38757,726.1195C366.90433,726.2853,366.3781,726.02795,366.21228,725.5447L366.21228,725.5447C365.29053,722.8584,364.34818,720.1025,364.44342,714.7792L364.44342,714.7792C364.5376,709.5168,365.64362,701.73773,367.93292,693.5403L367.93292,693.5403C370.22162,685.345,373.69684,676.7215,377.14627,668.1592L377.08517,668.40045L377.36325,665.952C377.4209,665.4444,377.8792,665.0796,378.38687,665.13727C378.89453,665.19495,379.25934,665.65326,379.2017,666.1609 Z"/> </g> <g style="fill:rgb(0,0,0); fill-opacity:1.0; stroke-linejoin: miter"> <path d="M367.56503,726.6175L367.56503,726.6175L359.776,728.81036C359.7196,728.82623,359.6618,728.83673,359.60342,728.8417L359.60342,728.8417C342.63452,730.2798,326.12372,731.7145,316.50974,739.2873L316.50974,739.2873C306.94672,746.82,304.07166,760.563,301.13754,774.8116C301.0345,775.31195,300.54526,775.63416,300.04483,775.5311C299.54443,775.42804,299.22223,774.9388,299.32532,774.4384L299.32532,774.4384C302.21472,760.40674,305.1632,745.86957,315.3648,737.83386L315.3648,737.83386C325.51538,729.8384,342.71048,728.4165,359.44717,726.9981L359.2746,727.0294L367.0636,724.83655C367.55545,724.69806,368.06635,724.9845,368.20483,725.47626C368.3433,725.9681,368.05685,726.479,367.56503,726.6175 Z"/> </g> <g style="fill:rgb(0,0,0); fill-opacity:1.0; stroke-linejoin: miter"> <path d="M300.94083,773.913L300.94083,773.913C303.3308,786.25653,305.6806,798.3037,310.75256,805.8284L310.75256,805.8284C315.76935,813.2712,323.51254,816.349,331.58026,819.5284L330.3933,820.7594L328.04578,815.38513C327.84125,814.917,328.05502,814.37164,328.52322,814.1671C328.99146,813.9626,329.5368,814.17633,329.74133,814.64453L329.74133,814.64453L332.08884,820.0188C332.2387,820.36194,332.16693,820.76166,331.90704,821.03125C331.6471,821.30084,331.25027,821.38715,330.9019,821.2498L330.9019,821.2498C322.9154,818.10236,314.60437,814.85315,309.21832,806.86255L309.21832,806.86255C303.88742,798.95374,301.48584,786.4612,299.12433,774.2647C299.0272,773.7631,299.35513,773.2778,299.85672,773.18066C300.35834,773.0835,300.84372,773.4114,300.94083,773.913 Z"/> </g> <g style="fill:rgb(0,0,0); fill-opacity:1.0; stroke-linejoin: miter"> <path d="M330.87955,814.56525L330.87955,814.56525C335.6385,816.4865,340.26,818.3471,344.18033,818.98425L344.18033,818.98425C348.05173,819.61346,351.2706,819.0508,354.6381,818.45575C354.87976,818.413,355.12848,818.46814,355.32953,818.6088L355.32953,818.6088C360.4651,822.2032,365.58942,825.7896,368.33514,827.6447L368.33514,827.6447C371.1012,829.5134,371.38083,829.572,371.62402,829.6557C372.0088,829.7881,372.2619,830.1563,372.24765,830.563C372.23337,830.9696,371.95508,831.31915,371.562,831.42426L371.562,831.42426L364.4041,833.33777L364.44656,833.3254C360.28888,834.6526,356.20197,835.9587,352.70038,837.57135L352.70038,837.57135C349.20926,839.17914,346.28223,841.10034,343.29495,843.06287C342.86792,843.3434,342.29434,843.2247,342.0138,842.7976C341.73328,842.3706,341.85205,841.797,342.27905,841.5165L342.27905,841.5165C345.25507,839.5614,348.29144,837.5649,351.92636,835.8908L351.92636,835.8908C355.55078,834.22156,359.75275,832.8816,363.88385,831.56274C363.89792,831.5583,363.91202,831.55414,363.92627,831.5503L363.92627,831.5503L371.08417,829.6368L371.02216,831.40533C370.5135,831.23035,370.04132,831.03033,367.29935,829.1778L367.29935,829.1778C364.5371,827.3116,359.39716,823.7142,354.26862,820.1247L354.96005,820.2777C351.6048,820.87067,348.10065,821.4959,343.8835,820.81055L343.8835,820.81055C339.71524,820.1331,334.88232,818.17664,330.1869,816.28094C329.71313,816.0896,329.48413,815.55054,329.67538,815.0767C329.86664,814.60297,330.4058,814.37396,330.87955,814.56525 Z"/> </g> <g style="fill:rgb(0,0,0); fill-opacity:1.0; stroke-linejoin: miter"> <path d="M342.9315,843.8842L342.9315,843.8842C336.48627,844.541,330.02942,845.1991,322.02307,845.7777L322.02307,845.7777C314.0376,846.35486,304.39944,846.8635,296.09085,845.50397L296.09085,845.50397C292.97418,844.99396,290.05548,844.2227,287.1703,843.46106L287.1703,843.46106C284.24527,842.6889,281.35187,841.92584,278.24405,841.41724L278.24405,841.41724C276.21524,841.08527,274.0983,840.8625,271.8326,840.81915L271.8326,840.81915C262.61172,840.64264,250.85104,843.42444,238.91902,846.2536C238.42188,846.37146,237.92331,846.064,237.80542,845.56683C237.68756,845.0697,237.99501,844.5711,238.49216,844.45325L238.49216,844.45325C250.34071,841.6439,262.3605,838.78723,271.86804,838.96924L271.86804,838.96924C274.23456,839.0145,276.4403,839.24725,278.54285,839.5913L278.54285,839.5913C281.75195,840.11646,284.72812,840.9028,287.64255,841.6722L287.64255,841.6722C290.53925,842.4369,293.37445,843.1846,296.38962,843.67804L296.38962,843.67804C304.45657,844.998,313.89258,844.5102,321.8897,843.9323L321.8897,843.9323C329.8662,843.35583,336.2984,842.7003,342.7439,842.0435C343.2522,841.9917,343.7062,842.3617,343.75803,842.87006C343.8098,843.3783,343.43976,843.8324,342.9315,843.8842 Z"/> </g> <g style="fill:rgb(0,0,0); fill-opacity:1.0; stroke-linejoin: miter"> <path d="M348.38858,595.8894C349.8606,595.8894,351.42395,596.27374,353.09146,597.3084C357.14233,599.8221,361.80515,606.2463,366.28564,612.3903C366.47018,612.6434,366.50757,612.9588,366.4138,613.2343L366.41745,613.2343C366.69235,613.37256,366.8922,613.64484,366.92352,613.97375C367.27866,617.7089,367.628,621.3806,369.51614,627.0095C370.2566,629.217,371.2345,631.7279,372.2755,634.40027C373.42874,637.3607,374.65643,640.51184,375.69357,643.60376C376.1184,644.8703,376.5125,646.1304,376.85754,647.36755C378.80515,654.35126,379.15567,660.49023,379.5032,666.53217C379.52353,666.8856,379.34262,667.20416,379.05988,667.37616L379.06366,667.37616L378.9236,668.6093C378.91418,668.6921,378.89362,668.77325,378.8625,668.8505C375.40402,677.43524,371.9709,685.95996,369.71497,694.03796C367.4596,702.114,366.3842,709.73535,366.29337,714.8123C366.2036,719.82837,367.07275,722.35156,367.96234,724.94415C367.98157,725.0002,367.99512,725.0568,368.00327,725.1134L368.00696,725.1134C368.09677,725.21466,368.16568,725.3372,368.20483,725.47626C368.3433,725.9681,368.05685,726.479,367.56503,726.6175L359.776,728.81036C359.7196,728.82623,359.6618,728.83673,359.60342,728.8417C342.63452,730.2798,326.12372,731.7145,316.50974,739.2873C306.94672,746.82,304.07166,760.563,301.13754,774.8116C301.13342,774.8316,301.1287,774.8513,301.12335,774.8707L301.12637,774.8707C303.45425,786.8771,305.81186,798.4985,310.75256,805.8284C315.33524,812.62714,322.19293,815.7837,329.4948,818.70245L328.04578,815.38513C327.84125,814.917,328.05502,814.37164,328.52322,814.1671C328.64377,814.11444,328.76944,814.08954,328.8931,814.08954C329.2497,814.08954,329.58948,814.2969,329.74133,814.64453L329.82254,814.83044C329.99854,814.61926,330.26062,814.49774,330.5335,814.49774C330.64883,814.49774,330.76605,814.5194,330.87955,814.56525C335.6385,816.4865,340.26,818.3471,344.18033,818.98425C345.38434,819.17993,346.52524,819.2603,347.62714,819.2603C350.06827,819.2603,352.3179,818.8657,354.6381,818.45575C354.6916,818.4463,354.74545,818.44165,354.79907,818.44165C354.98755,818.44165,355.173,818.49927,355.32953,818.6088C360.4651,822.2032,365.58942,825.7896,368.33514,827.6447C371.1012,829.5134,371.38083,829.572,371.62402,829.6557C372.0088,829.7881,372.2619,830.1563,372.24765,830.563C372.23337,830.9696,371.95508,831.31915,371.562,831.42426L364.4041,833.33777L364.40775,833.33777C360.26346,834.6607,356.19107,835.9637,352.70038,837.57135C349.38245,839.09937,346.574,840.9105,343.73914,842.7711L343.74258,842.7711C343.74942,842.80347,343.7546,842.8364,343.75803,842.87006C343.8098,843.3783,343.43976,843.8324,342.9315,843.8842C336.48627,844.541,330.02942,845.1991,322.02307,845.7777C317.79465,846.0833,313.1028,846.36975,308.39038,846.36975C304.20328,846.36975,299.9999,846.1436,296.09085,845.50397C292.97418,844.99396,290.05548,844.2227,287.1703,843.46106C284.24527,842.6889,281.35187,841.92584,278.24405,841.41724C276.21524,841.08527,274.0983,840.8625,271.8326,840.81915C271.55334,840.8138,271.2718,840.81116,270.98795,840.81116C262.2455,840.81116,251.35571,843.3084,240.2407,845.94037L240.2431,845.94037C240.18588,846.02783,240.11276,846.10706,240.02435,846.17346C239.85782,846.2986,239.66278,846.359,239.46936,846.359C239.30716,846.359,239.1461,846.3165,239.00395,846.234L239.00156,846.234C238.97404,846.24054,238.94653,846.2471,238.91902,846.2536C238.84727,846.2706,238.77548,846.27875,238.70482,846.27875C238.28589,846.27875,237.9063,845.99225,237.80542,845.56683C237.74828,845.3258,237.7911,845.0845,237.90704,844.8863L237.90942,844.8863C235.26161,841.2484,232.98155,837.046,235.33118,828.1858C236.11772,825.2197,237.42496,821.72284,238.77634,818.10504C240.28802,814.05804,241.86304,809.8392,242.91037,805.8897C243.96092,801.9282,244.4425,798.36847,243.87694,795.5974C242.27873,787.76715,232.04924,785.3636,220.55219,782.92474L220.54999,782.92474C220.49818,782.9336,220.44637,782.9379,220.395,782.9379C220.18538,782.9379,219.98341,782.86615,219.82173,782.7387L219.82394,782.7387C219.46928,782.5591,219.26076,782.1639,219.33092,781.75696L219.33311,781.75696L192.52374,702.02203C192.49059,701.92346,192.47429,701.8199,192.47557,701.71594L192.47556,701.71594L192.47598,701.681L192.476,701.6808C192.54578,696.05994,192.60812,690.562,187.87587,682.0441C183.19057,673.6107,173.83763,662.2648,164.27876,650.744L164.27711,650.744C164.2481,650.7468,164.2187,650.7482,164.18901,650.7482C164.17586,650.7482,164.16266,650.7479,164.14941,650.7474C163.63895,650.72577,163.2426,650.29443,163.26416,649.784C163.36853,647.3142,163.45767,644.3704,166.34459,642.1694C167.70885,641.1292,169.65558,640.2905,171.79996,639.5574C174.00291,638.8042,176.51186,638.1312,178.98116,637.4685C179.06148,637.44696,179.14217,637.43665,179.22154,637.43665C179.36914,637.43665,179.51222,637.4722,179.64,637.53723C193.2356,632.6621,206.78938,627.7738,220.92303,620.80634C230.31406,616.17694,239.9697,610.62537,247.75914,606.1465L247.75912,606.1465C251.8662,603.785,255.46312,601.7166,258.21707,600.2476C262.80286,597.8016,265.26147,596.87836,266.80643,596.87836C267.31592,596.87836,267.726,596.97876,268.0803,597.158C268.4584,597.34937,268.7249,597.61084,268.8905,597.76855C268.96457,597.8391,269.02438,597.919,269.06985,598.00464L269.07257,598.00464C283.20264,603.8405,297.07224,609.4998,309.05225,609.4998C309.08844,609.4998,309.12463,609.49976,309.1608,609.49963C321.23807,609.46515,331.47568,603.64087,341.96124,597.65247C342.10596,597.5698,342.2636,597.5305,342.41916,597.5305C342.4318,597.5305,342.44443,597.5308,342.45703,597.5313C344.2646,596.7171,346.22824,595.8894,348.38858,595.8894 Z M291.38715,108.824165C291.29684,108.824165,291.20267,108.86727,291.08075,108.93599C290.38657,109.327225,289.56842,110.41001,288.58868,111.803314L288.59155,111.803314C287.63934,126.145485,286.64105,140.67622,282.17093,150.91515C277.7801,160.97244,270.07416,166.83916,262.45163,172.41943L262.45425,172.41943C262.40164,172.63391,262.2725,172.83041,262.07538,172.9642C254.55383,178.06964,248.38318,182.46333,250.13283,187.57626C250.2104,187.80296,250.3046,188.0352,250.41547,188.27365L250.41547,188.27364C251.51807,190.64516,254.07326,193.27202,257.13745,196.40054C260.9364,200.27922,265.39175,204.8147,267.88284,210.17264C272.5451,220.2005,270.24133,232.91408,268.04825,245.20464C268.03638,245.27112,268.0177,245.33466,267.99304,245.39467L267.99573,245.39467C268.0089,245.49748,268.00494,245.60428,267.98138,245.71133C263.0032,268.3394,258.07016,290.79395,258.89594,309.04974C259.71906,327.2478,266.272,341.3139,272.91095,355.54413C273.0359,355.81186,273.0216,356.10886,272.8978,356.3535L272.90054,356.3535C272.9228,356.5362,272.89093,356.72733,272.79733,356.90186L271.46854,359.3798L277.4637,379.41055L277.46646,379.41055C277.50916,379.50156,277.53726,379.60007,277.54834,379.70267L277.55112,379.70267L277.78595,380.48724C277.91934,380.93298,277.70074,381.4003,277.29102,381.5909L277.2938,381.5909C274.11957,402.60126,271.0061,423.46796,269.935,440.75827C268.8371,458.4811,269.88495,472.45663,270.93774,486.4874C270.971,486.93045,270.68637,487.32407,270.27652,487.44427L270.2792,487.44427C268.4942,492.4812,266.7573,497.49155,265.56433,502.9654C264.35742,508.5033,263.7036,514.53156,263.0687,520.63745L263.07132,520.63745C263.20984,520.9523,263.15872,521.3058,262.96402,521.5653L262.96664,521.5653C262.87476,521.9889,262.49783,522.2932,262.06384,522.2932C262.03192,522.2932,261.99966,522.29156,261.96722,522.2882C261.90442,522.2817,261.84372,522.26904,261.7857,522.25085L261.78308,522.25085C225.4837,539.82495,189.35695,557.3463,165.368,572.76917C141.24396,588.27893,129.40768,601.66064,117.52037,615.10046C117.35366,615.28894,117.12724,615.39325,116.89465,615.4102L116.89582,615.4102C114.53536,618.552,112.31704,621.58374,111.05249,624.3522C109.724655,627.25903,109.442085,629.9017,109.74531,633.7089C110.050934,637.54645,110.94308,642.4744,111.85026,647.47296L111.850266,647.47296L111.85826,647.5171C111.9062,647.7812,111.836914,648.0394,111.68746,648.2383L111.68858,648.2383C112.1838,651.2531,112.69833,654.26874,113.397995,657.4466C114.19419,661.0629,115.21478,664.81226,117.11389,668.29297C117.95009,669.8255,118.96581,671.3228,120.08491,672.848C120.78516,673.8023,121.51936,674.7589,122.27379,675.7419C123.05034,676.7536,123.8469,677.7914,124.63213,678.8615C127.39267,682.6238,130.00186,686.771,132.58961,690.8835C132.71729,691.08636,132.75644,691.3198,132.71736,691.5386L132.71869,691.5386C137.81456,701.6796,142.83138,711.67194,145.97618,718.1339C146.37137,718.9459,146.72821,719.6841,147.07443,720.40015C149.60323,725.6307,151.07428,728.6745,155.48201,735.6609C157.29367,738.5324,159.59991,742.06744,162.07358,745.8591C166.4488,752.56537,171.34705,760.07306,174.90472,766.05505C180.22734,775.00476,182.55406,780.547,184.73051,785.9049L184.73236,785.9049C185.04128,785.9894,185.29771,786.2322,185.3843,786.56433C187.82076,795.91223,190.2559,805.25507,191.56856,810.1886C192.87968,815.1164,193.06339,815.6148,193.23726,816.0945L193.23727,816.0945L193.2386,816.0981C193.2439,816.1128,193.24847,816.12634,193.25272,816.14C196.75854,827.4194,200.22726,838.56604,204.41525,846.30023C206.72382,850.56366,209.2582,853.8006,211.19586,856.27386C212.68457,858.174,214.00786,859.8296,214.34976,861.1207C214.99954,863.57446,212.53296,864.5007,210.75021,865.10504C210.35773,865.2381,209.94632,865.36957,209.52089,865.5057L209.5209,865.5057C209.05542,865.65454,208.57095,865.8096,208.07884,865.9764C207.5955,866.1402,207.10045,866.317,206.6059,866.511C202.53543,868.10785,198.3754,870.8964,197.44592,872.4951C197.40149,872.5715,197.36835,872.6397,197.3441,872.6993L197.34412,872.6993C197.09677,873.30707,197.68587,873.7926,200.26262,874.84705L200.26462,874.84705L208.8782,876.26666L222.74457,875.5407C222.76062,875.53986,222.77667,875.5395,222.79272,875.5395C222.86028,875.5395,222.92766,875.5468,222.99368,875.5615C229.1856,876.9381,235.34108,878.3081,247.58458,878.45013C248.31395,878.4586,249.06483,878.4627,249.83597,878.4627C262.01694,878.4627,279.24976,877.4399,296.54865,876.41003L296.73206,876.3991C296.7508,876.398,296.76944,876.39746,296.78793,876.39746C296.96878,876.39746,297.13876,876.44995,297.2824,876.5412L297.2854,876.5412L394.59048,882.7147C394.88815,882.7336,395.14398,882.89124,395.29895,883.12067L395.30292,883.12067C395.8069,883.124,396.30777,883.1263,396.80478,883.1263C402.08258,883.1263,406.92282,882.87103,410.37125,880.9198C414.3396,878.6743,416.58826,874.0993,418.9859,869.14325C419.04733,869.01624,419.13397,868.90967,419.23694,868.82654L419.24112,868.82654C423.01587,851.7854,426.7413,834.8312,427.57224,817.74133C428.40756,800.5616,426.31912,783.21686,424.20477,765.78L424.2047,765.78C423.78442,765.4895,423.67917,764.91327,423.96967,764.49304C425.84378,761.7816,427.64536,759.16833,428.8379,756.14667C430.03403,753.11597,430.6314,749.64087,431.24573,746.0449C431.32275,745.594,431.71402,745.2754,432.15652,745.2754C432.20825,745.2754,432.26068,745.2797,432.31342,745.28876C432.38626,745.3012,432.45566,745.32184,432.5208,745.3496C438.95065,738.33856,445.2916,731.26825,450.95068,721.9933C456.93124,712.1915,462.1633,699.9079,467.42896,687.5403C467.49274,687.39044,467.59137,687.2662,467.71136,687.1728L467.71606,687.1728C470.08267,678.5669,472.33246,669.9323,471.8828,657.5237C471.42645,644.92993,468.1921,628.4446,464.87112,611.7666L464.87576,611.7666C464.65753,611.6128,464.50726,611.3661,464.48584,611.07904C463.88126,602.9777,463.28094,595.11707,458.61996,587.4939C453.97174,579.8916,445.2634,572.4729,436.33932,564.92334L436.3437,564.92334C436.23892,564.88165,436.14008,564.82,436.0529,564.73816C424.11356,553.5323,412.26086,542.4128,398.5139,534.26776C384.7656,526.1219,369.0914,520.9323,353.29974,515.7078C352.99802,515.60803,352.78214,515.36774,352.7007,515.0836L352.70425,515.0836C352.63303,514.9431,352.59683,514.7825,352.60638,514.61383C353.6339,496.50052,354.6421,478.58182,351.09076,464.0222C350.27988,460.69772,349.22888,457.5413,348.02957,454.4992C345.9703,449.27588,343.48093,444.40564,341.01572,439.58414C338.65036,434.9579,336.30447,430.37137,334.43375,425.6262C329.4844,413.07227,327.88647,399.4753,326.3003,386.02295C326.26978,385.76413,326.34924,385.51767,326.50177,385.33038L326.50504,385.33038C326.87674,381.01242,327.1622,376.71576,325.90698,370.9492C324.5745,364.8278,321.50323,357.03247,319.97662,353.36612C319.5581,352.36102,319.26697,351.69415,319.06793,351.2644L319.07114,351.2644C318.98276,351.2312,318.89865,351.18408,318.8221,351.1234L317.3738,349.9753L317.37064,349.9753C317.32727,349.98145,317.28406,349.98444,317.24127,349.98444C316.81638,349.98444,316.43365,349.68988,316.33862,349.25778C316.3216,349.18036,316.30457,349.1029,316.28754,349.02548L316.2907,349.02548C316.20786,348.87512,316.16907,348.70517,316.17673,348.5359L316.1799,348.5359C314.37256,340.3152,312.56897,332.07867,311.0415,323.93665C309.46896,315.55444,308.18927,307.2741,306.91202,299.01013L306.91055,299.00034C303.59988,275.95105,300.2856,252.87741,298.71448,239.07677C297.23633,226.09328,297.29694,221.28163,297.45477,216.96893L297.45773,216.96893C297.3362,216.77438,297.2864,216.53458,297.33636,216.29216C299.8324,204.18333,302.31702,192.12617,303.6159,178.72311C304.91675,165.29968,305.0233,150.57413,303.50128,141.07149C302.7637,136.4665,301.64276,133.08731,300.43607,130.23334C299.77856,128.67827,299.09412,127.27548,298.4209,125.89607C297.7926,124.608795,297.17133,123.3364,296.60953,122.00772L296.60953,122.00774C295.62756,119.68526,294.83536,117.20947,294.14127,115.04204C293.1973,112.09433,292.48904,109.94441,291.79077,109.10357L291.79077,109.10356C291.6241,108.9029,291.5092,108.824165,291.38715,108.824165 Z"/> </g> </g> </svg>