<?xml version="1.0" encoding="UTF-8" standalone="no"?>
<svg
   xmlns:dc="http://purl.org/dc/elements/1.1/"
   xmlns:cc="http://creativecommons.org/ns#"
   xmlns:rdf="http://www.w3.org/1999/02/22-rdf-syntax-ns#"
   xmlns:svg="http://www.w3.org/2000/svg"
   xmlns="http://www.w3.org/2000/svg"
   xmlns:sodipodi="http://sodipodi.sourceforge.net/DTD/sodipodi-0.dtd"
   xmlns:inkscape="http://www.inkscape.org/namespaces/inkscape"
   inkscape:version="1.0rc1 (09960d6, 2020-04-09)"
   sodipodi:docname="practising-2806844.svg"
   id="svg1786"
   viewBox="0 0 55 55"
   height="55"
   width="55"
   version="1.1">
  <metadata
     id="metadata1792">
    <rdf:RDF>
      <cc:Work
         rdf:about="">
        <dc:format>image/svg+xml</dc:format>
        <dc:type
           rdf:resource="http://purl.org/dc/dcmitype/StillImage" />
        <dc:title></dc:title>
      </cc:Work>
    </rdf:RDF>
  </metadata>
  <defs
     id="defs1790" />
  <sodipodi:namedview
     inkscape:current-layer="svg1786"
     inkscape:window-maximized="0"
     inkscape:window-y="527"
     inkscape:window-x="694"
     inkscape:cy="26.567797"
     inkscape:cx="33.982672"
     inkscape:zoom="4.2909091"
     showgrid="false"
     id="namedview1788"
     inkscape:window-height="444"
     inkscape:window-width="706"
     inkscape:pageshadow="2"
     inkscape:pageopacity="0"
     guidetolerance="10"
     gridtolerance="10"
     objecttolerance="10"
     borderopacity="1"
     bordercolor="#666666"
     pagecolor="#ffffff" />
  <g
     transform="matrix(0.06413083,0,0,0.06413083,4.8157161,8.471229)"
     id="layer1">
    <g
       id="g1783"
       style="fill:#000000;fill-opacity:1;stroke-linejoin:miter">
      <path
         inkscape:connector-curvature="0"
         id="path1781"
         d="m 168.11293,386.41217 c 0.52721,0 1.18587,0.39188 1.45128,0.87317 0.31135,0.57178 0.30099,0.85786 0.0464,0.85786 -0.25351,0 -0.74916,-0.28367 -1.41044,-0.8514 l -1.05994,-0.83117 0.96777,-0.0485 z M 507.47028,609.8461 c 1.78424,0 2.44392,0.0404 1.38292,0.12393 -0.618,0.0505 -1.44164,0.0762 -2.25576,0.0762 -0.6925,0 -1.37808,-0.0187 -1.92431,-0.0566 -1.14441,-0.0827 -0.17663,-0.1311 2.11137,-0.14186 0.2439,-10e-4 0.47285,-0.002 0.68578,-0.002 z m -71.05954,-7.3105 c 1.11551,0 2.1473,0.1624 2.49072,0.5026 0.39789,0.3942 2.643,0.60365 7.04354,0.6709 5.01667,0.1085 6.64558,0.2769 7.2201,0.8022 0.57428,0.4813 2.1153,0.6941 6.5158,0.76147 4.53275,0.11073 5.94157,0.28003 6.5601,0.80517 0.58416,0.53736 1.6762,0.68006 4.8324,0.68006 0.18698,0 0.38122,-5e-4 0.583,-0.001 0.2156,-10e-4 0.422,-0.002 0.61954,-0.002 3.22976,0 4.10202,0.1419 4.31166,0.6385 0.1633,0.4824 1.24608,0.6289 5.97957,0.6289 0.4397,0 0.91089,-10e-4 1.4158,-0.004 5.36817,0.0188 7.43693,0.14111 8.27518,0.62121 0.70593,0.3927 2.37903,0.60475 4.49121,0.63895 0.0473,-3e-4 0.0943,-3.4e-4 0.14111,-3.4e-4 1.82693,0 3.29183,0.16574 3.29291,0.38034 10e-4,0.2639 -11.83432,0.49534 -30.27051,0.6261 -16.63205,0.12204 -37.97157,0.4422 -47.38669,0.7066 -11.66008,0.3456 -16.40136,0.4851 -19.00788,0.4851 -2.12407,0 -2.83043,-0.0927 -4.7081,-0.2419 -0.8218,-0.057 -1.52248,-0.0882 -2.1166,-0.0882 -1.12423,0 -1.86685,0.11195 -2.32626,0.37315 -0.42578,0.22804 -0.92374,0.3417 -1.62476,0.3417 -0.5274,0 -1.16973,-0.0643 -1.98268,-0.19276 -2.24574,-0.34144 -2.46614,-0.42834 -1.63215,-0.87234 0.52655,-0.3105 4.17721,-0.6356 9.41287,-0.74827 7.17108,-0.25378 8.57855,-0.39227 8.88391,-0.96573 0.30554,-0.52944 1.05267,-0.7089 2.94477,-0.7178 1.76,-0.008 2.771,-0.233 3.1209,-0.6747 0.39374,-0.48594 1.40494,-0.6667 3.561,-0.67686 1.93604,-0.009 3.16706,-0.23474 3.56117,-0.63269 0.35058,-0.30955 1.84453,-0.75671 3.33978,-0.9397 1.45117,-0.18285 2.90137,-0.58569 3.2077,-0.93909 0.30609,-0.39746 1.36109,-0.62246 2.76915,-0.62916 1.32005,-0.006 2.63884,-0.27623 3.16502,-0.6748 0.54752,-0.4326 1.99122,-0.6619 3.31672,-0.6619 z m -224.9307,-13.88075 c 0.0797,0 0.16611,0.002 0.25992,0.005 h 0.009 c 0.70294,0 1.62289,0.39034 2.0633,0.87026 0.48413,0.43597 1.40454,0.82629 2.06406,0.82629 h 0.0179 c 0.61461,0 1.40077,0.25935 1.66504,0.60815 0.26544,0.3069 1.67529,0.6963 3.08416,0.8657 1.45289,0.1691 2.68659,0.5153 2.81995,0.82266 0.0763,0.29934 0.94867,0.43534 2.67134,0.43534 0.30148,0 0.62901,-0.004 0.98287,-0.0123 0.3087,-0.007 0.59616,-0.0103 0.86402,-0.0103 1.94649,0 2.85817,0.18323 3.36298,0.60632 0.53027,0.48157 2.11554,0.73814 5.50421,0.85414 2.59668,0.12 5.01845,0.46044 5.37166,0.7229 0.39746,0.30614 3.74255,0.51037 9.24306,0.5725 4.7525,0.0657 8.84582,0.31055 9.06671,0.4856 0.26501,0.2186 1.36652,0.5215 2.42334,0.6925 1.10083,0.1709 2.33513,0.6492 2.77723,1.08704 0.44054,0.48022 1.22985,0.82751 1.80135,0.82751 h 0.0141 c 0.56952,0 1.13875,0.30415 1.31561,0.65395 0.13304,0.34965 0.74534,0.6536 1.35844,0.6536 h 0.0174 c 0.6131,0 1.2254,0.30396 1.35852,0.65375 0.17716,0.35005 0.61646,0.65515 1.01153,0.65515 h 0.007 c 0.39853,0 1.49738,0.39026 2.46523,0.86854 0.96712,0.4779 2.1524,0.86731 2.683,0.86731 h 0.0115 c 0.52695,0 1.18436,0.30395 1.49283,0.65315 0.30823,0.3488 1.00837,0.6522 1.62229,0.6522 h 0.0176 c 0.57266,0 1.49121,0.25885 2.01814,0.6066 0.5297,0.34946 1.85155,0.7392 2.90843,0.9104 1.10083,0.17075 2.24689,0.60544 2.60034,0.91184 0.34967,0.34636 1.47303,0.60302 2.73157,0.60302 0.0145,0 0.0289,-6e-5 0.0434,-1.2e-4 0.0175,-4e-5 0.035,-1.4e-4 0.0524,-1.4e-4 1.38184,0 2.41787,0.25747 2.81077,0.64675 0.47067,0.46625 1.5995,0.64095 3.9457,0.64095 0.0778,0 0.15696,-2e-4 0.23746,-6e-4 0.0672,-3e-4 0.13358,-4.6e-4 0.19904,-4.6e-4 2.41998,0 3.65103,0.21631 4.42465,0.72681 1.05908,0.65505 3.43555,0.73181 23.4566,0.76995 12.2327,0.0305 22.96995,0.2001 23.80683,0.3722 3.56738,0.68726 -15.30765,1.08386 -77.21595,1.59466 l -65.16453,0.48188 0.1673,-1.84888 c 0.12727,-1.01256 0.47413,-2.11426 0.78047,-2.46766 0.48193,-0.4424 0.6051,-2.33495 0.57739,-8.2311 -0.0298,-6.3362 0.052,-7.65665 0.62296,-7.8793 0.43933,-0.13404 0.65606,-0.83924 0.65051,-2.0272 -0.007,-1.4892 0.0655,-1.72695 0.92001,-1.72695 z M 163.755,296.7184 c -2.24642,0 -4.89076,0.27644 -7.15292,0.81996 -1.93396,0.44898 -4.3515,0.9884 -5.36275,1.16907 -1.05517,0.18103 -1.97772,0.49327 -2.15277,0.71423 -0.13098,0.22058 -0.70208,0.39929 -1.2301,0.40186 -0.57202,0.003 -1.53821,0.40318 -2.15192,0.89013 -0.61377,0.48682 -1.49194,0.88697 -1.93194,0.88905 -0.48401,0.002 -1.62616,0.40368 -2.5921,0.84826 -0.96576,0.48852 -2.98694,1.11401 -4.48145,1.42908 -2.76942,0.58499 -2.81319,0.6293 -3.85849,2.92221 -0.60998,1.2788 -1.26507,2.33801 -1.48505,2.33899 -0.22003,0.001 -0.52612,0.39856 -0.65588,0.8833 -0.12976,0.48462 -0.74329,1.01541 -1.35864,1.1503 -0.70325,0.17932 -1.05335,0.57702 -1.05005,1.28112 0.004,0.88001 -0.25928,1.01319 -2.85407,1.28944 -1.58319,0.18346 -3.38574,0.49987 -4.04456,0.76708 -0.38027,0.14212 -0.7335,0.211 -1.09295,0.211 -0.42939,0 -0.86767,-0.0983 -1.37153,-0.28754 -0.45082,-0.18536 -0.7894,-0.28338 -1.11779,-0.28338 -0.44235,0 -0.86621,0.17784 -1.52106,0.55974 -2.76478,1.5531 -3.37666,2.43592 -3.36634,4.636 0.005,1.1001 0.3194,2.4187 0.6737,2.901 0.66413,0.87695 0.84877,2.72412 0.32447,3.51867 -0.17469,0.26478 -0.74463,0.70753 -1.27143,0.974 -0.52655,0.31055 -1.05108,1.06103 -1.22393,1.72181 -0.12873,0.70472 -0.91602,1.72032 -1.88093,2.38502 -1.00848,0.75267 -2.10168,2.20995 -2.88647,3.75365 -1.30779,2.60235 -2.35784,3.88335 -3.7196,4.37372 -0.39514,0.17785 -1.31524,1.01818 -2.01513,1.90149 -1.22523,1.45788 -1.311595,1.8103 -1.21052,4.58204 0.1004,2.6395 0.23486,3.16698 1.34028,4.30577 0.66259,0.74383 1.54374,1.31116 1.89672,1.31116 h 0.008 c 0.39483,0 0.87579,0.173 1.09571,0.39087 0.70668,0.69998 4.62605,2.65906 5.3349,2.65906 h 0.004 c 0.30714,0 0.61475,0.26196 0.61615,0.56909 0.002,0.35193 0.66559,1.18493 1.41711,1.92945 1.98853,1.7948 2.87391,2.93456 3.23108,4.03295 0.13434,0.52661 0.48736,0.92065 0.70746,0.92065 h 0.002 c 0.21941,0 0.396,0.2627 0.39728,0.52625 10e-4,0.30798 0.31336,1.14258 0.7129,1.88867 0.39935,0.70228 0.93475,2.28368 1.11651,3.51488 0.22565,1.18706 0.58258,2.24138 0.84705,2.32817 0.2644,0.0868 0.45031,2.198 0.46478,5.27808 0.0132,2.81605 0.24786,5.93908 0.47247,6.906 0.2685,0.9668 0.63361,3.73731 0.86493,6.15625 0.23163,2.463 0.72742,4.96875 1.12689,5.71497 0.97669,1.8435 1.14759,19.48746 0.18122,19.84403 -0.43915,0.17797 -0.74182,1.32348 -0.95105,3.61266 -0.12335,1.84864 -0.55426,3.78674 -0.85999,4.27222 -0.34973,0.4856 -0.60834,1.63086 -0.604,2.55482 0.004,0.92406 -0.29877,1.98156 -0.64905,2.33532 -0.35016,0.39758 -0.65491,1.10302 -0.65265,1.58703 0.002,0.48401 -0.38959,1.36585 -0.87067,1.98413 -0.48113,0.61842 -0.87298,1.50025 -0.87091,1.94022 0.002,0.484 -0.17212,0.8369 -0.39209,0.8379 -0.22003,0.001 -0.52533,0.57445 -0.69806,1.2793 -0.1286,0.7047 -0.56476,1.5427 -0.91529,1.8524 -0.35076,0.26563 -0.6109,1.1029 -0.60754,1.8069 0.003,0.70397 -0.25513,1.89342 -0.60339,2.687 -0.30432,0.79346 -0.69184,2.59937 -0.90497,4.0525 -0.16925,1.45275 -0.55798,2.99474 -0.90778,3.48034 -0.34973,0.48572 -0.60913,1.45496 -0.60583,2.15893 0.003,0.70398 -0.38751,1.80591 -0.91266,2.42443 -0.74347,0.97145 -0.8288,1.54396 -0.59802,3.83094 0.22845,1.80298 0.0631,4.04798 -0.49494,7.04273 -0.94237,5.46063 -1.07744,23.54599 -0.14904,24.46579 0.30939,0.30652 0.57794,1.27331 0.58228,2.19739 0.009,1.84705 0.81164,4.34961 1.3836,4.34961 h 0.002 c 0.21967,0 0.39765,0.48274 0.40034,1.0542 0.003,0.61596 0.27038,1.36279 0.57983,1.66931 0.30945,0.30653 0.797,1.05227 1.10785,1.6669 1.02112,1.93127 1.64148,2.85241 2.61469,3.94787 0.5747,0.56934 1.01861,1.40332 1.02069,1.84326 0.003,0.56656 0.34899,0.7862 1.25335,0.7862 0.009,0 0.0175,-3e-5 0.0264,-6e-5 0.009,-4e-5 0.0176,-6e-5 0.0264,-6e-5 0.69407,0 1.33937,0.12774 1.42706,0.30122 0.22232,0.52647 2.91132,2.3159 3.44191,2.3159 h 0.002 c 0.21958,0 0.43985,0.2626 0.44131,0.56995 0.001,0.30798 0.57697,1.05335 1.28394,1.66602 0.7511,0.65649 1.4599,1.66516 1.59479,2.28063 0.17884,0.6151 0.57776,1.2294 0.93042,1.3596 0.3526,0.1304 0.61847,0.52505 0.61988,0.83315 0.002,0.35195 0.31219,0.87865 0.66564,1.18495 0.3534,0.3064 0.66413,0.87694 0.66602,1.27294 0.0458,0.39576 0.40302,1.49416 0.8916,2.45996 0.48853,0.9657 0.84546,2.02014 0.89093,2.3279 0.001,0.30796 0.3111,0.65855 0.66376,0.7889 0.39685,0.1741 0.66388,0.8329 0.66724,1.5369 0.003,0.70323 0.18162,1.2739 0.44514,1.2739 h 0.002 c 0.2198,0 0.44165,0.4825 0.44434,1.05397 0.003,0.61596 0.3584,1.36243 0.79986,1.66833 0.44141,0.3059 2.07822,2.1464 3.58335,4.0755 1.54907,1.9287 2.96478,3.5502 3.18518,3.6371 0.22045,0.0869 0.39807,0.4382 0.39972,0.7903 0.002,0.35074 0.30891,0.61276 0.65948,0.61276 h 0.006 c 0.35087,0 0.65879,0.30594 0.66044,0.65704 0.002,0.396 0.2677,0.7908 0.6203,0.921 0.35266,0.1304 0.79596,0.8324 0.93127,1.5357 0.17908,0.70237 0.57689,1.2718 0.92859,1.2718 h 0.004 c 0.35053,0 0.61444,0.30605 0.61615,0.657 0.004,0.8797 3.1893,4.9982 3.85091,4.9982 h 7.3e-4 c 0.30823,0.0426 0.57324,0.2613 0.57447,0.52537 0.003,0.65983 6.36593,6.96323 7.02857,6.96323 h 0.002 c 0.26327,0 0.48384,0.30636 0.48555,0.65774 0.002,0.39599 0.53168,0.78956 1.32434,0.91786 1.05707,0.2151 1.32251,0.5217 1.32648,1.3578 0.003,0.70395 0.31354,1.1866 0.88618,1.3159 0.48462,0.12975 0.88227,0.47985 0.88355,0.7439 0.003,0.7469 2.42412,2.4475 3.52653,2.4475 h 0.0103 c 0.48167,0 0.87629,0.3051 0.87794,0.65576 0.002,0.35089 0.35272,0.65634 0.79067,0.65634 h 0.009 c 0.48389,0 1.18696,0.3918 1.62793,0.87234 0.44151,0.48116 1.05807,0.87376 1.3228,0.87376 h 0.003 c 0.30757,0 0.65981,0.3059 0.8371,0.65615 0.13324,0.35045 0.52885,0.65589 0.88019,0.65589 h 0.005 c 0.30771,0 0.70381,0.30546 0.88111,0.656 0.13305,0.34976 0.70185,0.65381 1.31469,0.65381 h 0.0186 c 0.65443,0 1.09221,0.30565 1.27001,0.87405 0.13392,0.56833 0.61494,0.87375 1.31291,0.87375 h 0.0112 c 0.004,0 0.009,-5e-5 0.013,-5e-5 1.13473,0 1.61838,0.7029 1.6264,2.4124 0.002,0.5281 0.31378,1.2306 0.66724,1.537 0.35345,0.30627 0.66559,1.1848 0.66912,1.93285 0.004,0.74805 0.27222,1.75879 0.6266,2.24122 0.31023,0.48253 0.6703,2.19693 0.80976,3.78033 0.0973,1.9798 0.41091,3.1663 0.94118,3.6479 0.57471,0.5693 0.75531,1.5365 0.76642,3.9126 0.0106,2.244 0.23651,3.5189 0.72381,4.2207 0.57575,0.7894 0.71192,1.6688 0.50409,4.26586 -0.20714,2.72919 -0.11607,3.38874 0.63631,4.30914 0.44269,0.5701 0.84198,1.2722 0.84302,1.4922 10e-4,0.21996 -1.49353,0.535 -3.34119,0.6317 -1.80362,0.0964 -3.43039,0.3681 -3.6052,0.633 -0.17474,0.26477 -1.66912,0.6238 -3.29656,0.7634 -1.6272,0.1836 -3.38538,0.5879 -3.95551,0.9866 -0.52637,0.3546 -1.27289,0.666 -1.66888,0.66797 -0.39608,0.002 -0.96663,0.3125 -1.27303,0.66603 -0.4375,0.53 -1.8009,0.66844 -6.99298,0.69285 -4.75215,0.0223 -6.68733,0.2074 -7.30122,0.65025 -0.57019,0.3987 -2.54895,0.672 -5.76068,0.77517 -3.12344,0.14663 -5.1462,0.42016 -5.58455,0.77429 -0.33121,0.29714 -1.19066,0.47264 -2.21358,0.47264 -0.19502,0 -0.396,-0.006 -0.60039,-0.0195 -0.37692,-0.0252 -0.68976,-0.0396 -0.95232,-0.0396 -1.02523,0 -1.28369,0.22056 -1.59583,0.8876 l -0.43525,1.01405 -66.04539,0.31015 c -58.213201,0.2734 -66.1328865,0.39865 -66.6142103,0.97287 -0.3063969,0.35353 -0.876893,0.66418 -1.2729504,0.66603 -0.4400029,0.002 -1.1425793,0.31334 -1.6249406,0.6677 -0.43835489,0.354 -1.40490854,0.66663 -2.0649432,0.6697 -0.8800055,0.004 -1.3187877,0.27 -1.4918836,0.88695 -0.1293335,0.57265 -0.6118779,0.88295 -1.2278449,0.88585 -0.572022,0.003 -1.318666,0.3141 -1.713014,0.6681 -0.3503425,0.3535 -0.9208996,0.6643 -1.2288835,0.6658 -0.3080445,10e-4 -1.1861575,0.4016 -1.8879405,0.8889 -0.745729,0.48754 -1.843874,0.88866 -2.459902,0.8916 -0.659974,0.003 -1.406617,0.31457 -1.712954,0.66814 -0.306274,0.3534 -0.876892,0.66406 -1.316895,0.66616 -0.395996,0.002 -1.186158,0.4016 -1.755922,0.8883 -0.569763,0.4867 -1.271852,0.886 -1.623842,0.8877 -0.308044,10e-4 -0.571228,0.1786 -0.57019,0.39866 0.001,0.21997 -0.569519,0.53064 -1.272768,0.70994 -0.703308,0.1353 -1.405335,0.57864 -1.535645,0.9313 -0.13031,0.35254 -0.569094,0.61865 -1.009096,0.6207 -1.232055,0.006 -7.553106,3.2476 -7.594183,3.8639 0.0016,0.35195 -0.613282,0.57485 -1.493349,0.579 -0.835999,0.004 -1.802795,0.27246 -2.109313,0.5819 -0.306397,0.3535 -1.008122,0.8408 -1.57868,1.1515 -1.053344,0.577 -1.35083,2.8224 -0.46832,3.34643 0.128855,0.10207 11.943873,0.14927 30.085822,0.14927 12.948438,0 29.119872,-0.024 46.565795,-0.0694 16.599393,-0.0633 31.187753,-0.0928 43.641943,-0.0928 24.9827,0 41.3777,0.11872 48.19106,0.32155 4.94601,0.144 13.30958,0.2072 22.99208,0.2072 25.98408,0 61.46674,-0.4547 65.88784,-1.0205 2.59461,-0.3202 84.17177,-0.8352 262.2879,-1.62763 142.2116,-0.62377 258.76965,-1.3031 259.0328,-1.48037 1.31515,-0.79746 -0.5048,-5.0943 -2.1316,-5.0943 h -0.006 c -0.26456,0 -0.79273,-0.30485 -1.14551,-0.6545 -0.39771,-0.35024 -1.1919,-0.7865 -1.85242,-0.9154 -0.66063,-0.1288 -1.80653,-0.51943 -2.60028,-0.8678 -0.74579,-0.34676 -1.83955,-0.60464 -2.414,-0.60464 h -0.0155 c -0.52881,0 -1.40475,-0.30296 -1.84455,-0.65136 -0.4833,-0.3481 -1.35864,-0.65064 -1.9743,-0.65064 h -0.0173 c -0.61597,0 -1.53504,-0.30236 -1.97457,-0.65076 -0.4827,-0.3477 -1.48674,-0.64935 -2.27653,-0.64935 -0.005,0 -0.01,5e-5 -0.0147,5e-5 -0.005,0 -0.0101,10e-5 -0.0152,10e-5 -0.7447,0 -1.616,-0.2589 -1.88,-0.6072 -0.30955,-0.3506 -1.5433,-0.74085 -2.8203,-0.9109 -1.27685,-0.1699 -2.6869,-0.6034 -3.17236,-0.90905 -0.48264,-0.3476 -1.3562,-0.60655 -2.01489,-0.60655 h -0.0218 c -0.65631,0 -1.26862,-0.3038 -1.44536,-0.6531 -0.13295,-0.3927 -0.7857,-0.65264 -1.5702,-0.65264 -0.006,0 -0.0113,4e-5 -0.017,4e-5 h -0.009 c -0.7065,0 -2.0646,-0.38835 -2.9432,-0.8662 -0.9244,-0.47857 -1.9797,-0.869 -2.3339,-0.869 h -0.005 c -0.3983,0 -1.49726,-0.3903 -2.4214,-0.8688 -0.9095,-0.4674 -1.81787,-0.7253 -2.5523,-0.7253 -0.15613,0 -0.3044,0.0116 -0.4431,0.0354 -0.2158,0.0442 -0.4175,0.0648 -0.59127,0.0648 -0.35748,0 -0.59698,-0.0872 -0.59773,-0.23524 -9.6e-4,-0.21996 -0.5306,-0.56956 -1.2352,-0.69826 -0.6608,-0.1728 -1.89516,-0.6511 -2.7334,-1.1312 -0.83656,-0.4352 -1.804,-0.7822 -2.11397,-0.7822 h -0.004 c -0.30854,0 -0.88013,-0.30466 -1.23304,-0.65414 -0.39403,-0.39046 -1.47827,-0.64816 -2.52493,-0.64816 -0.01,0 -0.0201,0 -0.0301,1e-4 -0.0126,4e-5 -0.0252,4e-5 -0.0377,4e-5 -1.16996,0 -2.07936,-0.2583 -2.42946,-0.64837 -0.30797,-0.34863 -1.1813,-0.651 -1.9267,-0.651 h -0.0239 c -0.74915,0 -1.97376,-0.34467 -2.6762,-0.73537 -1.0266,-0.588 -6.25966,-0.9417 -11.02046,-0.9417 -3.01374,0 -5.83824,0.1417 -7.28668,0.4556 -4.30766,0.9443 -9.71796,1.3657 -19.61776,1.5002 -2.84995,0.0524 -4.8685,0.0894 -6.3222,0.0894 -3.46117,0 -3.72014,-0.20959 -4.3741,-0.91923 -0.48514,-0.5242 -1.3633,-0.95906 -1.9355,-0.95906 h -0.0128 c -0.5695,0 -1.13864,-0.30414 -1.3156,-0.65369 -0.17467,-0.47325 -0.85435,-0.64868 -2.37065,-0.64868 -0.0317,0 -0.0639,3e-5 -0.0964,2.3e-4 -0.0346,2e-4 -0.0687,2.6e-4 -0.1024,2.6e-4 -1.769,0 -2.3851,-0.22906 -3.55595,-1.30323 -3.52942,-3.27758 -4.98765,-4.37268 -5.82435,-4.37268 h -0.008 c -0.4848,0 -1.4089,-0.52295 -2.02685,-1.22255 -2.11925,-2.27446 -6.6081,-4.8883 -8.5058,-4.8883 h -0.0172 c -0.5695,0 -1.1387,-0.3041 -1.3156,-0.6539 -0.133,-0.35005 -0.65877,-0.65444 -1.18477,-0.65444 h -0.008 c -0.8831,0 -4.36756,-2.84002 -4.3711,-3.58752 -0.005,-1.05574 -5.97583,-8.24048 -6.81446,-8.24048 h -8.4e-4 c -0.1327,0 -1.19233,-0.87482 -2.34114,-1.96899 -1.14916,-1.09473 -2.56201,-2.1001 -3.13452,-2.22947 -0.52868,-0.1294 -0.97009,-0.4353 -0.97094,-0.61135 -0.003,-0.65905 -3.9166,-2.61585 -5.1987,-2.61585 h -0.0176 c -0.70155,0 -1.53145,-0.3026 -1.8394,-0.65124 -0.30856,-0.34956 -0.923,-0.65369 -1.36264,-0.65369 h -0.014 c -0.47914,0 -0.8275,-0.17383 -0.8287,-0.43604 -0.003,-0.70403 -2.658,-1.20837 -5.7028,-1.20837 -0.57093,0 -1.1555,0.0177 -1.73896,0.0552 -4.09058,0.32726 -4.92481,0.72729 -8.03404,3.86596 -2.8466,2.9175 -5.2167,4.16077 -9.35,4.7962 -1.40783,0.2201 -2.3502,0.3345 -3.13855,0.3345 -0.83665,0 -1.49985,-0.1288 -2.362,-0.3966 -1.10168,-0.3468 -3.1726,-0.95334 -4.62671,-1.38644 -1.45384,-0.38926 -3.43734,-1.08406 -4.40728,-1.51936 -0.96996,-0.39147 -2.07216,-0.87035 -2.42481,-1.0007 -0.35265,-0.1304 -0.97009,-0.43545 -1.32325,-0.6538 -1.71807,-1.00235 -4.7966,-2.2177 -5.63854,-2.2177 h -0.0117 c -0.48234,0 -1.05014,-0.2161 -1.18237,-0.4343 -0.1333,-0.26344 -1.14707,-0.6547 -2.24841,-0.9136 -1.05732,-0.259 -1.93916,-0.65086 -1.94001,-0.8269 -9.5e-4,-0.21996 -0.61828,-0.48107 -1.36718,-0.65355 -0.74877,-0.17249 -1.85071,-0.56335 -2.51247,-0.91225 -0.65935,-0.3478 -1.4933,-0.6073 -1.84734,-0.6073 h -0.006 c -0.3529,0 -1.05578,-0.30406 -1.49621,-0.65294 -0.44164,-0.35009 -2.16104,-1.04589 -3.74754,-1.56666 -1.58645,-0.5205 -4.1431,-1.4764 -5.64248,-2.17345 -1.49926,-0.69705 -4.84939,-1.9574 -7.49332,-2.781 -2.6002,-0.8678 -5.2448,-1.82345 -5.8626,-2.17255 -0.6173,-0.3052 -2.02735,-0.6946 -3.17212,-0.8651 -1.14478,-0.17067 -2.15868,-0.5619 -2.29236,-0.91334 -0.13275,-0.3487 -0.87122,-0.60779 -1.74225,-0.60779 -0.007,0 -0.0138,0 -0.0207,3e-5 -0.0137,10e-5 -0.0272,1.5e-4 -0.0407,1.5e-4 -1.11384,0 -1.54704,-0.22065 -1.76752,-0.8717 -0.17987,-0.53131 -0.35824,-0.74481 -1.05618,-0.74481 -0.34079,0 -0.80544,0.0509 -1.45468,0.14056 -0.64866,0.0958 -1.12921,0.14734 -1.49896,0.14734 -0.683,0 -0.9878,-0.17594 -1.2752,-0.57424 -0.354,-0.43846 -1.45594,-0.8293 -2.8208,-0.9989 -1.23268,-0.1262 -2.46644,-0.51634 -2.73195,-0.8232 -0.26419,-0.3487 -1.0498,-0.60793 -1.70752,-0.60793 h -0.0228 c -0.69928,0 -1.31107,-0.30367 -1.48774,-0.65307 -0.13314,-0.34956 -0.74536,-0.6536 -1.3584,-0.6536 h -0.0177 c -0.61691,0 -1.62338,-0.30216 -2.19449,-0.6936 -0.57385,-0.3933 -2.33569,-0.7811 -3.8324,-0.906 -1.54065,-0.12486 -3.30249,-0.51256 -3.96399,-0.8175 -0.83456,-0.4236 -4.8439,-0.6367 -8.8153,-0.6367 -3.79484,0 -7.55506,0.1946 -8.47776,0.586 -0.74658,0.3115 -2.59295,0.6721 -4.176,0.89965 -1.58318,0.18335 -5.32098,0.68495 -8.35516,1.09521 -3.31064,0.47181 -10.09249,0.69159 -16.8981,0.69159 -8.29007,0 -16.61532,-0.32611 -18.7446,-0.92028 -1.31146,-0.38672 -3.18564,-0.68427 -4.20334,-0.68427 -0.008,0 -0.0161,0 -0.024,6e-5 -0.008,4e-5 -0.0158,4e-5 -0.0238,4e-5 -1.01018,0 -2.40288,-0.2993 -3.0594,-0.64555 -0.70127,-0.34649 -1.9239,-0.64715 -2.71637,-0.64715 -0.005,0 -0.01,6e-5 -0.0148,6e-5 -0.005,0 -0.009,4e-5 -0.0142,4e-5 -0.7894,0 -1.74939,-0.3019 -2.10094,-0.6502 -0.39626,-0.3489 -1.0544,-0.6528 -1.53792,-0.6528 h -0.009 c -0.4867,0 -1.7169,-0.4334 -2.72874,-0.9552 -3.62766,-1.85787 -4.18012,-2.08834 -5.04608,-2.08834 -0.008,0 -0.0159,0 -0.0239,4e-5 h -0.005 c -0.48319,0 -1.09716,-0.3042 -1.40564,-0.6534 -0.30842,-0.3491 -0.96588,-0.653 -1.49282,-0.653 h -0.006 c -0.48419,-0.0416 -1.71783,-0.3879 -2.68817,-0.8674 -0.97028,-0.4795 -2.072,-0.8262 -2.46817,-0.8684 h -0.004 c -0.39595,0 -0.96687,-0.3045 -1.27564,-0.65407 -0.30741,-0.34793 -1.26526,-0.64973 -2.18329,-0.64973 -0.007,0 -0.0132,0 -0.0198,1e-4 -0.006,0 -0.0129,4e-5 -0.0193,4e-5 -0.91814,0 -1.87636,-0.30164 -2.1839,-0.64978 -0.30757,-0.34826 -1.26637,-0.64996 -2.14174,-0.64996 -0.006,0 -0.0116,5e-5 -0.0174,5e-5 -0.88025,-0.0399 -2.3779,-0.38475 -3.34818,-0.86425 -0.97034,-0.4795 -2.68805,-0.8235 -3.78827,-0.8622 -0.0144,10e-5 -0.0288,1.4e-4 -0.0431,1.4e-4 -1.2547,0 -2.20613,-0.25814 -2.556,-0.64794 -0.34821,-0.43117 -1.3335,-0.64644 -2.87219,-0.64644 -0.0262,0 -0.0525,4e-5 -0.079,1.9e-4 -0.0146,5e-5 -0.0292,1.2e-4 -0.0438,1.2e-4 -1.2673,0 -2.77953,-0.25497 -3.30316,-0.60037 -0.52942,-0.30564 -2.11529,-0.6942 -3.52395,-0.81955 -1.40869,-0.12535 -2.86237,-0.47058 -3.17162,-0.73315 -0.35347,-0.3063 -1.8949,-0.60706 -3.39155,-0.7322 -1.54047,-0.0807 -3.5224,-0.4674 -4.44805,-0.81505 -0.8763,-0.34575 -2.1868,-0.60255 -2.85078,-0.60255 h -0.0121 c -1.36427,-0.0376 -6.12337,-1.5114 -6.91855,-2.16765 -0.30896,-0.21865 -1.49872,-0.56495 -2.68734,-0.69145 -1.18885,-0.17055 -2.33472,-0.5612 -2.51238,-0.91225 -0.17647,-0.30535 -0.91804,-0.56455 -1.57524,-0.56455 h -0.0115 c -0.005,0 -0.0103,4e-5 -0.0155,4e-5 -0.87176,0 -1.48508,-0.34967 -1.96994,-1.13484 -0.47101,-0.6606 -0.97488,-0.9755 -1.51181,-0.9755 -0.069,0 -0.13858,0.005 -0.20871,0.0156 -0.0963,0.0152 -0.19275,0.0227 -0.28872,0.0227 -1.04282,0 -2.0369,-0.88225 -2.40577,-2.2101 -0.1784,-0.52725 -0.75353,-1.1846 -1.28303,-1.49 -0.52922,-0.2616 -1.45696,-1.0492 -2.07628,-1.7505 -0.5744,-0.6564 -1.32388,-1.22425 -1.63266,-1.22425 h -0.003 c -0.30726,0 -0.57214,-0.39425 -0.5744,-0.87735 -0.002,-0.4833 -0.22356,-0.8779 -0.44324,-0.8779 h -0.002 c -0.26525,0 -1.27913,-0.6108 -2.29345,-1.3093 -0.97021,-0.7425 -2.07119,-1.30874 -2.4248,-1.30874 h -0.004 c -0.3077,0 -0.70356,-0.30556 -0.83693,-0.65616 -0.17707,-0.3499 -0.65982,-0.65463 -1.09863,-0.65463 h -0.009 c -0.48389,0 -1.18693,-0.39197 -1.58413,-0.87267 -0.4415,-0.48125 -1.01423,-0.87404 -1.27882,-0.87404 h -0.006 c -0.30644,0 -0.6124,-0.13028 -0.70099,-0.34863 -0.22247,-0.5271 -5.60483,-3.53783 -6.88229,-3.83983 -0.66089,-0.173 -1.45436,-0.4772 -1.76361,-0.73976 -0.30921,-0.2627 -1.67487,-0.60828 -2.95179,-0.7782 -1.3208,-0.1698 -2.73089,-0.60327 -3.12872,-0.99744 -0.46664,-0.48422 -3.45422,-0.7233 -6.47834,-0.7233 -2.994,0 -6.02386,0.23435 -6.6784,0.69712 -0.48254,0.31018 -2.02032,0.80138 -3.4273,1.0282 -0.86973,0.15878 -1.47622,0.23984 -1.91666,0.23984 -0.56145,0 -0.85309,-0.13169 -1.07627,-0.40183 -0.32807,-0.3656 -0.78764,-0.54147 -1.2341,-0.54147 -0.51666,0 -1.01579,0.23554 -1.27334,0.68514 -0.19373,0.36747 -0.40201,0.53144 -1.00885,0.53144 -0.48601,0 -1.22766,-0.10516 -2.4222,-0.29524 -1.15883,-0.19975 -2.34643,-0.29198 -3.41491,-0.29198 -2.13926,0 -3.80098,0.36966 -3.7981,0.98584 0.002,0.35204 -0.21717,0.61707 -0.48114,0.61841 -0.30806,0.001 -0.79036,0.35559 -1.09651,0.75317 -0.26329,0.36258 -0.43515,0.54006 -0.59492,0.54006 -0.13206,0 -0.25588,-0.1212 -0.41625,-0.3594 -0.22174,-0.35094 -1.45538,-0.69714 -2.90802,-0.82226 -1.54065,-0.12488 -2.59815,-0.42784 -2.73175,-0.77929 -0.13333,-0.35045 -0.44136,-0.61255 -0.74857,-0.61255 h -0.004 c -0.26428,0 -0.74899,-0.39328 -1.01483,-0.87525 -0.39559,-0.5874 -0.89455,-0.78855 -2.06136,-0.78855 -0.14018,0 -0.28999,0.003 -0.45043,0.008 -0.17342,0.004 -0.33674,0.006 -0.49053,0.006 -2.07039,0 -2.41535,-0.38412 -2.42342,-2.10438 -0.01,-2.10655 -0.71563,-3.24694 -1.98541,-3.24694 -0.003,0 -0.007,0 -0.01,4e-5 -0.004,3e-5 -0.007,3e-5 -0.0109,3e-5 -0.78555,0 -1.26938,-0.3949 -1.79994,-1.44363 -0.88782,-1.66786 -2.74371,-3.3312 -3.844,-3.37 h -0.005 c -0.48114,0 -0.7452,-0.35083 -0.74866,-1.09656 -0.004,-0.87189 -0.2211,-1.09491 -1.08099,-1.09491 -0.008,0 -0.0161,3e-5 -0.0242,7e-5 -0.008,2e-5 -0.0161,5e-5 -0.0241,5e-5 -0.86,0 -1.07701,-0.22381 -1.08148,-1.18292 -0.004,-0.79199 -0.53546,-1.58153 -1.77246,-2.63173 -1.14856,-0.96263 -1.76892,-1.8839 -1.77203,-2.54393 -0.003,-0.57202 -0.18158,-1.18713 -0.44617,-1.31787 -0.22071,-0.13098 -0.79742,-1.14026 -1.28638,-2.1941 -0.53381,-1.2295 -1.28619,-2.1499 -1.9472,-2.36694 -1.23432,-0.47826 -1.81769,-2.89566 -1.39112,-5.75772 0.34107,-2.28802 -0.154,-4.83569 -0.94506,-4.83569 h -0.005 c -0.35057,0 -0.65778,-0.26199 -0.65927,-0.56903 -10e-4,-0.30812 -0.39978,-0.79016 -0.88525,-1.09595 -0.48542,-0.30567 -0.88453,-0.96387 -0.88721,-1.53589 -0.002,-0.52795 -0.31458,-1.40648 -0.66925,-1.9768 -0.57574,-0.78931 -0.62207,-1.2732 -0.23285,-2.72705 0.60513,-2.24585 -0.16219,-6.59485 -1.17339,-6.59485 h -0.004 c -0.3946,0 -0.61606,-0.48291 -0.62056,-1.4491 -0.004,-0.79198 -0.27271,-1.8468 -0.62702,-2.32922 -0.44287,-0.6139 -0.67285,-2.72489 -0.82734,-7.52042 -0.1095,-4.57568 -0.34028,-6.86267 -0.7381,-7.25684 -0.26526,-0.2628 -0.53467,-1.4055 -0.53961,-2.46154 -0.007,-1.54004 -0.18537,-1.97926 -0.89014,-2.15198 -0.61688,-0.1731 -0.88287,-0.61182 -0.8866,-1.40381 -0.008,-1.71607 -1.794,-7.20792 -2.50067,-7.77664 -0.35327,-0.26245 -0.62018,-0.87708 -0.62244,-1.36109 -0.002,-0.484 -0.31335,-1.1427 -0.66687,-1.44897 -0.35339,-0.30627 -0.6643,-0.92102 -0.66638,-1.36097 -0.002,-0.484 -0.40197,-1.27404 -0.88873,-1.84386 -0.5304,-0.52552 -1.19397,-1.27051 -1.54785,-1.6648 -0.35389,-0.39441 -0.66474,-1.00891 -0.66663,-1.40491 -0.002,-0.43883 -0.26599,-0.74511 -0.61658,-0.74511 h -0.004 c -0.30785,0 -0.7061,-0.6135 -0.88541,-1.35999 -0.13556,-0.74731 -0.84492,-1.88806 -1.59584,-2.50061 -0.70709,-0.65662 -1.32666,-1.40185 -1.32812,-1.70984 -0.001,-0.30798 -0.71143,-1.58068 -1.55304,-2.76465 -0.84156,-1.1842 -1.55121,-2.36889 -1.55244,-2.63293 -0.001,-0.26404 -0.31066,-0.57056 -0.66326,-0.70093 -0.35291,-0.17432 -0.66377,-0.78887 -0.66707,-1.49297 -0.003,-0.65992 -0.31482,-1.4507 -0.66834,-1.75697 -0.35345,-0.30627 -0.66517,-1.09693 -0.66847,-1.8009 -0.004,-0.83411 -0.22497,-1.27295 -0.66292,-1.27295 h -0.005 c -0.35201,0 -0.88066,-0.43674 -1.14665,-0.96265 -0.31067,-0.57055 -1.46076,-1.84118 -2.56549,-2.84803 l -2.03272,-1.8385 1.40534,-0.5786 c 0.79058,-0.3119 1.44891,-0.66687 1.44812,-0.8429 -8.6e-4,-0.17602 1.31793,-0.4463 2.90112,-0.62964 1.84724,-0.18469 2.94564,-0.54184 3.11978,-0.93869 0.13031,-0.35267 0.43713,-0.61804 0.65711,-0.61914 0.66003,-0.003 2.54315,-1.90405 2.5401,-2.56409 -0.001,-0.26391 0.21752,-0.52894 0.4375,-0.53004 0.74804,-0.003 2.62953,-2.25633 2.62538,-3.13634 -0.002,-0.48413 0.39026,-1.23401 0.87194,-1.72021 0.4292,-0.43325 0.66043,-0.64315 0.98952,-0.64315 0.30891,0 0.70407,0.18496 1.43016,0.54378 0.83783,0.39209 1.54517,1.09265 1.54706,1.48865 0.002,0.43909 0.26651,0.78931 0.61737,0.78931 h 0.005 c 0.35103,0 0.70294,0.30566 0.88013,0.65576 0.1333,0.35046 0.52891,0.65588 0.88018,0.65588 h 0.006 c 0.30762,0 0.70305,0.2616 0.83611,0.56812 0.2319,0.62335 2.85497,0.9204 5.60095,0.9204 3.05889,0 6.27031,-0.36858 6.49892,-1.0653 0.0867,-0.2644 1.05371,-0.4889 2.10974,-0.4939 1.40802,-0.007 1.93524,-0.18518 1.93292,-0.6692 -0.002,-0.3519 0.26099,-0.66112 0.61298,-0.6627 0.83601,-0.004 2.89455,-2.03773 2.89064,-2.8738 -0.002,-0.35204 0.39123,-1.0139 0.87335,-1.41222 0.48193,-0.44214 0.87567,-0.9281 0.87488,-1.10412 -0.003,-0.66004 1.75012,-2.12024 2.4981,-2.12378 0.87983,-0.0481 3.20301,-1.9512 3.1999,-2.61124 -0.001,-0.26404 0.2611,-0.61719 0.56823,-0.79468 0.30726,-0.17749 1.00647,-1.19276 1.52948,-2.25122 1.22098,-2.38189 1.36698,-8.76278 0.26508,-9.15368 -0.35284,-0.17432 -0.79699,-1.05226 -0.93335,-1.97559 -0.18053,-1.01022 -0.53522,-1.71204 -0.88687,-1.71204 h -0.005 c -0.35028,0 -0.61383,-0.26211 -0.61523,-0.56909 -0.0453,-0.26379 -0.44483,-1.01001 -0.93177,-1.62364 -0.71792,-0.8608 -1.07972,-1.04958 -3.16995,-1.04958 -0.35762,0 -0.76582,0.006 -1.23508,0.0142 l -3.47558,0.10436 -0.006,-1.18799 c -0.003,-0.66004 -0.22662,-1.40711 -0.53607,-1.71363 -0.26526,-0.26281 -0.93043,-1.35964 -1.46321,-2.36929 -0.53296,-1.05359 -1.32935,-1.97375 -1.76977,-2.05969 -0.44043,-0.0859 -1.10181,-0.39086 -1.45551,-0.74121 -0.30833,-0.34912 -0.96542,-0.60925 -1.44887,-0.60925 h -0.006 c -0.004,2e-5 -0.008,2e-5 -0.0123,2e-5 -0.7802,0 -0.82549,-0.36975 -0.84504,-4.5281 -0.0147,-3.12406 -0.24295,-4.88322 -0.6871,-5.76114 -0.3551,-0.65833 -0.66968,-2.06494 -0.67468,-3.12098 -0.005,-1.14407 -0.27374,-2.06667 -0.67139,-2.4169 -0.35345,-0.3064 -0.66479,-1.00903 -0.66748,-1.58093 -0.002,-0.52807 -0.18109,-1.09924 -0.40179,-1.23022 -0.17658,-0.13123 -0.26727,-0.70275 -0.18171,-1.2312 0.12824,-0.7926 -0.0934,-1.14355 -1.15148,-1.57861 -0.7497,-0.34852 -1.36798,-0.82959 -1.36939,-1.13758 -10e-4,-0.26404 -0.57678,-1.0094 -1.32751,-1.57788 -0.70691,-0.61268 -1.28284,-1.44604 -1.32892,-1.88586 -0.002,-0.48402 -0.40033,-0.92212 -0.88495,-1.05188 -0.48462,-0.12976 -0.8819,-0.39184 -0.88294,-0.61194 -0.001,-0.21897 -0.30709,-0.39295 -0.6571,-0.39295 h -0.008 c -0.35077,0 -0.65857,-0.30578 -0.66022,-0.65673 -0.002,-0.35074 -0.39612,-0.65589 -0.87766,-0.65589 h -0.005 c -0.002,0 -0.005,3e-5 -0.007,3e-5 -0.48072,0 -0.87381,-0.21728 -0.87503,-0.47989 -0.003,-0.65947 -1.85706,-2.5841 -2.56247,-2.5841 h -0.003 c -0.26345,0 -0.52784,-0.30625 -0.52955,-0.6576 -0.002,-0.35205 -0.48749,-0.74572 -1.10431,-0.91894 -0.70484,-0.17249 -1.10272,-0.56665 -1.10541,-1.13867 -0.002,-0.52701 -0.19678,-0.76328 -0.72082,-0.76328 -0.0886,0 -0.18659,0.007 -0.29468,0.02 -0.0688,0.009 -0.14237,0.0127 -0.22008,0.0127 -1.16461,0 -3.2494,-0.92597 -3.74788,-1.66614 -0.17645,-0.30548 -0.91801,-0.56461 -1.57522,-0.56461 -0.004,0 -0.008,0 -0.0115,3e-5 -0.004,3e-5 -0.009,3e-5 -0.0132,3e-5 -0.69902,0 -1.3529,-0.25985 -1.48573,-0.6091 -0.13367,-0.35131 -0.83954,-0.74401 -1.54443,-0.91674 -0.7486,-0.12854 -1.45472,-0.56519 -1.58832,-0.91664 -0.13324,-0.3503 -0.52831,-0.6118 -0.87944,-0.6118 h -0.006 c -0.30768,0 -0.70305,-0.26173 -0.83635,-0.6122 -0.13367,-0.3513 -1.19172,-0.78637 -2.38062,-0.9569 -1.14466,-0.1266 -2.33411,-0.42895 -2.55493,-0.60388 -0.70012,-0.54166 -2.52205,-0.80812 -4.72753,-0.80812 z" />
    </g>
  </g>
</svg>
