<?xml version="1.0" encoding="UTF-8" standalone="no"?>
<svg
   xmlns:dc="http://purl.org/dc/elements/1.1/"
   xmlns:cc="http://creativecommons.org/ns#"
   xmlns:rdf="http://www.w3.org/1999/02/22-rdf-syntax-ns#"
   xmlns:svg="http://www.w3.org/2000/svg"
   xmlns="http://www.w3.org/2000/svg"
   xmlns:sodipodi="http://sodipodi.sourceforge.net/DTD/sodipodi-0.dtd"
   xmlns:inkscape="http://www.inkscape.org/namespaces/inkscape"
   inkscape:version="1.0rc1 (09960d6, 2020-04-09)"
   sodipodi:docname="hold_leg_up.svg"
   id="svg1773"
   viewBox="0 0 55 55"
   height="55"
   width="55"
   version="1.1">
  <metadata
     id="metadata1779">
    <rdf:RDF>
      <cc:Work
         rdf:about="">
        <dc:format>image/svg+xml</dc:format>
        <dc:type
           rdf:resource="http://purl.org/dc/dcmitype/StillImage" />
        <dc:title></dc:title>
      </cc:Work>
    </rdf:RDF>
  </metadata>
  <defs
     id="defs1777" />
  <sodipodi:namedview
     inkscape:current-layer="svg1773"
     inkscape:window-maximized="0"
     inkscape:window-y="23"
     inkscape:window-x="661"
     inkscape:cy="27.5"
     inkscape:cx="65.254237"
     inkscape:zoom="4.2909091"
     showgrid="false"
     id="namedview1775"
     inkscape:window-height="444"
     inkscape:window-width="707"
     inkscape:pageshadow="2"
     inkscape:pageopacity="0"
     guidetolerance="10"
     gridtolerance="10"
     objecttolerance="10"
     borderopacity="1"
     bordercolor="#666666"
     pagecolor="#ffffff" />
  <g
     transform="matrix(0.10970507,0,0,0.10970564,-5.2364993,-25.228862)"
     id="layer1">
    <g
       id="g1770"
       style="fill:#000000;fill-opacity:1;stroke-linejoin:miter">
      <path
         inkscape:connector-curvature="0"
         id="path1768"
         d="m 200.84645,343.3497 c 0.18764,0 0.39517,0.14026 0.64281,0.44095 0.25738,0.32758 0.77215,0.9126 1.12314,1.3338 0.37439,0.39771 1.09979,1.3103 1.63797,2.01227 0.53814,0.70203 1.21673,1.52093 1.49755,1.82513 0.30418,0.3042 0.53818,0.63178 0.53818,0.77222 0,0.23389 0.23398,0.56153 0.95935,1.33373 0.1872,0.21058 0.65518,0.9126 1.0062,1.54432 0.37435,0.6084 0.86575,1.33374 1.09973,1.56775 0.23398,0.23401 0.44458,0.53827 0.44458,0.63183 0,0.11695 0.28079,0.51472 0.6084,0.88917 0.32757,0.37439 0.70196,0.95935 0.84237,1.31036 0.11701,0.37433 0.32758,0.65509 0.44458,0.65509 0.11701,0 0.37439,0.32764 0.58499,0.74884 0.21061,0.39784 0.58497,0.93598 0.81898,1.1933 0.23397,0.28082 0.44458,0.56158 0.44458,0.63184 0,0.0936 0.25738,0.468 0.58496,0.84234 0.3276,0.37439 0.58499,0.74872 0.58499,0.81896 0,0.14045 1.14654,1.70814 1.70813,2.31654 0.18722,0.18719 0.46799,0.6084 0.63177,0.93596 0.16382,0.3276 0.56159,0.79555 0.86579,1.053 0.28079,0.25732 0.53817,0.60833 0.53817,0.77215 0,0.16382 0.25739,0.58502 0.585,0.93597 0.3276,0.35095 0.58496,0.72534 0.58496,0.84228 0,0.11707 0.3276,0.5149 0.70199,0.88923 0.3978,0.35101 0.70197,0.77222 0.70197,0.88917 0,0.14043 0.25738,0.46795 0.58499,0.74883 0.32758,0.28077 0.58496,0.58497 0.58496,0.70197 0,0.117 0.3978,0.6084 0.88916,1.0998 0.46802,0.46794 1.07639,1.1699 1.3104,1.52086 0.25738,0.35101 0.63174,0.84241 0.81896,1.07642 0.21061,0.25738 0.58497,0.72534 0.84235,1.05298 0.25742,0.32757 0.86579,1.07629 1.35718,1.66131 0.46795,0.58503 0.86578,1.14655 0.86578,1.28693 0,0.117 0.16376,0.2107 0.35098,0.2107 0.1872,0 0.35099,0.0701 0.35099,0.1637 0,0.11693 0.25738,0.49138 0.58496,0.86577 0.3276,0.37445 0.58499,0.77223 0.58499,0.88923 0,0.0936 0.14038,0.18713 0.3042,0.18713 0.16379,0 0.60837,0.37439 0.98276,0.81897 0.39779,0.44458 0.84237,0.81903 1.00616,0.81903 0.14041,0 0.28079,0.11694 0.28079,0.23394 0,0.14045 0.30417,0.56165 0.67859,0.93598 0.37439,0.39775 0.79556,1.0296 0.95935,1.40393 0.16382,0.39782 0.37439,0.70196 0.4914,0.70196 0.11697,0 0.21057,0.35108 0.21057,0.77228 0,0.5849 0.18722,0.95935 0.70199,1.40393 0.3744,0.35095 0.74878,0.63172 0.81897,0.63172 0.21058,0 1.28696,1.12323 1.28696,1.33373 0,0.0936 0.37439,0.4914 0.81897,0.88923 0.44461,0.37439 0.81897,0.81897 0.81897,0.98273 0,0.16381 0.14038,0.37438 0.3042,0.46794 0.18719,0.0937 0.51477,0.4914 0.77219,0.88923 0.23397,0.37439 0.53817,0.81897 0.67855,0.95935 0.11698,0.14038 0.44459,0.53822 0.702,0.88916 0.25739,0.35102 0.67856,0.88916 0.93597,1.17006 0.25739,0.30413 0.63175,0.77214 0.81897,1.0529 0.18717,0.3042 0.58496,0.7956 0.88916,1.0998 0.28079,0.3275 0.51477,0.67853 0.51477,0.8189 0,0.117 0.16382,0.2107 0.35099,0.2107 0.18722,0 0.35098,0.11694 0.35098,0.2339 0,0.14043 0.23401,0.51476 0.53821,0.81902 0.77218,0.84234 1.09973,1.24018 1.09973,1.40393 0,0.0701 0.3978,0.53815 0.88919,1.05298 1.31036,1.38055 1.91873,2.08252 1.91873,2.2229 0,0.14037 0.14038,0.3042 2.29312,2.62072 0.72541,0.77222 1.54437,1.73157 1.80176,2.08252 0.25739,0.35096 0.81897,1.00623 1.24014,1.42743 0.3978,0.42108 0.74877,0.8189 0.74877,0.8891 0,0.23395 0.6552,0.81897 0.91258,0.81897 0.14042,0 0.25738,0.0936 0.25738,0.21063 0,0.32752 1.05298,1.4273 1.38054,1.4273 0.14043,0 0.25743,0.0936 0.25743,0.21064 0,0.32752 1.05295,1.42731 1.38057,1.42731 0.14037,0 0.25734,0.0936 0.25734,0.21063 0,0.28076 1.0998,1.42732 1.38056,1.42732 0.117,0 0.3042,0.21056 0.3744,0.46795 0.0702,0.2575 0.2808,0.46801 0.4212,0.46801 0.1638,0 0.6084,0.37439 0.98278,0.81897 0.39777,0.44457 0.84235,0.81903 1.00616,0.81903 0.14038,0 0.28076,0.16376 0.28076,0.35096 0,0.18718 0.117,0.35095 0.2574,0.35095 0.1638,0 0.49135,0.23407 0.77218,0.53821 0.25738,0.28076 0.72537,0.70196 1.02957,0.88916 0.28075,0.21063 0.91257,0.74878 1.40393,1.16998 0.46799,0.44458 1.40396,1.2168 2.03574,1.73158 0.65521,0.51476 1.54438,1.3338 2.01236,1.80175 0.46798,0.49139 0.95935,0.88915 1.09976,0.88915 0.16376,0 0.28079,0.11695 0.28079,0.25733 0,0.39783 1.94207,2.78447 2.26971,2.78447 0.16379,0 0.30416,0.14046 0.30416,0.32765 0,0.1872 0.14045,0.4914 0.3042,0.65521 0.1638,0.16382 0.5616,0.67854 0.86576,1.12317 0.3042,0.44457 0.63181,0.86579 0.72541,0.93592 0.23398,0.18713 0.49136,1.66137 0.46798,2.69097 -0.117,4.44581 -0.30419,6.29432 -0.65518,6.5517 -0.53821,0.39783 -1.21679,2.62078 -1.38055,4.67981 -0.11702,1.42743 -0.28082,1.98901 -0.63178,2.31659 -0.39779,0.39771 -0.44458,0.67858 -0.35101,2.17608 0.0702,0.93598 0.0234,1.7082 -0.0702,1.7082 -0.0936,0 -0.28079,0.351 -0.39783,0.7956 -0.28076,1.00616 -0.95934,1.68468 -1.9187,1.89532 -1.70814,0.37432 -3.72049,2.0357 -4.51608,3.72045 -0.88916,1.84853 -1.07632,2.4101 -1.24014,3.25251 -0.0936,0.60832 -0.44455,1.19336 -1.02957,1.75494 -1.07635,1.02954 -1.82515,1.68468 -1.96552,1.68468 -0.44461,0 -3.06531,2.66755 -3.83746,3.90773 -0.0936,0.14037 -0.53817,0.42114 -0.98279,0.63177 -0.44458,0.1872 -1.33378,0.6786 -1.98892,1.05298 -0.76946,0.4643 -1.2757,0.68792 -1.68924,0.68792 -0.31582,0 -0.57759,-0.13042 -0.8613,-0.38372 -0.58496,-0.53821 -2.1059,-0.98278 -3.25247,-0.98278 -0.63181,0 -0.93595,-0.1404 -1.21677,-0.53815 -0.32754,-0.53821 -1.94214,-1.56781 -2.41012,-1.56781 -0.3042,0 -2.1059,-0.84234 -2.97168,-1.40394 -1.31037,-0.8424 -2.33991,-1.35717 -4.32889,-2.12933 -1.09973,-0.4212 -2.26969,-0.98279 -2.59726,-1.2168 -0.63181,-0.44457 -2.08255,-0.79553 -6.06043,-1.47412 -1.21676,-0.18719 -2.50369,-0.51477 -2.8547,-0.70195 -0.35099,-0.1872 -1.26355,-0.32765 -2.24634,-0.32765 -0.98276,0 -1.89533,-0.14038 -2.29312,-0.35095 -0.42117,-0.21063 -1.33374,-0.351 -2.48032,-0.351 -1.47412,0 -1.84854,-0.0701 -2.0357,-0.42116 -0.1872,-0.35101 -0.58499,-0.39782 -2.87815,-0.39782 -2.57388,0 -2.66747,-0.0234 -3.72043,-0.72535 -0.58499,-0.39782 -1.45077,-0.79559 -1.89535,-0.88917 -0.46799,-0.0936 -0.88916,-0.28075 -0.95935,-0.44457 -0.0468,-0.14038 -0.6084,-0.4212 -1.19339,-0.60839 -0.79556,-0.23401 -1.16995,-0.4914 -1.33374,-0.86579 -0.14041,-0.42115 -0.37439,-0.56158 -0.86578,-0.56158 -0.49137,0 -1.05295,-0.37439 -2.17612,-1.42731 -1.59116,-1.521 -4.35227,-3.72058 -4.67984,-3.72058 -0.11701,0 -0.2106,-0.1637 -0.2106,-0.35088 0,-0.18727 -0.11701,-0.35096 -0.25739,-0.35096 -0.14038,0 -0.74878,-0.46802 -1.35718,-1.02961 -2.29312,-2.19953 -2.6207,-2.48033 -2.8313,-2.48033 -0.14038,0 -0.23397,-0.0936 -0.23397,-0.21052 0,-0.18732 -3.46311,-3.76734 -3.65027,-3.76734 -0.0234,0 -0.67859,-0.6084 -1.45075,-1.35717 -1.45077,-1.38057 -3.97787,-3.72052 -4.51605,-4.1651 -0.18719,-0.14039 -0.5148,-0.46797 -0.7254,-0.70191 -0.74875,-0.81896 -3.53326,-3.1355 -3.76727,-3.1355 -0.0702,0 -0.49137,-0.35101 -0.91257,-0.77221 -0.42118,-0.42121 -1.82514,-1.59107 -3.11208,-2.62067 -2.62071,-2.05914 -3.2525,-2.66748 -4.16507,-3.90771 -0.35098,-0.46797 -0.86577,-0.93592 -1.14656,-1.02947 -0.46797,-0.14046 -1.75494,-1.26363 -1.45074,-1.26363 0.37437,0 -0.70198,-1.38055 -1.14657,-1.49749 -0.468,-0.11708 -0.60838,-0.37445 -0.84237,-1.47418 -0.1404,-0.7254 -0.2574,-1.91883 -0.2574,-2.6675 0,-1.2636 0.0468,-1.40404 0.81898,-1.96562 0.44459,-0.35096 0.86577,-0.86573 0.95939,-1.12311 0.0936,-0.28082 0.51475,-0.98273 0.93595,-1.54437 0.44458,-0.5616 0.79558,-1.16993 0.79558,-1.33374 0,-0.39776 0.95935,-2.03576 1.33374,-2.26966 0.16381,-0.0937 0.30419,-0.39782 0.30419,-0.6319 0,-0.25732 0.117,-0.46795 0.23399,-0.46795 0.14041,0 0.37439,-0.2807 0.5148,-0.65515 0.16377,-0.351 0.74875,-1.1466 1.31033,-1.77832 0.56159,-0.63184 1.07637,-1.45075 1.14656,-1.82514 0.0702,-0.35107 0.21061,-0.65521 0.32761,-0.65521 0.21059,0 1.61453,-2.83136 1.61453,-3.2525 0,-0.11701 0.16381,-0.25733 0.35099,-0.35089 0.2106,-0.0702 0.35099,-0.42121 0.35099,-0.88922 0,-0.42122 0.16381,-0.98279 0.351,-1.2168 0.49137,-0.65522 0.49137,-7.97912 0.0234,-9.14912 -0.23398,-0.53814 -0.28078,-1.0061 -0.14038,-1.45067 0.117,-0.35108 0.3042,-1.28699 0.44458,-2.05921 0.117,-0.77209 0.39779,-2.19952 0.6084,-3.15887 0.21056,-0.95941 0.51476,-2.38678 0.67856,-3.15888 0.16381,-0.77215 0.42117,-1.70813 0.56158,-2.05914 0.16382,-0.37445 0.28079,-0.9126 0.28079,-1.19336 0,-0.30414 0.16379,-1.05297 0.35098,-1.68469 0.1872,-0.63184 0.35099,-1.521 0.35099,-1.96558 0,-0.44458 0.2106,-1.28692 0.46798,-1.8485 0.25742,-0.56165 0.46799,-1.521 0.46799,-2.1761 0,-0.6319 0.11701,-1.35717 0.25742,-1.63806 0.14037,-0.25738 0.28079,-1.16992 0.30417,-2.01226 0.0468,-0.86578 0.117,-1.73158 0.18719,-1.91878 0.49139,-1.33373 1.05298,-5.40514 1.21677,-8.58745 0.0234,-0.28088 0.0936,-0.58502 0.21057,-0.67865 0.0936,-0.0936 0.16382,-0.4212 0.16382,-0.72528 0,-0.32764 0.11697,-0.79565 0.28079,-1.07648 0.14038,-0.2807 0.35098,-1.1933 0.44458,-2.03564 0.35098,-2.87818 0.49136,-3.41632 1.33374,-5.00745 0.3978,-0.79565 0.86578,-1.26361 1.73157,-1.84857 0.40553,-0.25684 0.87355,-0.39651 1.19651,-0.39651 0.23607,0 0.39464,0.0746 0.39464,0.23269 0,0.11707 0.35098,0.23401 0.79556,0.23401 0.44458,0 0.88916,-0.11694 0.95936,-0.23401 0.0702,-0.14038 0.93597,-0.23396 1.91876,-0.23396 1.70813,0 2.59729,-0.25737 4.75,-1.40392 0.0571,-0.0286 0.11561,-0.0432 0.17619,-0.0432 z m -4.38805,-58.68887 c -1.66131,0 -2.10592,0.23395 -2.10592,1.09973 0,0.28082 -0.14038,0.60834 -0.32758,0.70196 -0.16379,0.0937 -0.84237,1.31031 -1.52093,2.71436 -1.33377,2.78448 -1.47418,3.79072 -0.84238,5.89655 0.74875,2.38677 0.42117,3.65027 -1.47415,5.73284 -0.49005,0.56006 -0.74448,0.76667 -0.98847,0.76667 -0.0822,0 -0.16325,-0.0235 -0.2517,-0.0648 -0.30094,-0.16922 -0.79084,-0.24778 -1.31174,-0.24778 -0.77521,0 -1.61908,0.17396 -2.01093,0.48185 -0.3276,0.25738 -0.7254,0.46802 -0.86581,0.46802 -0.63175,0 -1.89533,1.02948 -2.59729,2.12927 -0.65518,0.98286 -0.91257,1.16998 -1.68472,1.31036 -0.702,0.0937 -0.95938,0.28076 -1.12319,0.74878 -0.11699,0.32764 -0.32759,0.79559 -0.44458,1.00612 -0.14039,0.23405 -0.23399,1.0296 -0.23399,1.755 0,1.28698 -0.0702,1.4273 -1.16995,2.6441 -1.09978,1.21673 -1.16997,1.35717 -1.16997,2.5739 0,0.7488 -0.21059,1.82514 -0.4914,2.57392 -0.37437,0.95935 -0.51477,1.9187 -0.56156,3.74384 -0.0468,2.52716 -0.0936,2.69091 -1.54434,5.80304 -0.37441,0.79565 -0.6786,1.5443 -0.6786,1.66143 0,0.11695 -0.35098,1.28687 -0.79557,2.62061 -0.42119,1.33374 -0.91257,2.99512 -1.07636,3.67371 -0.14039,0.65521 -0.3744,1.28692 -0.49139,1.35711 -0.11701,0.0702 -0.21059,0.42121 -0.21059,0.7956 0,0.37439 -0.0936,0.72546 -0.2106,0.79559 -0.11699,0.0702 -0.28079,0.53815 -0.37438,1.00615 -0.0936,0.4914 -0.56158,1.84852 -1.07637,3.04194 -0.49137,1.1933 -0.91256,2.31653 -0.91256,2.50366 0,0.1872 -0.0936,0.3744 -0.18721,0.4212 -0.23398,0.0936 -1.45075,2.59736 -1.45075,2.9717 0,0.14043 -0.0936,0.25738 -0.21057,0.25738 -0.117,0 -0.3042,0.35102 -0.3744,0.74884 -0.0936,0.4212 -0.23398,0.8189 -0.32759,0.88916 -0.0936,0.0702 -0.72538,1.26355 -1.42736,2.69085 -0.70196,1.40407 -1.33374,2.62067 -1.42735,2.69092 -0.0702,0.0702 -0.35098,0.63185 -0.65517,1.28693 -0.3042,0.63189 -0.84238,1.61462 -1.21676,2.17614 -0.37439,0.56158 -0.67858,1.0998 -0.67858,1.19342 0,0.0936 -0.21058,0.42116 -0.46798,0.72529 -0.25739,0.30427 -0.46799,0.67865 -0.46799,0.86577 0,0.16383 -0.0936,0.30427 -0.1872,0.30427 -0.11699,0 -0.44457,0.44458 -0.74876,0.98273 -0.30418,0.56158 -0.79558,1.31042 -1.09976,1.66137 -0.30419,0.37439 -0.53819,0.86579 -0.53819,1.12317 0,0.23396 -0.0936,0.44458 -0.234,0.44458 -0.11699,0 -0.28079,0.25738 -0.37437,0.5849 -0.0702,0.32764 -0.23401,0.58502 -0.32759,0.58502 -0.0936,0 -0.3276,0.35096 -0.4914,0.74878 -0.16377,0.42121 -0.49138,0.98273 -0.72535,1.2168 -0.234,0.25738 -0.42121,0.60834 -0.42121,0.79553 0,0.16382 -0.16377,0.46795 -0.35098,0.65522 -0.1872,0.21057 -0.35098,0.60833 -0.35098,0.91253 0,0.30426 -0.0936,0.58496 -0.1872,0.63184 -0.28079,0.0936 -1.45076,2.71423 -1.45076,3.20569 0,0.21057 -0.21059,0.53814 -0.46799,0.72534 -0.25738,0.18719 -0.46797,0.53813 -0.46797,0.77223 0,0.23393 -0.1638,0.58495 -0.351,0.77208 -0.18717,0.21062 -0.35098,0.70202 -0.35098,1.12322 0,0.63172 -0.11698,0.79554 -0.74876,1.0061 -0.42121,0.16383 -1.26357,0.3511 -1.87195,0.42122 -0.63177,0.0936 -1.12317,0.25738 -1.12317,0.37445 0,0.11693 -0.1638,0.21051 -0.35098,0.21051 -0.1872,0 -0.35098,0.0936 -0.35098,0.23407 0,0.11695 -0.51479,0.23388 -1.14657,0.23388 -0.79557,0 -1.19337,0.0937 -1.28697,0.35107 -0.0702,0.1872 -0.37437,0.35102 -0.65516,0.35102 -0.30419,0 -0.70198,0.21051 -0.88916,0.46796 -0.18721,0.25732 -0.5382,0.46802 -0.79558,0.46802 -0.234,0 -0.67858,0.25732 -0.98279,0.5849 -0.30418,0.32763 -0.63178,0.58502 -0.77216,0.58502 -0.117,0 -0.30418,0.21058 -0.3744,0.46795 -0.0702,0.25739 -0.28079,0.46803 -0.42117,0.46803 -0.46799,0 -1.19336,1.87188 -1.35717,3.50982 -0.0936,0.84241 -0.30418,2.8313 -0.46797,4.42254 -0.1638,1.84852 -0.39779,3.04187 -0.58497,3.25244 -0.1872,0.18714 -0.32761,0.79554 -0.32761,1.47413 0,0.63177 -0.14038,1.49757 -0.30418,1.9187 -0.1872,0.4212 -0.39778,1.31037 -0.49138,2.01245 -0.0936,0.7019 -0.32758,1.56769 -0.51479,1.9187 -0.1638,0.35102 -0.32759,1.02954 -0.32759,1.4975 0,0.46795 -0.1404,1.07635 -0.32758,1.35718 -0.18719,0.28082 -0.39779,0.93591 -0.49139,1.4273 -0.0702,0.4914 -0.30418,1.05298 -0.49138,1.24024 -0.18721,0.18713 -0.32759,0.5849 -0.32759,0.88916 0,0.30414 -0.1638,0.70196 -0.35098,0.91254 -0.18721,0.18713 -0.4212,0.65515 -0.4914,1.0529 -0.0936,0.37446 -0.28079,0.74885 -0.46798,0.81904 -0.18718,0.0702 -0.32759,0.39783 -0.32759,0.72534 0,0.32758 -0.16379,0.98285 -0.35099,1.45082 -0.2574,0.6317 -0.35098,1.80175 -0.35098,4.89043 0,3.65027 0.0468,4.14167 0.46797,4.82019 0.2574,0.42121 0.46799,1.02954 0.46799,1.35718 0,0.32764 0.2106,0.88916 0.46798,1.287 0.2574,0.37432 0.468,0.9827 0.468,1.3103 0,0.351 0.21058,0.88915 0.46798,1.21673 0.25739,0.32763 0.46799,0.8424 0.46799,1.17004 0,0.30413 0.14038,0.7019 0.32759,0.84241 0.18718,0.16369 0.42117,0.63172 0.51478,1.02948 0.0702,0.4212 0.35099,1.00616 0.58498,1.31042 0.2574,0.30414 0.44458,0.70185 0.44458,0.86579 0,0.18713 0.37437,0.86566 0.81897,1.49749 0.4446,0.63172 0.81897,1.24018 0.81897,1.31037 0,0.0702 0.42119,0.65509 0.93597,1.26349 0.51479,0.60846 0.93596,1.21673 0.93596,1.31042 0,0.1872 0.88919,1.26349 2.17613,2.66742 0.16381,0.18732 0.88918,1.05304 1.56777,1.91882 0.70196,0.88916 1.33374,1.59112 1.45074,1.59112 0.0936,0 0.18719,0.11695 0.18719,0.23402 0,0.14044 0.3042,0.53821 0.67858,0.91253 0.37439,0.37433 1.26355,1.33375 1.96552,2.15271 0.702,0.81904 2.15274,2.41016 3.22911,3.50994 1.07637,1.12312 2.17612,2.33992 2.43352,2.69093 0.25738,0.37433 0.86575,1.07629 1.35714,1.56769 0.46801,0.49138 0.86577,0.95935 0.86577,1.0296 0,0.0702 0.37439,0.46796 0.81899,0.91254 0.44456,0.4212 0.81897,0.86578 0.81897,1.00616 0,0.14044 0.44458,0.7254 1.00615,1.28698 1.75494,1.87196 3.43969,4.0013 3.43969,4.3288 0,0.117 0.21059,0.3042 0.46799,0.37446 0.2574,0.0702 0.46799,0.23401 0.46799,0.32757 0,0.11701 0.39778,0.63177 0.86577,1.14655 0.49137,0.53822 1.19335,1.38055 1.56774,1.9187 0.39777,0.51482 0.77217,0.93602 0.88917,0.93602 0.0936,0 0.18719,0.1404 0.18719,0.3276 0,0.18718 0.2106,0.42113 0.468,0.49138 0.25737,0.0702 0.46797,0.30414 0.46797,0.49134 0,0.18725 0.16381,0.39782 0.35099,0.46801 0.18719,0.0702 0.39779,0.32757 0.46798,0.56159 0.0702,0.23401 0.37439,0.67858 0.65517,0.98278 1.21678,1.35712 2.17615,2.50373 2.50372,2.99506 0.5148,0.7956 1.42736,1.87194 2.29312,2.73774 0.39782,0.4212 0.7488,0.84234 0.7488,0.93597 0,0.18719 0.86576,1.14653 3.29927,3.74383 0.63177,0.6786 1.14656,1.33374 1.14656,1.4508 0,0.0936 0.23401,0.46797 0.53819,0.79554 0.79558,0.9126 1.33376,1.63794 1.33376,1.84851 0,0.0937 0.23399,0.42121 0.53819,0.72541 0.28078,0.30419 0.72536,0.8424 0.95935,1.19334 0.2574,0.35103 0.6552,0.8658 0.88918,1.14662 0.67859,0.84228 1.21676,1.4975 1.70816,2.15271 0.25735,0.32757 0.65515,0.79553 0.86575,1.00617 0.23398,0.21057 0.42117,0.51477 0.42117,0.6786 0,0.16374 0.16382,0.30418 0.35098,0.30418 0.18723,0 0.35099,0.16376 0.35099,0.35096 0,0.18719 0.25741,0.58502 0.58502,0.86578 0.32758,0.28076 0.58496,0.65515 0.58496,0.81898 0,0.16375 0.14038,0.3042 0.32761,0.3042 0.18716,0 0.42117,0.21056 0.49136,0.46795 0.0702,0.25738 0.23398,0.46801 0.35101,0.46801 0.30417,0 3.04188,2.73767 3.04188,3.01844 0,0.14044 0.16381,0.25744 0.35101,0.25744 0.18716,0 0.35098,0.0936 0.35098,0.21056 0,0.11702 0.79556,0.9828 1.75494,1.91878 0.95936,0.95935 1.75492,1.84852 1.75492,1.96552 0,0.14037 0.2106,0.37438 0.44461,0.51476 0.53818,0.35101 1.33374,2.71436 1.54434,4.75006 0.0936,0.84235 0.32757,1.82514 0.51477,2.17618 0.25739,0.4913 0.4212,3.65024 0.77219,14.3905 0.25738,7.55796 0.56158,14.7414 0.70196,15.9582 0.14038,1.2168 0.35099,3.9077 0.44461,5.9668 0.11698,2.38674 0.32758,4.04806 0.53815,4.5629 0.2106,0.46794 0.4212,1.6379 0.5148,2.6207 0.0936,0.95937 0.3042,2.0357 0.49136,2.3633 0.16383,0.32763 0.37439,1.3571 0.46799,2.2931 0.0936,0.9594 0.37442,2.33995 0.6084,3.06536 0.23401,0.74874 0.44458,1.77834 0.44458,2.29309 0,0.53815 0.14041,1.24015 0.32758,1.59118 0.16381,0.35097 0.4212,1.31031 0.58498,2.12927 0.14042,0.8424 0.35102,1.56775 0.4914,1.6613 0.117,0.0703 0.30417,0.81905 0.37436,1.6614 0.0936,0.81897 0.30423,1.80176 0.5148,2.17615 0.1872,0.39775 0.3978,1.59115 0.46799,2.69091 0.0702,1.26349 0.25738,2.31654 0.53818,2.85468 0.32757,0.65516 0.46798,1.68476 0.58499,4.56286 0.0936,2.50367 0.28079,4.0013 0.51477,4.53943 0.46799,1.09977 0.72537,15.32657 0.28079,17.03467 -0.14041,0.60834 -0.37439,3.41626 -0.49139,6.24756 -0.35099,8.54074 -0.46799,10.01489 -0.81897,10.95084 -0.42121,1.1466 -0.42121,3.2993 0,3.6503 0.18722,0.16375 0.39779,0.6318 0.46798,1.07635 0.0936,0.44458 0.3744,0.9126 0.6084,1.05295 0.25739,0.1404 0.46796,0.39786 0.46796,0.56155 0,0.16385 0.25741,0.42121 0.58502,0.56165 0.32758,0.1404 0.58496,0.3744 0.58496,0.51477 0,0.11703 0.16379,0.23393 0.35098,0.23393 0.1872,0 0.35098,0.0936 0.35098,0.21065 0,0.14035 0.468,0.3042 1.05299,0.39785 0.63177,0.0935 1.05294,0.2573 1.05294,0.44456 0,0.18714 0.23398,0.35094 0.4914,0.3977 0.28079,0.0469 0.58499,0.23404 0.67856,0.42124 0.0936,0.18716 0.35101,0.6786 0.56158,1.09976 0.2106,0.39774 0.37442,0.93594 0.37442,1.19334 0,0.2574 0.14038,0.5148 0.32758,0.585 0.18716,0.0702 0.39776,0.56156 0.49139,1.0998 0.0936,0.51474 0.30417,1.0997 0.49136,1.26346 0.1872,0.18724 0.32758,0.49144 0.32758,0.65524 0,0.3042 0.88919,2.3399 1.40396,3.22904 0.11701,0.18726 0.53818,1.02966 0.95938,1.87196 0.39777,0.8424 0.81897,1.56773 0.88916,1.6379 0.0936,0.0702 0.3042,0.4915 0.4914,0.93606 0.16378,0.44458 0.44458,0.98274 0.63177,1.19334 0.16379,0.1872 0.3042,0.5381 0.3042,0.74874 0,0.21063 0.0702,0.39782 0.18716,0.39782 0.16382,0 0.58503,0.86579 0.86579,1.8017 0.0702,0.3042 0.23398,0.53821 0.35098,0.53821 0.117,0 0.28082,0.37439 0.37439,0.81897 0.0702,0.44456 0.23401,0.88916 0.35098,0.95936 0.11701,0.0702 0.2106,0.28075 0.2106,0.468 0,0.1872 0.1872,0.77216 0.44459,1.33375 0.23397,0.5382 0.60839,1.49755 0.8424,2.15271 0.23398,0.63184 0.51474,1.26354 0.60837,1.40399 0.11697,0.117 0.21057,0.42115 0.21057,0.65515 0,0.2574 0.2106,0.88916 0.44461,1.42737 0.60837,1.31036 1.16995,3.06533 1.47412,4.51603 0.11704,0.6786 0.32761,1.24013 0.42117,1.24013 0.0936,0 0.30424,0.70203 0.46802,1.56777 0.14042,0.86577 0.35098,1.73155 0.4914,1.96556 0.11697,0.23401 0.30417,1.16994 0.44455,2.10589 0.14041,0.93595 0.3276,1.77839 0.44461,1.84855 0.35098,0.2106 0.79556,4.4459 0.81897,8.0727 0.0468,2.8314 0.16379,3.90773 0.58499,5.56905 0.36883,1.38865 0.59685,1.95239 0.81464,1.95239 0.0171,0 0.0341,-0.003 0.0511,-0.0102 0.04,-0.0133 0.0765,-0.0199 0.1096,-0.0199 0.14117,0 0.21797,0.12 0.21797,0.3475 0,0.25735 0.0936,0.468 0.23401,0.468 0.11697,0 0.28079,0.25737 0.37439,0.58494 0.0924,0.3512 0.19944,0.49796 0.3903,0.49796 0.0507,0 0.10739,-0.0104 0.17128,-0.03 0.0676,-0.0208 0.12824,-0.0312 0.18298,-0.0312 0.19167,0 0.31099,0.1274 0.40198,0.3822 0.11701,0.37446 0.35099,0.46797 1.19336,0.46797 0.56159,0 1.02957,0.0936 1.02957,0.23403 0,0.1638 2.08838,0.2457 4.20016,0.2457 2.1118,0 4.24697,-0.0819 4.34058,-0.2457 0.0702,-0.11697 0.60837,-0.23403 1.16996,-0.23403 0.56158,0 1.09973,0.11706 1.16995,0.23403 0.0936,0.1404 1.35715,0.234 3.0419,0.234 1.68472,0 2.94831,0.0936 3.04187,0.234 0.0936,0.1521 0.92429,0.22814 1.75496,0.22814 0.83067,0 1.66134,-0.076 1.75496,-0.22814 0.0936,-0.1638 2.34576,-0.2457 4.57452,-0.2457 2.2288,0 4.43418,0.0819 4.43418,0.2457 0,0.1404 1.75492,0.23394 4.79684,0.23394 3.04188,0 4.79684,0.0937 4.79684,0.23401 0,0.14045 1.02951,0.23401 2.64404,0.23401 2.24634,0 2.71433,-0.0702 3.20576,-0.46802 0.32757,-0.25738 0.95934,-0.46794 1.42736,-0.46794 0.91254,0 1.24012,-0.3042 1.94211,-1.6614 0.28077,-0.53814 0.3978,-1.07635 0.3042,-1.5209 -0.0702,-0.3744 -0.25741,-1.28695 -0.39776,-2.0123 -0.16382,-0.74883 -0.37442,-1.3572 -0.49143,-1.3572 -0.117,0 -0.21057,-0.2106 -0.21057,-0.468 0,-0.2574 -0.14041,-0.46795 -0.32761,-0.46795 -0.16378,0 -0.44461,-0.32755 -0.60836,-0.70195 -0.1872,-0.4212 -0.468,-0.70204 -0.72538,-0.70204 -0.28082,0 -0.44458,-0.16382 -0.44458,-0.46802 0,-0.37434 -0.16378,-0.46794 -0.79559,-0.46794 -0.6084,0 -0.84238,-0.11696 -0.95935,-0.46797 -0.0702,-0.25738 -0.3042,-0.46803 -0.5148,-0.46803 -0.18717,0 -0.65515,-0.3275 -1.00617,-0.7019 -0.39783,-0.42125 -0.88919,-0.702 -1.24013,-0.702 -0.3978,0 -0.6552,-0.1638 -0.7488,-0.468 -0.117,-0.351 -0.35097,-0.4679 -1.05294,-0.4679 -0.70199,0 -0.93596,-0.1171 -1.05301,-0.46805 -0.0935,-0.32765 -0.35098,-0.46801 -0.84235,-0.46801 -0.37438,0 -0.67858,-0.11694 -0.67858,-0.23394 0,-0.14045 -0.16379,-0.234 -0.35098,-0.234 -0.18724,0 -0.35099,-0.117 -0.35099,-0.23397 0,-0.14043 -0.30419,-0.23403 -0.70195,-0.23403 -0.3744,0 -0.702,0.0936 -0.702,0.23403 0,0.14037 -0.702,0.23397 -1.63798,0.23397 -0.93594,0 -1.63792,-0.0936 -1.63792,-0.23397 0,-0.14043 -0.30415,-0.23403 -0.70198,-0.23403 -0.37436,0 -0.70197,0.0936 -0.70197,0.23403 0,0.11697 -0.46798,0.23397 -1.05298,0.23397 -0.58497,0 -1.05291,0.0935 -1.05291,0.234 0,0.117 -0.32764,0.23394 -0.72541,0.23394 -0.39775,0 -0.65521,-0.0936 -0.56158,-0.23394 0.0702,-0.14045 -0.0702,-0.234 -0.32761,-0.234 -0.28076,0 -0.49136,-0.117 -0.49136,-0.23397 0,-0.14043 -0.2574,-0.23403 -0.585,-0.23403 -0.32757,0 -0.58495,-0.11704 -0.58495,-0.234 0,-0.14037 -0.2106,-0.234 -0.44458,-0.234 -0.25745,0 -0.53821,-0.21057 -0.60837,-0.468 -0.11704,-0.3744 -0.35104,-0.468 -1.12317,-0.468 -0.7254,0 -1.09979,-0.117 -1.33377,-0.4679 -0.18723,-0.2575 -0.56158,-0.46804 -0.81897,-0.46804 -0.25739,0 -0.6318,-0.21056 -0.81897,-0.46796 -0.18722,-0.2574 -0.58502,-0.46796 -0.86578,-0.46796 -0.30417,0 -0.53818,-0.11704 -0.53818,-0.23401 0,-0.14038 -0.14041,-0.23403 -0.32761,-0.23403 -0.18719,0 -0.42117,-0.21055 -0.49139,-0.468 -0.0702,-0.2574 -0.35098,-0.468 -0.60837,-0.468 -0.28079,0 -0.44458,-0.16377 -0.44458,-0.46797 0,-0.25738 -0.16379,-0.46793 -0.35098,-0.46793 -0.18723,0 -0.35098,-0.1872 -0.35098,-0.42117 0,-0.23403 -0.21061,-0.56163 -0.46799,-0.74877 -0.25742,-0.18726 -0.58496,-0.74876 -0.7254,-1.2168 -0.11695,-0.4914 -0.32755,-0.88916 -0.44458,-0.88916 -0.14035,0 -0.23401,-0.1872 -0.23401,-0.4212 0,-0.23395 -0.21054,-0.5616 -0.46796,-0.7487 -0.25738,-0.1873 -0.58499,-0.7488 -0.72537,-1.2168 -0.11701,-0.4915 -0.32761,-0.8892 -0.44458,-0.8892 -0.14041,0 -0.23401,-0.2574 -0.23401,-0.58494 0,-0.32766 -0.2106,-1.00623 -0.46799,-1.521 -0.25735,-0.51476 -0.46796,-1.12316 -0.46796,-1.35716 0,-0.2574 -0.2106,-1.1232 -0.46798,-1.9187 -0.25739,-0.7956 -0.46799,-1.82515 -0.46799,-2.2698 0,-0.42113 -0.18719,-1.1699 -0.44458,-1.66125 -0.23401,-0.46801 -0.49139,-1.47415 -0.58499,-2.22302 -0.0702,-0.72533 -0.3042,-1.73153 -0.46799,-2.22293 -0.18719,-0.4679 -0.39779,-1.6613 -0.49136,-2.62064 -0.0936,-0.95936 -0.25741,-1.94216 -0.37442,-2.15276 -0.14038,-0.234 -0.39777,-1.7783 -0.58496,-3.3928 -0.1872,-1.638 -0.44458,-3.393 -0.56159,-3.90774 -0.117,-0.53821 -0.3276,-2.05916 -0.46798,-3.39283 -0.14038,-1.3338 -0.37439,-2.6676 -0.49136,-2.97173 -0.11701,-0.3276 -0.32761,-1.75495 -0.468,-3.2057 -0.3042,-2.97174 -0.28082,-2.7611 -0.0702,-4.07147 0.0936,-0.67859 0.0234,-1.38053 -0.23399,-2.17613 -0.56158,-1.68477 -0.60836,-2.4335 -0.81896,-9.8745 -0.14041,-5.8263 -0.2106,-6.76236 -0.56159,-7.1601 -0.44458,-0.4914 -0.58499,-3.18233 -0.16378,-3.4397 0.14038,-0.0702 0.23397,-0.7722 0.23397,-1.5444 0,-1.0763 -0.0702,-1.38055 -0.35098,-1.38055 -0.21057,0 -0.35098,-0.14035 -0.32761,-0.28075 0.0702,-0.6318 -0.0468,-0.8424 -0.49139,-0.95936 -0.60836,-0.16384 -0.60836,-1.0296 -0.0234,-2.3399 0.46799,-1.02961 0.51477,-2.15277 0.42121,-14.32038 -0.0234,-1.68476 0.14038,-4.46926 0.37436,-6.20076 0.2106,-1.73155 0.3042,-3.1823 0.2106,-3.2291 -0.28079,-0.0936 -0.0702,-1.68476 0.3276,-2.55054 0.1872,-0.39776 0.32758,-0.91256 0.32758,-1.16993 0,-0.23403 0.14041,-0.63177 0.32757,-0.88913 0.16382,-0.2574 0.37443,-0.936 0.468,-1.52096 0.0936,-0.56159 0.25741,-1.14661 0.37438,-1.31044 0.14042,-0.14037 0.3042,-0.9125 0.37439,-1.6847 0.0936,-0.7956 0.3042,-1.5677 0.46799,-1.7082 0.2106,-0.1637 0.32758,-0.7721 0.32758,-1.6379 0,-0.7487 0.0936,-1.40394 0.2106,-1.4741 0.65521,-0.42123 1.05298,-6.50504 1.07635,-16.6369 0,-10.436 -0.0936,-10.01486 2.15274,-10.27225 2.76111,-0.30415 3.22913,-0.39785 3.65027,-0.79559 0.39777,-0.35096 1.2168,-0.42116 6.24762,-0.53816 4.11826,-0.0936 5.92001,-0.2106 6.1774,-0.4212 0.2106,-0.1872 1.68468,-0.3743 3.69705,-0.51476 1.84853,-0.11694 3.58008,-0.32758 3.88428,-0.44458 0.3042,-0.14036 0.84238,-0.23401 1.21675,-0.23401 0.39778,0 0.70198,-0.11695 0.70198,-0.23401 0,-0.14038 0.16379,-0.23394 0.35098,-0.23394 0.18724,0 0.74874,-0.21064 1.21674,-0.468 0.49142,-0.2574 1.07638,-0.468 1.287,-0.468 0.35097,0 1.45073,-0.468 2.83125,-1.19334 0.159,-0.0796 0.33963,-0.12656 0.47577,-0.12656 0.0642,0 0.11853,0.0104 0.15604,0.0329 0.0339,0.0227 0.0693,0.033 0.10428,0.033 0.10986,0 0.21686,-0.1016 0.27014,-0.24354 0.0702,-0.1872 0.51477,-0.46796 0.98276,-0.63176 0.49136,-0.16383 1.12316,-0.468 1.4273,-0.702 0.30423,-0.25737 0.702,-0.44456 0.8892,-0.44456 0.18722,0 0.65518,-0.25744 1.053,-0.58504 0.37433,-0.3275 0.81891,-0.5849 0.98273,-0.5849 0.18723,0 0.56159,-0.18724 0.86579,-0.4212 0.32757,-0.2574 1.35717,-0.5382 2.5505,-0.7254 1.09979,-0.1404 2.31654,-0.4212 2.69094,-0.585 0.39778,-0.1872 1.40394,-0.65516 2.2697,-1.0529 0.91256,-0.42123 1.9655,-0.72543 2.4803,-0.72543 0.60838,0 1.05296,-0.16382 1.33375,-0.46802 0.19382,-0.23255 0.48398,-0.36875 0.6976,-0.36875 0.0442,0 0.0852,0.006 0.1214,0.0179 0.0331,0.011 0.0726,0.0163 0.11695,0.0163 0.23742,0 0.61315,-0.15046 0.8892,-0.36736 0.32762,-0.2574 0.95937,-0.6317 1.38054,-0.84236 1.52096,-0.70194 2.19956,-1.09974 3.11212,-1.84854 0.51477,-0.39774 1.12317,-0.79557 1.35714,-0.8892 0.2106,-0.0702 0.3978,-0.2573 0.3978,-0.39776 0,-0.117 0.21058,-0.23394 0.46796,-0.23394 0.25744,0 0.46802,-0.1638 0.46802,-0.351 0,-0.21065 0.18719,-0.4212 0.42117,-0.5148 0.49143,-0.1638 1.45078,-1.0296 1.45078,-1.287 0,-0.1169 0.37437,-0.51475 0.81894,-0.9126 0.44458,-0.39774 0.74881,-0.81888 0.67858,-0.93595 -0.0702,-0.11695 0.0468,-0.21057 0.25739,-0.21057 0.18716,0 0.44458,-0.23401 0.56158,-0.53815 0.23398,-0.6084 2.71433,-3.20569 3.06528,-3.20569 0.11704,0 0.234,-0.16382 0.234,-0.35101 0,-0.18713 0.21058,-0.35095 0.468,-0.35095 0.234,0 0.5382,-0.14044 0.63177,-0.3042 0.42118,-0.70198 1.68476,-1.28698 3.29929,-1.56775 1.00616,-0.16383 1.68474,-0.39783 1.68474,-0.56165 0,-0.16375 0.37443,-0.46795 0.81898,-0.67852 0.44458,-0.21056 0.81897,-0.4914 0.81897,-0.63178 0,-0.117 0.14041,-0.23401 0.3042,-0.23401 0.3042,0 1.56772,-1.3103 1.56772,-1.63794 0,-0.117 0.30423,-0.39776 0.67859,-0.60833 0.39779,-0.234 0.74878,-0.63184 0.819,-0.9126 0.16376,-0.6786 7.34734,-7.81537 8.18974,-8.14295 0.21056,-0.0935 0.37435,-0.30413 0.37435,-0.51477 0,-0.18718 0.14041,-0.35101 0.30422,-0.35101 0.16373,0 0.81893,-0.67859 1.45073,-1.52087 0.6318,-0.8424 1.24016,-1.521 1.33376,-1.521 0.11697,0 0.18724,-0.3042 0.18724,-0.6552 0,-0.3744 0.21053,-0.86574 0.46794,-1.0998 0.25739,-0.23395 0.46799,-0.6551 0.46799,-0.91254 0,-0.28076 0.14035,-0.70196 0.30417,-0.95936 0.1872,-0.25738 0.46798,-1.2401 0.6318,-2.17608 0.16376,-0.93602 0.39777,-1.75494 0.51477,-1.82512 0.0936,-0.0703 0.1872,-0.56166 0.1872,-1.0998 0,-0.5616 0.16379,-1.2168 0.35098,-1.49756 0.44455,-0.60834 1.14658,-0.67859 10.99762,-1.00617 7.46436,-0.23401 10.03827,-0.51477 14.27353,-1.54437 1.3104,-0.30414 2.5505,-0.56152 2.7611,-0.56152 0.234,0 0.6552,-0.14045 0.93598,-0.32764 0.28076,-0.16376 1.07639,-0.39777 1.77835,-0.46802 0.70197,-0.0936 1.47412,-0.28076 1.7081,-0.39776 0.23397,-0.11696 1.0296,-0.32758 1.75497,-0.46796 0.74876,-0.117 1.68473,-0.3744 2.05912,-0.5616 0.39783,-0.16374 1.24018,-0.37438 1.87195,-0.46794 0.65518,-0.0936 1.33377,-0.3042 1.52096,-0.46802 0.1872,-0.16382 0.98273,-0.37439 1.75492,-0.46796 0.77218,-0.0702 1.61455,-0.28082 1.87197,-0.44458 0.25738,-0.1638 1.07636,-0.3744 1.82514,-0.468 0.74874,-0.0702 1.68472,-0.3042 2.0357,-0.4914 0.37436,-0.1872 0.91257,-0.35102 1.21677,-0.35102 0.30417,0 0.86577,-0.21051 1.24014,-0.46796 0.3978,-0.25738 0.91257,-0.46795 1.19336,-0.46795 0.25742,0 0.56159,-0.0936 0.70197,-0.1872 0.58948,-0.54584 3.70486,-0.98977 6.60925,-0.98977 0.20847,0 0.41583,0.002 0.62113,0.007 0.10534,0.002 0.20472,0.003 0.29867,0.003 0.90808,0 1.31295,-0.10867 1.73705,-0.44794 0.3276,-0.28076 0.72535,-0.4914 0.8424,-0.4914 0.11696,0 0.35094,-0.1638 0.51476,-0.35094 0.16382,-0.1872 0.44458,-0.35102 0.65518,-0.35102 0.18723,0 0.77216,-0.18719 1.31033,-0.44458 0.53821,-0.23401 1.75495,-0.65516 2.71433,-0.95941 0.9594,-0.28075 2.29312,-0.72535 2.9249,-0.95935 0.65518,-0.25738 1.38055,-0.44458 1.63797,-0.44458 0.25738,0 0.86575,-0.21057 1.35711,-0.46796 0.46802,-0.25738 1.00622,-0.46801 1.16999,-0.46801 0.16378,0 0.67858,-0.21057 1.16995,-0.46795 0.46802,-0.2574 1.16998,-0.46797 1.54434,-0.46797 0.3978,0 0.77222,-0.0936 0.84238,-0.23401 0.0702,-0.117 0.74878,-0.39782 1.47416,-0.60839 0.7254,-0.21057 1.38054,-0.44458 1.45076,-0.53815 0.18724,-0.23401 2.62067,-1.16998 3.4397,-1.3338 0.42117,-0.0936 0.88916,-0.3042 1.02951,-0.4679 0.14043,-0.18731 0.3978,-0.32763 0.53823,-0.32763 0.14036,0 1.09974,-0.42121 2.1293,-0.93598 1.02958,-0.51477 1.96553,-0.93597 2.10594,-0.93597 0.117,0 1.49756,-0.6084 3.0419,-1.38056 1.54434,-0.74884 3.06531,-1.49749 3.39286,-1.638 0.32763,-0.14038 0.7488,-0.35094 0.936,-0.44458 0.585,-0.35096 1.9655,-0.93596 2.5271,-1.09973 0.2808,-0.0702 0.51477,-0.23395 0.51477,-0.35101 0,-0.0936 0.28083,-0.30414 0.65521,-0.44458 0.35095,-0.14038 1.00616,-0.46796 1.45074,-0.72534 0.44458,-0.2574 0.98273,-0.46802 1.19336,-0.46802 0.21057,0 0.51477,-0.16382 0.67859,-0.35095 0.16383,-0.1872 0.37439,-0.35103 0.46796,-0.35103 0.117,0 1.00617,-0.46794 1.96557,-1.0529 0.98273,-0.58503 1.8719,-1.05298 1.96552,-1.05298 0.0936,0 0.42114,-0.21062 0.74878,-0.46802 0.32758,-0.2574 0.77216,-0.46796 1.00616,-0.46796 0.23394,0 0.46796,-0.16381 0.53821,-0.35094 0.0936,-0.18726 0.30413,-0.35102 0.51471,-0.35102 0.18726,0 0.53822,-0.14044 0.7254,-0.32764 0.37439,-0.30414 5.40522,-1.07629 7.11342,-1.07629 0.46794,0 0.8657,-0.11707 0.8657,-0.23407 0,-0.14038 0.51484,-0.23395 1.17,-0.23395 1.09972,0 4.56286,-0.84241 5.8498,-1.42731 2.24632,-1.0296 3.04186,-1.52105 5.26482,-3.20569 0.91258,-0.70208 2.92486,-1.68481 3.46308,-1.68481 0.21062,0 0.39782,-0.0936 0.39782,-0.23402 0,-0.117 0.35095,-0.37432 0.77215,-0.58495 1.52093,-0.7019 3.79065,-2.01227 4.04803,-2.36335 0.14045,-0.1637 0.44465,-0.32763 0.65516,-0.32763 0.21064,0 0.56158,-0.37433 0.77222,-0.81891 0.21057,-0.44458 0.46795,-0.81891 0.58496,-0.81891 0.0936,0 0.18719,-0.21069 0.18719,-0.46801 0,-0.28084 -0.16383,-0.46796 -0.37433,-0.46796 -0.5382,0 -0.30426,-0.79558 0.25733,-0.88916 0.25737,-0.0468 0.9126,-0.30426 1.4508,-0.53827 0.53815,-0.23395 1.07637,-0.44458 1.16993,-0.44458 0.117,0 0.5382,-0.35095 0.93597,-0.77217 0.65521,-0.65514 0.72534,-0.88915 0.70197,-1.9655 -0.0234,-0.77216 -0.1404,-1.24017 -0.32758,-1.24017 -0.14038,0 0.14038,-0.44458 0.65515,-0.95935 0.56159,-0.58503 0.88923,-1.12323 0.81897,-1.31038 -0.0936,-0.18718 -0.14038,-0.81902 -0.14038,-1.38054 0,-0.93598 -0.0468,-1.02954 -0.58496,-1.02954 -0.32758,0 -0.58496,-0.11702 -0.58496,-0.23407 0,-0.14032 -0.51484,-0.23389 -1.16999,-0.23389 -1.1466,0 -1.38055,-0.1405 -0.95935,-0.58508 0.2574,-0.2807 -0.351,-2.24628 -0.7722,-2.50368 -0.18245,-0.12877 -1.21132,-0.18864 -2.27192,-0.18864 -1.25205,0 -2.54828,0.0834 -2.54828,0.23547 0,0.11694 -0.2574,0.23395 -0.58503,0.23395 -0.32757,0 -0.58497,0.0937 -0.58497,0.23402 0,0.11693 -0.46794,0.234 -1.05296,0.234 -0.58497,0 -1.05292,0.0936 -1.05292,0.21057 0,0.11693 -0.53822,0.25738 -1.16998,0.35101 -0.65516,0.0936 -1.16999,0.25732 -1.16999,0.37432 0,0.14045 -0.25738,0.23402 -0.58495,0.23402 -0.4212,0 -0.58497,-0.11695 -0.58497,-0.46796 0,-0.9126 -0.51483,-1.63794 -1.31043,-1.77838 -0.18603,-0.0319 -0.3769,-0.0469 -0.56075,-0.0469 -0.62568,0 -1.17075,0.1734 -1.17075,0.44467 0,0.11695 -0.14038,0.21058 -0.32758,0.21058 -0.18719,0 -0.4212,0.21062 -0.49139,0.46802 -0.0936,0.25738 -0.35101,0.46795 -0.6084,0.46795 -0.25733,0 -0.51477,0.16382 -0.58496,0.35095 -0.0936,0.18726 -0.44457,0.35102 -0.79553,0.35102 -0.46802,0 -0.7254,0.14044 -0.81897,0.46801 -0.11701,0.37439 -0.35107,0.46797 -1.07642,0.46797 -0.60835,0 -0.98272,0.117 -1.05298,0.351 -0.0936,0.18714 -0.39777,0.35102 -0.70197,0.35102 -0.3042,0 -0.56158,0.0936 -0.56158,0.23394 0,0.11701 -0.21057,0.23407 -0.46795,0.23407 -0.25739,0 -0.46797,0.0936 -0.46797,0.23389 0,0.11708 -0.32763,0.23408 -0.7254,0.23408 -0.7956,0 -2.31652,0.6317 -2.31652,0.95934 0,0.11694 -0.14038,0.21051 -0.3042,0.21051 -0.16382,0 -0.6084,0.4212 -1.00616,0.93598 -0.37439,0.51483 -0.88916,1.19342 -1.14655,1.49762 -0.25745,0.28075 -0.77217,0.93603 -1.16997,1.42735 -2.31654,2.94826 -4.67988,4.79677 -6.13057,4.79677 -0.37439,0 -0.88923,0.16381 -1.1466,0.32763 -0.28076,0.18714 -0.98279,0.46802 -1.59113,0.63178 -0.58496,0.14038 -1.14654,0.35102 -1.2168,0.46795 -0.0701,0.11701 -0.30413,0.2107 -0.51477,0.2107 -0.23393,0 -0.77215,0.21051 -1.24011,0.44457 -0.46802,0.25727 -1.28699,0.56153 -1.80176,0.7253 -0.5382,0.1405 -0.98276,0.351 -0.98276,0.46795 0,0.0936 -0.44457,0.25745 -0.98278,0.35101 -0.56159,0.0936 -1.21677,0.30426 -1.49756,0.46802 -0.28079,0.18719 -0.86578,0.39776 -1.33374,0.46795 -0.46799,0.0936 -0.95938,0.30427 -1.12317,0.4914 -0.14041,0.18725 -0.44461,0.32763 -0.65521,0.32763 -0.21054,0 -0.67856,0.21057 -1.07634,0.46796 -0.37438,0.25738 -0.91258,0.46802 -1.16994,0.46802 -0.25746,0 -0.77219,0.16369 -1.14656,0.35101 -0.351,0.18713 -1.1934,0.49133 -1.87196,0.67847 -0.65514,0.18731 -1.49754,0.44464 -1.89534,0.56164 -3.04186,1.00624 -3.81407,1.21674 -4.25862,1.21674 -0.25745,0 -1.05298,0.21057 -1.75495,0.44458 -1.21676,0.44458 -2.26971,0.65522 -6.388,1.31036 -1.14653,0.18726 -2.29313,0.44458 -2.50373,0.58496 -0.23397,0.117 -1.14654,0.32764 -2.01232,0.46796 -0.88918,0.11707 -1.9187,0.37444 -2.29312,0.58502 -0.37439,0.1872 -1.05296,0.35095 -1.49756,0.35095 -0.44458,0 -1.21677,0.2107 -1.70813,0.46802 -0.46799,0.25745 -1.09979,0.46795 -1.38057,0.46795 -0.30415,0 -0.8424,0.2107 -1.24016,0.4681 -0.37436,0.25737 -0.91257,0.46794 -1.16994,0.46794 -0.25743,0 -0.6552,0.21056 -0.88917,0.46796 -0.21057,0.2574 -0.65515,0.46802 -0.95941,0.46802 -0.32755,0 -0.65515,0.117 -0.72534,0.23395 -0.0936,0.14038 -0.56156,0.4212 -1.07636,0.63177 -0.49142,0.18726 -0.91257,0.44458 -0.91257,0.56158 0,0.11708 -0.2106,0.21064 -0.46798,0.21064 -0.23397,0 -0.63177,0.21057 -0.86577,0.44458 -0.23396,0.25738 -0.70198,0.51476 -1.053,0.60833 -0.37435,0.0936 -0.65518,0.25745 -0.65518,0.35103 0,0.11693 -0.39776,0.32762 -0.86575,0.49138 -0.49139,0.14038 -1.00617,0.35102 -1.12317,0.46796 -0.14038,0.0936 -1.45074,0.30426 -2.92487,0.44458 -1.47418,0.14044 -3.3695,0.37438 -4.21191,0.49138 -0.84235,0.11702 -2.78448,0.3744 -4.32882,0.5616 -1.54435,0.1638 -3.3929,0.4914 -4.09485,0.6786 -0.70197,0.21062 -1.54435,0.37444 -1.89535,0.37444 -0.35096,0 -1.05296,0.16369 -1.59117,0.35096 -0.56155,0.18718 -1.89533,0.44457 -2.99508,0.58495 -1.0998,0.14038 -2.2229,0.37445 -2.48035,0.51477 -0.47354,0.24318 -1.6892,0.37433 -2.8964,0.37433 -0.99978,0 -1.99377,-0.09 -2.55556,-0.28075 -0.60837,-0.21052 -1.35718,-0.3744 -1.68476,-0.3744 -0.30418,0 -0.88918,-0.14038 -1.28695,-0.32758 -0.42118,-0.18719 -1.42737,-0.46796 -2.26975,-0.6084 -5.70941,-0.98272 -7.32394,-1.3103 -9.19588,-1.96552 -0.60835,-0.21056 -1.35716,-0.37438 -1.66136,-0.37438 -0.30417,0 -1.00614,-0.16376 -1.54434,-0.35095 -0.53818,-0.1872 -1.5209,-0.35097 -2.17612,-0.35097 -1.09976,0 -1.82513,-0.1405 -3.95448,-0.74883 -0.84233,-0.25737 -0.8891,-0.32763 -0.8891,-1.19329 0,-0.53828 0.1637,-1.12318 0.3743,-1.35718 0.21062,-0.234 0.42122,-0.8424 0.4914,-1.35718 0.0702,-0.53822 0.21058,-0.95942 0.3276,-0.95942 0.117,0 0.351,-0.35094 0.53816,-0.79546 0.18724,-0.42121 0.44461,-0.86579 0.58502,-0.93604 0.14038,-0.0936 0.25739,-0.42114 0.25739,-0.74878 0,-0.32757 0.16379,-0.63177 0.35098,-0.70196 0.18715,-0.0703 0.39777,-0.6084 0.49135,-1.1933 0.21062,-1.47424 0.81898,-2.36334 3.27592,-4.86713 1.19336,-1.19336 2.29313,-2.5036 2.45694,-2.90143 0.18717,-0.39782 0.51477,-0.7956 0.72538,-0.86578 0.23396,-0.0702 0.4212,-0.21062 0.4212,-0.32764 0,-0.11694 0.60831,-0.49138 1.33371,-0.8424 l 1.35718,-0.63172 4.60962,0.16376 c 1.15385,0.0361 2.10975,0.0548 2.8543,0.0548 1.18818,0 1.8382,-0.0476 1.89573,-0.14835 0.0702,-0.117 0.32762,-0.23395 0.56162,-0.23395 0.23397,0 0.79552,-0.28082 1.2635,-0.65527 1.12318,-0.81891 1.42738,-1.94208 1.2402,-4.32873 -0.1404,-1.68482 -0.11702,-1.89545 0.468,-2.90155 0.74875,-1.24012 0.86575,-2.31659 0.37436,-3.06525 -0.3042,-0.46802 -0.3042,-0.56165 0.0468,-0.95947 0.49143,-0.53815 0.51481,-2.43353 0.0234,-2.92493 -0.46798,-0.44458 -0.46798,-1.54425 0,-1.54425 0.56156,0 2.05914,-0.93597 2.7377,-1.73157 0.4914,-0.56158 0.63178,-0.98278 0.65515,-1.84858 0,-0.60833 -0.0936,-1.09972 -0.21053,-1.09972 -0.0937,0 -0.37443,-0.46802 -0.58503,-1.05304 -0.23397,-0.5849 -0.51477,-1.05292 -0.65517,-1.05292 -0.23402,0 -0.8892,-0.5849 -0.8892,-0.79559 0,-0.0936 -0.32755,-0.4914 -0.72537,-0.88916 -0.39777,-0.42114 -0.86579,-1.07637 -1.05295,-1.47412 -0.18718,-0.37445 -0.49136,-0.95935 -0.65515,-1.28699 -0.25743,-0.44458 -0.28079,-1.12311 -0.16383,-2.92486 0.18723,-2.57398 -0.28075,-8.40033 -0.70196,-8.9151 -0.16381,-0.1872 -0.18719,-0.74872 -0.0936,-1.4508 0.0936,-0.63172 0.0468,-1.5677 -0.0702,-2.05903 -0.14039,-0.51489 -0.37436,-1.35717 -0.51478,-1.91883 -0.14041,-0.5382 -0.35098,-0.98272 -0.46795,-0.98272 -0.14044,0 -0.234,-0.14044 -0.234,-0.32758 0,-0.39776 -1.82514,-2.31659 -2.41017,-2.55054 -0.21053,-0.0702 -0.39776,-0.3042 -0.39776,-0.4914 0,-0.21056 -0.25739,-0.4212 -0.58497,-0.51476 -0.3276,-0.0702 -0.585,-0.23401 -0.585,-0.35101 0,-0.11695 -0.2106,-0.21051 -0.46797,-0.21051 -0.25743,0 -0.46796,-0.11707 -0.46796,-0.23407 0,-0.14038 -0.46805,-0.23395 -1.05297,-0.23395 -0.585,0 -1.053,-0.0936 -1.053,-0.18726 0,-0.11694 -0.4212,-0.39782 -0.93596,-0.65509 -0.51477,-0.23407 -0.93594,-0.51477 -0.93594,-0.63183 0,-0.0936 -0.2106,-0.16382 -0.468,-0.16382 -0.25738,0 -0.46798,-0.11694 -0.46798,-0.23395 0,-0.14045 -0.3042,-0.23401 -0.65518,-0.23401 -0.35098,0 -0.77216,-0.11694 -0.93597,-0.28076 -0.14042,-0.14044 -1.16997,-0.32758 -2.26972,-0.37445 -1.09979,-0.0467 -1.98895,-0.1872 -1.98895,-0.30413 0,-0.11695 -0.2574,-0.21064 -0.58496,-0.21064 -0.32764,0 -0.58499,-0.11701 -0.58499,-0.23396 0,-0.14037 -0.51477,-0.234 -1.16995,-0.234 -0.6318,0 -1.16996,0.0936 -1.16996,0.234 0,0.14033 -1.70816,0.23396 -4.67987,0.23396 -2.97167,0 -4.67984,0.0937 -4.67984,0.23401 0,0.11693 -0.30417,0.23401 -0.65518,0.23401 -0.95935,0 -3.18231,0.63177 -3.27588,0.91252 -0.0468,0.14046 -0.35101,0.2574 -0.65517,0.2574 -0.30418,0 -0.5616,0.0936 -0.5616,0.234 0,0.117 -0.0936,0.23402 -0.23397,0.23402 -0.56159,0 -2.12937,0.84234 -2.24631,1.21678 -0.0702,0.2339 -0.32764,0.42122 -0.58502,0.42122 -0.23398,0 -0.44458,0.0936 -0.44458,0.23388 0,0.11707 -0.14038,0.23407 -0.32755,0.23407 -0.16382,0 -0.5148,0.25733 -0.74881,0.58496 -0.23398,0.32764 -0.63174,0.5849 -0.84234,0.5849 -0.23402,0 -0.42122,0.0937 -0.42122,0.23407 0,0.117 -0.1638,0.23395 -0.35097,0.23395 -0.2106,0 -0.4212,0.16388 -0.49143,0.35101 -0.0936,0.1872 -0.28076,0.35102 -0.46795,0.35102 -0.1872,0 -0.32758,0.0936 -0.32758,0.23395 0,0.117 -0.16382,0.23407 -0.35101,0.23407 -0.18716,0 -0.39776,0.25732 -0.49136,0.5849 -0.0936,0.37445 -0.30417,0.58502 -0.585,0.58502 -0.28082,0 -0.44455,0.16382 -0.44455,0.46795 0,0.25739 -0.14041,0.46803 -0.32763,0.46803 -0.18717,0 -0.42122,0.3275 -0.51477,0.7487 -0.0702,0.4212 -0.28075,0.8658 -0.44458,1.00617 -0.16382,0.11701 -0.35099,0.72547 -0.42121,1.33373 -0.0468,0.60847 -0.28076,1.26363 -0.49136,1.47426 -0.2106,0.21057 -0.3744,0.63177 -0.3744,0.95934 0,0.30415 -0.0936,0.5616 -0.2106,0.5616 -0.11697,0 -0.2574,0.2807 -0.32757,0.6317 -0.30417,1.45075 -0.46798,2.05915 -0.65518,2.17622 -0.0936,0.0701 -0.30417,1.21673 -0.46799,2.57385 -0.16378,1.35718 -0.39776,2.5271 -0.53814,2.62066 -0.11704,0.0937 -0.28082,0.84241 -0.32764,1.68482 -0.0468,0.84241 -0.18716,1.54431 -0.28078,1.54431 -0.117,0 -0.32756,0.6084 -0.49138,1.33374 -0.30416,1.35718 -0.65518,1.9422 -1.12316,1.9422 -0.14039,0 -0.25739,0.0936 -0.25739,0.21057 0,0.11693 -0.23397,0.25739 -0.51477,0.3042 -0.351,0.0468 -0.5616,0.25739 -0.6084,0.58503 -0.0468,0.35088 -0.23398,0.53814 -0.53815,0.53814 -0.23397,0 -0.44458,0.0936 -0.44458,0.23396 0,0.11705 -0.2106,0.234 -0.44461,0.234 -0.25738,0 -0.60839,0.1638 -0.819,0.351 -0.18716,0.18714 -0.49136,0.35096 -0.70196,0.35096 -0.1872,0 -0.4212,0.21064 -0.49137,0.46802 -0.0702,0.25738 -0.35098,0.46796 -0.60843,0.46796 -0.23397,0 -0.44454,0.16381 -0.44454,0.35101 0,0.18719 -0.1872,0.35095 -0.42118,0.35095 -0.23401,0 -0.56158,0.21063 -0.74881,0.46796 -0.23397,0.32764 -0.60837,0.46802 -1.16995,0.46802 -0.56155,0 -0.93594,-0.14038 -1.16995,-0.46802 -0.1872,-0.25733 -0.51477,-0.46796 -0.72537,-0.46796 -0.21057,0 -0.44458,-0.16376 -0.53818,-0.35095 -0.0702,-0.1872 -0.32762,-0.35101 -0.53822,-0.35101 -0.23397,0 -0.58495,-0.21058 -0.7721,-0.46796 -0.18724,-0.25738 -0.58504,-0.46802 -0.8892,-0.46802 -0.3042,0 -0.70197,-0.16382 -0.88917,-0.35096 -0.2106,-0.1872 -0.65521,-0.351 -1.00619,-0.351 -0.35098,0 -0.77219,-0.18714 -0.95934,-0.46796 -0.1872,-0.25739 -0.5148,-0.46802 -0.7488,-0.46802 -0.234,0 -0.4212,-0.0936 -0.4212,-0.21057 0,-0.11705 -0.42117,-0.25738 -0.93597,-0.35095 -0.51473,-0.0702 -0.93593,-0.25745 -0.93593,-0.3744 0,-0.14037 -0.1638,-0.234 -0.351,-0.234 -0.18716,0 -0.35098,-0.11707 -0.35098,-0.234 0,-0.14045 -0.2106,-0.23402 -0.46798,-0.23402 -0.25739,0 -0.46799,-0.117 -0.46799,-0.23395 0,-0.14043 -0.16382,-0.234 -0.35098,-0.234 -0.18723,0 -0.35099,-0.0936 -0.35099,-0.21058 0,-0.117 -0.37442,-0.28088 -0.819,-0.35107 -0.44461,-0.0936 -0.81894,-0.25738 -0.81894,-0.37438 0,-0.1404 -0.2106,-0.2339 -0.46798,-0.2339 -0.25742,0 -0.46799,-0.11706 -0.46799,-0.23407 0,-0.14038 -0.25742,-0.23393 -0.58499,-0.23393 -0.32758,0 -0.58498,-0.0936 -0.58498,-0.2107 0,-0.11695 -0.3042,-0.2807 -0.70198,-0.37434 -0.37439,-0.0936 -0.70196,-0.25738 -0.70196,-0.37432 0,-0.11701 -0.16379,-0.2107 -0.37439,-0.2107 -0.1872,0 -0.70197,-0.37434 -1.12317,-0.81891 -0.44458,-0.44458 -0.8658,-0.8189 -0.95935,-0.8189 -0.0702,0 -0.5148,-0.37446 -0.95938,-0.81903 -0.42121,-0.4446 -0.84237,-0.81898 -0.91257,-0.81898 -0.0702,0 -0.585,-0.46802 -1.12317,-1.05292 -0.56158,-0.585 -1.09976,-1.05303 -1.19339,-1.05303 -0.0936,0 -0.51477,-0.37433 -0.93597,-0.81891 -0.44457,-0.44458 -0.84235,-0.81903 -0.93595,-0.81903 -0.0702,0 -0.86575,-0.74878 -1.75494,-1.638 -0.88916,-0.91253 -1.73154,-1.63783 -1.84851,-1.63783 -0.14041,0 -0.32761,-0.21068 -0.39783,-0.468 -0.0702,-0.25745 -0.25738,-0.46796 -0.37436,-0.46796 -0.117,0 -0.2106,-0.16388 -0.2106,-0.35102 0,-0.18725 -0.18723,-0.35107 -0.39778,-0.35107 -0.234,0 -0.7254,-0.37439 -1.12316,-0.81891 -0.37438,-0.44458 -0.79559,-0.81897 -0.91256,-0.81897 -0.11701,0 -0.5148,-0.37439 -0.91258,-0.81897 -0.37438,-0.44458 -0.79558,-0.81897 -0.9126,-0.81897 -0.14037,0 -0.56157,-0.35101 -0.98274,-0.77223 -0.39776,-0.42113 -1.00614,-0.91258 -1.35718,-1.07634 -0.37436,-0.1872 -0.65515,-0.4212 -0.65515,-0.53816 0,-0.0936 -0.14038,-0.18718 -0.32758,-0.18718 -0.18722,0 -0.37439,-0.16382 -0.46799,-0.35102 -0.0702,-0.1872 -0.25738,-0.35095 -0.4212,-0.35095 -0.1872,0 -0.46799,-0.21063 -0.65518,-0.46795 -0.18718,-0.2575 -0.42118,-0.46802 -0.53815,-0.46802 -0.0936,0 -0.4212,-0.25745 -0.7254,-0.58502 -0.30417,-0.32752 -0.63178,-0.58503 -0.72537,-0.58503 -0.0936,0 -0.49137,-0.37433 -0.88919,-0.8189 -0.37437,-0.44458 -0.77219,-0.81891 -0.88913,-0.81891 -0.35102,0 -4.30549,-4.14172 -4.77344,-5.00745 -0.25739,-0.46802 -0.53821,-0.84241 -0.6318,-0.84241 -0.11701,0 -0.18723,-0.16382 -0.18723,-0.35101 0,-0.18713 -0.25736,-0.58495 -0.58493,-0.9126 -0.32764,-0.32751 -0.58503,-0.77215 -0.58503,-1.0061 0,-0.23401 -0.2106,-0.56159 -0.46795,-0.72545 -0.25739,-0.16377 -0.46799,-0.46797 -0.46799,-0.70192 0,-0.23408 -0.2106,-0.58502 -0.46799,-0.81898 -0.25738,-0.21062 -0.46798,-0.53814 -0.46798,-0.7254 0,-0.1872 -0.16379,-0.37438 -0.35099,-0.46795 -0.18719,-0.0702 -0.35098,-0.23401 -0.35098,-0.37439 0,-0.28082 -0.18719,-0.51476 -1.28695,-1.75494 -0.37439,-0.42114 -0.91257,-1.05298 -1.14658,-1.38049 -0.23398,-0.32763 -0.58496,-0.60846 -0.74878,-0.60846 -0.16379,0 -0.37436,-0.23395 -0.44458,-0.4914 -0.0936,-0.2807 -0.95935,-1.3103 -1.89533,-2.26977 -0.95938,-0.95935 -1.73153,-1.8485 -1.73153,-1.94208 0,-0.11694 -0.16379,-0.21052 -0.35102,-0.21052 -0.18716,0 -0.35098,-0.11706 -0.35098,-0.23406 0,-0.14038 -0.77215,-0.98274 -1.68472,-1.89534 -0.93601,-0.88915 -2.19956,-2.0825 -2.78452,-2.66753 -0.60836,-0.58497 -1.19336,-1.05292 -1.31033,-1.05292 -0.11701,0 -0.35101,-0.25745 -0.49139,-0.58502 -0.14042,-0.32757 -0.37442,-0.58503 -0.4914,-0.58503 -0.23401,0 -0.81897,-0.49132 -2.87811,-2.41002 -0.51477,-0.46802 -1.09976,-0.86578 -1.26355,-0.86578 -0.18719,0 -0.32761,-0.117 -0.32761,-0.23395 0,-0.14051 -0.42117,-0.67865 -0.93594,-1.19343 -0.5148,-0.51477 -0.93597,-1.02954 -0.93597,-1.09967 0,-0.0937 -0.63178,-0.77227 -1.40397,-1.54449 -0.77215,-0.74872 -1.40396,-1.45068 -1.40396,-1.56769 0,-0.117 -0.16375,-0.21063 -0.35098,-0.21063 -0.18719,0 -0.35098,-0.0936 -0.35098,-0.21051 0,-0.28088 -1.09976,-1.42737 -1.40393,-1.42737 -0.11701,0 -0.23401,-0.117 -0.23401,-0.23406 0,-0.14033 -0.1872,-0.4212 -0.44458,-0.67848 -0.23398,-0.23407 -0.53821,-0.58502 -0.63181,-0.77222 -0.32757,-0.56158 -1.80172,-2.31652 -2.36328,-2.8313 -0.3042,-0.25744 -0.53821,-0.5615 -0.53821,-0.67858 0,-0.117 -0.11697,-0.32758 -0.23397,-0.49146 -0.14038,-0.16376 -0.72538,-0.91253 -1.28696,-1.68463 -0.56159,-0.77221 -1.40396,-1.89538 -1.87195,-2.50378 -0.44461,-0.58495 -0.81897,-1.14649 -0.81897,-1.26355 0,-0.0936 -0.37439,-0.72534 -0.81897,-1.38055 -0.44458,-0.67853 -0.91257,-1.49755 -1.05295,-1.77833 -0.14041,-0.30419 -0.39782,-0.81896 -0.58499,-1.14654 -0.18719,-0.32764 -0.35101,-0.84241 -0.35101,-1.12318 0,-0.3042 -0.14038,-0.88915 -0.32758,-1.28692 -0.18719,-0.4212 -0.39779,-1.4508 -0.49136,-2.31652 -0.0936,-0.88916 -0.3042,-1.68482 -0.46802,-1.82514 -0.18716,-0.16388 -0.39776,-0.6319 -0.49136,-1.07648 -0.0702,-0.44451 -0.23401,-0.86572 -0.35098,-0.93597 -0.11701,-0.0467 -0.3042,-0.56152 -0.46799,-1.09967 -0.14041,-0.53815 -0.4212,-1.17004 -0.63181,-1.42737 -0.58496,-0.63177 -0.70196,-5.68609 -0.18716,-7.44098 0.58499,-2.0357 0.95935,-6.73889 0.63177,-8.30675 -0.14041,-0.7253 -0.25738,-1.59107 -0.25738,-1.9187 0,-0.35096 -0.18723,-0.88917 -0.3978,-1.19337 -0.3276,-0.44458 -0.42117,-1.05298 -0.42117,-2.50373 0,-1.75494 -0.0702,-1.98882 -0.63181,-2.57385 -0.67859,-0.74878 -1.35714,-1.98895 -1.35714,-2.5271 0,-0.18725 -0.0936,-0.35107 -0.1872,-0.35107 -0.11697,0 -0.77215,-0.5849 -1.47415,-1.28698 l -1.26355,-1.28687 z" />
    </g>
  </g>
</svg>
