<?xml version="1.0" encoding="UTF-8" standalone="no"?>
<svg
   xmlns:osb="http://www.openswatchbook.org/uri/2009/osb"
   xmlns:dc="http://purl.org/dc/elements/1.1/"
   xmlns:cc="http://creativecommons.org/ns#"
   xmlns:rdf="http://www.w3.org/1999/02/22-rdf-syntax-ns#"
   xmlns:svg="http://www.w3.org/2000/svg"
   xmlns="http://www.w3.org/2000/svg"
   xmlns:xlink="http://www.w3.org/1999/xlink"
   xmlns:sodipodi="http://sodipodi.sourceforge.net/DTD/sodipodi-0.dtd"
   xmlns:inkscape="http://www.inkscape.org/namespaces/inkscape"
   inkscape:version="1.0rc1 (09960d6, 2020-04-09)"
   sodipodi:docname="logo_horizontal larger.svg"
   id="svg32"
   version="1.1"
   viewBox="0 0 1356.7318 362.98784"
   height="483.9231"
   width="1808.7551">
  <metadata
     id="metadata38">
    <rdf:RDF>
      <cc:Work
         rdf:about="">
        <dc:format>image/svg+xml</dc:format>
        <dc:type
           rdf:resource="http://purl.org/dc/dcmitype/StillImage" />
        <dc:title></dc:title>
      </cc:Work>
    </rdf:RDF>
  </metadata>
  <defs
     id="defs36">
    <rect
       x="191.50839"
       y="95.351036"
       width="526.04681"
       height="210.90356"
       id="rect4687" />
    <linearGradient
       osb:paint="solid"
       id="linearGradient940">
      <stop
         id="stop938"
         offset="0"
         style="stop-color:#000000;stop-opacity:1;" />
    </linearGradient>
    <rect
       id="rect930"
       height="246.33923"
       width="431.29828"
       y="35.191319"
       x="145.67395" />
    <linearGradient
       osb:paint="solid"
       id="linearGradient889">
      <stop
         id="stop887"
         offset="0"
         style="stop-color:#8f2086;stop-opacity:1;" />
    </linearGradient>
    <linearGradient
       gradientTransform="matrix(1.0081081,0,0,1.0081081,-4.5396547,-5.608251)"
       osb:paint="solid"
       id="linearGradient883">
      <stop
         id="stop881"
         offset="0"
         style="stop-color:#0e0e44;stop-opacity:1;" />
    </linearGradient>
    <linearGradient
       gradientTransform="matrix(0.85475836,0,0,0.85475836,-95.269584,-10.851054)"
       osb:paint="solid"
       id="linearGradient877">
      <stop
         id="stop875"
         offset="0"
         style="stop-color:#94d4ed;stop-opacity:1;" />
    </linearGradient>
    <linearGradient
       gradientTransform="translate(-1.7965666,0.8982833)"
       osb:paint="solid"
       id="linearGradient871">
      <stop
         id="stop869"
         offset="0"
         style="stop-color:#fdd55b;stop-opacity:1;" />
    </linearGradient>
    <linearGradient
       osb:paint="solid"
       id="linearGradient865">
      <stop
         id="stop863"
         offset="0"
         style="stop-color:#fdd55b;stop-opacity:1;" />
    </linearGradient>
    <linearGradient
       gradientTransform="translate(-155.60176,-53.329699)"
       gradientUnits="userSpaceOnUse"
       y2="232.97168"
       x2="996.51196"
       y1="232.97168"
       x1="137.15196"
       id="linearGradient873"
       xlink:href="#linearGradient871"
       inkscape:collect="always" />
    <linearGradient
       gradientUnits="userSpaceOnUse"
       y2="252.97655"
       x2="993.66656"
       y1="252.97655"
       x1="176.82764"
       id="linearGradient879"
       xlink:href="#linearGradient877"
       inkscape:collect="always" />
    <linearGradient
       gradientUnits="userSpaceOnUse"
       y2="288.98654"
       x2="824.1261"
       y1="288.98654"
       x1="191.81529"
       id="linearGradient891"
       xlink:href="#linearGradient889"
       inkscape:collect="always" />
    <linearGradient
       gradientTransform="translate(-93.297919,96.57153)"
       y2="52.576668"
       x2="269.81323"
       y1="52.576668"
       x1="180.09485"
       gradientUnits="userSpaceOnUse"
       id="linearGradient948"
       xlink:href="#linearGradient871"
       inkscape:collect="always" />
    <style
       id="style29">
      @import url('https://fonts.googleapis.com/css2?family=Sriracha');
    </style>
  </defs>
  <sodipodi:namedview
     lock-margins="true"
     fit-margin-bottom="5"
     fit-margin-right="5"
     fit-margin-left="5"
     fit-margin-top="5"
     units="px"
     inkscape:current-layer="svg32"
     inkscape:window-maximized="0"
     inkscape:window-y="23"
     inkscape:window-x="0"
     inkscape:cy="411.96685"
     inkscape:cx="432.05908"
     inkscape:zoom="0.74771966"
     showgrid="false"
     id="namedview34"
     inkscape:window-height="1564"
     inkscape:window-width="3239"
     inkscape:pageshadow="2"
     inkscape:pageopacity="1"
     guidetolerance="10"
     gridtolerance="10"
     objecttolerance="10"
     borderopacity="1"
     bordercolor="#666666"
     pagecolor="#0e0e44"
     inkscape:document-rotation="0" />
  <path
     style="display:inline;fill:url(#linearGradient873);fill-opacity:1;stroke:none;stroke-width:0.999875;stroke-miterlimit:4;stroke-dasharray:none"
     sodipodi:nodetypes="cccscsssscssccsccc"
     inkscape:connector-curvature="0"
     d="m 582.34389,334.02606 c 14.12358,5.82263 19.33648,8.43772 46.5992,16.56171 l 28.80674,6.72232 c -50.34327,-3.96415 -91.35274,-19.02465 -127.67523,-48.19858 -25.5907,-20.55425 -48.85151,-52.29878 -84.91151,-50.96878 -45.67796,5.06919 -87.94076,73.13901 -123.64728,84.80666 -31.05521,10.14776 -59.88736,6.59051 -90.23514,-0.83515 -59.92342,-14.66239 -109.75753,-39.66479 -117.03448,-39.48396 -7.99087,0.19856 -19.829092,21.07133 -33.882432,27.24379 -30.72889,13.49665 -76.6154309,16.27679 -76.6154309,16.27679 36.9168409,-6.25356 63.3406609,-11.0759 83.3740409,-29.67019 7.54862,-7.00637 15.506232,-22.76006 25.275872,-23.77037 11.66104,-1.2059 80.07539,30.78866 119.73453,39.20121 29.92241,5.794 69.1632,11.3014 83.8812,0.0115 42.22192,-23.41784 82.21939,-91.38213 127.06063,-91.22366 33.74688,0.11927 49.13849,14.60637 67.08849,30.84637 22.35827,21.19227 47.58394,50.3469 72.1808,62.48031 z"
     stroke-width="1"
     stroke="#000000"
     fill="none"
     id="Yellow" />
  <g
     transform="translate(-155.60176,-53.329699)"
     style="display:inline"
     inkscape:label="Sun"
     id="layer1"
     inkscape:groupmode="layer">
    <circle
       r="177.59193"
       cy="234.6721"
       cx="816.64813"
       id="path895"
       style="display:inline;fill:url(#linearGradient871);fill-opacity:1;stroke:none;stroke-width:1.01071;stroke-miterlimit:4;stroke-dasharray:none" />
  </g>
  <g
     transform="translate(-155.60176,-53.329699)"
     style="display:inline"
     inkscape:label="Belly"
     id="layer3"
     inkscape:groupmode="layer">
    <path
       sodipodi:nodetypes="ssscscsssssscss"
       inkscape:connector-curvature="0"
       style="display:inline;fill:url(#linearGradient879);fill-opacity:1;stroke:none"
       d="m 700.58581,164.54938 c -46.01211,43.15165 -31.11629,158.82565 -69.57307,214.84789 -20.41602,29.74121 -91.71391,39.44817 -134.168,24.79742 C 451.25878,388.46314 426.88957,356.14236 379.07305,352.97881 355.46096,350.77239 329.584,363.1803 297.48274,376.29311 248.1918,396.4276 169.79309,399.14 169.79309,399.14 c 0,0 78.10429,-9.69546 116.20691,-26.14 36.76512,-15.86729 63.64887,-31.39891 96.20243,-31.94825 43.79733,-0.73907 85.91457,38.69005 119.207,49.74588 35.95154,11.93886 99.68484,2.50721 114.14022,-16.86923 40.33244,-54.06286 21.44099,-177.26767 75.35152,-224.55358 20.69211,-18.14943 46.35645,-29.68736 69.53467,-44.53104 88.19471,-56.481205 231.17662,15.55453 233.81619,132.3399 C 988.05965,133.06605 845.4866,66.61792 767.33752,116.76224 c -23.03117,14.77794 -46.79151,29.06782 -66.75171,47.78714 z"
       stroke-width="1"
       stroke="#000000"
       fill="none"
       id="Blue" />
  </g>
  <g
     transform="translate(-155.60176,-53.329699)"
     inkscape:label="Thigh"
     id="layer4"
     inkscape:groupmode="layer">
    <path
       sodipodi:nodetypes="csccssccscccssssccsss"
       inkscape:connector-curvature="0"
       style="display:inline;fill:url(#linearGradient891);fill-opacity:1;stroke:none"
       d="m 712,194.47 c -29.93324,-22.61758 -63.61568,-2.31701 -60.9249,26.45126 4.57171,48.87823 26.88217,95.85911 53.15489,131.97123 C 740.12135,317.93613 744.10599,219.14441 712,194.47 Z M 571.02568,353.18087 c 25.51626,16.57238 44.92994,34.21194 68.60904,33.06716 21.89824,-1.05868 40.81821,-11.68218 58.04186,-28.06181 -31.85034,-41.92578 -53.42093,-83.1717 -57.16703,-138.3969 -2.22065,-51.75891 55.61636,-67.72523 88.04642,-31.07335 33.83357,38.23811 24.46049,133.13527 -15.86292,173.61642 33.48018,31.46089 64.05459,46.66083 110.79401,50.2323 -46.94712,0.19215 -79.03983,-11.30168 -116.61178,-43.81932 -18.80854,15.92263 -44.63389,28.28158 -63.24334,29.11469 -36.8387,1.6492 -52.28719,-16.41966 -81.75226,-34.44675 -22.45319,-13.73714 -45.2138,-22.22081 -68.67725,-21.30981 -27.67747,1.07462 -54.17521,15.44109 -87.18519,28.51237 -85.41283,33.82174 -157.27737,33.70097 -226.1304,28.51029 40.3738,0.32759 80.6347,-1.12735 115.6347,-6.99735 47.46538,-7.74413 66.12681,-12.15054 108.0474,-29.62707 28.02202,-11.68227 63.10623,-28.75506 87.817,-32.60139 28.99089,-4.51255 55.00498,7.28066 79.63974,23.28052 z"
       stroke-width="1"
       stroke="#000000"
       fill="none"
       id="Pink" />
  </g>
  <g
     transform="translate(-155.60176,-53.329699)"
     style="display:inline"
     inkscape:label="Head"
     id="layer2"
     inkscape:groupmode="layer">
    <circle
       r="46.659538"
       cy="134.82588"
       cx="731.987"
       id="path900"
       style="display:inline;fill:url(#linearGradient883);fill-opacity:1;stroke:none;stroke-width:1.13939;stroke-miterlimit:4;stroke-dasharray:none" />
  </g>
  <text
     id="text90"
     y="169.31267"
     x="883.36591"
     style="font-style:normal;font-weight:normal;font-size:30.0038px;line-height:1.25;font-family:sans-serif;fill:#000000;fill-opacity:1;stroke:none;stroke-width:0.750094"
     xml:space="preserve"><tspan
       style="font-style:normal;font-variant:normal;font-weight:normal;font-stretch:normal;font-size:144.018px;font-family:Sriracha;-inkscape-font-specification:Sriracha;fill:url(#linearGradient865);stroke:none;stroke-width:0.750094"
       y="169.31267"
       x="883.36591"
       id="tspan88"
       sodipodi:role="line">Sunrise</tspan><tspan
       style="font-style:normal;font-variant:normal;font-weight:normal;font-stretch:normal;font-size:73.0092px;font-family:Sriracha;-inkscape-font-specification:Sriracha;fill:url(#linearGradient865);stroke:none;stroke-width:0.750094"
       y="287.20248"
       x="883.36591"
       sodipodi:role="line"
       id="tspan168">Fitness Centre</tspan></text>
</svg>
