<svg xmlns="http://www.w3.org/2000/svg" xmlns:xlink="http://www.w3.org/1999/xlink" viewBox="0 0 1023 431" height="574.56" width="1363.872"><defs><linearGradient id="A" x1="-4.54" y1="-5.608" x2="-4.54" y2="-5.608" gradientUnits="userSpaceOnUse"><stop offset="0" stop-color="#0e0e44"/></linearGradient><linearGradient id="B" x1="-1.797" y1=".898" x2="-1.797" y2=".898" gradientUnits="userSpaceOnUse"><stop offset="0" stop-color="#fdd55b"/></linearGradient><linearGradient y2="233.87" x2="994.715" y1="233.87" x1="135.355" id="C" xlink:href="#B"/><linearGradient y2="205.383" x2="754.075" y1="205.383" x1="55.875" id="D" gradientUnits="userSpaceOnUse"><stop offset="0" stop-color="#94d4ed"/></linearGradient><linearGradient y2="135.682" x2="777.981" y1="135.682" x1="682.974" id="E" xlink:href="#A"/><linearGradient y2="288.987" x2="824.126" y1="288.987" x1="191.815" id="F" gradientUnits="userSpaceOnUse"><stop offset="0" stop-color="#8f2086"/></linearGradient><linearGradient y2="149.148" x2="176.515" y1="149.148" x1="86.797" id="G" xlink:href="#B"/></defs><path d="M743 95.44c37.46 11.16 44.13 60.34 13 82.97-7.03 5.1-15.42 7.6-24 8.42-5.86.56-13.48-.87-19-2.88-6.07-2.22-12.24-5.6-16.9-10.12-13.9-13.47-17.52-37.57-9.1-54.83 8.64-17.73 21.76-23.03 40.02-25.56 4.83-.4 11.34.6 16 2z" stroke="#000" fill="url(#E)"/><path d="M737.946 387.356c14.124 5.823 19.336 8.438 46.6 16.562l28.807 6.722c-50.343-3.964-91.353-19.025-127.675-48.2-25.59-20.554-48.852-52.3-84.912-50.97-45.678 5.07-87.94 73.14-123.647 84.807-31.055 10.148-59.887 6.59-90.235-.835-59.923-14.662-109.758-39.665-117.034-39.484-7.99.2-19.83 21.07-33.882 27.244-30.73 13.497-76.615 16.277-76.615 16.277 36.917-6.254 63.34-11.076 83.374-29.67 7.55-7.006 15.506-22.76 25.276-23.77 11.66-1.206 80.075 30.79 119.735 39.2 29.922 5.794 69.163 11.3 83.88.01 42.222-23.418 82.22-91.382 127.06-91.224 33.747.12 49.138 14.606 67.088 30.846 22.358 21.192 47.584 50.347 72.18 62.48z" fill="url(#C)"/><circle r="177.592" cy="234.672" cx="816.648" fill="url(#B)"/><path d="M700.586 164.55c-46.012 43.152-31.116 158.826-69.573 214.848-20.416 29.74-91.714 39.448-134.168 24.797-45.586-15.732-69.955-48.052-117.772-51.216-23.612-2.206-49.49 10.2-81.6 23.314-49.29 20.134-127.7 22.847-127.7 22.847S247.897 389.445 286 373c36.765-15.867 63.65-31.4 96.202-31.948 43.797-.74 85.915 38.7 119.207 49.746 35.952 11.94 99.685 2.507 114.14-16.87 40.332-54.063 21.44-177.268 75.352-224.554 20.692-18.15 46.356-29.687 69.535-44.53 88.195-56.48 231.177 15.555 233.816 132.34-6.192-104.118-148.765-170.566-226.915-120.42-23.03 14.778-46.792 29.068-66.752 47.787z" fill="url(#D)"/><text y="160.407" x="323.593" xml:space="preserve" font-size="30.004" font-family="Zapfino" fill="url(#G)"><tspan y="160.407" x="323.593" font-weight="normal" font-size="72.009" letter-spacing="3" text-anchor="middle">Griffith</tspan><tspan y="286.128" x="323.593" font-weight="normal" font-size="56.007" text-anchor="middle">Fitness Centre</tspan></text><path d="M712 194.47c-29.933-22.618-63.616-2.317-60.925 26.45 4.572 48.878 26.882 95.86 53.155 131.97 35.89-34.956 39.876-133.748 7.77-158.422zM571.026 353.18c25.516 16.572 44.93 34.212 68.61 33.067 21.898-1.06 40.818-11.682 58.042-28.062-31.85-41.926-53.42-83.172-57.167-138.397-2.22-51.76 55.616-67.725 88.046-31.073 33.834 38.238 24.46 133.135-15.863 173.616 33.48 31.46 64.055 46.66 110.794 50.232-46.947.192-79.04-11.302-116.612-43.82-18.81 15.923-44.634 28.282-63.243 29.115-36.84 1.65-52.287-16.42-81.752-34.447-22.453-13.737-45.214-22.22-68.677-21.3-27.677 1.075-54.175 15.44-87.185 28.512-85.413 33.822-157.277 33.7-226.13 28.5 40.374.328 80.635-1.127 115.635-6.997 47.465-7.744 66.127-12.15 108.047-29.627 28.022-11.682 63.106-28.755 87.817-32.6 28.99-4.513 55.005 7.28 79.64 23.28z" fill="url(#F)"/><circle r="46.66" cy="134.826" cx="731.987" fill="url(#A)"/></svg>