<?xml version="1.0" encoding="UTF-8" standalone="no"?>
<svg
   xmlns:dc="http://purl.org/dc/elements/1.1/"
   xmlns:cc="http://creativecommons.org/ns#"
   xmlns:rdf="http://www.w3.org/1999/02/22-rdf-syntax-ns#"
   xmlns:svg="http://www.w3.org/2000/svg"
   xmlns="http://www.w3.org/2000/svg"
   xmlns:sodipodi="http://sodipodi.sourceforge.net/DTD/sodipodi-0.dtd"
   xmlns:inkscape="http://www.inkscape.org/namespaces/inkscape"
   inkscape:version="1.0rc1 (09960d6, 2020-04-09)"
   sodipodi:docname="one_leg_up.svg"
   id="svg1750"
   viewBox="0 0 55 55"
   height="55"
   width="55"
   version="1.1">
  <metadata
     id="metadata1756">
    <rdf:RDF>
      <cc:Work
         rdf:about="">
        <dc:format>image/svg+xml</dc:format>
        <dc:type
           rdf:resource="http://purl.org/dc/dcmitype/StillImage" />
        <dc:title></dc:title>
      </cc:Work>
    </rdf:RDF>
  </metadata>
  <defs
     id="defs1754" />
  <sodipodi:namedview
     showguides="false"
     inkscape:current-layer="svg1750"
     inkscape:window-maximized="0"
     inkscape:window-y="24"
     inkscape:window-x="1029"
     inkscape:cy="26.567797"
     inkscape:cx="64.088983"
     inkscape:zoom="4.2909091"
     showgrid="false"
     id="namedview1752"
     inkscape:window-height="444"
     inkscape:window-width="706"
     inkscape:pageshadow="2"
     inkscape:pageopacity="0"
     guidetolerance="10"
     gridtolerance="10"
     objecttolerance="10"
     borderopacity="1"
     bordercolor="#666666"
     pagecolor="#ffffff" />
  <g
     transform="matrix(0.05526953,0,0,0.05526975,11.422806,2.0874714)"
     id="layer1">
    <g
       id="g1603"
       style="fill:#000000;fill-opacity:1;stroke-linejoin:miter">
      <path
         inkscape:connector-curvature="0"
         id="path1601"
         d="m 209.71132,878.2792 v 0 l -9.85375,-1.6241 c -0.068,-0.0112 -0.13446,-0.0299 -0.19827,-0.0559 v 0 c -1.54822,-0.63014 -5.14647,-1.85134 -4.02894,-4.59741 l 1e-5,-3e-5 c 0.06,-0.1475 0.13253,-0.29306 0.21603,-0.4367 h -10e-6 c 1.27467,-2.19236 5.98705,-5.16935 10.0838,-6.7766 h 1e-5 c 0.52903,-0.20745 1.05254,-0.3942 1.55463,-0.5644 v 0 c 0.51012,-0.1729 1.00833,-0.33225 1.47243,-0.4807 h 2e-5 c 0.42823,-0.137 0.82487,-0.26385 1.19892,-0.3906 v 0 c 2.34291,-0.79427 2.5456,-1.22743 2.40497,-1.75844 v 0 c -0.21767,-0.82196 -1.18826,-2.09442 -2.82179,-4.17946 v 0 c -1.94,-2.47624 -4.56134,-5.82023 -6.95114,-10.2336 v 0 c -4.29357,-7.9292 -7.81651,-19.277 -11.30237,-30.4921 l 0.0141,0.0419 -10e-4,-0.004 -4.2e-4,-0.001 c -0.20649,-0.56952 -0.40926,-1.14426 -1.71772,-6.06189 v 0 c -1.31405,-4.93877 -3.75102,-14.28867 -6.18666,-23.63337 -0.12887,-0.49444 0.16747,-0.99975 0.66188,-1.1286 0.49442,-0.12884 0.99967,0.1675 1.12855,0.66193 v 0 c 2.43646,9.3479 4.8716,18.69074 6.18426,23.62427 v 0 c 1.31224,4.93194 1.49513,5.42706 1.66914,5.9071 l -4.3e-4,-10e-4 0.001,0.004 c 0.005,0.0147 0.01,0.0282 0.0141,0.0419 v 0 c 3.50582,11.2794 6.97454,22.42604 11.16253,30.16023 v 0 c 2.30857,4.26343 4.84295,7.50037 6.78061,9.97363 v 0 c 1.48871,1.90014 2.812,3.55574 3.1539,4.84684 v 0 c 0.64978,2.45376 -1.8168,3.38 -3.59955,3.98434 v 0 c -0.39248,0.13306 -0.80389,0.26453 -1.22932,0.40066 h 1e-5 c -0.46548,0.14884 -0.94995,0.3039 -1.44206,0.4707 v 0 c -0.48334,0.1638 -0.97839,0.3406 -1.47294,0.5346 v 0 c -4.07047,1.59685 -8.2305,4.3854 -9.15998,5.9841 v 0 c -0.0444,0.0764 -0.0776,0.1446 -0.10182,0.2042 h 2e-5 c -0.25034,0.6151 0.35609,1.105 3.01263,2.18614 l -0.19829,-0.0559 9.85374,1.62405 c 0.50413,0.0832 0.84545,0.55921 0.76237,1.0633 -0.0831,0.50409 -0.55913,0.84539 -1.06325,0.76235 z" />
    </g>
    <g
       id="g1607"
       style="fill:#000000;fill-opacity:1;stroke-linejoin:miter">
      <path
         inkscape:connector-curvature="0"
         id="path1605"
         d="m 183.33372,787.3834 v 0 c -2.25912,-5.5708 -4.50564,-11.1117 -10.01924,-20.38255 v 0 c -3.53387,-5.94205 -8.40838,-13.41395 -12.79051,-20.13079 v 0 c -2.47107,-3.78766 -4.78593,-7.33576 -6.60678,-10.22193 v 0 c -4.45859,-7.06693 -5.96341,-10.17843 -8.50853,-15.44256 v 0 c -0.34642,-0.71662 -0.70209,-1.45221 -1.09616,-2.26203 v 0 c -3.28232,-6.74464 -8.61308,-17.35274 -13.94862,-27.9704 -0.22942,-0.45648 -0.0453,-1.01254 0.41122,-1.24194 0.45651,-0.2294 1.01259,-0.0453 1.24199,0.4112 v 0 c 5.33327,10.61303 10.67003,21.2331 13.95909,27.9915 v 0 c 0.39519,0.812 0.75203,1.5502 1.09825,2.26625 v 0 c 2.5288,5.23055 3.99985,8.27435 8.40758,15.26075 v 0 c 1.81166,2.8715 4.1179,6.40654 6.59157,10.1982 v 0 c 4.37522,6.70627 9.27347,14.21396 12.83114,20.19595 v 0 c 5.58229,9.38635 7.86925,15.02465 10.1436,20.63315 0.19201,0.4734 -0.0362,1.01285 -0.50964,1.20487 -0.47346,0.19203 -1.01295,-0.0362 -1.20496,-0.50967 z" />
    </g>
    <g
       id="g1611"
       style="fill:#000000;fill-opacity:1;stroke-linejoin:miter">
      <path
         inkscape:connector-curvature="0"
         id="path1609"
         d="m 131.02362,691.8689 v 0 c -2.59494,-4.12384 -5.16879,-8.21344 -7.88322,-11.91285 v 0 c -0.77159,-1.05155 -1.55585,-2.07335 -2.33435,-3.08765 v 0 c -0.752,-0.9797 -1.49893,-1.9528 -2.21288,-2.92583 v 0 c -1.14122,-1.5553 -2.21097,-3.12763 -3.10349,-4.76343 v 0 c -2.02735,-3.71574 -3.09228,-7.67218 -3.89865,-11.33474 v 0 c -0.80752,-3.66776 -1.37102,-7.11784 -1.93033,-10.541 -0.0824,-0.50427 0.2596,-0.9798 0.76384,-1.0621 0.50424,-0.0825 0.9798,0.25955 1.06219,0.76377 v 0 c 0.56024,3.42889 1.11624,6.83053 1.91126,10.44153 v 0 c 0.7962,3.6163 1.81679,7.36566 3.7159,10.84637 v 0 c 0.8362,1.53253 1.85192,3.02983 2.97102,4.55503 v 0 c 0.70025,0.9543 1.43445,1.9109 2.18888,2.8939 v 0 c 0.77655,1.0117 1.57311,2.0495 2.35834,3.1196 v 0 c 2.76054,3.7623 5.36973,7.9095 7.95748,12.022 0.2721,0.4324 0.14214,1.0036 -0.29029,1.27574 -0.43245,0.2721 -1.00359,0.14209 -1.2757,-0.29034 z" />
    </g>
    <g
       id="g1615"
       style="fill:#000000;fill-opacity:1;stroke-linejoin:miter">
      <path
         inkscape:connector-curvature="0"
         id="path1613"
         d="m 110.03778,647.84753 2e-5,7e-5 -0.008,-0.0441 h -10e-6 c -0.90139,-4.96667 -1.81427,-9.99747 -2.12887,-13.94764 v 0 c -0.31885,-4.0036 -0.0317,-6.98797 1.4686,-10.27243 v 0 c 1.46486,-3.20694 4.07972,-6.6722 6.60293,-10.02346 0.30731,-0.40814 0.88734,-0.48994 1.2955,-0.18264 0.40818,0.3074 0.48993,0.8874 0.18262,1.29555 v 0 c -2.56322,3.40445 -5.03485,6.69489 -6.39807,9.67935 v 0 c -1.32783,2.90683 -1.6104,5.5495 -1.30718,9.3567 v 0 c 0.30562,3.8376 1.19778,8.7656 2.10497,13.7642 l -1e-5,-1.4e-4 0.008,0.0441 c 0.0913,0.50274 -0.24232,0.98424 -0.74502,1.0755 -0.50273,0.0912 -0.98422,-0.2424 -1.07546,-0.74507 z" />
    </g>
    <g
       id="g1619"
       style="fill:#000000;fill-opacity:1;stroke-linejoin:miter">
      <path
         inkscape:connector-curvature="0"
         id="path1617"
         d="m 116.13446,613.87463 v 0 C 128.0546,600.39764 140.02579,586.8625 164.3674,571.2128 v 0 c 24.29082,-15.6169 60.91266,-33.3451 97.45377,-51.03604 0.45987,-0.22266 1.01315,-0.0304 1.23578,0.42954 0.22265,0.45986 0.0303,1.01315 -0.42955,1.2358 v 0 c -36.58277,17.71106 -73.08446,35.38465 -97.2594,50.92707 v 0 c -24.12404,15.50976 -35.96032,28.89147 -47.84763,42.33129 -0.3385,0.38269 -0.92316,0.41854 -1.30586,0.08 -0.38272,-0.3385 -0.41856,-0.9232 -0.08,-1.30587 z" />
    </g>
    <g
       id="g1623"
       style="fill:#000000;fill-opacity:1;stroke-linejoin:miter">
      <path
         inkscape:connector-curvature="0"
         id="path1621"
         d="m 261.14258,521.2725 v 0 c 0.66055,-6.3651 1.32672,-12.7946 2.61398,-18.70112 v 0 c 1.28864,-5.91284 3.19556,-11.28378 5.07999,-16.5946 0.17087,-0.48148 0.6997,-0.73334 1.18121,-0.56248 0.48151,0.17084 0.73337,0.6997 0.5625,1.1812 v 0 c -1.88928,5.3245 -3.75598,10.5887 -5.01593,16.3699 v 0 c -1.26129,5.7875 -1.91853,12.1105 -2.58143,18.4981 -0.0527,0.50824 -0.50747,0.87744 -1.01568,0.8247 -0.50817,-0.0528 -0.87738,-0.50744 -0.82464,-1.0157 z" />
    </g>
    <g
       id="g1627"
       style="fill:#000000;fill-opacity:1;stroke-linejoin:miter">
      <path
         inkscape:connector-curvature="0"
         id="path1625"
         d="m 269.0927,486.62582 v 0 c -1.05294,-14.03244 -2.1109,-28.12012 -1.00438,-45.98192 v 0 c 1.10525,-17.8415 4.37002,-39.4393 7.62536,-60.9796 0.0764,-0.50518 0.54779,-0.8528 1.05298,-0.77645 0.50519,0.0763 0.85282,0.54775 0.77649,1.05295 v 0 c -3.25918,21.5656 -6.509,43.07458 -7.60815,60.81747 v 0 c -1.0979,17.72283 -0.05,31.69836 1.00274,45.72913 0.0382,0.50946 -0.34381,0.95352 -0.8533,0.99176 -0.50949,0.0382 -0.95349,-0.34381 -0.99174,-0.85334 z" />
    </g>
    <g
       id="g1631"
       style="fill:#000000;fill-opacity:1;stroke-linejoin:miter">
      <path
         inkscape:connector-curvature="0"
         id="path1629"
         d="m 276.0134,381.01776 v 0 l -6.42688,-21.47333 c -0.0701,-0.23433 -0.0446,-0.48687 0.071,-0.70248 v 0 l 1.50925,-2.81448 c 0.24145,-0.45029 0.80221,-0.61957 1.2525,-0.37812 0.45025,0.24149 0.61955,0.80225 0.37808,1.25251 v 0 l -1.50923,2.81448 0.0709,-0.70242 6.42691,21.47332 c 0.14648,0.48951 -0.13153,1.00504 -0.621,1.15152 -0.48947,0.14649 -1.00505,-0.1315 -1.15155,-0.621 z" />
    </g>
    <g
       id="g1635"
       style="fill:#000000;fill-opacity:1;stroke-linejoin:miter">
      <path
         inkscape:connector-curvature="0"
         id="path1633"
         d="m 271.23422,356.3264 v 0 c -6.62942,-14.2098 -13.34488,-28.5835 -14.18664,-47.19307 v 0 c -0.83914,-18.55176 4.16642,-41.27233 9.1268,-63.81958 0.10974,-0.49899 0.60327,-0.81448 1.10226,-0.70471 0.49899,0.10976 0.81456,0.60327 0.70474,1.10229 v 0 c -4.97818,22.62807 -9.91122,45.08262 -9.08544,63.33841 v 0 c 0.82312,18.19806 7.37606,32.26416 14.01501,46.49439 0.21603,0.46301 0.0158,1.01347 -0.44725,1.22949 -0.463,0.216 -1.01347,0.0158 -1.22948,-0.44722 z" />
    </g>
    <g
       id="g1639"
       style="fill:#000000;fill-opacity:1;stroke-linejoin:miter">
      <path
         inkscape:connector-curvature="0"
         id="path1637"
         d="m 266.22678,244.87962 v 0 c 2.22702,-12.48062 4.34335,-24.53832 -0.0217,-33.92692 v 0 c -2.33356,-5.01914 -6.54398,-9.33133 -10.38944,-13.2575 v 0 c -2.96827,-3.03057 -5.8096,-5.91349 -7.07794,-8.64152 h -1e-5 c -0.13543,-0.29132 -0.25469,-0.58391 -0.35546,-0.87837 v -1e-5 c -2.32098,-6.78258 5.842,-12.11816 12.65407,-16.74198 0.4227,-0.28696 0.99803,-0.17687 1.285,0.24588 0.28692,0.42274 0.17684,0.99806 -0.24592,1.285 v 0 c -7.52155,5.10544 -13.6922,9.49913 -11.94255,14.61206 v 0 c 0.0776,0.2267 0.17177,0.45894 0.28264,0.69739 v -1e-5 c 1.1026,2.37152 3.65779,4.99838 6.72198,8.1269 v 0 c 3.79895,3.87868 8.2543,8.41416 10.74539,13.7721 v 0 c 4.66226,10.02786 2.35849,22.74144 0.16541,35.032 -0.0897,0.50297 -0.57025,0.83798 -1.07325,0.74823 -0.50298,-0.0898 -0.83798,-0.57026 -0.74822,-1.07325 z" />
    </g>
    <g
       id="g1643"
       style="fill:#000000;fill-opacity:1;stroke-linejoin:miter">
      <path
         inkscape:connector-curvature="0"
         id="path1641"
         d="m 260.48315,171.56683 v 0 c 7.94523,-5.80827 15.65995,-11.46916 19.9921,-21.39199 v 0 c 4.36661,-10.00179 5.33375,-24.38633 6.30508,-39.02028 0.0339,-0.50981 0.47455,-0.89564 0.98437,-0.86181 0.5098,0.0338 0.89564,0.47455 0.8618,0.98436 v 0 c -0.96326,14.51226 -1.93076,29.27387 -6.45557,39.63804 v 0 c -4.55927,10.44305 -12.69278,16.36789 -20.59586,22.14535 -0.41244,0.30153 -0.99124,0.21161 -1.29277,-0.20087 -0.30153,-0.41247 -0.21162,-0.99127 0.20085,-1.2928 z" />
    </g>
    <g
       id="g1647"
       style="fill:#000000;fill-opacity:1;stroke-linejoin:miter">
      <path
         inkscape:connector-curvature="0"
         id="path1645"
         d="m 286.77332,111.1703 -7e-5,1e-4 0.0199,-0.0285 8e-5,-1e-4 c 0.9816,-1.40688 2.15944,-3.13021 3.37907,-3.81765 h -3e-5 c 1.02084,-0.57538 2.14832,-0.47861 3.0419,0.59734 v 0 c 0.99186,1.19433 1.81601,3.8296 2.68921,6.55627 v 0 c 0.69833,2.1807 1.46622,4.57643 2.41035,6.80942 h 2e-5 c 0.539,1.27483 1.13815,2.50293 1.76993,3.79738 v 0 c 0.67123,1.37529 1.37671,2.82027 2.05658,4.42824 v 0 c 1.25784,2.97491 2.42419,6.49743 3.18799,11.26608 v 0 c 1.55768,9.72525 1.43701,24.62803 0.12928,38.1227 v 0 c -1.30976,13.51539 -3.81498,25.665 -6.309,37.76414 -0.10315,0.50038 -0.5924,0.82243 -1.09284,0.71929 -0.50039,-0.10314 -0.82244,-0.59243 -0.7193,-1.09284 v 0 c 2.49604,-12.10883 4.98066,-24.16599 6.27954,-37.56905 v 0 c 1.30085,-13.42343 1.4074,-28.14898 -0.11462,-37.65162 v 0 c -0.73758,-4.60499 -1.85852,-7.98418 -3.06521,-10.83815 v 0 c -0.65751,-1.55507 -1.34195,-2.95786 -2.01517,-4.33727 v 0 c -0.6283,-1.28727 -1.24957,-2.55967 -1.81137,-3.88835 v 2e-5 c -0.98197,-2.32248 -1.77417,-4.79827 -2.46826,-6.9657 v 0 c -0.94397,-2.94771 -1.65223,-5.09763 -2.3505,-5.93847 v -10e-6 c -0.28997,-0.34914 -0.42334,-0.32916 -0.71002,-0.16757 v 0 c -0.75885,0.42768 -1.66583,1.68178 -2.77015,3.26452 l 7e-5,-1.2e-4 -0.0199,0.0285 c -0.29239,0.41911 -0.86907,0.52181 -1.28807,0.22946 -0.41905,-0.29235 -0.52174,-0.86904 -0.22938,-1.28807 z" />
    </g>
    <g
       id="g1651"
       style="fill:#000000;fill-opacity:1;stroke-linejoin:miter">
      <path
         inkscape:connector-curvature="0"
         id="path1649"
         d="m 299.3353,216.20142 v 0 c -0.1714,4.46325 -0.34656,8.92764 1.21753,22.66604 v 0 c 1.56732,13.76692 4.87643,36.80628 8.18917,59.86981 l -0.001,-0.01 c 1.27796,8.2686 2.55328,16.51966 4.11946,24.86796 v 0 c 1.56612,8.3479 3.42427,16.79914 5.28572,25.26498 0.10971,0.49903 -0.20587,0.99246 -0.70486,1.10221 -0.49903,0.10975 -0.9925,-0.20585 -1.10224,-0.70487 v 0 c -1.86022,-8.46028 -3.72494,-16.94076 -5.29712,-25.32113 v 0 c -1.57254,-8.38221 -2.85223,-16.66255 -4.12948,-24.92652 l -0.001,-0.01 c -3.31067,-23.04929 -6.62495,-46.12293 -8.19607,-59.92357 v 0 c -1.57443,-13.8292 -1.40311,-18.3873 -1.22803,-22.94635 0.0196,-0.51055 0.44937,-0.90856 0.9599,-0.88895 0.51055,0.0196 0.90857,0.44939 0.88895,0.95995 z" />
    </g>
    <g
       id="g1655"
       style="fill:#000000;fill-opacity:1;stroke-linejoin:miter">
      <path
         inkscape:connector-curvature="0"
         id="path1653"
         d="m 317.67566,347.85352 v 0 l 2.29584,1.82 -1.49622,0.80643 c -0.007,-0.0757 -0.0194,-0.21082 -0.0197,-0.32877 l -3e-5,-3e-5 c 4.2e-4,0.19098 -0.0994,-0.57455 0.47702,-0.91865 v 0 c 0.9201,-0.54915 1.54644,0.65214 1.33883,0.35344 v 3e-5 c 0.0313,0.045 0.0608,0.0917 0.0884,0.13791 v 0 c 0.22987,0.38512 0.6261,1.2529 1.32483,2.93102 v 0 c 1.5278,3.6691 4.65872,11.60032 6.03021,17.90073 v 0 c 1.38383,6.35721 0.97343,11.03565 0.57533,15.60514 -0.0443,0.50897 -0.4929,0.88565 -1.00193,0.84131 -0.509,-0.0443 -0.88565,-0.49288 -0.84134,-1.00193 v 0 c 0.39621,-4.54757 0.78012,-8.98639 -0.53995,-15.05095 v 0 c -1.33248,-6.1214 -4.40375,-13.91673 -5.93036,-17.58308 v 0 c -0.71512,-1.71742 -1.05835,-2.44732 -1.20552,-2.69397 v 0 c -0.0121,-0.0202 -0.0183,-0.0293 -0.019,-0.0303 v 2e-5 c -0.31247,-0.4496 0.2481,0.705 1.12876,0.17936 v 0 c 0.5373,-0.32068 0.42425,-0.99359 0.42492,-0.6741 h 3e-5 c 3e-5,0.0205 0.003,0.0655 0.0125,0.16984 0.0326,0.36818 -0.15717,0.72045 -0.48258,0.89583 -0.32537,0.17537 -0.72396,0.14027 -1.01362,-0.0894 v 0 l -2.29585,-1.81996 c -0.4004,-0.31742 -0.46765,-0.89927 -0.15027,-1.29966 0.31742,-0.40038 0.89929,-0.46768 1.29968,-0.15026 z" />
    </g>
    <g
       id="g1659"
       style="fill:#000000;fill-opacity:1;stroke-linejoin:miter">
      <path
         inkscape:connector-curvature="0"
         id="path1657"
         d="m 328.13782,385.80634 v 0 c 1.59143,13.49679 3.17105,26.84893 8.01721,39.14123 v 0 c 1.83217,4.64731 4.13525,9.15343 6.50812,13.79425 v 0 c 2.45925,4.80998 4.99035,9.75873 7.08775,15.07878 v 0 c 1.2242,3.10527 2.30312,6.34276 3.1374,9.7631 v 4e-5 c 3.63022,14.88303 2.5881,33.10611 1.56534,51.13496 -0.0289,0.51006 -0.46591,0.90014 -0.97601,0.87114 -0.51013,-0.0289 -0.90018,-0.46588 -0.87125,-0.97601 v 0 c 1.02752,-18.11331 2.03572,-36.03201 -1.51562,-50.59163 v 0 c -0.81088,-3.32448 -1.86188,-6.4809 -3.06119,-9.523 v 0 c -2.05927,-5.22332 -4.54864,-10.09356 -7.01385,-14.91506 v 0 c -2.36536,-4.62624 -4.71125,-9.21277 -6.58197,-13.95794 v 0 c -4.94935,-12.55393 -6.54728,-26.1509 -8.13345,-39.60325 -0.0598,-0.50739 0.303,-0.96722 0.81042,-1.02707 0.50738,-0.0598 0.96725,0.30304 1.0271,0.81046 z" />
    </g>
    <g
       id="g1663"
       style="fill:#000000;fill-opacity:1;stroke-linejoin:miter">
      <path
         inkscape:connector-curvature="0"
         id="path1661"
         d="m 353.88092,513.95123 v 0 c 15.75438,5.21217 31.62573,10.45911 45.57611,18.72467 v 0 c 13.95169,8.26636 25.95011,19.53296 37.86207,30.7132 0.37255,0.3497 0.3911,0.93506 0.0415,1.3077 -0.34971,0.3725 -0.93517,0.391 -1.30767,0.0414 v 0 c -11.93934,-11.20586 -23.79204,-22.32536 -37.539,-30.4704 v 0 c -13.7483,-8.14586 -29.4225,-13.33546 -45.21416,-18.55996 -0.48504,-0.16044 -0.7482,-0.6838 -0.58767,-1.16886 0.16043,-0.48511 0.68377,-0.74824 1.16885,-0.58771 z" />
    </g>
    <g
       id="g1667"
       style="fill:#000000;fill-opacity:1;stroke-linejoin:miter">
      <path
         inkscape:connector-curvature="0"
         id="path1665"
         d="m 437.24652,563.2673 v 0 c 8.94268,7.5646 18.06372,15.2666 22.952,23.26145 v 0 c 4.92553,8.05585 5.53106,16.35445 6.13244,24.41265 0.038,0.50947 -0.3442,0.9533 -0.8537,0.99134 -0.50952,0.038 -0.9534,-0.34418 -0.99142,-0.8537 v 0 c -0.60458,-8.10134 -1.2049,-15.96197 -5.86588,-23.58514 v 0 c -4.69818,-7.68396 -13.54418,-15.1804 -22.56839,-22.81397 -0.39007,-0.33003 -0.43884,-0.91369 -0.10885,-1.30377 0.32998,-0.39016 0.91368,-0.43886 1.3038,-0.10886 z" />
    </g>
    <g
       id="g1671"
       style="fill:#000000;fill-opacity:1;stroke-linejoin:miter">
      <path
         inkscape:connector-curvature="0"
         id="path1669"
         d="m 466.4532,610.2378 v 0 c 3.3901,17.01885 6.80504,34.1489 7.27864,47.21887 v 0 c 0.47583,13.12973 -2.01394,22.15698 -4.4722,31.07983 -0.13568,0.4926 -0.64502,0.7819 -1.13764,0.6462 -0.49254,-0.1357 -0.78182,-0.645 -0.6461,-1.1376 v 0 c 2.45168,-8.8991 4.87176,-17.6936 4.4069,-30.5214 v 0 c -0.467,-12.88753 -3.8431,-29.85036 -7.2442,-46.92446 -0.0998,-0.5011 0.22547,-0.98824 0.7266,-1.08804 0.50104,-0.0998 0.98816,0.2255 1.088,0.7266 z" />
    </g>
    <g
       id="g1675"
       style="fill:#000000;fill-opacity:1;stroke-linejoin:miter">
      <path
         inkscape:connector-curvature="0"
         id="path1673"
         d="m 469.1313,688.2651 v 0 c -5.25102,12.3332 -10.53624,24.7518 -16.6012,34.6919 v 0 c -6.07594,9.9581 -12.92225,17.4106 -19.70558,24.7979 -0.34555,0.3764 -0.93078,0.4013 -1.30716,0.0558 -0.37631,-0.34557 -0.40124,-0.93087 -0.0557,-1.30717 v 0 c 6.79105,-7.39565 13.51938,-14.72634 19.48898,-24.5102 v 0 c 5.98056,-9.8018 11.21262,-22.0854 16.47828,-34.453 0.20016,-0.4702 0.74354,-0.689 1.21359,-0.4888 0.47012,0.20015 0.68893,0.7435 0.48875,1.2136 z" />
    </g>
    <g
       id="g1679"
       style="fill:#000000;fill-opacity:1;stroke-linejoin:miter">
      <path
         inkscape:connector-curvature="0"
         id="path1677"
         d="m 433.06952,746.35645 v 0 c -0.60702,3.55335 -1.23102,7.22729 -2.51059,10.46945 v 0 c -1.28313,3.2512 -3.21146,6.0342 -5.06717,8.7191 -0.29053,0.42033 -0.86676,0.5255 -1.28706,0.235 -0.42028,-0.2905 -0.52553,-0.86673 -0.23503,-1.28696 v 0 c 1.87411,-2.71144 3.67569,-5.32471 4.86823,-8.34637 v 0 c 1.19613,-3.0307 1.7935,-6.5058 2.40783,-10.10177 0.086,-0.50364 0.56407,-0.8422 1.06769,-0.75614 0.50366,0.086 0.84218,0.56404 0.7561,1.06769 z" />
    </g>
    <g
       id="g1683"
       style="fill:#000000;fill-opacity:1;stroke-linejoin:miter">
      <path
         inkscape:connector-curvature="0"
         id="path1681"
         d="m 426.01413,765.33093 v 0 c 2.12024,17.48497 4.254,35.0625 3.40617,52.50027 v 0 c -0.84785,17.4377 -4.67595,34.7077 -8.48155,51.8867 -0.1105,0.4988 -0.60445,0.81366 -1.1033,0.7031 -0.49885,-0.11045 -0.81363,-0.6044 -0.70313,-1.1033 v 0 c 3.81171,-17.2066 7.60098,-34.32234 8.43992,-51.57637 v 0 c 0.83892,-17.25409 -1.27124,-34.67453 -3.3949,-52.18763 -0.0615,-0.5072 0.29983,-0.9683 0.80704,-1.0298 0.50722,-0.0614 0.96822,0.2998 1.02975,0.80703 z" />
    </g>
    <g
       id="g1687"
       style="fill:#000000;fill-opacity:1;stroke-linejoin:miter">
      <path
         inkscape:connector-curvature="0"
         id="path1685"
         d="m 420.65143,869.94904 v 0 c -2.32581,4.80761 -4.80053,9.99603 -9.36903,12.58106 v 0 c -4.53118,2.56396 -10.99767,2.4831 -17.0819,2.4324 -0.5109,-0.004 -0.92163,-0.4218 -0.9174,-0.9327 0.004,-0.511 0.4219,-0.9217 0.9328,-0.91743 v 0 c 6.26603,0.0521 12.14967,0.074 16.15535,-2.19257 v 0 c 3.96835,-2.2455 6.21701,-6.8205 8.61465,-11.77655 0.2225,-0.4599 0.7757,-0.65235 1.23566,-0.42985 0.45994,0.22245 0.6524,0.7757 0.42987,1.23564 z" />
    </g>
    <g
       id="g1691"
       style="fill:#000000;fill-opacity:1;stroke-linejoin:miter">
      <path
         inkscape:connector-curvature="0"
         id="path1689"
         d="m 394.47336,884.5612 v 0 l -97.69354,-6.1982 c -0.50989,-0.0323 -0.89704,-0.4719 -0.86469,-0.9818 0.0324,-0.5099 0.47192,-0.897 0.98181,-0.86466 v 0 l 97.69354,6.19816 c 0.50989,0.0323 0.89704,0.47195 0.86472,0.98183 -0.0324,0.50987 -0.47195,0.89704 -0.98184,0.86467 z" />
    </g>
    <g
       id="g1695"
       style="fill:#000000;fill-opacity:1;stroke-linejoin:miter">
      <path
         inkscape:connector-curvature="0"
         id="path1693"
         d="m 296.842,878.24603 h 4e-5 l -0.18341,0.011 h -3e-5 c -18.36478,1.0932 -36.76294,2.18624 -49.09547,2.04323 v 0 C 235.14206,880.1561 228.8487,878.7586 222.59215,877.3677 l 0.24915,0.0208 -14.10671,0.73845 c -0.51024,0.0267 -0.94551,-0.36525 -0.97222,-0.87549 -0.0267,-0.51016 0.36527,-0.94549 0.87549,-0.97222 v 0 l 14.10671,-0.73854 c 0.0836,-0.004 0.1674,0.003 0.24911,0.0208 v 0 c 6.19192,1.3766 12.3474,2.7466 24.5909,2.88863 v 0 c 12.25072,0.14203 30.57005,-0.94506 48.96407,-2.0401 v 0 l 0.18341,-0.0109 c 0.51004,-0.0304 0.94809,0.35847 0.97844,0.86854 0.0304,0.51001 -0.35845,0.94806 -0.8685,0.97839 z" />
    </g>
    <g
       id="g1699"
       style="fill:#000000;fill-opacity:1;stroke-linejoin:miter">
      <path
         inkscape:connector-curvature="0"
         id="path1697"
         d="m 238.72903,845.9895 -4.4e-4,-6e-4 -0.004,-0.005 4.4e-4,7e-4 c -2.95124,-3.9285 -5.9829,-8.03616 -3.39402,-17.7986 v 0 c 0.78654,-2.9661 2.09378,-6.46296 3.44516,-10.08076 v 0 c 1.51168,-4.047 3.0867,-8.26584 4.13403,-12.21534 v 0 c 1.05055,-3.9615 1.53213,-7.52123 0.96657,-10.2923 v 0 c -1.62139,-7.94384 -12.12627,-10.3024 -23.82581,-12.7788 -0.49985,-0.1057 -0.81929,-0.59674 -0.7135,-1.0966 0.10581,-0.49983 0.59679,-0.81935 1.09664,-0.7135 v 0 c 11.06961,2.34306 23.33386,4.8038 25.25552,14.2189 v 0 c 0.65457,3.20705 0.0761,7.11257 -0.991,11.13655 v 0 c -1.0749,4.05341 -2.68472,8.36085 -4.18918,12.38849 v 0 c -1.36186,3.64586 -2.63171,7.0481 -3.39003,9.90766 v 0 c -2.38479,8.9929 0.3075,12.51586 3.08492,16.2129 l 4.6e-4,6.6e-4 0.004,0.005 c 0.30644,0.4079 0.22406,0.9879 -0.18444,1.29476 -0.40849,0.30689 -0.98843,0.22454 -1.29532,-0.18396 z" />
    </g>
    <g
       id="g1703"
       style="fill:#000000;fill-opacity:1;stroke-linejoin:miter">
      <path
         inkscape:connector-curvature="0"
         id="path1701"
         d="m 219.5182,782.30743 v 0 l -26.99446,-80.2854 c -0.0332,-0.0986 -0.0495,-0.20227 -0.0482,-0.30627 l -1e-5,1.8e-4 4.2e-4,-0.0349 2e-5,-2e-4 c 0.0698,-5.62086 0.13212,-11.1188 -4.60013,-19.6367 v 0 c -4.80531,-8.6494 -14.52043,-20.36246 -24.33197,-32.18564 -0.32628,-0.39313 -0.27205,-0.97636 0.12112,-1.30266 0.39318,-0.3263 0.97643,-0.2721 1.30269,0.12114 v 0 c 9.75995,11.76096 19.6158,23.63123 24.52555,32.46856 v 0 c 4.96284,8.9329 4.90414,14.8132 4.83282,20.5583 l 2e-5,-3e-4 -4.3e-4,0.035 -0.0482,-0.30606 26.99444,80.2854 c 0.16284,0.4842 -0.0977,1.0088 -0.58204,1.17167 -0.48427,0.16278 -1.00887,-0.0978 -1.1717,-0.58204 z" />
    </g>
    <g
       id="g1707"
       style="fill:#000000;fill-opacity:1;stroke-linejoin:miter">
      <path
         inkscape:connector-curvature="0"
         id="path1705"
         d="m 163.26416,649.784 v 0 c 0.10437,-2.4698 0.19351,-5.4136 3.08043,-7.6146 v 0 c 1.36426,-1.0402 3.31099,-1.8789 5.45537,-2.612 v 0 c 2.20295,-0.7532 4.7119,-1.4262 7.1812,-2.0889 0.49346,-0.13244 1.00085,0.1602 1.1333,0.6537 0.13243,0.49346 -0.16024,1.00085 -0.65371,1.1333 v 0 c -2.48463,0.66686 -4.92923,1.32336 -7.06221,2.0526 v 0 c -2.106,0.7201 -3.81599,1.4817 -4.93216,2.33265 v 0 c -2.12391,1.61935 -2.24639,3.68335 -2.35362,6.22135 -0.0216,0.5105 -0.45288,0.90676 -0.96335,0.8853 -0.51046,-0.0216 -0.90681,-0.45297 -0.88525,-0.9634 z" />
    </g>
    <g
       id="g1711"
       style="fill:#000000;fill-opacity:1;stroke-linejoin:miter">
      <path
         inkscape:connector-curvature="0"
         id="path1709"
         d="m 179.0326,637.755 v 0 c 13.79945,-4.94775 27.54632,-9.87744 41.89043,-16.94866 v 0 c 9.39103,-4.6294 19.04667,-10.18097 26.83611,-14.65984 h -2e-5 c 4.10708,-2.3615 7.704,-4.4299 10.45795,-5.8989 v 0 c 6.09799,-3.25267 8.43463,-3.81254 9.86323,-3.0896 v 0 c 0.3781,0.19137 0.6446,0.45284 0.8102,0.61055 0.37,0.35235 0.38422,0.93785 0.0319,1.30785 -0.35236,0.37 -0.93792,0.3843 -1.30792,0.0319 v 0 c -0.18481,-0.17605 -0.26868,-0.2483 -0.36964,-0.2994 v 0 c -0.38826,-0.1965 -1.71892,-0.3628 -8.15694,3.0713 v 0 c -2.72202,1.4519 -6.28891,3.50273 -10.40643,5.8703 v 0 c -7.78134,4.47423 -17.48737,10.05547 -26.94031,14.7154 v 0 c -14.45197,7.1244 -28.29452,12.08665 -42.08408,17.03074 -0.48094,0.17243 -1.01062,-0.0776 -1.18304,-0.55859 -0.17246,-0.48095 0.0777,-1.01065 0.5586,-1.18305 z" />
    </g>
    <g
       id="g1715"
       style="fill:#000000;fill-opacity:1;stroke-linejoin:miter">
      <path
         inkscape:connector-curvature="0"
         id="path1713"
         d="m 268.60785,597.8127 v 0 c 14.33325,5.9207 28.41702,11.72166 40.55295,11.68693 v 0 c 12.07727,-0.0345 22.31488,-5.85876 32.80044,-11.84716 0.44366,-0.25337 1.00873,-0.0991 1.26212,0.34463 0.25339,0.4436 0.0991,1.0087 -0.34456,1.26206 v 0 c -10.41014,5.94531 -21.06807,12.05454 -33.7127,12.09069 v 0 c -12.5859,0.036 -27.04998,-5.95545 -41.26464,-11.82715 -0.47226,-0.19506 -0.69693,-0.73596 -0.50186,-1.2082 0.19507,-0.4722 0.73602,-0.6969 1.20825,-0.5018 z" />
    </g>
    <g
       id="g1719"
       style="fill:#000000;fill-opacity:1;stroke-linejoin:miter">
      <path
         inkscape:connector-curvature="0"
         id="path1717"
         d="m 342.01355,597.73175 v 0 c 3.14322,-1.42205 6.7616,-3.10165 11.07791,-0.42335 v 0 c 4.05087,2.5137 8.71369,8.9379 13.19418,15.0819 0.30106,0.41286 0.21048,0.99154 -0.20236,1.29256 -0.41281,0.30109 -0.99151,0.21044 -1.29258,-0.20239 v 0 c -4.59676,-6.30347 -9.01116,-12.32654 -12.67476,-14.59987 v 0 c -3.39814,-2.10857 -6.13132,-0.9146 -9.33976,0.53694 -0.46548,0.21056 -1.01358,0.004 -1.22418,-0.46154 -0.2106,-0.4655 -0.004,-1.0137 0.46155,-1.22425 z" />
    </g>
    <g
       id="g1723"
       style="fill:#000000;fill-opacity:1;stroke-linejoin:miter">
      <path
         inkscape:connector-curvature="0"
         id="path1721"
         d="m 366.92352,613.97375 v 0 c 0.35514,3.73515 0.70448,7.40685 2.59262,13.03575 v 0 c 0.74046,2.2075 1.71836,4.7184 2.75936,7.39077 v 0 c 1.15324,2.96043 2.38093,6.11157 3.41807,9.20349 v 0 c 0.42483,1.26654 0.81893,2.52664 1.16397,3.76379 v 0 c 1.94761,6.98371 2.29813,13.12268 2.64566,19.16462 0.0293,0.51007 -0.36038,0.94733 -0.87045,0.97668 -0.5101,0.0293 -0.94739,-0.36041 -0.97671,-0.87048 v 0 c -0.34806,-6.05107 -0.69312,-12.00531 -2.58072,-18.77377 v 0 c -0.33466,-1.1999 -0.71878,-2.42893 -1.1359,-3.67246 v 0 c -1.02062,-3.04264 -2.23184,-6.15244 -3.38797,-9.12034 v 0 c -1.03655,-2.6609 -2.03195,-5.2156 -2.78949,-7.47384 v 0 c -1.95642,-5.83266 -2.32129,-9.67256 -2.68036,-13.4491 -0.0484,-0.50866 0.32477,-0.96016 0.8334,-1.00846 0.50865,-0.0484 0.96012,0.32475 1.00852,0.83335 z" />
    </g>
    <g
       id="g1727"
       style="fill:#000000;fill-opacity:1;stroke-linejoin:miter">
      <path
         inkscape:connector-curvature="0"
         id="path1725"
         d="m 379.2017,666.1609 v 0 l -0.2781,2.4484 c -0.009,0.0828 -0.03,0.16395 -0.0611,0.2412 v 0 c -3.45848,8.58474 -6.8916,17.10946 -9.14753,25.18746 v 0 c -2.25537,8.07604 -3.33077,15.69739 -3.4216,20.77434 v 0 c -0.0898,5.01607 0.77938,7.53926 1.66897,10.13185 0.16583,0.48325 -0.0915,1.00955 -0.57477,1.17535 -0.48324,0.1658 -1.00947,-0.0915 -1.17529,-0.5748 v 0 c -0.92175,-2.6863 -1.8641,-5.4422 -1.76886,-10.7655 v 0 c 0.0942,-5.2624 1.2002,-13.04147 3.4895,-21.2389 v 0 c 2.2887,-8.1953 5.76392,-16.8188 9.21335,-25.3811 l -0.0611,0.24125 0.27808,-2.44845 c 0.0577,-0.5076 0.51595,-0.8724 1.02362,-0.81473 0.50766,0.0577 0.87247,0.51599 0.81483,1.02363 z" />
    </g>
    <g
       id="g1731"
       style="fill:#000000;fill-opacity:1;stroke-linejoin:miter">
      <path
         inkscape:connector-curvature="0"
         id="path1729"
         d="m 367.56503,726.6175 v 0 l -7.78903,2.19286 c -0.0564,0.0159 -0.1142,0.0264 -0.17258,0.0313 v 0 c -16.9689,1.4381 -33.4797,2.8728 -43.09368,10.4456 v 0 c -9.56302,7.5327 -12.43808,21.2757 -15.3722,35.5243 -0.10304,0.50035 -0.59228,0.82256 -1.09271,0.7195 -0.5004,-0.10306 -0.8226,-0.5923 -0.71951,-1.0927 v 0 c 2.8894,-14.03166 5.83788,-28.56883 16.03948,-36.60454 v 0 c 10.15058,-7.99546 27.34568,-9.41736 44.08237,-10.83576 l -0.17257,0.0313 7.789,-2.19285 c 0.49185,-0.13849 1.00275,0.14795 1.14123,0.63971 0.13847,0.49184 -0.14798,1.00274 -0.6398,1.14124 z" />
    </g>
    <g
       id="g1735"
       style="fill:#000000;fill-opacity:1;stroke-linejoin:miter">
      <path
         inkscape:connector-curvature="0"
         id="path1733"
         d="m 300.94083,773.913 v 0 c 2.38997,12.34353 4.73977,24.3907 9.81173,31.9154 v 0 c 5.01679,7.4428 12.75998,10.5206 20.8277,13.7 l -1.18696,1.231 -2.34752,-5.37427 c -0.20453,-0.46813 0.009,-1.01349 0.47744,-1.21803 0.46824,-0.2045 1.01358,0.009 1.21811,0.47743 v 0 l 2.34751,5.37427 c 0.14986,0.34314 0.0781,0.74286 -0.1818,1.01245 -0.25994,0.26959 -0.65677,0.3559 -1.00514,0.21855 v 0 c -7.9865,-3.14744 -16.29753,-6.39665 -21.68358,-14.38725 v 0 c -5.3309,-7.90881 -7.73248,-20.40135 -10.09399,-32.59785 -0.0971,-0.5016 0.2308,-0.9869 0.73239,-1.08404 0.50162,-0.0972 0.987,0.23074 1.08411,0.73234 z" />
    </g>
    <g
       id="g1739"
       style="fill:#000000;fill-opacity:1;stroke-linejoin:miter">
      <path
         inkscape:connector-curvature="0"
         id="path1737"
         d="m 330.87955,814.56525 v 0 c 4.75895,1.92125 9.38045,3.78185 13.30078,4.419 v 0 c 3.8714,0.62921 7.09027,0.0666 10.45777,-0.5285 0.24166,-0.0427 0.49038,0.0124 0.69143,0.15305 v 0 c 5.13557,3.5944 10.25989,7.1808 13.00561,9.0359 v 0 c 2.76606,1.8687 3.04569,1.9273 3.28888,2.011 0.38478,0.1324 0.63788,0.5006 0.62363,0.9073 -0.0143,0.4066 -0.29257,0.75615 -0.68565,0.86126 v 0 l -7.1579,1.91351 0.0425,-0.0124 c -4.15768,1.3272 -8.24459,2.6333 -11.74618,4.24595 v 0 c -3.49112,1.60779 -6.41815,3.52899 -9.40543,5.49152 -0.42703,0.28053 -1.00061,0.16183 -1.28115,-0.26527 -0.28052,-0.427 -0.16175,-1.0006 0.26525,-1.2811 v 0 c 2.97602,-1.9551 6.01239,-3.9516 9.64731,-5.6257 v 0 c 3.62442,-1.66924 7.82639,-3.0092 11.95749,-4.32806 0.0141,-0.004 0.0282,-0.009 0.0424,-0.0124 v 0 l 7.1579,-1.9135 -0.062,1.76853 c -0.50866,-0.17498 -0.98084,-0.375 -3.72281,-2.22753 v 0 c -2.76225,-1.8662 -7.90219,-5.4636 -13.03073,-9.0531 l 0.69143,0.153 c -3.35525,0.59297 -6.8594,1.2182 -11.07655,0.53285 v 0 c -4.16826,-0.67745 -9.00118,-2.63391 -13.6966,-4.52961 -0.47377,-0.19134 -0.70277,-0.7304 -0.51152,-1.20424 0.19126,-0.47373 0.73042,-0.70274 1.20417,-0.51145 z" />
    </g>
    <g
       id="g1743"
       style="fill:#000000;fill-opacity:1;stroke-linejoin:miter">
      <path
         inkscape:connector-curvature="0"
         id="path1741"
         d="m 342.9315,843.8842 v 0 c -6.44523,0.6568 -12.90208,1.3149 -20.90843,1.8935 v 0 c -7.98547,0.57716 -17.62363,1.0858 -25.93222,-0.27373 v 0 c -3.11667,-0.51001 -6.03537,-1.28127 -8.92055,-2.04291 v 0 c -2.92503,-0.77216 -5.81843,-1.53522 -8.92625,-2.04382 v 0 c -2.02881,-0.33197 -4.14575,-0.55474 -6.41145,-0.59809 v 0 c -9.22088,-0.17651 -20.98156,2.60529 -32.91358,5.43445 -0.49714,0.11786 -0.99571,-0.1896 -1.1136,-0.68677 -0.11786,-0.49713 0.18959,-0.99573 0.68674,-1.11358 v 0 c 11.84855,-2.80935 23.86834,-5.66602 33.37588,-5.48401 v 0 c 2.36652,0.0453 4.57226,0.27801 6.67481,0.62206 v 0 c 3.2091,0.52516 6.18527,1.3115 9.0997,2.0809 v 0 c 2.8967,0.7647 5.7319,1.5124 8.74707,2.00584 v 0 c 8.06695,1.31996 17.50296,0.83216 25.50008,0.25426 v 0 c 7.9765,-0.57647 14.4087,-1.232 20.8542,-1.8888 0.5083,-0.0518 0.9623,0.3182 1.01413,0.82656 0.0518,0.50824 -0.31827,0.96234 -0.82653,1.01414 z" />
    </g>
    <g
       id="g1747"
       style="fill:#000000;fill-opacity:1;stroke-linejoin:miter">
      <path
         inkscape:connector-curvature="0"
         id="path1745"
         d="m 348.38858,595.8894 c 1.47202,0 3.03537,0.38434 4.70288,1.419 4.05087,2.5137 8.71369,8.9379 13.19418,15.0819 0.18454,0.2531 0.22193,0.5685 0.12816,0.844 h 0.004 c 0.2749,0.13826 0.47475,0.41054 0.50607,0.73945 0.35514,3.73515 0.70448,7.40685 2.59262,13.03575 0.74046,2.2075 1.71836,4.7184 2.75936,7.39077 1.15324,2.96043 2.38093,6.11157 3.41807,9.20349 0.42483,1.26654 0.81893,2.52664 1.16397,3.76379 1.94761,6.98371 2.29813,13.12268 2.64566,19.16462 0.0203,0.35343 -0.16058,0.67199 -0.44332,0.84399 h 0.004 l -0.14006,1.23314 c -0.009,0.0828 -0.03,0.16395 -0.0611,0.2412 -3.45848,8.58474 -6.8916,17.10946 -9.14753,25.18746 -2.25537,8.07604 -3.33077,15.69739 -3.4216,20.77434 -0.0898,5.01607 0.77938,7.53926 1.66897,10.13185 0.0192,0.056 0.0328,0.11265 0.0409,0.16925 h 0.004 c 0.0898,0.10126 0.15872,0.2238 0.19787,0.36286 0.13847,0.49184 -0.14798,1.00274 -0.6398,1.14124 l -7.78903,2.19286 c -0.0564,0.0159 -0.1142,0.0264 -0.17258,0.0313 -16.9689,1.4381 -33.4797,2.8728 -43.09368,10.4456 -9.56302,7.5327 -12.43808,21.2757 -15.3722,35.5243 -0.004,0.02 -0.009,0.0397 -0.0142,0.0591 h 0.003 c 2.32788,12.0064 4.68549,23.6278 9.62619,30.9577 4.58268,6.79874 11.44037,9.9553 18.74224,12.87405 l -1.44902,-3.31732 c -0.20453,-0.46813 0.009,-1.01349 0.47744,-1.21803 0.12055,-0.0527 0.24622,-0.0776 0.36988,-0.0776 0.3566,0 0.69638,0.20736 0.84823,0.55499 l 0.0812,0.18591 c 0.176,-0.21118 0.43808,-0.3327 0.71096,-0.3327 0.11533,0 0.23255,0.0217 0.34605,0.0675 4.75895,1.92125 9.38045,3.78185 13.30078,4.419 1.20401,0.19568 2.34491,0.27605 3.44681,0.27605 2.44113,0 4.69076,-0.3946 7.01096,-0.80455 0.0535,-0.009 0.10735,-0.0141 0.16097,-0.0141 0.18848,0 0.37393,0.0576 0.53046,0.16715 5.13557,3.5944 10.25989,7.1808 13.00561,9.0359 2.76606,1.8687 3.04569,1.9273 3.28888,2.011 0.38478,0.1324 0.63788,0.5006 0.62363,0.9073 -0.0143,0.4066 -0.29257,0.75615 -0.68565,0.86126 l -7.1579,1.91351 h 0.004 c -4.14429,1.32293 -8.21668,2.62593 -11.70737,4.23358 -3.31793,1.52802 -6.12638,3.33915 -8.96124,5.19975 h 0.003 c 0.007,0.0324 0.012,0.0653 0.0155,0.099 0.0518,0.50824 -0.31827,0.96234 -0.82653,1.01414 -6.44523,0.6568 -12.90208,1.3149 -20.90843,1.8935 -4.22842,0.3056 -8.92027,0.59205 -13.63269,0.59205 -4.1871,0 -8.39048,-0.22615 -12.29953,-0.86578 -3.11667,-0.51001 -6.03537,-1.28127 -8.92055,-2.04291 -2.92503,-0.77216 -5.81843,-1.53522 -8.92625,-2.04382 -2.02881,-0.33197 -4.14575,-0.55474 -6.41145,-0.59809 -0.27926,-0.005 -0.5608,-0.008 -0.84465,-0.008 -8.74245,0 -19.63224,2.49724 -30.74725,5.12921 h 0.002 c -0.0572,0.0875 -0.13034,0.16669 -0.21875,0.23309 -0.16653,0.12514 -0.36157,0.18554 -0.55499,0.18554 -0.1622,0 -0.32326,-0.0425 -0.46541,-0.125 h -0.002 c -0.0275,0.007 -0.055,0.0131 -0.0825,0.0196 -0.0717,0.017 -0.14354,0.0251 -0.2142,0.0251 -0.41893,0 -0.79852,-0.2865 -0.8994,-0.71192 -0.0571,-0.24103 -0.0143,-0.48233 0.10162,-0.68053 h 0.002 c -2.64781,-3.6379 -4.92787,-7.8403 -2.57824,-16.7005 0.78654,-2.9661 2.09378,-6.46296 3.44516,-10.08076 1.51168,-4.047 3.0867,-8.26584 4.13403,-12.21534 1.05055,-3.9615 1.53213,-7.52123 0.96657,-10.2923 -1.59821,-7.83025 -11.8277,-10.2338 -23.32475,-12.67266 h -0.002 c -0.0518,0.009 -0.10362,0.0132 -0.15499,0.0132 -0.20962,0 -0.41159,-0.0718 -0.57327,-0.1992 h 0.002 c -0.35466,-0.1796 -0.56318,-0.5748 -0.49302,-0.98174 h 0.002 l -26.80937,-79.73493 c -0.0332,-0.0986 -0.0495,-0.20213 -0.0482,-0.30609 h -1e-5 l 4.2e-4,-0.0349 2e-5,-2e-4 c 0.0698,-5.62086 0.13212,-11.1188 -4.60013,-19.6367 -4.6853,-8.4334 -14.03824,-19.7793 -23.59711,-31.3001 h -0.002 c -0.029,0.003 -0.0584,0.004 -0.0881,0.004 -0.0131,0 -0.0264,-3e-4 -0.0396,-8e-4 -0.51046,-0.0216 -0.90681,-0.45297 -0.88525,-0.9634 0.10437,-2.4698 0.19351,-5.4136 3.08043,-7.6146 1.36426,-1.0402 3.31099,-1.8789 5.45537,-2.612 2.20295,-0.7532 4.7119,-1.4262 7.1812,-2.0889 0.0803,-0.0215 0.16101,-0.0318 0.24038,-0.0318 0.1476,0 0.29068,0.0356 0.41846,0.10058 13.5956,-4.87513 27.14938,-9.76343 41.28303,-16.73089 9.39103,-4.6294 19.04667,-10.18097 26.83611,-14.65984 h -2e-5 c 4.10708,-2.3615 7.704,-4.4299 10.45795,-5.8989 4.58579,-2.446 7.0444,-3.36924 8.58936,-3.36924 0.50949,0 0.91957,0.1004 1.27387,0.27964 0.3781,0.19137 0.6446,0.45284 0.8102,0.61055 0.0741,0.0706 0.13388,0.15045 0.17935,0.23609 h 0.003 c 14.13007,5.83586 27.99967,11.49516 39.97968,11.49516 0.0362,0 0.0724,-4e-5 0.10855,-1.7e-4 12.07727,-0.0345 22.31488,-5.85876 32.80044,-11.84716 0.14472,-0.0827 0.30236,-0.12197 0.45792,-0.12197 0.0126,0 0.0253,3e-4 0.0379,8e-4 1.80757,-0.8142 3.77121,-1.6419 5.93155,-1.6419 z M 291.38715,108.82416 c -0.0903,0 -0.18448,0.0431 -0.3064,0.11183 -0.69418,0.39124 -1.51233,1.47402 -2.49207,2.86732 h 0.003 c -0.95221,14.34217 -1.9505,28.87291 -6.42062,39.11184 -4.39083,10.05729 -12.09677,15.92401 -19.7193,21.50428 h 0.003 c -0.0526,0.21448 -0.18175,0.41098 -0.37887,0.54477 -7.52155,5.10544 -13.6922,9.49913 -11.94255,14.61206 0.0776,0.2267 0.17177,0.45894 0.28264,0.69739 v -1e-5 c 1.1026,2.37152 3.65779,4.99838 6.72198,8.1269 3.79895,3.87868 8.2543,8.41416 10.74539,13.7721 4.66226,10.02786 2.35849,22.74144 0.16541,35.032 -0.0119,0.0665 -0.0306,0.13002 -0.0552,0.19003 h 0.003 c 0.0132,0.10281 0.009,0.20961 -0.0143,0.31666 -4.97818,22.62807 -9.91122,45.08262 -9.08544,63.33841 0.82312,18.19806 7.37606,32.26416 14.01501,46.49439 0.12495,0.26773 0.11065,0.56473 -0.0131,0.80937 h 0.003 c 0.0223,0.1827 -0.01,0.37383 -0.10321,0.54836 l -1.32879,2.47794 5.99516,20.03075 h 0.003 c 0.0427,0.091 0.0708,0.18952 0.0819,0.29212 h 0.003 l 0.23483,0.78457 c 0.13339,0.44574 -0.0852,0.91306 -0.49493,1.10366 h 0.003 c -3.17423,21.01036 -6.2877,41.87706 -7.3588,59.16737 -1.0979,17.72283 -0.05,31.69836 1.00274,45.72913 0.0333,0.44305 -0.25137,0.83667 -0.66122,0.95687 h 0.003 c -1.785,5.03693 -3.5219,10.04728 -4.71487,15.52113 -1.20691,5.5379 -1.86073,11.56616 -2.49563,17.67205 h 0.003 c 0.13852,0.31485 0.0874,0.66835 -0.1073,0.92785 h 0.003 c -0.0919,0.4236 -0.46881,0.7279 -0.9028,0.7279 -0.0319,0 -0.0642,-0.002 -0.0966,-0.005 -0.0628,-0.006 -0.1235,-0.0192 -0.18152,-0.0373 h -0.003 c -36.29938,17.5741 -72.42613,35.09545 -96.41508,50.51832 -24.12404,15.50976 -35.96032,28.89147 -47.84763,42.33129 -0.16671,0.18848 -0.39313,0.29279 -0.62572,0.30974 h 10e-4 c -2.36046,3.1418 -4.57878,6.17354 -5.84333,8.942 -1.32783,2.90683 -1.6104,5.5495 -1.30718,9.3567 0.30562,3.83755 1.19777,8.7655 2.10495,13.76406 h 1e-5 l 0.008,0.0441 c 0.0479,0.2641 -0.0213,0.5223 -0.1708,0.7212 h 0.001 c 0.49522,3.0148 1.00975,6.03044 1.70941,9.2083 0.7962,3.6163 1.81679,7.36566 3.7159,10.84637 0.8362,1.53253 1.85192,3.02983 2.97102,4.55503 0.70025,0.9543 1.43445,1.9109 2.18888,2.8939 0.77655,1.0117 1.57311,2.0495 2.35834,3.1196 2.76054,3.7623 5.36973,7.9095 7.95748,12.022 0.12768,0.20286 0.16683,0.4363 0.12775,0.6551 h 10e-4 c 5.09587,10.141 10.11269,20.13334 13.25749,26.5953 0.39519,0.812 0.75203,1.5502 1.09825,2.26625 2.5288,5.23055 3.99985,8.27435 8.40758,15.26075 1.81166,2.8715 4.1179,6.40654 6.59157,10.1982 4.37522,6.70627 9.27347,14.21396 12.83114,20.19595 5.32262,8.94971 7.64934,14.49195 9.82579,19.84985 h 0.002 c 0.30892,0.0845 0.56535,0.3273 0.65194,0.65943 2.43646,9.3479 4.8716,18.69074 6.18426,23.62427 1.31112,4.9278 1.49483,5.4262 1.6687,5.9059 h 1e-5 l 0.001,0.004 c 0.005,0.0147 0.01,0.0282 0.0141,0.0419 3.50582,11.2794 6.97454,22.42604 11.16253,30.16023 2.30857,4.26343 4.84295,7.50037 6.78061,9.97363 1.48871,1.90014 2.812,3.55574 3.1539,4.84684 0.64978,2.45376 -1.8168,3.38 -3.59955,3.98434 -0.39248,0.13306 -0.80389,0.26453 -1.22932,0.40066 h 10e-6 c -0.46548,0.14884 -0.94995,0.3039 -1.44206,0.4707 -0.48334,0.1638 -0.97839,0.3406 -1.47294,0.5346 -4.07047,1.59685 -8.2305,4.3854 -9.15998,5.9841 -0.0444,0.0764 -0.0776,0.1446 -0.10182,0.2042 h 2e-5 c -0.24735,0.60777 0.34175,1.0933 2.9185,2.14775 h 0.002 l 8.61358,1.41961 13.86637,-0.72596 c 0.016,-8.4e-4 0.0321,-10e-4 0.0481,-10e-4 0.0676,0 0.13494,0.007 0.20096,0.022 6.19192,1.3766 12.3474,2.7466 24.5909,2.88863 0.72937,0.008 1.48025,0.0126 2.25139,0.0126 12.18097,0 29.41379,-1.0228 46.71268,-2.05267 l 0.18341,-0.0109 c 0.0187,-10e-4 0.0374,-0.002 0.0559,-0.002 0.18085,0 0.35083,0.0525 0.49447,0.14374 h 0.003 l 97.30508,6.1735 c 0.29767,0.0189 0.5535,0.17654 0.70847,0.40597 h 0.004 c 0.50398,0.003 1.00485,0.006 1.50186,0.006 5.2778,0 10.11804,-0.25527 13.56647,-2.2065 3.96835,-2.2455 6.21701,-6.8205 8.61465,-11.77655 0.0614,-0.12701 0.14807,-0.23358 0.25104,-0.31671 h 0.004 c 3.77475,-17.04114 7.50018,-33.99534 8.33112,-51.08521 0.83532,-17.17973 -1.25312,-34.52447 -3.36747,-51.96133 h -7e-5 c -0.42028,-0.2905 -0.52553,-0.86673 -0.23503,-1.28696 1.87411,-2.71144 3.67569,-5.32471 4.86823,-8.34637 1.19613,-3.0307 1.7935,-6.5058 2.40783,-10.10177 0.077,-0.4509 0.46829,-0.7695 0.91079,-0.7695 0.0517,0 0.10416,0.004 0.1569,0.0134 0.0728,0.0124 0.14224,0.0331 0.20738,0.0608 6.42985,-7.01104 12.7708,-14.08135 18.42988,-23.3563 5.98056,-9.8018 11.21262,-22.0854 16.47828,-34.453 0.0638,-0.14986 0.16241,-0.2741 0.2824,-0.3675 h 0.005 c 2.36661,-8.6059 4.6164,-17.2405 4.16674,-29.6491 -0.45635,-12.59377 -3.6907,-29.0791 -7.01168,-45.7571 h 0.005 c -0.21823,-0.1538 -0.3685,-0.4005 -0.38992,-0.68756 -0.60458,-8.10134 -1.2049,-15.96197 -5.86588,-23.58514 -4.64822,-7.6023 -13.35656,-15.021 -22.28064,-22.57056 h 0.004 c -0.10478,-0.0417 -0.20362,-0.10334 -0.2908,-0.18518 -11.93934,-11.20586 -23.79204,-22.32536 -37.539,-30.4704 -13.7483,-8.14586 -29.4225,-13.33546 -45.21416,-18.55996 -0.30172,-0.0998 -0.5176,-0.34006 -0.59904,-0.6242 h 0.004 c -0.0712,-0.1405 -0.10742,-0.3011 -0.0979,-0.46977 1.02752,-18.11331 2.03572,-36.03201 -1.51562,-50.59163 -0.81088,-3.32448 -1.86188,-6.4809 -3.06119,-9.523 -2.05927,-5.22332 -4.54864,-10.09356 -7.01385,-14.91506 -2.36536,-4.62624 -4.71125,-9.21277 -6.58197,-13.95794 -4.94935,-12.55393 -6.54728,-26.1509 -8.13345,-39.60325 -0.0305,-0.25882 0.0489,-0.50528 0.20147,-0.69257 h 0.003 c 0.3717,-4.31796 0.65716,-8.61462 -0.59806,-14.38118 -1.33248,-6.1214 -4.40375,-13.91673 -5.93036,-17.58308 -0.41852,-1.0051 -0.70965,-1.67197 -0.90869,-2.10172 h 0.003 c -0.0884,-0.0332 -0.17249,-0.0803 -0.24904,-0.141 l -1.4483,-1.1481 h -0.003 c -0.0434,0.006 -0.0866,0.009 -0.12937,0.009 -0.42489,0 -0.80762,-0.29456 -0.90265,-0.72666 -0.017,-0.0774 -0.034,-0.15488 -0.0511,-0.2323 h 0.003 c -0.0828,-0.15036 -0.12163,-0.32031 -0.11397,-0.48958 h 0.003 c -1.80734,-8.2207 -3.61093,-16.45723 -5.1384,-24.59925 -1.57254,-8.38221 -2.85223,-16.66255 -4.12948,-24.92652 l -10e-4,-0.01 c -3.31067,-23.04929 -6.62495,-46.12293 -8.19607,-59.92357 -1.47815,-12.98349 -1.41754,-17.79514 -1.25971,-22.10784 h 0.003 c -0.12153,-0.19455 -0.17133,-0.43435 -0.12137,-0.67677 2.49604,-12.10883 4.98066,-24.16599 6.27954,-37.56905 1.30085,-13.42343 1.4074,-28.14898 -0.11462,-37.65162 -0.73758,-4.60499 -1.85852,-7.98418 -3.06521,-10.83815 -0.65751,-1.55507 -1.34195,-2.95786 -2.01517,-4.33727 -0.6283,-1.28727 -1.24957,-2.55967 -1.81137,-3.88835 v 2e-5 c -0.98197,-2.32248 -1.77417,-4.79827 -2.46826,-6.9657 -0.94397,-2.94771 -1.65223,-5.09763 -2.3505,-5.93847 v -10e-6 c -0.16667,-0.20066 -0.28157,-0.2794 -0.40362,-0.2794 z" />
    </g>
  </g>
</svg>
