<?xml version="1.0" encoding="UTF-8" standalone="no"?>
<svg
   xmlns:dc="http://purl.org/dc/elements/1.1/"
   xmlns:cc="http://creativecommons.org/ns#"
   xmlns:rdf="http://www.w3.org/1999/02/22-rdf-syntax-ns#"
   xmlns:svg="http://www.w3.org/2000/svg"
   xmlns="http://www.w3.org/2000/svg"
   xmlns:sodipodi="http://sodipodi.sourceforge.net/DTD/sodipodi-0.dtd"
   xmlns:inkscape="http://www.inkscape.org/namespaces/inkscape"
   sodipodi:docname="seated_heart.svg"
   inkscape:version="1.0rc1 (09960d6, 2020-04-09)"
   id="svg2181"
   version="1.1"
   viewBox="0 0 14.552084 14.552084"
   height="55"
   width="55">
  <defs
     id="defs2175" />
  <sodipodi:namedview
     inkscape:window-maximized="0"
     inkscape:window-y="23"
     inkscape:window-x="0"
     inkscape:window-height="444"
     inkscape:window-width="709"
     units="px"
     showgrid="false"
     inkscape:document-rotation="0"
     inkscape:current-layer="layer1"
     inkscape:document-units="px"
     inkscape:cy="26.567797"
     inkscape:cx="67.817797"
     inkscape:zoom="4.2909091"
     inkscape:pageshadow="2"
     inkscape:pageopacity="0.0"
     borderopacity="1.0"
     bordercolor="#666666"
     pagecolor="#ffffff"
     id="base" />
  <metadata
     id="metadata2178">
    <rdf:RDF>
      <cc:Work
         rdf:about="">
        <dc:format>image/svg+xml</dc:format>
        <dc:type
           rdf:resource="http://purl.org/dc/dcmitype/StillImage" />
        <dc:title></dc:title>
      </cc:Work>
    </rdf:RDF>
  </metadata>
  <g
     id="layer1"
     inkscape:groupmode="layer"
     inkscape:label="Layer 1">
    <path
       style="fill:#000000;fill-opacity:1;stroke:none"
       d="M 7.133164,5.5562521 C 6.9308446,5.5559344 6.8217932,5.5972732 6.6899489,5.7340119 6.521177,5.9090275 6.4461691,5.9402797 6.4336716,6.0965579 6.4211734,6.2528363 6.35241,6.4966135 6.35241,6.4966135 l -0.0125,0.1250139 0.043755,0.037504 c 0,0 0,0.07501 0.00625,0.1187635 0.00625,0.043753 0.050006,0.2062853 0.075009,0.2187826 0.025004,0.012498 0.08126,-0.018753 0.093763,0.043757 0.012502,0.062509 0.037504,0.1250137 0.043755,0.1750155 0.00625,0.050002 0.018753,0.056254 0.018753,0.1187618 0,0.062508 0.068759,0.1062644 0.025002,0.2687895 -0.04376,0.1625256 -0.2000326,0.350049 -0.2500399,0.400056 -0.050008,0.050007 -0.087512,0.062508 -0.1187663,0.081259 -0.031254,0.018751 -0.1437682,0.056257 -0.1312673,0.056257 0,0 -0.1187645,0.025004 -0.2500373,0.031254 C 5.7648151,8.1780779 5.7398148,8.1155717 5.6147981,8.2343353 5.4897812,8.3530987 5.4772801,8.3656013 5.4272659,8.4843701 5.3772514,8.6031388 5.2022411,8.9781822 5.1397362,9.2157023 5.0772311,9.4532221 5.0147193,9.5282413 4.9709641,9.6282552 4.9272086,9.7282692 4.8459473,9.9345367 4.8396967,9.9845437 c -0.00625,0.05001 -0.1125141,0.4875543 -0.025003,0.6313183 0.08751,0.143763 0.018753,0.200027 0.3187818,0.100012 0.3000289,-0.100016 0.7938616,-0.287527 0.8188565,-0.300042 0.024995,-0.01252 0.031254,0.150017 0.031254,0.19377 0,0.04375 0.012502,0.118766 0.012502,0.118766 0,0 -0.031254,0.0375 -0.012502,0.08751 0.018752,0.05 0,0.112515 0,0.112515 0,0 0.00625,0.025 -0.00625,0.08126 -0.012502,0.05626 -0.037504,0.106263 -0.07501,0.256274 -0.0375,0.150013 -0.1000106,0.112514 -0.1000106,0.200028 0,0.08752 -0.037504,0.237538 -0.031252,0.300043 0.00625,0.0625 -0.043755,0.125014 -0.056258,0.175015 -0.012502,0.05 -0.018753,0.112513 -0.018753,0.112513 0,0 -0.08126,0.0125 -0.1187646,0.01875 -0.037504,0.0062 -0.112516,-0.0125 -0.1812747,-0.0062 -0.068759,0.0062 -0.087512,-0.03125 -0.1250167,-0.01875 -0.037504,0.0125 -0.07501,0 -0.081262,0.0375 -0.00625,0.03751 0.081262,0.03125 0.043756,0.05626 -0.037504,0.025 -0.043756,0.01875 -0.1125158,0.01875 -0.068759,0 -0.7813465,0.112513 -0.9001164,0.331294 -0.1187697,0.218781 -0.1500206,0.375043 -0.1062636,0.468799 0.043756,0.09376 0.1187646,0.212526 0.1625198,0.237538 0.043755,0.02501 0.1062653,0.07501 0.2000298,0.112513 0.093764,0.03751 0.1000131,0.06876 0.2062696,0.06251 0.1062568,-0.0062 0.081262,-0.01875 0.1625217,-0.0062 0.08126,0.0125 0.3750469,0.0375 0.5250692,0.0125 0.1500226,-0.025 0.3312971,-0.06251 0.412557,-0.08751 0.08126,-0.025 0.6063292,-0.175015 0.7500941,-0.193771 0.1437646,-0.01875 0.2312822,-0.06876 0.2312822,-0.06876 0,0 0.1312673,-0.0063 0.2437795,0.03125 0.1125125,0.0375 0.3625497,0.06876 0.431312,0.08126 0.068763,0.0125 1.0438814,0.206269 1.2126585,0.243778 0.168777,0.03751 0.3688073,0.05001 0.4938172,0.04376 0.1250097,-0.0062 0.6750917,0.118766 0.7500941,0.03751 0.075002,-0.08126 0.1187657,-0.08751 0.2250247,-0.125014 0.106258,-0.0375 0.125016,0.03125 0.187532,-0.08751 0.06251,-0.118766 0.150019,-0.237539 0.137517,-0.31878 -0.0125,-0.08124 0.06251,-0.218783 -0.125015,-0.362547 -0.187523,-0.143866 -0.5563209,-0.343894 -0.6750911,-0.362649 -0.1187698,-0.01875 -0.1625216,-0.03125 -0.1625216,-0.06251 0,-0.03125 0.050008,-0.05625 0.025004,-0.08126 -0.025004,-0.025 0,-0.05625 -0.037505,-0.06251 -0.037506,-0.0063 -0.1250155,-0.0063 -0.20627,-0.025 -0.081255,-0.01875 -0.1250152,-0.025 -0.1687721,-0.05001 -0.043757,-0.025 -0.093763,-0.05626 -0.218785,-0.025 -0.125022,0.03125 -0.3625493,0.162518 -0.4000593,0.118765 -0.03751,-0.04375 -0.043756,-0.118765 -0.087512,-0.200028 -0.043755,-0.08126 -0.08751,-0.212525 -0.08751,-0.262532 0,-0.05001 -0.050008,-0.218783 -0.037504,-0.275029 0.012502,-0.05625 -0.056259,-0.131267 -0.1250172,-0.212526 -0.06876,-0.08125 -0.1250174,-0.137512 -0.093763,-0.156263 0.031254,-0.01875 0.043757,-0.04375 0.031254,-0.125016 -0.012502,-0.08126 0.00625,-0.106262 0.00625,-0.200027 0,-0.09376 0.012502,-0.181273 0.018753,-0.225023 0.00625,-0.04375 0.018751,-0.08751 0.018751,-0.08751 0,0 0.2687924,0.23128 0.8688642,0.337534 0,0 0.1562707,0.04376 0.2312819,0.07501 0.075011,0.03125 0.1062639,0.09376 0.1500186,0.06876 0.043754,-0.025 0.1250152,-0.19377 0.1437687,-0.225022 C 9.534045,10.50335 9.477786,10.178317 9.459034,10.115813 9.4402814,10.05331 9.2777603,9.7095185 9.1214979,9.3782246 8.9652358,9.0469306 8.7902008,8.5968857 8.727696,8.5156263 8.6651909,8.4343672 8.6214307,8.2655916 8.4526639,8.2093445 8.283897,8.1530978 8.1401216,8.1593377 8.0651192,8.1655881 7.9901168,8.1718386 7.9213509,8.1968439 7.8963474,8.1280837 7.8713435,8.059324 7.777581,7.9968197 7.72133,7.9780666 7.6650789,7.9593134 7.4525377,7.7967934 7.4525377,7.7342893 c 0,-0.062505 -0.031254,-0.2500349 -0.012501,-0.2750297 0.018753,-0.024995 0.1062635,-0.1750155 0.1187663,-0.2937843 0.012504,-0.1187686 0.1187664,-0.100012 0.1187664,-0.100012 0,0 0.050006,-0.075009 0.062507,-0.1125149 0.012502,-0.037506 0.043759,-0.1937707 0.05626,-0.2187828 0.0125,-0.025012 0.031254,-0.081259 -0.018753,-0.1250158 -0.050009,-0.043756 0.07501,-0.2437772 0.050006,-0.3500485 C 7.8025858,6.152831 7.6650678,5.5902747 7.3275151,5.5652625 7.2536766,5.5597929 7.1898015,5.5563814 7.1331487,5.5562788 Z m 1.2507454,3.6843643 c 0,0.018753 0.031254,0.1312661 0.087512,0.2375374 0.056258,0.1062714 0.1562692,0.2937839 0.168772,0.3562889 0.012502,0.0625 0.1250165,0.131266 0.087511,0.131266 -0.037506,0 -0.1812747,-0.01875 -0.3062844,-0.06251 -0.1250099,-0.04376 -0.2250249,-0.05625 -0.2250249,-0.05625 0,0 0.00625,-0.106263 0.018753,-0.1687724 0.012504,-0.062509 0,-0.1625182 0,-0.2125252 0,-0.050007 0.025003,-0.043755 0.07501,-0.062508 0.050006,-0.018753 0.093762,-0.1625185 0.093762,-0.1625185 z M 5.7459778,9.3906358 c 0,0 0.08751,0.050005 0.1125142,0.087509 0.025003,0.037504 0.00625,0.1562696 0.00625,0.2062679 0,0.049998 0.037506,0.16252 0.018753,0.187513 -0.018753,0.02499 -0.050006,0.05626 -0.1187663,0.06876 -0.068761,0.0125 -0.2687921,0.0375 -0.2687921,0.0375 l 0.250037,-0.5875685 z"
       fill="#003466"
       stroke="#000000"
       stroke-width="0.00625084"
       id="path2136"
       inkscape:connector-curvature="0" />
  </g>
</svg>
