<?xml version="1.0" encoding="UTF-8" standalone="no"?>
<svg
   xmlns:dc="http://purl.org/dc/elements/1.1/"
   xmlns:cc="http://creativecommons.org/ns#"
   xmlns:rdf="http://www.w3.org/1999/02/22-rdf-syntax-ns#"
   xmlns:svg="http://www.w3.org/2000/svg"
   xmlns="http://www.w3.org/2000/svg"
   xmlns:sodipodi="http://sodipodi.sourceforge.net/DTD/sodipodi-0.dtd"
   xmlns:inkscape="http://www.inkscape.org/namespaces/inkscape"
   sodipodi:docname="side_plank.svg"
   inkscape:version="1.0rc1 (09960d6, 2020-04-09)"
   id="svg2195"
   version="1.1"
   viewBox="0 0 14.552084 14.552084"
   height="55"
   width="55">
  <defs
     id="defs2189" />
  <sodipodi:namedview
     units="px"
     inkscape:window-maximized="0"
     inkscape:window-y="294"
     inkscape:window-x="0"
     inkscape:window-height="678"
     inkscape:window-width="1250"
     showgrid="false"
     inkscape:document-rotation="0"
     inkscape:current-layer="layer1"
     inkscape:document-units="px"
     inkscape:cy="27.5"
     inkscape:cx="-17.362288"
     inkscape:zoom="4.2909091"
     inkscape:pageshadow="2"
     inkscape:pageopacity="0.0"
     borderopacity="1.0"
     bordercolor="#666666"
     pagecolor="#ffffff"
     id="base" />
  <metadata
     id="metadata2192">
    <rdf:RDF>
      <cc:Work
         rdf:about="">
        <dc:format>image/svg+xml</dc:format>
        <dc:type
           rdf:resource="http://purl.org/dc/dcmitype/StillImage" />
        <dc:title></dc:title>
      </cc:Work>
    </rdf:RDF>
  </metadata>
  <g
     id="layer1"
     inkscape:groupmode="layer"
     inkscape:label="Layer 1">
    <path
       style="stroke-width:0.0244344;fill:#000000;fill-opacity:1"
       d="m 4.5967401,3.1162716 c -0.025688,-6.834e-4 -0.035545,0.037971 -0.035545,0.037971 0,0 0.00218,0.010765 0.00218,0.036622 0,0.025857 -0.00218,0.1034092 0,0.1464971 0.00218,0.043088 0.010774,0.1615755 0.015079,0.2046632 0.00431,0.043088 0.00647,0.1357239 0.00647,0.1357239 0,0 -0.032313,0.00862 -0.030159,-0.00215 0.00215,-0.010774 -0.023699,-0.1701937 -0.025854,-0.1874299 -0.00215,-0.017236 -0.01508,-0.062477 -0.017244,-0.075403 -0.00215,-0.012927 -0.017244,-0.073247 -0.019385,-0.084018 -0.00215,-0.010771 0.012915,-0.096946 -0.028006,-0.1228004 -0.040933,-0.025854 -0.060326,0.023699 -0.060326,0.023699 0,0 0.012937,0.1163351 0.012937,0.1335687 0,0.017235 0.00428,0.064631 0.025852,0.2369804 0.02157,0.1723488 -0.036623,0.3640863 -0.036623,0.3640863 0,0 -0.040933,0.010765 -0.036621,-0.00862 0.00431,-0.019389 -0.077065,-0.1846466 -0.1532317,-0.2364405 -0.076168,-0.051794 -0.1217897,-0.00607 -0.1096015,0.00915 0.012188,0.015222 0.1219555,0.1248529 0.1524207,0.2741428 0.030465,0.1492898 0.063848,0.1887491 0.130878,0.2771042 0.067031,0.088355 0.079371,0.1920015 0.091559,0.2407482 0.012179,0.048746 -0.055034,0.6520417 -0.06113,0.6977415 -0.0061,0.0457 -0.1156466,0.6123849 -0.082135,0.8256565 0.033511,0.2132722 0.00917,0.3199013 -0.030433,0.6702723 C 4.2682206,7.0644121 4.1158239,7.33261 4.1158239,7.33261 c -5.678e-4,0.00112 -0.069482,0.1885069 -0.093179,0.2574466 -0.023696,0.068939 -0.015079,0.2822207 -0.023696,0.3209984 -0.00862,0.038779 -0.017237,0.1206426 -0.038778,0.2477511 -0.021544,0.1271074 -0.105569,0.2865286 -0.1184925,0.3209985 -0.012922,0.034469 -0.025854,0.079709 -0.056014,0.1184902 -0.030159,0.038781 -0.030159,0.025852 -0.096944,0.047395 -0.066785,0.021549 -0.1486528,-0.038779 -0.1745072,-0.04955 -0.025853,-0.010774 -0.012922,-0.1034108 -0.012922,-0.1960449 0,-0.092637 -0.051706,-0.1055633 -0.051706,-0.1055633 0,0 -0.092639,-0.00431 -0.1141805,-0.00431 -0.021542,0 -0.07756,-0.012915 -0.081866,-0.028006 -0.00431,-0.015079 -0.047395,0 -0.047395,0 0,0 -0.021546,0.00431 -0.028009,-0.00863 -0.00646,-0.012938 -0.053857,-0.021549 -0.053857,-0.021549 0,0 -0.00647,0.015079 -0.025852,0.023699 -0.019385,0.00861 -0.056014,-0.00215 -0.090484,-0.00215 -0.034469,0 -0.032317,-0.015079 -0.0711,-0.030162 -0.038782,-0.015079 -0.1292594,0.06894 -0.1292594,0.06894 0,0 -0.017237,-0.00647 -0.028004,-0.010774 -0.010767,-0.00431 -0.047398,-0.015079 -0.073248,-0.019384 -0.025849,-0.00431 -0.079715,-0.00647 -0.1012572,0.00431 -0.021542,0.010774 -0.04524,0.034469 -0.05386,0.036626 -0.00862,0.00215 -0.088332,0.00215 -0.1508057,0.00431 -0.062475,0.00215 -0.1788128,0.11849 -0.2305187,0.1400319 C 2.1181827,8.4690325 2.1117197,8.4733365 2.04709,8.6090618 1.98246,8.7447863 1.978153,8.9235974 1.988921,9.0657841 1.999689,9.207971 2.1957405,9.3954009 2.2022036,9.4471064 c 0.00647,0.051704 0.1723495,0.086174 0.1852803,0.1163353 0.012931,0.030162 -0.1034147,0.1852726 -0.114183,0.1960449 -0.010767,0.010774 -0.00862,0.047395 -0.00429,0.064631 0.00433,0.017244 -0.023697,0.064629 -0.030159,0.1120255 -0.00646,0.047395 -0.025852,0.1486519 -0.03447,0.1766579 -0.00862,0.02801 -0.00862,0.1745 0,0.226204 0.00862,0.0517 0.062475,0.34039 0.068942,0.377015 0.00647,0.03663 0.071093,0.06032 0.03662,0.297299 -0.029767,0.204652 0.049556,0.393955 0.066249,0.437874 -0.010653,-0.05578 -0.033934,-0.340314 -0.033934,-0.356009 0,-0.01725 0.028009,-0.06032 0.034472,-0.0237 0.00646,0.03663 0.012922,0.103409 0.00428,0.172347 -0.00863,0.06894 0.017236,0.219742 0.017236,0.219742 0,0 0.00867,-0.157451 0.00943,-0.206547 0.00443,0.03553 0.025047,0.116067 0.025047,0.116067 0,0 0.00218,-0.0711 0.00218,-0.07971 0,-0.0086 0.030157,-0.02801 0.028002,0.0086 -0.00215,0.03663 0.017236,0.07756 0.017236,0.07756 0,0 0.00862,-0.07541 0.00862,-0.09048 0,-0.01507 0.036625,-0.06463 0.03447,-0.01507 -0.00215,0.04955 0.028009,0.131415 0.028009,0.131415 0,0 0.010765,-0.120643 0.010765,-0.148649 0,-0.02801 0.028009,-0.01938 0.032314,0.01508 0.00431,0.03447 0.021549,0.09048 0.025854,0.05816 0.00431,-0.03232 0.023697,-0.170193 0.023697,-0.142187 0,0.02801 0.077561,0.05386 0.068942,0.0474 -0.00862,-0.0064 -0.090484,-0.206817 -0.053864,-0.135723 0.03662,0.0711 0.1701993,0.135725 0.1508104,0.122798 -0.019389,-0.01292 -0.148653,-0.202511 -0.088329,-0.127105 0.060325,0.07541 0.2046644,0.0474 0.1357221,0.0474 -0.068942,0 -0.1378773,-0.08833 -0.1378773,-0.08833 0,0 -0.010464,-0.04317 -0.012657,-0.05117 0.00392,0.01051 0.057788,0.01869 0.051432,0.01024 -0.00636,-0.0085 -0.012922,-0.01507 -0.01508,-0.05816 -0.00215,-0.04309 -0.025857,-0.445953 -0.012925,-0.273604 0.012931,0.172347 0.219743,0.299455 0.1486505,0.243442 -0.071098,-0.05602 -0.1572735,-0.42226 -0.1378868,-0.381327 0.019387,0.04094 0.081866,0.09479 0.081866,0.09479 0,0 -0.064632,-0.105566 -0.066782,-0.129265 -0.00216,-0.0237 -0.010779,-0.159425 -0.01293,-0.185278 -0.00166,-0.02001 -0.045512,-0.130661 -0.058438,-0.162116 0.024655,0.04003 0.1990102,0.116067 0.1489216,0.09102 -0.0366,-0.01832 -0.1017463,-0.116584 -0.1316789,-0.160776 0.040178,0.03751 0.1424589,0.09183 0.1424589,0.09183 0,0 -0.049551,-0.03663 -0.1206437,-0.112028 C 2.6524907,9.9964676 2.559852,9.6797766 2.5620024,9.6194552 c 0.00215,-0.060322 0.017236,-0.038779 0.032314,-0.040933 0.01508,-0.00215 0.030164,0.030162 0.030164,0.038779 0,0.00861 0.040932,-0.012915 0.066782,-0.00861 0.025849,0.00431 0.081866,0.021549 0.127109,0.00431 0.045243,-0.017244 0.049551,-0.032313 0.290838,-0.025852 0.2412919,0.00647 0.2154378,-0.2434412 0.2154378,-0.2434412 0,0 0.012929,-0.00647 0.040932,-0.00863 0.028004,-0.00215 0.071093,-0.021549 0.092639,-0.030162 0.018849,-0.00755 0.1235881,0.01943 0.1335721,0.023431 0.022209,0.00266 0.1450903,0.020947 0.1615763,0.028276 0.019387,0.00863 0.06032,0.023697 0.068937,0.043088 0.00862,0.019385 -0.00428,0.062475 0.00218,0.094791 0.00646,0.032316 0.049551,0.053858 0.05386,0.084017 0.00431,0.030159 0.00218,0.040933 0.025849,0.096946 0.023675,0.056013 -0.010768,0.2132814 -0.015079,0.2736051 -0.00431,0.060324 0.03447,0.3791639 0.036625,0.4545669 0.00215,0.0754 0.1249514,0.379166 0.1572686,0.433025 0.032317,0.05386 0.047395,0.646307 0.036622,0.743254 -0.010774,0.09695 -0.075403,0.359776 -0.07971,0.400708 -0.00431,0.04093 0.00862,0.290836 0.00862,0.323154 0,0.03231 -0.01939,0.54936 -0.023699,0.721708 -0.00431,0.172348 -0.071095,0.176655 -0.090481,0.208971 -0.019387,0.03232 -0.051705,0.03878 -0.1034148,0.05602 -0.051708,0.01724 -0.068936,0.03016 -0.1551133,0.0237 -0.086179,-0.0064 -0.1917362,0.06032 -0.2369794,0.05816 -0.045243,-0.0021 -0.084021,0.0021 -0.10772,0.01078 -0.023699,0.0086 -0.096944,0.0474 -0.1271039,0.06463 -0.030159,0.01725 -0.1098751,0.04524 -0.1594261,0.05602 -0.049551,0.01077 -0.028004,0.01077 -0.040932,0.02585 -0.012929,0.01507 -0.038778,0.01725 -0.081866,0.03016 -0.043088,0.01292 -0.00862,0.03232 -0.00862,0.04524 0,0.01292 0.1120305,0.01078 0.1465003,0.0021 0.03447,-0.0086 0.062475,-0.01292 0.062475,-0.01292 0,0 -0.03447,0.02585 -0.086176,0.04094 -0.051706,0.01507 -0.00429,0.05386 0.038782,0.06247 0.04307,0.0086 0.05817,-0.01292 0.096944,-0.0237 0.038775,-0.01078 0.053859,-0.0237 0.077555,-0.05817 0.023696,-0.03447 0.043087,-0.02155 0.088334,-0.03016 0.045245,-0.0086 0.090484,-0.0237 0.1184884,-0.03017 0.028004,-0.0064 0.1055625,-0.0021 0.1206411,-0.0021 0.015079,0 -0.028002,0.0237 -0.045238,0.03016 -0.017236,0.0064 -0.025853,0.0237 -0.043087,0.06032 -0.017234,0.03663 0.040933,0.05602 0.066786,0.05386 0.025852,-0.0021 0.053859,-0.01507 0.071093,-0.03663 0.017234,-0.02154 0.2326739,-0.05386 0.2434472,-0.06247 0.010772,-0.0086 0.053857,-0.02585 0.081866,-0.03017 0.028009,-0.0043 0.06032,-0.0021 0.1378797,-0.03663 0.07756,-0.03447 0.071093,-0.05386 0.079711,-0.07325 0.00862,-0.01938 0.028007,-0.04309 0.032314,-0.06247 0.00431,-0.01938 0.03016,-0.06679 0.053857,-0.109874 0.023696,-0.04309 0.088334,-0.355469 0.094794,-0.374857 0.00647,-0.01938 0.064633,-0.135722 0.1012565,-0.310228 0.036626,-0.174502 0.092635,-0.549359 0.1120261,-0.601063 0.019385,-0.05171 0.049551,-0.21759 0.040933,-0.290838 -0.00861,-0.07325 0.00428,-0.402864 0.00647,-0.430871 0.00218,-0.02801 0.00645,-0.234826 0.00645,-0.234826 0,0 0.00647,-0.06893 0.00428,-0.290836 -0.00218,-0.221898 -0.038785,-0.361931 -0.036634,-0.383475 0.00215,-0.02155 -0.028002,-0.103408 -0.019384,-0.159423 0.00861,-0.05601 0.015079,-0.06894 0.015079,-0.06894 0,0 0.073248,0.01291 0.08833,0.01291 0.015079,0 0.1249531,0.0086 0.1960459,0.01724 0.071093,0.0086 0.1960456,-0.03016 0.2455972,-0.02585 0.04955,0.0043 0.2025083,-0.06894 0.2369792,-0.07755 0.034469,-0.0086 0.025854,-0.02155 0.058171,-0.03447 0.032313,-0.01292 0.07756,0.0043 0.1271058,-0.0065 0.049545,-0.01077 0.019385,-0.01292 0.090484,0.0043 0.071093,0.01724 0.1314156,-0.01077 0.1314156,-0.01077 0.2736011,-0.099094 0.4868838,0.10557 0.5816754,0.230522 0.094792,0.124953 0.172349,0.103409 0.2412895,0.146494 0.068941,0.04309 0.2369815,0.305918 0.2499052,0.353314 0.012915,0.0474 0.1249532,0.05602 0.1852783,0.129264 0.060325,0.07325 0.073247,-0.06032 0.2542154,0.120642 0.1809683,0.180968 0.8315837,0.327462 0.9134494,0.349005 0.081865,0.02155 0.1637319,0.02155 0.275757,0.08186 0.1120261,0.06032 0.1680438,0.06463 0.3360813,0.116336 0.1680369,0.05171 0.2369817,0.08618 0.409329,0.124952 0.1723466,0.03877 0.5051999,0.28653 0.5051999,0.28653 0,0 0.1432656,0.101255 0.4168739,0.29299 0.273605,0.191736 1.083643,0.349008 1.148277,0.370552 0.06463,0.02154 0.243443,0.06247 0.336081,0.08833 0.09264,0.02585 0.383478,0.163734 0.441644,0.198201 0.05817,0.03447 0.159423,0.18743 0.18097,0.239133 0.02155,0.05171 0.05386,0.04955 0.0754,0.07541 0.02154,0.02585 0.107719,0.0021 0.14219,0.01292 0.03447,0.01078 0.08833,-0.0237 0.13357,-0.0474 0.04524,-0.0237 0.06463,-0.03877 0.09263,-0.06893 0.02801,-0.03016 0.101256,-0.05171 0.131417,-0.06679 0.03016,-0.01508 0.07541,-0.109871 0.08833,-0.120643 0.01294,-0.01077 0.02155,-0.03446 0.05816,-0.07971 0.03662,-0.04524 0.0064,-0.06247 0.01725,-0.07971 0.01077,-0.01724 0.01507,0.01507 0.04524,0.02154 0.03017,0.0064 0.0711,-0.0086 0.09694,-0.0064 0.02585,0.0021 0.02154,-0.0043 0.02585,-0.124955 0.0043,-0.12064 -0.105561,-0.135726 -0.157269,-0.146496 -0.05171,-0.01078 -0.120643,-0.04955 -0.120643,-0.04955 -0.183119,-0.118466 -0.456726,-0.299431 -0.471803,-0.308049 -0.01508,-0.0086 -0.05817,-0.02154 -0.116332,-0.05386 -0.05816,-0.03232 -0.11849,-0.06894 -0.176659,-0.08833 -0.05816,-0.01941 -0.389932,-0.331793 -0.46103,-0.392115 -0.07109,-0.06035 -0.57306,-0.49768 -0.626917,-0.542923 -0.05386,-0.04524 -0.155113,-0.133569 -0.340389,-0.215434 -0.185272,-0.08188 -0.542898,-0.316708 -0.579523,-0.338252 -0.03663,-0.02154 -0.1917357,-0.133568 -0.2197452,-0.157267 -0.02801,-0.0237 -0.068938,-0.05817 -0.1314177,-0.120643 C 9.6735522,10.188206 9.1177307,9.6431534 8.9475336,9.4923484 8.7773366,9.3415435 8.3680074,9.0722511 8.3572394,9.065786 8.3464654,9.059316 8.3421594,9.031315 8.3076894,9.014083 8.2732234,8.99684 8.2624464,9.024857 8.2624464,9.024857 8.1741155,8.970999 7.72601,8.8245047 7.7023134,8.8158853 7.6786172,8.8072753 7.6290607,8.7943363 7.6269087,8.7835723 7.6247586,8.7727983 7.6096645,8.7792623 7.5385818,8.7555663 7.467489,8.7318633 7.26713,8.7167793 7.26713,8.7167793 c 0,0 -0.2455973,0.04524 -0.4976625,0.066785 C 6.5174015,8.8051113 6.045603,8.4970314 6.0132882,8.4819528 5.980974,8.4668733 5.7978508,8.3591552 5.761228,8.3440738 5.7246066,8.3289941 5.6793612,8.3009855 5.6578146,8.2794411 5.6362659,8.2578929 5.0222773,8.1200179 4.9576478,8.0984761 4.8930176,8.0769276 4.7982212,8.0338439 4.6991197,7.9627516 4.600018,7.8916592 4.6862039,7.6309799 4.7055888,7.5491148 c 0.019385,-0.081867 0.084015,-0.4804215 0.09048,-0.5127358 0.00647,-0.032314 0.010774,-0.3964009 0.010774,-0.4502619 0,-0.05386 0.01508,-0.2240521 0.025854,-0.2671398 0.010774,-0.043088 0.023696,-0.077557 0.023696,-0.077557 0.075405,-0.1292579 0.032314,-0.2477489 0.032314,-0.2671376 0,-0.019385 -0.019385,-0.2391331 -0.017244,-0.2951492 0.00215,-0.056014 -0.017244,-0.5881381 -0.019385,-0.6290708 -0.00215,-0.040932 -0.01508,-0.596754 -0.01508,-0.6312237 0,-0.03447 0.00863,-0.04955 0.075403,-0.1874296 0.066781,-0.1378789 0.062483,-0.3877852 0.062483,-0.3964008 0,-0.00861 -0.00218,-0.015081 0.00218,-0.03447 0.00435,-0.019389 0.025852,-0.1012539 0.028008,-0.1184901 0.00215,-0.017237 0.023696,-0.120643 0.028006,-0.1615781 0.00431,-0.040935 -0.017244,-0.051703 -0.040933,-0.060319 -0.023696,-0.00861 -0.036623,0.04524 -0.038783,0.064629 -0.00215,0.01939 0.00428,0.07971 -0.010774,0.1120271 -0.015057,0.032318 -0.032314,0.1055619 -0.045244,0.1335688 -0.012937,0.028007 -0.00647,0.028007 -0.047395,0.028007 -0.040926,0 -0.023696,-0.049551 -0.023696,-0.049551 v -0.043085 c 0,-0.015081 -0.00428,-0.1637306 0.00218,-0.1960476 0.00647,-0.032317 -0.01508,-0.1249532 -0.017244,-0.1960452 -0.00215,-0.071092 -0.028008,-0.075403 -0.051708,-0.081865 -0.023698,-0.00647 -0.034469,0.025852 -0.034469,0.040933 0,0.015081 0.010774,0.1335687 0.00647,0.2003555 -0.00431,0.066786 -0.00647,0.2111262 -0.00647,0.2111262 0,0 -0.019385,0.00646 -0.030159,-0.010768 -0.010772,-0.017234 -0.019383,-0.1938916 -0.021546,-0.2089702 -0.00215,-0.01508 -0.012915,-0.1551151 -0.015079,-0.2348253 -0.00215,-0.07971 0,-0.077558 -0.040933,-0.1055643 -0.00766,-0.00525 -0.014512,-0.00767 -0.020442,-0.00781 z M 3.5917317,9.3283508 c -0.00392,-4.461e-4 -0.0057,-3.447e-4 -0.00218,3.448e-4 0.00298,5.678e-4 0.00358,3.447e-4 0.00218,-3.448e-4 z M 2.3761285,11.451197 c 10e-4,0.0055 0.00193,0.0097 0.0027,0.01024 0.00117,9.27e-4 0,-0.0033 -0.0027,-0.01024 z m 6.2487382,-0.956263 c 0,0 0.5057797,0.195152 0.7373322,0.353584 0.2315521,0.158432 0.3656592,0.261852 0.444877,0.267946 0.079218,0.0061 0.1524092,0.01233 0.2499061,0.09156 0.0975,0.07922 0.322902,0.347284 0.487427,0.389937 0.164526,0.04265 0.213395,0.115753 0.384016,0.19497 0.17062,0.07922 0.347175,0.255961 0.481232,0.280334 0.13406,0.02437 0.32904,0.164371 0.359509,0.170464 0.03047,0.0061 0.06711,-0.006 0.152421,0.05494 0.08531,0.06093 0.146189,0.06102 0.176656,0.10368 0.03047,0.04265 0.01213,0.09735 -0.03662,0.07297 -0.04875,-0.02437 -0.04251,-0.07923 -0.170467,-0.06705 -0.127968,0.01218 -0.3353,-0.109533 -0.402327,-0.170468 -0.06703,-0.06093 -0.706853,-0.371786 -0.88356,-0.463187 -0.176703,-0.0914 -0.523976,-0.219429 -0.584914,-0.298642 C 9.959416,11.396752 9.929019,11.323632 9.7462158,11.213947 9.5634133,11.104264 9.4355222,11.080115 9.3745897,11.031368 9.3136569,10.982622 8.7406428,10.641175 8.6248667,10.494934 Z"
       fill="#003466"
       id="path2140"
       inkscape:connector-curvature="0" />
  </g>
</svg>
