<?xml version="1.0" encoding="UTF-8" standalone="no"?>
<svg
   xmlns:dc="http://purl.org/dc/elements/1.1/"
   xmlns:cc="http://creativecommons.org/ns#"
   xmlns:rdf="http://www.w3.org/1999/02/22-rdf-syntax-ns#"
   xmlns:svg="http://www.w3.org/2000/svg"
   xmlns="http://www.w3.org/2000/svg"
   xmlns:sodipodi="http://sodipodi.sourceforge.net/DTD/sodipodi-0.dtd"
   xmlns:inkscape="http://www.inkscape.org/namespaces/inkscape"
   inkscape:version="1.0rc1 (09960d6, 2020-04-09)"
   height="55"
   width="55"
   sodipodi:docname="stratch_seated.svg"
   id="svg1796"
   viewBox="0 0 55.000001 55.000001"
   version="1.1"
   enable-background="new 0 0 1822.955 1710.283">
  <metadata
     id="metadata1802">
    <rdf:RDF>
      <cc:Work
         rdf:about="">
        <dc:format>image/svg+xml</dc:format>
        <dc:type
           rdf:resource="http://purl.org/dc/dcmitype/StillImage" />
        <dc:title></dc:title>
      </cc:Work>
    </rdf:RDF>
  </metadata>
  <defs
     id="defs1800" />
  <sodipodi:namedview
     inkscape:current-layer="svg1796"
     inkscape:window-maximized="0"
     inkscape:window-y="527"
     inkscape:window-x="0"
     inkscape:cy="26.078181"
     inkscape:cx="60.129223"
     inkscape:zoom="4.2129784"
     showgrid="false"
     id="namedview1798"
     inkscape:window-height="444"
     inkscape:window-width="693"
     inkscape:pageshadow="2"
     inkscape:pageopacity="0"
     guidetolerance="10"
     gridtolerance="10"
     objecttolerance="10"
     borderopacity="1"
     bordercolor="#666666"
     pagecolor="#ffffff" />
  <path
     style="stroke-width:0.021109"
     inkscape:connector-curvature="0"
     id="path1794"
     d="m 14.686168,47.426899 c 0.277331,-0.152763 0.563885,-0.153757 0.828699,0.02596 0.194646,0.132101 0.409452,0.218183 0.619126,0.316636 0.246659,0.115823 0.16503,0.277435 0.378506,0.178328 0.220525,-0.102374 0.251894,-0.197686 0.600594,-0.184599 1.704677,0.06405 3.421135,-0.874503 5.485384,-0.478204 3.050673,0.585692 4.787101,-0.161441 7.976458,-1.049412 0.169675,-0.04721 0.188124,-0.144342 0.336014,-0.09043 0.166127,0.06058 0.17951,-0.260803 0.365481,-0.158507 0.02041,0.01123 0.04596,0.01285 0.06556,-0.0011 0.08914,-0.06375 0.221411,-0.06003 0.273044,-0.185423 0.0212,-0.05152 0.08084,-0.07939 0.136533,-0.07839 0.313827,0.0055 0.373776,-0.553563 0.635042,-0.71587 0.07983,-0.04961 0.130623,-0.126695 0.189053,-0.19589 0.230447,-0.272836 0.475671,-0.528802 0.780462,-0.721276 0.293184,-0.185146 1.075484,-0.418822 1.183941,-0.441515 0.138285,-0.02894 0.149368,-0.107253 0.520549,-0.259492 0.05304,-0.02175 0.115973,-0.04334 0.08566,-0.12733 -0.01102,-0.03056 0.01711,-0.03972 0.04035,-0.03828 0.09808,0.006 0.143331,0.07512 0.23811,-0.02129 0.214404,-0.21812 0.205326,0.02419 0.997063,-0.899645 0.640447,-0.747322 0.445167,-0.693791 0.650747,-1.266943 0.06901,-0.19245 -0.0595,-0.07234 0.04008,-0.284632 0.193042,-0.411712 0.274101,-1.148015 0.238342,-1.357817 -0.01028,-0.06012 0.0083,-0.125979 0.01803,-0.188526 0.01914,-0.122388 -0.05058,-0.240156 -0.01663,-0.363158 0.0071,-0.02587 -2.95e-4,-0.05934 0.01355,-0.07909 0.108458,-0.154961 -0.09624,-0.203871 -0.04817,-0.537794 0.02859,-0.198488 -0.08496,-0.208325 -0.03696,-0.663119 0.2482,-2.351967 -0.406117,-1.502941 0.211788,-3.059329 0.07177,-0.180757 0.05634,-0.376733 0.109196,-0.561141 0.03228,-0.112596 0.0398,-0.232474 0.05573,-0.349439 0.02049,-0.150571 -0.06253,-0.143499 -0.03557,-0.264242 0.01263,-0.0565 -0.0198,-0.08907 -0.07761,-0.08036 -0.06591,0.0099 -0.145607,-0.03055 -0.194222,0.05448 -0.01726,0.0302 -0.167712,0.0087 -0.240687,0.019 -0.25548,0.03614 -0.08335,-0.126465 -0.323242,-0.128682 -0.603462,-0.0054 -1.601181,-0.985473 -1.376222,-2.092179 0.05715,-0.281233 -0.164566,-0.380721 -0.154793,-0.564684 0.0018,-0.03136 -0.02948,-0.08858 -0.08371,-0.04588 -0.04683,0.03689 -0.134317,-0.01279 -0.155173,0.07754 -0.0033,0.01445 -0.03417,0.01341 -0.05018,0.0052 -0.242246,-0.125514 -0.529919,0.869987 -0.256052,2.193437 0.03308,0.159816 0.08239,0.316761 0.04979,0.482994 -0.0018,0.0086 -9.73e-4,0.01908 0.0025,0.02691 0.07302,0.161633 0.14962,0.564095 0.215904,0.630166 0.193823,0.193211 0.231862,0.634348 0.196524,0.697653 -0.07188,0.128765 0.01566,0.216516 0.0852,0.299495 0.06644,0.07929 0.144598,0.243218 0.127055,0.336456 -0.02337,0.124228 0.428619,0.760242 0.429738,0.781351 0.0085,0.157347 0.123848,0.270089 0.170625,0.411372 0.04892,0.147805 -0.04656,0.04839 0.0473,0.317817 0.05982,0.171785 0.09997,0.352353 0.208115,0.503409 0.03643,0.05088 9.73e-4,0.09594 0.0054,0.146348 -0.162708,0.01391 -0.120363,-0.253012 -0.221413,-0.380109 -0.01699,-0.02136 -0.172882,-0.243261 -0.404048,-0.4275 0.01296,0.120046 0.02193,0.623939 0.0033,0.668184 -0.05496,0.129948 -0.0667,0.272918 -0.1161,0.40337 -0.0677,0.178712 0.09316,0.286367 0.08816,0.319338 -0.01627,0.107299 0.04169,0.176643 0.106432,0.248939 -0.15764,-0.05497 -0.239418,-0.1915 -0.331475,-0.310344 -0.0781,0.0189 -0.03312,0.172038 -0.09476,0.211619 -0.0606,0.03891 -0.07249,0.09992 -0.113208,0.144639 -0.07421,0.08147 -0.110104,0.03495 -0.255904,-0.05151 -0.452704,1.000443 -0.28322,0.680787 -0.404724,1.060642 -0.112721,-0.09091 -0.04495,-0.197177 -0.03027,-0.323199 -0.156693,0.130136 -0.186393,0.317037 -0.318408,0.442741 8.8e-4,-0.08485 0.02619,-0.166804 -0.03127,-0.247716 -0.08149,0.09142 -0.07536,0.456695 -0.143246,0.619254 -0.04145,0.0099 9.73e-4,-0.119308 -0.09261,-0.04241 -0.06839,0.05628 -0.128278,0.0061 -0.12583,-0.09222 0.0032,-0.1249 -0.01,-0.24571 -0.06797,-0.358431 -0.08664,-0.168386 -0.229138,-1.213558 -0.232432,-1.235362 -0.01957,-0.128808 0.106769,-0.222786 -0.0054,-0.377515 -0.131868,-0.18198 0.08763,-0.111834 0.0018,-0.258521 -0.03576,-0.06096 -0.03228,-0.124692 -0.02321,-0.185632 0.02254,-0.151753 -0.05988,-0.281004 -0.08122,-0.4229 -0.0039,-0.0258 -0.02404,-0.04925 -0.02079,-0.07792 0.03244,-0.285375 -0.04879,-0.559664 -0.08072,-0.83881 -0.113017,-0.98805 0.04805,-1.007322 0.04395,-1.309455 -0.0018,-0.146032 0.01642,-0.289996 0.03056,-0.432103 0.01857,-0.187088 -0.0038,-1.044495 0.0456,-1.303185 0.0017,-0.0083 -0.0029,-0.01771 -0.0054,-0.0264 -0.06307,-0.225656 0.0127,-0.527726 0.0054,-0.594492 -0.01992,-0.186816 0.03899,-0.362843 0.07093,-0.542755 0.0068,-0.03777 0.06469,-0.113694 -0.04769,-0.100059 -0.04439,-0.101006 0.05028,-0.271314 0.0593,-0.292444 0.0071,-0.01675 0.02338,-0.03848 0.01816,-0.05029 -0.06386,-0.144196 0.08891,-0.24117 0.07962,-0.373608 -0.0047,-0.06597 0.0321,-0.04211 0.33078,-0.353239 0.292991,-0.305194 0.229371,-0.228799 0.531016,-0.344921 0.198446,-0.07639 0.212568,-0.04163 0.176133,-0.191458 -0.0042,-0.01735 -0.012,-0.03933 -0.0054,-0.05298 0.104046,-0.214785 -0.22994,-0.217759 -0.219808,-0.348742 0.141452,-0.02344 0.267599,0.08478 0.246173,-0.07413 -0.0035,-0.0264 -0.03148,-0.04654 -0.0078,-0.103836 0.0652,0.191816 0.186707,0.332509 0.239649,0.512843 0.231544,-0.06996 0.299073,-0.360987 0.361978,-0.594599 0.126886,-0.471047 0.883728,-1.604686 1.715719,-2.032588 0.337849,-0.173746 0.622992,-0.153608 0.969874,-0.206613 0.115257,-0.01762 0.507987,-0.275285 0.62337,-0.150107 0.08321,0.09031 0.14006,-0.0085 0.234626,0.125598 0.07287,0.103308 0.156102,0.198108 0.198383,0.320329 0.0094,0.02732 0.03634,0.04142 0.06302,0.04863 0.292653,0.07926 0.510141,0.27446 0.728195,0.469359 0.02598,0.02322 0.04741,0.06797 0.08735,0.05626 0.07356,-0.02157 0.124521,-0.602261 0.02675,-1.356929 -0.103709,-0.800327 -0.0278,-2.064188 0.05151,-2.825652 0.04695,-0.450411 0.116476,-2.225087 -0.151588,-2.38235 -0.165204,-0.097 -0.169068,-0.16575 -0.721088,-0.70781 -0.179364,-0.176133 -0.01398,-0.154939 -0.391065,-0.684037 -0.180145,-0.252738 -0.0618,-0.332613 -0.204335,-0.601353 -0.08313,-0.156777 -0.04787,-0.363308 0.165642,-0.346948 0.187257,0.01435 0.395751,0.302513 0.460387,0.469803 0.0333,0.08615 0.199311,0.483565 0.287694,0.459711 0.189411,-0.05113 -0.08731,-1.628306 -0.07045,-2.397561 0.0059,-0.270132 0.27087,-0.424333 0.371181,-0.180167 0.05797,0.141073 0.05781,0.494838 0.06145,0.595022 8.8e-4,0.02337 0.0049,0.0455 0.0416,0.0559 0.01618,-0.24784 -0.05725,-0.336076 -0.04291,-0.801276 0.0072,-0.232706 0.328666,-0.345555 0.397608,-0.09934 0.0793,0.283199 0.03604,0.557997 0.173052,0.966265 0.02121,0.06314 0.03172,0.129842 0.05246,0.217402 0.07854,-0.10812 -6.35e-4,-0.720303 -0.02085,-0.849891 -0.0471,-0.302091 0.110843,-0.301711 0.320771,-0.26059 0.183354,0.03593 0.172441,0.744051 0.219133,0.90089 0.107065,0.359634 0.02869,0.953537 0.124249,1.036453 0.03324,-0.0324 0.0289,-0.07761 0.0302,-0.112807 0.01257,-0.338631 0.137441,-0.659825 0.151796,-0.998098 0.01583,-0.373291 0.276907,-0.368267 0.325816,-0.174782 0.01317,0.05211 0.01106,-0.03206 -0.02697,1.324716 -0.01028,0.366495 0.105905,0.388259 0.01563,1.254047 -0.07839,0.751922 -0.182128,0.667654 -0.114326,0.928015 0.145798,0.559852 0.313088,1.114258 0.424395,1.682915 0.06483,0.331305 0.177655,0.650304 0.257088,0.978107 0.07443,0.307263 0.487725,2.584376 0.491481,2.605695 0.135288,0.762458 -0.168005,0.734954 -0.188207,1.334386 -0.01795,0.532263 -0.160683,1.149447 -0.384058,2.220878 -0.01407,0.06744 -0.0229,0.122812 0.04103,0.183711 0.241256,0.229751 0.219176,0.591685 -0.04057,0.801997 -0.217718,0.17628 -0.321532,0.144534 -0.36166,0.274732 -0.135414,0.439554 -0.260633,0.642686 -0.561204,1.45287 -0.03563,0.09605 -0.0024,0.07084 0.01042,0.681061 0.0086,0.400987 0.321091,0.647393 0.64277,1.525803 0.161294,0.440503 0.09021,0.220292 0.552212,0.891411 0.135646,0.197053 0.399869,0.592256 0.481244,0.825448 0.159963,0.458466 0.335189,0.604077 0.279863,0.951658 -0.01499,0.09418 0.196651,0.688155 -0.04181,1.439065 -0.25449,0.80136 -0.578957,1.027944 -0.657652,2.152485 -0.06601,0.943067 -0.334388,1.63293 -0.438751,1.790909 -0.419183,0.634474 -0.462625,1.009834 -1.085088,2.190695 -0.5166,0.980027 -0.153124,0.275198 -0.83826,1.328071 0.276615,0.120428 6.654615,-0.433196 6.668758,1.82536 0.0076,1.208365 -0.287273,1.440269 -1.042869,1.931856 -0.178686,0.116269 -0.518142,0.139403 -0.656427,0.290185 -0.02016,0.02198 -0.05092,0.0186 -0.07779,0.01699 -0.314757,-0.01891 -0.627107,0.03847 -0.941695,0.02877 -0.02111,-6.53e-4 -5.175081,-0.05638 -5.57552,-0.08824 0,0 -2.031426,-0.0788 -2.031447,-0.0788 -0.07651,-0.0018 -0.151329,-0.03115 -0.229854,-0.02796 -0.01652,6.54e-4 -0.03873,-0.0068 -0.04951,-0.01846 -0.07582,-0.08255 -0.184725,-0.09754 -0.280878,-0.133304 -0.266648,-0.09914 -0.514003,-0.232643 -0.751375,-0.387479 -0.701789,-0.457832 -0.53792,-0.518625 -0.956258,-0.460597 -3.463142,0.480294 -3.644891,0.861165 -8.376473,0.778776 -1.3617,-0.02369 -0.996071,-0.153822 -1.532345,-0.22762 -1.062521,-0.14618 0.455786,-0.151836 -3.343033,-0.212292 -1.116645,-0.01774 -2.467853,-0.313997 -4.277527,0.03586 -0.846303,0.163616 -1.415992,0.190824 -1.415992,0.190824 -0.132608,0.07657 -0.274038,0.01487 -0.410825,0.02556 -0.258268,0.02019 -0.253814,0.04373 -0.311295,0.02553 -0.267527,-0.08457 -0.481045,0.116135 -0.980694,0.112842 -2.691398,-0.01783 -2.480519,-0.02623 -2.568544,-0.04477 -0.307241,-0.06472 -0.18673,-0.395879 -0.01862,-0.440672 0.119709,-0.03189 0.232896,-0.07383 0.336056,-0.143182 0.06349,-0.04268 0.173009,-0.01475 0.344836,-0.179743 0.638266,-0.612846 1.330768,-0.892963 2.148678,-1.186546 0.450446,-0.161717 0.662886,-0.661494 1.073414,-0.887635 z" />
</svg>
