<?xml version="1.0" encoding="UTF-8" standalone="no"?>
<svg
   xmlns:dc="http://purl.org/dc/elements/1.1/"
   xmlns:cc="http://creativecommons.org/ns#"
   xmlns:rdf="http://www.w3.org/1999/02/22-rdf-syntax-ns#"
   xmlns:svg="http://www.w3.org/2000/svg"
   xmlns="http://www.w3.org/2000/svg"
   xmlns:sodipodi="http://sodipodi.sourceforge.net/DTD/sodipodi-0.dtd"
   xmlns:inkscape="http://www.inkscape.org/namespaces/inkscape"
   sodipodi:docname="tree.svg"
   inkscape:version="1.0rc1 (09960d6, 2020-04-09)"
   id="svg2227"
   version="1.1"
   viewBox="0 0 14.552084 14.552084"
   height="55"
   width="55">
  <defs
     id="defs2221" />
  <sodipodi:namedview
     inkscape:window-maximized="0"
     inkscape:window-y="307"
     inkscape:window-x="279"
     inkscape:window-height="664"
     inkscape:window-width="1440"
     units="px"
     showgrid="false"
     inkscape:document-rotation="0"
     inkscape:current-layer="layer1"
     inkscape:document-units="px"
     inkscape:cy="30.063559"
     inkscape:cx="-13.633475"
     inkscape:zoom="4.2909091"
     inkscape:pageshadow="2"
     inkscape:pageopacity="0.0"
     borderopacity="1.0"
     bordercolor="#666666"
     pagecolor="#ffffff"
     id="base" />
  <metadata
     id="metadata2224">
    <rdf:RDF>
      <cc:Work
         rdf:about="">
        <dc:format>image/svg+xml</dc:format>
        <dc:type
           rdf:resource="http://purl.org/dc/dcmitype/StillImage" />
        <dc:title></dc:title>
      </cc:Work>
    </rdf:RDF>
  </metadata>
  <g
     id="layer1"
     inkscape:groupmode="layer"
     inkscape:label="Layer 1">
    <path
       sodipodi:nodetypes="cccscccscsscsscssscsssscsscssssccscsssscsscccsssscssssscsscccsssscscccsccccccccccccscssssssscsccssccccccscssscccsscccccssccsccsssscccccccsssccc"
       style="stroke:none;fill:#000000;fill-opacity:1"
       d="m 7.411918,0.66147126 c -0.00611,0 -0.012294,0.002468 -0.019058,0.00861 -0.027055,0.024597 -0.029515,0.13281313 -0.05657,0.19184082 C 7.3092362,0.92094978 7.2133178,1.1865731 7.1641295,1.3046284 7.1149418,1.4226838 7.0436146,1.705525 6.9944268,1.7719315 6.9452378,1.8383379 6.8788319,2.0572307 6.8566955,2.0719883 c -0.022135,0.014758 -0.4058122,0.6099525 -0.442703,0.9247668 -0.036894,0.3148144 -0.039354,0.541086 -0.05657,0.6124105 -0.017215,0.071325 -0.061489,0.5779795 -0.05411,0.6935746 0.00737,0.115595 0.027055,0.5656827 0.022137,0.6517623 -0.00492,0.08608 0.00246,0.1106794 0.029512,0.169707 0.027044,0.059027 0.05411,0.1057555 0.051652,0.2975959 -0.00246,0.191841 -0.00492,0.5337097 0.022134,0.6542227 0.02705,0.1205137 0.039352,0.319733 0.05411,0.4304093 0.014758,0.1106765 0.00737,0.1401918 0.00246,0.177083 -0.00492,0.036894 -0.019674,0.1770832 -0.034433,0.2262743 -0.014758,0.049191 -0.031973,0.1475678 -0.036891,0.1623252 -0.00492,0.014758 -0.022134,0.159868 -0.066406,0.2262717 -0.04427,0.066404 -0.083621,0.1352734 -0.091,0.1647858 -0.00737,0.029513 -0.1057574,0.2951384 -0.1401907,0.3492478 -0.034434,0.05411 -0.034434,0.027055 -0.088539,0.076243 C 5.9737569,7.9378567 5.029318,8.4346726 4.7661571,8.6388103 4.5029961,8.8429477 4.0110997,9.165141 4.0110997,9.4037094 c 0,0.2385685 -0.1475667,0.3467876 0.108218,0.4230329 0.2557847,0.076245 0.575515,0.1229744 0.7845696,0.083627 0.2090545,-0.039345 0.7452182,-0.1574061 0.8657306,-0.1869215 0.1205124,-0.029515 0.3615422,0.00736 0.4181089,-0.029514 0.05657,-0.036891 0.162327,-0.024595 0.2164333,-0.029513 0.054107,-0.00492 0.1893788,-0.00738 0.199218,-0.00246 0.00984,0.00492 0.2090545,0.04181 0.2410273,0.2508659 0.031973,0.2090553 0.098379,0.3935173 0.071324,0.4796003 -0.027055,0.08608 0.00491,0.145109 -0.039352,0.206596 -0.044265,0.06148 -0.041809,0.100839 0.00738,0.115597 0.049193,0.01475 0.061485,0.01475 0.071323,0.09592 0.00984,0.08116 0.05411,0.391058 0.051649,0.474678 -0.00246,0.08363 -0.046731,0.440249 -0.078703,0.57798 -0.031973,0.137732 -0.00246,0.366464 -0.00246,0.38368 0,0.01721 0.00246,0.393516 -0.019674,0.474682 -0.022145,0.08116 -0.04427,0.464841 -0.095918,0.56322 -0.051649,0.09838 -0.027054,0.127894 -0.034434,0.164784 -0.00738,0.03689 -0.00491,0.20168 -0.054109,0.236111 -0.049196,0.03443 -0.091,0.09592 -0.071325,0.137733 0.019677,0.04182 0.063946,0.05165 0.1032971,0.05657 0.039352,0.0049 0.1856374,0.0053 0.2422045,0.0059 0.072869,6.58e-4 0.185744,0.01567 0.2103378,-0.01142 0.024595,-0.02706 0.022135,-0.02952 -0.00984,-0.115594 -0.031975,-0.08608 -0.049191,-0.157407 -0.027054,-0.248408 0.022135,-0.091 0.027054,-0.117446 0.056567,-0.255181 0.029512,-0.137733 0.1082153,-0.393517 0.1377304,-0.482058 0.029515,-0.08855 0.088541,-0.108216 0.083621,-0.174622 -0.00492,-0.06641 0.1672449,-0.531249 0.1672449,-0.646843 0,-0.115597 0.056567,-0.602576 0.027056,-0.700954 -0.029512,-0.09841 0.095919,-0.518978 0.1057556,-0.582926 C 7.7568667,10.603932 8.11349,9.5463471 8.1528389,9.4282944 8.1921881,9.3101993 8.258597,8.9068397 8.2536787,8.7199199 8.2487587,8.5330006 8.2635186,8.1542373 8.2610686,8.09767 8.2586186,8.041138 8.2217149,7.7435386 8.206958,7.6279439 8.1922001,7.5123492 8.1971181,7.4139695 8.1971181,7.3573997 c 0,-0.056569 -0.012297,-0.1942983 -0.00738,-0.2213533 0.00492,-0.027054 -0.019675,-0.1328126 -0.00246,-0.1820012 0.017209,-0.049188 0.04427,-0.3713815 0.061489,-0.4500852 0.017221,-0.078703 0.068867,-0.4550059 0.095921,-0.5509247 0.027055,-0.095919 0.083621,-0.1721651 0.091,-0.3369506 0.00738,-0.164786 0.022135,-0.2484082 0.027055,-0.2779205 0.0049,-0.029502 0.1204992,-0.1844518 0.1131227,-0.2803705 -0.00738,-0.095919 -0.031981,-0.2607076 -0.034442,-0.2926804 -0.00247,-0.031973 0.00984,-0.592735 -0.024594,-0.7427632 C 8.4823944,3.8723219 8.3987756,3.483722 8.3791001,3.3558304 8.3594255,3.2279383 8.3225333,2.9992038 8.3077757,2.9819884 c 0,0 -0.2754606,-0.659141 -0.4279484,-0.9001728 C 7.7273367,1.8407831 7.6191213,1.4251313 7.5920669,1.2849397 7.5650125,1.144748 7.513364,0.93077617 7.5084456,0.83731502 c -0.00492,-0.0934611 -0.00984,-0.18200388 -0.039351,-0.1672464 -0.022135,0.0110708 -0.038853,-0.00861 -0.057184,-0.00861 z m 0.00492,0.37568534 c 0.00824,-5.921e-4 0.015679,0.00723 0.020292,0.02644 C 7.4518877,1.125085 7.405157,1.265274 7.405157,1.265274 7.402697,1.262806 7.3903991,1.1914888 7.3830222,1.125085 7.3779622,1.079429 7.3987351,1.038347 7.4168409,1.0371566 Z m -0.040583,0.600728 c 8.285e-4,0 0.00154,3.605e-4 0.00185,0.00124 0.00492,0.014758 -0.00984,0.05657 0.051649,0.1401917 0.061492,0.083622 0.1574064,0.2754624 0.177082,0.3394084 0.019675,0.063946 0.1795397,0.4673031 0.1844579,0.5460068 0.00492,0.078704 0.179542,0.5287885 0.1918394,0.6001131 0.012297,0.071325 0.00246,0.1131371 -0.031974,0.091001 C 7.9167205,3.3337029 7.8085126,3.1762973 7.7839159,3.154161 7.7593193,3.1320254 7.6265124,3.1836763 7.501079,3.1098909 7.3756457,3.0361056 7.2772671,3.0631605 7.1961038,3.0877553 7.1149407,3.1123498 6.9575369,3.2525416 6.9132667,3.3730571 6.8689973,3.493573 6.8075096,3.6190047 6.8075096,3.6190047 c -0.00246,0.00491 -0.029514,-0.049192 -0.041813,-0.086083 -0.012297,-0.036892 0,-0.2164351 0.00984,-0.268084 0.00984,-0.051649 -0.00246,-0.093461 0.031974,-0.1697037 C 6.8419526,3.018892 6.9157295,2.6647252 6.937863,2.5958583 6.959996,2.5269913 7.1395388,1.9490143 7.1690536,1.8801499 7.1985676,1.8112859 7.2379176,1.7891489 7.2698904,1.7670129 7.2998654,1.7462619 7.3642554,1.6390515 7.3762623,1.6378893 Z M 6.8185684,3.7493523 c 0.011673,-0.00253 0.039352,0.056261 0.047962,0.1057579 0.00984,0.056567 -0.00984,0.091001 0.00984,0.1574072 0.019682,0.066407 0.034431,0.204138 0.061486,0.1918409 0.027055,-0.012297 0.019674,0.00984 0.017218,0.073785 -0.00246,0.063945 0.014758,0.04427 0.061486,0.1008372 0.046728,0.056567 0.068866,0.1082185 0.09592,0.1942982 0.027055,0.08608 0.00984,0.088542 -0.039352,0.1623255 C 7.023936,4.8093882 7.0141,4.8438233 7.0141,4.8536623 7.01164,4.8536623 6.937856,4.747904 6.935398,4.7356042 6.932938,4.7233052 6.861613,4.5585241 6.859154,4.5437663 6.856694,4.5290083 6.802584,4.4478473 6.770613,4.3322501 c -0.031973,-0.1155975 -0.00491,-0.2311898 0,-0.319733 0.00491,-0.088542 0.036891,-0.2336502 0.04427,-0.2582443 9.455e-4,-0.00307 0.00203,-0.00455 0.00368,-0.00492 z m 1.1756237,0.094692 c 0.00193,-1.52e-5 0.00415,4.629e-4 0.00615,0.00125 0.031973,0.012297 0.024595,0.1082162 0.024595,0.1697043 0,0.061489 0.056569,0.3689211 0.044273,0.425491 -0.012297,0.05657 -0.051649,0.063945 -0.088542,0.1451073 -0.036895,0.081162 -0.125434,0.2926782 -0.125434,0.2926782 0.00246,0.00246 -0.019679,-0.012297 -0.044273,-0.027055 C 7.7863707,4.8364575 7.7002892,4.634781 7.7002892,4.634781 c 0,0 0.017218,-0.1033004 0.019677,-0.1426495 0.00246,-0.039349 0.091,-0.095922 0.1131358,-0.1254342 0.022136,-0.029513 0.027055,-0.091001 0.041813,-0.1303524 0.014758,-0.039352 0,-0.073785 0,-0.098379 0,-0.024595 0.027053,-0.046731 0.027053,-0.073785 0,-0.027055 0.027055,-0.083622 0.034434,-0.1106767 0.00693,-0.025363 0.028723,-0.1092134 0.057799,-0.1094476 z M 6.9396976,8.8386414 c 0.010302,0.00151 0.023135,0.022903 0.064561,0.075629 0.1082179,0.1377313 0.039352,0.2164346 0.039352,0.2164346 l -0.157406,0.019677 c 0,0 -0.2951341,0.059028 -0.531243,0.068864 C 6.1188526,9.229086 6.1877165,9.140543 6.227068,9.0913536 6.26642,9.0421656 6.6107465,9.0126506 6.797665,8.9339467 c 0.105143,-0.044273 0.1228571,-0.088939 0.1377303,-0.09469 0.00144,-5.847e-4 0.00284,-8.285e-4 0.0043,-5.847e-4 z"
       fill="#003466"
       stroke="#000000"
       stroke-width="0.0971704"
       id="path2154"
       inkscape:connector-curvature="0" />
  </g>
</svg>
