<?xml version="1.0" encoding="UTF-8" standalone="no"?>
<svg
   xmlns:dc="http://purl.org/dc/elements/1.1/"
   xmlns:cc="http://creativecommons.org/ns#"
   xmlns:rdf="http://www.w3.org/1999/02/22-rdf-syntax-ns#"
   xmlns:svg="http://www.w3.org/2000/svg"
   xmlns="http://www.w3.org/2000/svg"
   xmlns:sodipodi="http://sodipodi.sourceforge.net/DTD/sodipodi-0.dtd"
   xmlns:inkscape="http://www.inkscape.org/namespaces/inkscape"
   inkscape:version="1.0rc1 (09960d6, 2020-04-09)"
   sodipodi:docname="two_legs_up.svg"
   id="svg46"
   viewBox="0 0 55 55"
   height="55"
   width="55"
   version="1.1">
  <metadata
     id="metadata52">
    <rdf:RDF>
      <cc:Work
         rdf:about="">
        <dc:format>image/svg+xml</dc:format>
        <dc:type
           rdf:resource="http://purl.org/dc/dcmitype/StillImage" />
        <dc:title></dc:title>
      </cc:Work>
    </rdf:RDF>
  </metadata>
  <defs
     id="defs50" />
  <sodipodi:namedview
     inkscape:current-layer="svg46"
     inkscape:window-maximized="0"
     inkscape:window-y="24"
     inkscape:window-x="323"
     inkscape:cy="26.567797"
     inkscape:cx="60.127119"
     inkscape:zoom="4.2909091"
     showgrid="false"
     id="namedview48"
     inkscape:window-height="444"
     inkscape:window-width="728"
     inkscape:pageshadow="2"
     inkscape:pageopacity="0"
     guidetolerance="10"
     gridtolerance="10"
     objecttolerance="10"
     borderopacity="1"
     bordercolor="#666666"
     pagecolor="#ffffff" />
  <g
     transform="matrix(0.19980133,0,0,0.19980249,-12.866431,-31.962492)"
     id="layer1">
    <g
       id="g43"
       style="fill:#000000;fill-opacity:1;stroke-linejoin:miter">
      <path
         style="stroke-width:64.328"
         inkscape:connector-curvature="0"
         id="path41"
         d="m 224.39887,235.04466 c -0.63273,0 -1.00095,0.27468 -1.52882,0.83112 -0.44129,0.47795 -0.7904,0.9379 -0.7904,1.04726 0,0.11064 -0.14699,0.34994 -0.31238,0.55193 -0.31244,0.34995 -0.29398,0.38468 0.66149,1.24861 0.53308,0.47924 1.24989,1.01188 1.56227,1.17784 0.31263,0.14539 1.15797,0.6613 1.85638,1.1013 0.7168,0.4593 1.70913,1.04855 2.20529,1.30586 4.70495,2.3885 5.3849,2.88511 7.62698,5.43957 1.43368,1.65452 1.92984,2.60915 3.01422,5.80882 0.31238,0.91861 0.66149,1.54323 1.06598,1.94721 0.57201,0.55129 1.36414,0.81311 2.23231,0.81311 1.41843,0 3.03995,-0.70118 4.23697,-1.98902 0.46528,-0.49662 0.70793,-0.67866 0.96048,-0.67866 0.0466,0 0.0935,0.006 0.14242,0.0174 0.20199,0.0727 0.86367,0.20135 1.43323,0.312 1.85637,0.31199 2.37093,0.71661 7.33339,5.62419 2.82998,2.79377 3.36307,3.41904 4.20834,4.88829 0.51488,0.93661 1.1579,1.96715 1.39682,2.31452 0.23904,0.34994 0.44116,0.69989 0.44116,0.79123 0,0.065 -0.12557,0.0965 -0.35329,0.0965 -0.54209,0 -1.66224,-0.17691 -3.04683,-0.50112 -1.32317,-0.31199 -2.6462,-0.56802 -5.77087,-1.10322 -0.55142,-0.10936 -1.78253,-0.18205 -2.73838,-0.18205 -2.24209,0 -9.15259,0.66129 -10.71473,1.01059 l -0.6409,0.1531 v 0 q -9.52794,-5.97864 -16.2973,-7.85445 -3.69095,-1.09743 -8.43231,-1.86294 -2.12913,-0.34608 -4.61766,-0.65743 l -10.02275,-1.17785 q -1.88514,-0.21421 -7.77662,-1.51492 -1.37018,-0.22836 -2.53323,-0.22836 -0.0101,0 -0.0199,0 h -0.12904 q -0.0504,0 -0.1019,0 -1.18325,0 -2.98932,0.17239 l -5.18246,0.64393 v 0 c -0.36519,-0.0708 -0.77908,-0.13509 -1.15231,-0.16983 -1.50695,-0.14795 -1.87458,-0.25988 -4.87033,-1.38112 -2.09517,-0.77129 -6.56127,-2.25984 -9.28118,-3.06845 -0.8638,-0.25667 -2.13209,-0.64328 -2.84871,-0.88129 -0.69847,-0.23994 -1.78285,-0.51655 -2.38914,-0.64392 -0.60661,-0.11065 -1.47054,-0.31199 -1.92984,-0.45931 -0.4593,-0.14666 -1.48874,-0.38661 -2.29734,-0.5693 -2.18696,-0.45866 -6.34062,-2.31645 -9.00541,-4.00635 -3.21634,-2.05978 -4.77861,-2.73908 -6.89204,-3.03306 -3.58371,-0.49726 -4.20872,-0.60661 -5.78926,-0.97393 -0.97393,-0.22257 -3.06909,-0.4593 -5.09092,-0.58924 -2.86691,-0.18205 -3.51038,-0.29205 -3.82276,-0.56931 -0.16429,-0.1531 -0.27108,-0.22836 -0.37542,-0.22836 -0.0819,0 -0.16242,0.0482 -0.26773,0.13638 -0.15825,0.1338 -0.4822,0.20199 -1.05761,0.20199 -0.69507,0 -1.75648,-0.10036 -3.3349,-0.31264 -1.4495,-0.17819 -2.44755,-0.27211 -3.13953,-0.27211 -0.58011,0 -0.94485,0.0663 -1.17939,0.20006 -0.44116,0.22001 -1.37835,2.0199 -1.56214,2.99576 -0.20218,1.06591 0.1102,1.30264 4.20873,3.39973 2.57292,1.28656 3.7675,1.76259 5.88112,2.33511 2.53607,0.66129 2.77511,0.77194 4.13501,1.92727 1.36021,1.17784 3.19793,2.61107 4.41097,3.43769 0.4593,0.31199 1.19457,0.9186 1.65387,1.34252 0.45969,0.42199 1.26823,1.08393 1.81965,1.4506 0.81651,0.55 1.07427,0.64585 1.93756,0.64585 0.0886,0 0.18352,0 0.28613,-0.002 1.34181,-0.0193 2.77517,-0.5886 4.02494,-1.65516 0.75411,-0.64328 1.26668,-0.91024 2.06467,-0.91024 0.40848,0 0.89133,0.0708 1.5193,0.19427 0.90059,0.16468 2.16875,0.55129 2.8303,0.86393 2.73838,1.23059 6.10177,2.95909 7.64545,3.91436 0.90059,0.5693 1.89298,1.1579 2.20535,1.28784 0.31238,0.14538 0.69835,0.34737 0.84527,0.45866 0.14732,0.11065 0.64354,0.36796 1.10291,0.56995 0.45936,0.22 1.32335,0.66129 1.92971,1.01123 0.60661,0.32936 1.39682,0.75393 1.74599,0.91861 0.62495,0.29462 2.48113,1.59791 2.84877,2.00317 0.36757,0.42328 2.09516,1.54387 3.08748,2.02119 0.56982,0.25731 1.83811,0.6793 2.83037,0.9186 3.62051,0.90059 4.77861,1.01124 10.05325,1.01124 3.34467,0.018 5.40316,0.092 6.26709,0.25602 3.39973,0.64457 4.44744,0.88258 4.962,1.06785 0.45956,0.18333 1.34182,0.69796 4.77854,2.77511 4.77848,2.90312 6.63467,3.67506 12.03796,4.99828 3.62051,0.9006 5.38483,1.67253 5.91792,2.57312 0.0735,0.12802 0.27571,1.02925 0.42263,2.02248 0.31251,1.92984 1.02925,3.67441 2.04004,4.99828 1.1397,1.48727 2.84876,2.95845 4.37411,3.73231 0.827,0.42135 1.6174,0.8813 1.76439,1.00867 0.47776,0.40398 2.68325,1.56252 2.99575,1.56252 0.16546,0 0.62476,0.27661 0.99233,0.60662 1.1763,1.02925 2.11356,1.67253 3.19794,2.16914 0.97399,0.4593 1.0661,0.5693 1.43361,1.54258 0.55136,1.45382 0.56956,3.805 0.0368,4.70624 -0.20231,0.34994 -0.45962,1.06592 -0.58828,1.59791 -0.11,0.53392 -0.51462,1.56317 -0.91892,2.29844 -0.38597,0.73462 -1.17624,2.27721 -1.74593,3.43576 -0.55142,1.1579 -1.10258,2.27914 -1.21303,2.48048 -0.11013,0.20328 -0.67995,1.7285 -1.26817,3.40103 -1.08412,3.10575 -1.98471,5.4222 -2.26055,5.8442 -0.0735,0.14666 -0.51456,0.95591 -0.93713,1.80247 -0.44122,0.84398 -1.21297,2.00188 -1.70945,2.55382 -1.15771,1.2679 -2.02151,2.83107 -2.9221,5.31092 -0.38597,1.06527 -0.79027,1.94914 -0.91892,1.94914 -0.23885,0 -1.12098,-0.99387 -1.3599,-1.54516 -0.092,-0.22 -0.23911,-0.51463 -0.3493,-0.66129 -0.0918,-0.14796 -0.25731,-0.49533 -0.3493,-0.75264 -0.0798,-0.19942 -0.35252,-0.50626 -0.69262,-0.79317 h -0.0331 q 1.01664,-1.80954 1.36948,-2.97967 0.36107,-1.28785 -0.19279,-2.33832 -0.73463,-1.35411 -2.8478,-2.52037 -2.03431,-1.07428 -3.97785,-1.1251 l -0.0218,-0.002 q -0.0289,0 -0.0577,0 -2.68332,0 -4.18982,1.81019 -0.69956,0.85299 -1.1938,2.2875 h -0.0333 c -0.2227,0.10293 -0.47281,0.22901 -0.77335,0.38597 -0.8454,0.44001 -1.78253,1.02925 -2.07676,1.34124 -1.17618,1.2306 -2.07677,2.24183 -2.51774,2.79312 -0.25737,0.33194 -0.60661,0.64393 -0.80879,0.69925 -0.20199,0.0727 -0.73495,0.71661 -1.19457,1.43194 -0.47777,0.7372 -1.04758,1.61849 -1.28669,1.96844 -0.71642,1.08328 -0.99226,1.94721 -1.21284,3.89634 -0.42257,3.52711 -0.23879,5.98958 0.56975,7.66211 0.27578,0.57124 0.69841,1.13989 1.01079,1.32323 0.27584,0.16661 0.84552,0.77322 1.23149,1.34252 0.38597,0.55194 0.86367,1.17592 1.02906,1.37855 0.68014,0.73399 1.12117,1.25118 2.05869,2.35119 0.86366,1.04855 1.01059,1.15791 1.65387,1.15791 0.40437,0 0.8088,0.11064 0.93726,0.27789 0.12866,0.14474 0.3309,0.27533 0.45949,0.27533 0.38597,0 0.64341,0.45866 1.02906,1.83656 0.5704,2.07908 1.08058,2.93336 1.9456,2.93336 0.30575,0 0.65582,-0.10807 1.06868,-0.30427 0.2952,-0.13959 0.46329,-0.21228 0.63801,-0.21228 0.19485,0 0.39799,0.0901 0.79554,0.28433 0.90645,0.45415 1.8998,0.69731 2.80682,0.69731 0.19627,0 0.38842,-0.0116 0.5749,-0.0354 0.17607,-0.0199 0.33547,-0.0296 0.48291,-0.0296 0.39176,0 0.69861,0.0727 1.00564,0.23158 0.43042,0.22193 0.82514,0.33386 1.18255,0.33386 1.0012,0 1.70964,-0.86778 2.08879,-2.57569 0.44123,-2.07715 1.02918,-3.19839 2.15036,-4.13436 1.14574,-0.94884 1.84563,-1.4075 2.35923,-1.4075 0.44193,0 0.74594,0.33965 1.07749,1.00288 0.45962,0.90123 0.45962,0.99193 0.51482,6.34145 0.0918,6.91011 -0.12885,9.79587 -1.01098,13.15894 -1.23137,4.85033 -1.21303,4.59302 -0.97399,8.25071 0.11026,1.81984 0.27558,3.85968 0.36757,4.52097 0.31244,2.15241 0.77181,7.35205 0.86392,9.55657 0.12847,2.99575 -0.11025,4.26494 -0.99271,5.45952 -0.88193,1.21322 -1.6724,1.59726 -4.00654,1.96715 -1.01072,0.16403 -2.51767,0.45994 -3.32653,0.66193 -0.82693,0.20199 -2.44433,0.47667 -3.58371,0.62398 -1.1581,0.1293 -2.70171,0.4593 -3.45506,0.71662 -0.7352,0.25731 -1.78272,0.55129 -2.31581,0.62398 -1.04745,0.16725 -1.92977,0.62655 -1.92977,1.01123 0,0.14796 0.20225,0.44194 0.45943,0.68188 0.37915,0.36024 0.98152,0.53907 1.86345,0.53907 0.87094,0 2.01469,-0.17433 3.48484,-0.52234 1.32317,-0.31264 2.49934,-0.56995 2.60973,-0.56995 0.16538,0 0.66155,1.10387 0.53289,1.21387 -0.0367,0.0354 -0.64328,0.18205 -1.35989,0.33 -1.26817,0.27661 -5.55048,1.72785 -6.48761,2.20645 -0.53302,0.25732 -0.55142,0.8813 -0.0369,1.45124 0.16757,0.18591 0.35438,0.27919 0.91165,0.27919 0.5421,0 1.43503,-0.0901 3.0029,-0.25989 0.29797,-0.036 0.50986,-0.0566 0.66978,-0.0566 0.35316,0 0.45114,0.10743 0.65358,0.42392 0.25731,0.38469 0.47776,0.47667 1.02924,0.47667 0.38597,0 0.93726,-0.0727 1.23124,-0.16467 0.29398,-0.0914 1.21303,-0.312 2.04004,-0.49662 0.73957,-0.1531 1.19212,-0.22772 1.67529,-0.22772 0.38134,0 0.78159,0.0476 1.35726,0.13509 0.84533,0.11193 3.21608,0.24059 5.3115,0.24059 0.75238,0.006 1.35552,0.0129 1.84467,0.0129 1.88899,0 2.08101,-0.0785 2.62123,-0.40012 0.91899,-0.5693 2.64659,-2.70177 2.86723,-3.51102 0.0917,-0.34866 0.25706,-1.83656 0.36751,-3.28716 0.25712,-3.40038 0.97392,-9.74183 1.56214,-13.71087 0.66148,-4.44893 0.827,-6.85479 0.827,-12.49765 0,-3.08774 0.14699,-6.72742 0.36757,-9.64791 0.18378,-2.57441 0.47776,-6.37877 0.62482,-8.45592 0.16532,-2.07715 0.33064,-4.09898 0.38597,-4.50167 0.0553,-0.40334 0.11019,-2.42645 0.11019,-4.50296 0.0185,-2.07715 0.11045,-3.91565 0.20218,-4.09898 0.0921,-0.16533 0.55142,-0.51463 1.02919,-0.77194 0.47802,-0.25731 1.28656,-0.71726 1.78285,-1.01059 1.63566,-0.95656 3.63884,-2.00318 5.69721,-2.97839 1.12117,-0.53199 2.31574,-1.15597 2.66491,-1.39592 1.02912,-0.6986 2.68338,-2.37113 3.01416,-3.07101 0.16545,-0.34738 0.38609,-0.67866 0.47776,-0.73334 0.47802,-0.29463 1.13957,-3.18038 1.28662,-5.6049 0.0917,-1.36054 0.29398,-3.30775 0.44091,-4.31899 0.14731,-1.01059 0.27597,-2.1865 0.2943,-2.62844 0,-0.51462 0.22058,-1.21387 0.66161,-2.09516 0.67995,-1.34253 0.71662,-1.56188 1.47009,-6.85479 0.40443,-2.94108 0.58822,-5.80882 0.4411,-6.72743 -0.0735,-0.44 -0.4043,-1.89253 -0.71662,-3.19838 -0.60642,-2.46184 -1.06604,-4.61297 -1.5622,-7.16743 -0.14699,-0.8086 -0.56982,-2.66447 -0.93745,-4.13436 -0.36745,-1.4699 -0.69835,-2.99576 -0.77175,-3.41903 -0.092,-0.69732 -0.0552,-0.75264 0.42257,-0.95463 0.9006,-0.3493 2.18722,-0.58925 4.90714,-0.86393 5.88125,-0.60661 9.50182,-1.01059 9.99805,-1.10322 1.28656,-0.27661 4.8336,-1.25054 5.6606,-1.56189 0.51463,-0.18526 1.12085,-0.40526 1.37836,-0.45994 0.51462,-0.14731 4.4843,-1.67253 5.05406,-1.94721 0.42289,-0.20263 3.16107,-1.12124 4.87027,-1.63779 1.81965,-0.54936 3.6757,-1.54259 4.63162,-2.49914 1.01078,-0.97329 1.48855,-2.22382 1.78253,-4.66829 0.22064,-1.68989 0.12884,-2.31452 -0.47777,-3.54447 -0.47783,-0.93919 -3.63897,-4.24694 -4.55783,-4.74355 -0.29398,-0.16468 -1.15791,-0.6986 -1.89317,-1.15855 -0.75348,-0.45994 -1.39657,-0.84398 -1.43349,-0.84398 -0.0368,0 -0.51456,-0.27661 -1.04765,-0.62591 -3.01376,-1.92984 -3.62038,-2.29651 -4.44738,-2.75646 -0.49622,-0.29462 -0.99264,-0.58731 -1.10284,-0.66193 -0.23897,-0.16468 -4.79694,-2.77382 -5.42156,-3.08775 -0.25731,-0.12736 -0.62488,-0.33 -0.82707,-0.4593 -0.66148,-0.40462 -4.76007,-2.64645 -5.51374,-3.01376 -1.45188,-0.71597 -2.75671,-1.43259 -2.8487,-1.54195 -0.0551,-0.0579 -0.29398,-0.22257 -0.55116,-0.34994 -0.93739,-0.47989 -3.41852,-2.20709 -4.09853,-2.83108 -0.36764,-0.36731 -0.80854,-0.66193 -0.95559,-0.66193 -0.14732,0 -0.86374,-0.51398 -1.59894,-1.15791 -3.03255,-2.59113 -5.64228,-4.28167 -7.59045,-4.90758 -0.40449,-0.12801 -0.827,-0.29269 -0.91912,-0.38532 -0.11,-0.0746 -0.9186,-0.34931 -1.8008,-0.60662 -0.88232,-0.25667 -1.74599,-0.55129 -1.92977,-0.64392 -0.31244,-0.16468 -5.21938,-1.35796 -6.5246,-1.5799 -0.49597,-0.0727 -0.73507,-0.23994 -0.86367,-0.53263 -0.14692,-0.38597 -0.29397,-0.42328 -1.87451,-0.53392 -1.32349,-0.072 -2.20543,-0.25732 -3.95161,-0.84399 -1.4414,-0.49275 -2.28088,-0.73977 -2.88183,-0.73977 z" />
    </g>
  </g>
</svg>
